<?xml version="1.0" encoding="UTF-8"?>
<svg id="Layer_1" data-name="Layer 1" xmlns="http://www.w3.org/2000/svg" xmlns:xlink="http://www.w3.org/1999/xlink" viewBox="0 0 89.03 89.03">
  <defs>
    <style>
      .cls-1, .cls-2, .cls-3 {
        fill: none;
      }

      .cls-4 {
        clip-path: url(#clippath);
      }

      .cls-5 {
        fill: #f2e3d6;
      }

      .cls-6 {
        fill: #eaeaea;
      }

      .cls-7 {
        fill: #f5f5f5;
      }

      .cls-8 {
        fill: #e5d1c3;
      }

      .cls-9 {
        fill: #85b57d;
      }

      .cls-10 {
        fill: #66a;
      }

      .cls-11 {
        fill: #ceb272;
      }

      .cls-12 {
        fill: #bfbfbf;
      }

      .cls-13 {
        fill: #ddd;
      }

      .cls-14 {
        fill: #7575bc;
      }

      .cls-15 {
        fill: #4f4d47;
      }

      .cls-16 {
        fill: #51483f;
      }

      .cls-17 {
        clip-path: url(#clippath-1);
      }

      .cls-18 {
        clip-path: url(#clippath-2);
      }

      .cls-2 {
        stroke: #4f4d47;
        stroke-linecap: round;
        stroke-linejoin: round;
        stroke-width: .3px;
      }

      .cls-3 {
        stroke: #d3d3d3;
        stroke-miterlimit: 10;
        stroke-width: .2px;
      }
    </style>
    <clipPath id="clippath">
      <path class="cls-1" d="m31.69,45.96c-1-.55-2.05-.84-3.33-1.49-5.64,1.36-9.82,6.44-9.82,12.5v9.05h25.72v-9.05c0-5.84-3.89-10.77-9.22-12.34-1.34.57-2.32.86-3.34,1.33Z"/>
    </clipPath>
    <clipPath id="clippath-1">
      <path class="cls-1" d="m58.7,45.96c-1-.55-2.05-.84-3.33-1.49-5.64,1.36-9.82,6.44-9.82,12.5v9.05h25.72v-9.05c0-5.84-3.89-10.77-9.22-12.34-1.34.57-2.32.86-3.34,1.33Z"/>
    </clipPath>
    <clipPath id="clippath-2">
      <path class="cls-1" d="m45.23,48.68c-1-.55-2.05-.84-3.33-1.49-5.64,1.36-9.82,6.44-9.82,12.5v9.05h25.72v-9.05c0-5.84-3.89-10.77-9.22-12.34-1.34.57-2.32.86-3.34,1.33Z"/>
    </clipPath>
  </defs>
  <circle class="cls-7" cx="44.44" cy="44.52" r="44.52"/>
  <circle class="cls-8" cx="31.4" cy="35.61" r="7.15"/>
  <rect class="cls-8" x="29.35" y="36.8" width="4.69" height="9.16"/>
  <path class="cls-2" d="m31.02,38.19s.81.33,1.45,0"/>
  <path class="cls-13" d="m31.69,45.96c-.91-.55-1.22-.82-2.34-1.49-6.39.64-10.82,6.44-10.82,12.5v9.05h25.72v-9.05c0-5.84-4.21-11.41-10.21-12.5-.91.56-1.55,1.01-2.35,1.49Z"/>
  <g class="cls-4">
    <polygon class="cls-10" points="38.02 45.96 38.02 53.25 24.77 53.25 24.77 45.96 21.89 45.96 21.89 53.25 21.89 55.06 21.89 66.01 40.9 66.01 40.9 55.06 40.9 53.25 40.9 45.96 38.02 45.96"/>
  </g>
  <circle class="cls-8" cx="58.4" cy="35.61" r="7.15"/>
  <rect class="cls-8" x="56.36" y="36.8" width="4.69" height="9.16"/>
  <path class="cls-13" d="m58.7,45.96c-.91-.55-1.22-.82-2.34-1.49-6.39.64-10.82,6.44-10.82,12.5v9.05h25.72v-9.05c0-5.84-4.21-11.41-10.21-12.5-.91.56-1.55,1.01-2.35,1.49Z"/>
  <g class="cls-17">
    <polygon class="cls-10" points="65.03 45.96 65.03 53.25 51.77 53.25 51.77 45.96 48.89 45.96 48.89 53.25 48.89 55.06 48.89 66.01 67.91 66.01 67.91 55.06 67.91 53.25 67.91 45.96 65.03 45.96"/>
  </g>
  <path class="cls-2" d="m58.02,38.19s.81.33,1.45,0"/>
  <path class="cls-9" d="m65.99,34.28c0-4.19-3.4-7.58-7.58-7.58s-7.58,3.4-7.58,7.58h15.17Z"/>
  <path class="cls-9" d="m65.35,33.93c.43-.34,1.24-.52,1.75-.27s.71.87.45,1.38-.87.71-1.38.45-.8-.9-.82-1.56Z"/>
  <path class="cls-9" d="m65.51,33.88c-.18-.52-.09-1.34.32-1.74s1.06-.38,1.45.03.38,1.06-.03,1.45-1.11.46-1.75.26Z"/>
  <line class="cls-3" x1="31.69" y1="45.96" x2="31.69" y2="48.05"/>
  <circle class="cls-12" cx="31.07" cy="47" r=".2"/>
  <circle class="cls-12" cx="31.07" cy="47.85" r=".2"/>
  <path class="cls-16" d="m38.85,34.91c0-4.12-3.34-7.45-7.45-7.45s-7.45,3.34-7.45,7.45h14.91Z"/>
  <path class="cls-5" d="m17.18,48.51h.78c1.18,0,2.15.96,2.15,2.15v3.53h-5.07v-3.53c0-1.18.96-2.15,2.15-2.15Z" transform="translate(-27.69 21.41) rotate(-37.63)"/>
  <rect class="cls-5" x="19.19" y="48.95" width="1.59" height="2.35" rx=".67" ry=".67"/>
  <path class="cls-6" d="m34.87,51.74l6.57,2.62c-1.35,3.2-3.87,5.91-7.28,7.45-7.17,3.22-15.6.02-18.82-7.16l6.45-2.9c1.62,3.61,5.86,5.22,9.47,3.6,1.67-.75,2.92-2.06,3.61-3.62"/>
  <circle class="cls-5" cx="44.93" cy="38.33" r="7.15"/>
  <rect class="cls-5" x="42.89" y="39.52" width="4.69" height="9.16"/>
  <path class="cls-6" d="m45.23,48.68c-.91-.55-1.22-.82-2.34-1.49-6.39.64-10.82,6.44-10.82,12.5v9.05h25.72v-9.05c0-5.84-4.21-11.41-10.21-12.5-.91.56-1.55,1.01-2.35,1.49Z"/>
  <g class="cls-18">
    <polygon class="cls-14" points="51.56 48.68 51.56 55.98 38.31 55.98 38.31 48.68 35.43 48.68 35.43 55.98 35.43 57.78 35.43 68.73 54.44 68.73 54.44 57.78 54.44 55.98 54.44 48.68 51.56 48.68"/>
  </g>
  <rect class="cls-15" x="42.8" y="38.71" width="1" height="1.39" rx=".42" ry=".42"/>
  <rect class="cls-15" x="46.58" y="38.71" width="1" height="1.39" rx=".42" ry=".42"/>
  <path class="cls-2" d="m44.51,40.59s.81.33,1.45,0"/>
  <path class="cls-11" d="m52.29,34.28h-15.22l.85-7.92c.19-1.76,1.97-3.11,4.09-3.11h5.33c2.13,0,3.9,1.35,4.09,3.11l.85,7.92Z"/>
  <rect class="cls-11" x="24.94" y="33.84" width="38.77" height="3.7" rx="1.57" ry="1.57"/>
  <circle class="cls-8" cx="24.16" cy="35.98" r="1.07"/>
  <path class="cls-16" d="m26.2,42.71c-.42.42-1.1.42-1.52,0s-.42-1.1,0-1.52,1.18-.62,1.82-.31c.31.69.11,1.41-.31,1.82Z"/>
</svg>