<?xml version="1.0" encoding="UTF-8"?>
<svg id="Layer_1" data-name="Layer 1" xmlns="http://www.w3.org/2000/svg" viewBox="0 0 89.03 89.03">
  <defs>
    <style>
      .cls-1 {
        fill: #f5f5f5;
      }

      .cls-2 {
        fill: #b0e591;
      }

      .cls-3 {
        fill: #6d5e5c;
      }

      .cls-4 {
        fill: #845e57;
      }
    </style>
  </defs>
  <circle class="cls-1" cx="44.37" cy="44.52" r="44.52"/>
  <g>
    <circle class="cls-4" cx="28.4" cy="50.78" r="5.39"/>
    <circle class="cls-4" cx="28.29" cy="50.67" r="5.39"/>
    <circle class="cls-4" cx="28.19" cy="50.55" r="5.39"/>
    <circle class="cls-4" cx="28.08" cy="50.44" r="5.39"/>
    <circle class="cls-4" cx="27.98" cy="50.32" r="5.39"/>
    <circle class="cls-4" cx="27.88" cy="50.21" r="5.39"/>
    <circle class="cls-4" cx="27.78" cy="50.09" r="5.39"/>
    <circle class="cls-4" cx="27.69" cy="49.98" r="5.39"/>
    <circle class="cls-4" cx="27.59" cy="49.86" r="5.39"/>
    <circle class="cls-4" cx="27.5" cy="49.75" r="5.39"/>
    <circle class="cls-4" cx="27.41" cy="49.64" r="5.39"/>
    <circle class="cls-4" cx="27.32" cy="49.52" r="5.39"/>
    <circle class="cls-4" cx="27.23" cy="49.41" r="5.39"/>
    <circle class="cls-4" cx="27.15" cy="49.3" r="5.39"/>
    <circle class="cls-4" cx="27.06" cy="49.19" r="5.39"/>
    <circle class="cls-4" cx="26.98" cy="49.08" r="5.39"/>
    <circle class="cls-4" cx="26.9" cy="48.96" r="5.39"/>
    <circle class="cls-4" cx="26.83" cy="48.85" r="5.39"/>
    <circle class="cls-4" cx="26.75" cy="48.74" r="5.39"/>
    <circle class="cls-4" cx="26.68" cy="48.63" r="5.39"/>
    <circle class="cls-4" cx="26.6" cy="48.52" r="5.39"/>
    <circle class="cls-4" cx="26.53" cy="48.41" r="5.39"/>
    <circle class="cls-4" cx="26.47" cy="48.3" r="5.39"/>
    <circle class="cls-4" cx="26.4" cy="48.19" r="5.39"/>
    <circle class="cls-4" cx="26.33" cy="48.08" r="5.39"/>
    <circle class="cls-4" cx="26.27" cy="47.98" r="5.39"/>
    <circle class="cls-4" cx="26.21" cy="47.87" r="5.39"/>
    <circle class="cls-4" cx="26.15" cy="47.76" r="5.39"/>
    <circle class="cls-4" cx="26.09" cy="47.65" r="5.39"/>
    <circle class="cls-4" cx="26.03" cy="47.55" r="5.39"/>
    <circle class="cls-4" cx="25.97" cy="47.44" r="5.39"/>
    <circle class="cls-4" cx="25.92" cy="47.33" r="5.39"/>
    <circle class="cls-4" cx="25.87" cy="47.23" r="5.39"/>
    <circle class="cls-4" cx="25.81" cy="47.12" r="5.39"/>
    <circle class="cls-4" cx="25.76" cy="47.02" r="5.39"/>
    <circle class="cls-4" cx="25.72" cy="46.91" r="5.39"/>
    <circle class="cls-4" cx="25.67" cy="46.81" r="5.39"/>
    <circle class="cls-4" cx="25.62" cy="46.71" r="5.39"/>
    <circle class="cls-4" cx="25.58" cy="46.6" r="5.39"/>
    <circle class="cls-4" cx="25.54" cy="46.5" r="5.39"/>
    <circle class="cls-4" cx="25.5" cy="46.4" r="5.39"/>
    <circle class="cls-4" cx="25.46" cy="46.3" r="5.39"/>
    <circle class="cls-4" cx="25.42" cy="46.19" r="5.39"/>
    <circle class="cls-4" cx="25.38" cy="46.09" r="5.39"/>
    <circle class="cls-4" cx="25.35" cy="45.99" r="5.39"/>
    <circle class="cls-4" cx="25.31" cy="45.89" r="5.39"/>
    <circle class="cls-4" cx="25.28" cy="45.79" r="5.39"/>
    <circle class="cls-4" cx="25.25" cy="45.69" r="5.39"/>
    <circle class="cls-4" cx="25.22" cy="45.6" r="5.39"/>
    <circle class="cls-4" cx="25.19" cy="45.5" r="5.39"/>
    <circle class="cls-4" cx="25.16" cy="45.4" r="5.39"/>
    <circle class="cls-4" cx="25.13" cy="45.3" r="5.39"/>
    <circle class="cls-4" cx="25.11" cy="45.21" r="5.39"/>
    <circle class="cls-4" cx="25.08" cy="45.11" r="5.39"/>
    <circle class="cls-4" cx="25.06" cy="45.02" r="5.39"/>
    <circle class="cls-4" cx="25.04" cy="44.92" r="5.39"/>
    <circle class="cls-4" cx="25.02" cy="44.83" r="5.39"/>
    <circle class="cls-4" cx="25" cy="44.73" r="5.39"/>
    <circle class="cls-4" cx="24.98" cy="44.64" r="5.39"/>
    <circle class="cls-4" cx="24.96" cy="44.55" r="5.39"/>
    <circle class="cls-4" cx="24.94" cy="44.45" r="5.39"/>
    <circle class="cls-4" cx="24.93" cy="44.36" r="5.39"/>
    <circle class="cls-4" cx="24.91" cy="44.27" r="5.39"/>
    <circle class="cls-4" cx="24.9" cy="44.18" r="5.39"/>
    <circle class="cls-4" cx="24.87" cy="43.99" r="5.39"/>
    <circle class="cls-4" cx="24.85" cy="43.78" r="5.39"/>
    <circle class="cls-4" cx="24.83" cy="43.58" r="5.39"/>
    <circle class="cls-4" cx="24.82" cy="43.38" r="5.39"/>
    <circle class="cls-4" cx="24.81" cy="43.19" r="5.39"/>
    <circle class="cls-4" cx="24.81" cy="43" r="5.39"/>
    <circle class="cls-4" cx="24.81" cy="42.81" r="5.39"/>
    <circle class="cls-4" cx="24.81" cy="42.62" r="5.39"/>
    <circle class="cls-4" cx="24.82" cy="42.44" r="5.39"/>
    <circle class="cls-4" cx="24.83" cy="42.26" r="5.39"/>
    <circle class="cls-4" cx="24.85" cy="42.09" r="5.39"/>
    <circle class="cls-4" cx="24.86" cy="41.92" r="5.39"/>
    <circle class="cls-4" cx="24.89" cy="41.75" r="5.39"/>
    <circle class="cls-4" cx="24.91" cy="41.59" r="5.39"/>
    <circle class="cls-4" cx="24.93" cy="41.43" r="5.39"/>
    <circle class="cls-4" cx="24.96" cy="41.28" r="5.39"/>
    <circle class="cls-4" cx="24.99" cy="41.13" r="5.39"/>
    <circle class="cls-4" cx="25.03" cy="40.98" r="5.39"/>
    <circle class="cls-4" cx="25.06" cy="40.84" r="5.39"/>
    <circle class="cls-4" cx="25.1" cy="40.7" r="5.39"/>
    <circle class="cls-4" cx="25.13" cy="40.57" r="5.39"/>
    <circle class="cls-4" cx="25.17" cy="40.44" r="5.39"/>
    <circle class="cls-4" cx="25.21" cy="40.32" r="5.39"/>
    <circle class="cls-4" cx="25.25" cy="40.2" r="5.39"/>
    <circle class="cls-4" cx="25.29" cy="40.09" r="5.39"/>
    <circle class="cls-4" cx="25.33" cy="39.98" r="5.39"/>
    <circle class="cls-4" cx="25.37" cy="39.87" r="5.39"/>
    <circle class="cls-4" cx="25.41" cy="39.77" r="5.39"/>
    <circle class="cls-4" cx="25.44" cy="39.68" r="5.39"/>
    <circle class="cls-4" cx="25.48" cy="39.59" r="5.39"/>
    <circle class="cls-4" cx="25.52" cy="39.5" r="5.39"/>
    <circle class="cls-4" cx="25.56" cy="39.42" r="5.39"/>
    <circle class="cls-4" cx="25.59" cy="39.35" r="5.39"/>
    <circle class="cls-4" cx="25.63" cy="39.28" r="5.39"/>
    <circle class="cls-4" cx="25.66" cy="39.22" r="5.39"/>
    <circle class="cls-4" cx="25.69" cy="39.16" r="5.39"/>
    <circle class="cls-4" cx="25.72" cy="39.11" r="5.39"/>
    <circle class="cls-4" cx="25.44" cy="39.7" r="5.39"/>
    <circle class="cls-4" cx="25.74" cy="39.06" r="5.38"/>
    <circle class="cls-4" cx="25.75" cy="39.05" r="5.37"/>
    <circle class="cls-4" cx="25.75" cy="39.05" r="5.36"/>
    <circle class="cls-4" cx="25.75" cy="39.05" r="5.35"/>
    <circle class="cls-4" cx="25.75" cy="39.05" r="5.34"/>
    <circle class="cls-4" cx="25.75" cy="39.04" r="5.33"/>
    <circle class="cls-4" cx="25.75" cy="39.04" r="5.32"/>
    <circle class="cls-4" cx="25.76" cy="39.04" r="5.31"/>
    <circle class="cls-4" cx="25.76" cy="39.03" r="5.3"/>
    <circle class="cls-4" cx="25.76" cy="39.03" r="5.29"/>
    <circle class="cls-4" cx="25.76" cy="39.03" r="5.28"/>
    <circle class="cls-4" cx="25.76" cy="39.02" r="5.27"/>
    <circle class="cls-4" cx="25.76" cy="39.02" r="5.26"/>
    <circle class="cls-4" cx="25.77" cy="39.02" r="5.25"/>
    <circle class="cls-4" cx="25.77" cy="39.02" r="5.24"/>
    <circle class="cls-4" cx="25.77" cy="39.01" r="5.23"/>
    <circle class="cls-4" cx="25.77" cy="39.01" r="5.23"/>
    <circle class="cls-4" cx="25.77" cy="39.01" r="5.22"/>
    <circle class="cls-4" cx="25.77" cy="39" r="5.21"/>
    <circle class="cls-4" cx="25.78" cy="39" r="5.2"/>
    <circle class="cls-4" cx="25.78" cy="39" r="5.19"/>
    <circle class="cls-4" cx="25.78" cy="39" r="5.18"/>
    <circle class="cls-4" cx="25.78" cy="38.99" r="5.17"/>
    <circle class="cls-4" cx="25.78" cy="38.99" r="5.16"/>
    <circle class="cls-4" cx="25.78" cy="38.99" r="5.15"/>
    <circle class="cls-4" cx="25.78" cy="38.99" r="5.14"/>
    <circle class="cls-4" cx="25.79" cy="38.98" r="5.13"/>
    <circle class="cls-4" cx="25.79" cy="38.98" r="5.12"/>
    <circle class="cls-4" cx="25.79" cy="38.98" r="5.11"/>
    <circle class="cls-4" cx="25.79" cy="38.98" r="5.1"/>
    <circle class="cls-4" cx="25.79" cy="38.97" r="5.09"/>
    <circle class="cls-4" cx="25.79" cy="38.97" r="5.08"/>
    <circle class="cls-4" cx="25.79" cy="38.97" r="5.07"/>
    <circle class="cls-4" cx="25.8" cy="38.97" r="5.06"/>
    <circle class="cls-4" cx="25.8" cy="38.97" r="5.05"/>
    <circle class="cls-4" cx="25.8" cy="38.96" r="5.05"/>
    <circle class="cls-4" cx="25.8" cy="38.96" r="5.04"/>
    <circle class="cls-4" cx="25.8" cy="38.96" r="5.03"/>
    <circle class="cls-4" cx="25.8" cy="38.96" r="5.02"/>
    <circle class="cls-4" cx="25.8" cy="38.95" r="5.01"/>
    <circle class="cls-4" cx="25.8" cy="38.95" r="5"/>
    <circle class="cls-4" cx="25.81" cy="38.95" r="4.99"/>
    <circle class="cls-4" cx="25.81" cy="38.95" r="4.98"/>
    <circle class="cls-4" cx="25.81" cy="38.95" r="4.97"/>
    <circle class="cls-4" cx="25.81" cy="38.94" r="4.96"/>
    <circle class="cls-4" cx="25.81" cy="38.94" r="4.95"/>
    <circle class="cls-4" cx="25.81" cy="38.94" r="4.94"/>
    <circle class="cls-4" cx="25.81" cy="38.94" r="4.93"/>
    <circle class="cls-4" cx="25.81" cy="38.94" r="4.92"/>
    <circle class="cls-4" cx="25.81" cy="38.94" r="4.91"/>
    <circle class="cls-4" cx="25.82" cy="38.93" r="4.9"/>
    <circle class="cls-4" cx="25.82" cy="38.93" r="4.89"/>
    <circle class="cls-4" cx="25.82" cy="38.93" r="4.88"/>
    <circle class="cls-4" cx="25.82" cy="38.93" r="4.87"/>
    <circle class="cls-4" cx="25.82" cy="38.93" r="4.86"/>
    <circle class="cls-4" cx="25.82" cy="38.93" r="4.86"/>
    <circle class="cls-4" cx="25.82" cy="38.92" r="4.85"/>
    <circle class="cls-4" cx="25.82" cy="38.92" r="4.84"/>
    <circle class="cls-4" cx="25.82" cy="38.92" r="4.83"/>
    <circle class="cls-4" cx="25.82" cy="38.92" r="4.82"/>
    <circle class="cls-4" cx="25.82" cy="38.92" r="4.81"/>
    <circle class="cls-4" cx="25.83" cy="38.92" r="4.8"/>
    <circle class="cls-4" cx="25.83" cy="38.92" r="4.79"/>
    <circle class="cls-4" cx="25.83" cy="38.92" r="4.78"/>
    <circle class="cls-4" cx="25.83" cy="38.91" r="4.77"/>
    <circle class="cls-4" cx="25.83" cy="38.91" r="4.76"/>
    <circle class="cls-4" cx="25.83" cy="38.91" r="4.75"/>
    <circle class="cls-4" cx="25.83" cy="38.91" r="4.74"/>
    <circle class="cls-4" cx="25.83" cy="38.91" r="4.73"/>
    <circle class="cls-4" cx="25.83" cy="38.91" r="4.72"/>
    <circle class="cls-4" cx="25.83" cy="38.91" r="4.71"/>
    <circle class="cls-4" cx="25.83" cy="38.91" r="4.7"/>
    <circle class="cls-4" cx="25.83" cy="38.91" r="4.69"/>
    <circle class="cls-4" cx="25.83" cy="38.9" r="4.68"/>
    <circle class="cls-4" cx="25.83" cy="38.9" r="4.67"/>
    <circle class="cls-4" cx="25.84" cy="38.9" r="4.67"/>
    <circle class="cls-4" cx="25.84" cy="38.9" r="4.66"/>
    <circle class="cls-4" cx="25.84" cy="38.9" r="4.65"/>
    <circle class="cls-4" cx="25.84" cy="38.9" r="4.64"/>
    <circle class="cls-4" cx="25.84" cy="38.9" r="4.63"/>
    <circle class="cls-4" cx="25.84" cy="38.9" r="4.62"/>
    <circle class="cls-4" cx="25.84" cy="38.9" r="4.61"/>
    <circle class="cls-4" cx="25.84" cy="38.9" r="4.6"/>
    <circle class="cls-4" cx="25.84" cy="38.9" r="4.59"/>
    <circle class="cls-4" cx="25.84" cy="38.9" r="4.58"/>
    <circle class="cls-4" cx="25.84" cy="38.9" r="4.57"/>
    <circle class="cls-4" cx="25.84" cy="38.9" r="4.56"/>
    <circle class="cls-4" cx="25.84" cy="38.9" r="4.55"/>
    <circle class="cls-4" cx="25.84" cy="38.89" r="4.54"/>
    <circle class="cls-4" cx="25.84" cy="38.89" r="4.53"/>
    <circle class="cls-4" cx="25.84" cy="38.89" r="4.52"/>
    <circle class="cls-4" cx="25.84" cy="38.89" r="4.51"/>
    <circle class="cls-4" cx="25.81" cy="38.96" r="4.5"/>
    <circle class="cls-4" cx="25.81" cy="38.95" r="4.49"/>
    <circle class="cls-4" cx="25.82" cy="38.94" r="4.49"/>
    <circle class="cls-4" cx="25.82" cy="38.93" r="4.48"/>
    <circle class="cls-4" cx="25.83" cy="38.92" r="4.47"/>
    <circle class="cls-4" cx="25.83" cy="38.92" r="4.46"/>
    <circle class="cls-4" cx="25.83" cy="38.91" r="4.45"/>
    <circle class="cls-4" cx="25.84" cy="38.9" r="4.44"/>
    <circle class="cls-4" cx="25.84" cy="38.89" r="4.43"/>
  </g>
  <path class="cls-3" d="m68.67,47.86c-1.42,3.26-5.22,4.76-8.48,3.33s-4.76-5.22-3.33-8.48c.96-2.21,3.38-4.25,5.96-5.3,2.22-.9,4.82.24,5.67,2.47.99,2.61,1.14,5.77.18,7.97Z"/>
  <circle class="cls-2" cx="45.97" cy="54.35" r="5.25"/>
</svg>