<?xml version="1.0" encoding="UTF-8"?>
<svg id="Layer_1" data-name="Layer 1" xmlns="http://www.w3.org/2000/svg" viewBox="0 0 243 78">
  <defs>
    <style>
      .cls-1 {
        fill: #f7f9f7;
      }

      .cls-2 {
        fill: #69b56d;
      }

      .cls-3 {
        fill: #ed7f62;
      }

      .cls-4 {
        fill: #efb054;
      }

      .cls-5 {
        fill: #e8f9ea;
      }

      .cls-6 {
        fill: #e8cf95;
      }

      .cls-7 {
        fill: #fff;
      }

      .cls-8 {
        fill: #8ad67b;
      }

      .cls-9 {
        fill: #95cace;
      }

      .cls-10 {
        fill: #5aaf60;
      }

      .cls-11 {
        fill: #75c67b;
      }

      .cls-12 {
        fill: #56b784;
        stroke: #56b784;
        stroke-miterlimit: 10;
      }

      .cls-13 {
        fill: none;
        stroke: #e8f9ea;
        stroke-linecap: round;
        stroke-linejoin: round;
        stroke-width: .5px;
      }
    </style>
  </defs>
  <rect class="cls-7" width="243" height="78"/>
  <path class="cls-9" d="m92.01,34.21h4.5v11c0,.09-.01.19-.04.3-.04.18-.06.37-.06.56,0,.22.07.55.4.84.24.21.54.32.85.32.29,0,.57-.11.82-.32.33-.29.4-.61.4-.84,0-.19-.02-.38-.06-.56-.02-.1-.04-.2-.04-.3v-19.32c0-.09.01-.19.04-.3.04-.18.06-.36.06-.56,0-.32-.14-.61-.4-.84-.5-.43-1.2-.4-1.67,0-.27.23-.41.52-.41.84,0,.19.02.38.06.56.02.11.04.21.04.3v6.4h-4.5c-.31,0-.56.09-.75.28-.18.18-.28.42-.28.68s.1.5.28.68c.18.19.44.28.75.28Z"/>
  <path class="cls-9" d="m86.77,40.99c1.28-.73,2.29-1.77,3-3.07.71-1.29,1.06-2.78,1.06-4.41s-.36-3.12-1.06-4.41c-.71-1.3-1.71-2.33-2.98-3.05-1.27-.72-2.75-1.08-4.4-1.08s-3.14.36-4.42,1.08c-1.28.72-2.29,1.75-3,3.06-.71,1.3-1.06,2.78-1.06,4.41s.36,3.12,1.06,4.41c.71,1.3,1.73,2.34,3.02,3.07,1.29.73,2.77,1.1,4.4,1.1s3.11-.37,4.39-1.1Zm-7.54-1.65c-.93-.55-1.68-1.34-2.23-2.35-.55-1.02-.83-2.19-.83-3.48s.28-2.45.83-3.46c.54-1,1.3-1.79,2.23-2.34.94-.55,1.99-.83,3.15-.83s2.2.28,3.13.83c.93.55,1.67,1.34,2.22,2.34.55,1,.83,2.17.83,3.46s-.28,2.46-.83,3.48c-.55,1.01-1.29,1.8-2.22,2.36-1.85,1.11-4.41,1.11-6.27,0Z"/>
  <path class="cls-9" d="m98.13,51.59c-1.27.78-2.75,1.39-4.4,1.81-1.66.43-3.33.64-4.97.64-2.41,0-4.29-.43-5.58-1.27-1.39-.9-2.07-2.26-2.07-4.18v-1.61c0-.09.01-.19.04-.3.04-.18.06-.36.06-.56,0-.32-.14-.61-.4-.84-.5-.43-1.2-.4-1.67,0-.26.23-.4.52-.4.84,0,.19.02.38.06.56.02.11.04.21.04.3v1.64c0,1.43.31,2.66.93,3.66.61,1.01,1.47,1.79,2.53,2.34,1.66.87,3.8,1.3,6.34,1.3,1.85,0,3.73-.24,5.58-.72,1.86-.48,3.53-1.18,4.96-2.08.47-.28.57-.64.57-.89,0-.16-.05-.41-.3-.62-.35-.3-.82-.32-1.32-.03Z"/>
  <path class="cls-9" d="m121.35,44.26c-1.09.72-2.28,1.26-3.53,1.63-2.17.64-4.36.72-6.14.26-.74-.19-1.38-.48-1.93-.86-.69-.47-1.22-1.1-1.57-1.88-.36-.8-.55-1.83-.55-3.06v-11.9c0-.09.01-.19.04-.3.04-.18.06-.36.06-.56,0-.22-.07-.55-.4-.84-.5-.43-1.21-.4-1.67,0-.33.29-.4.61-.4.84,0,.19.02.38.06.56.02.1.04.2.04.3v11.93c0,1.59.29,2.94.86,4.03.58,1.1,1.46,1.99,2.61,2.65,1.45.83,3.22,1.25,5.24,1.25,1.4,0,2.83-.21,4.26-.63,1.43-.42,2.78-1.03,4-1.82.51-.34.62-.74.62-1.01,0-.22-.08-.42-.25-.58-.31-.31-.8-.34-1.35,0Z"/>
  <path class="cls-9" d="m128.73,25.59c.04-.18.06-.36.06-.56,0-.32-.14-.61-.4-.84-.5-.43-1.21-.4-1.67,0-.27.23-.41.52-.41.84,0,.19.02.38.06.55.02.11.04.21.04.3v28.3c0,.09-.01.19-.04.3-.04.18-.06.37-.06.56,0,.23.07.55.4.84.24.21.54.32.85.32.29,0,.58-.11.82-.32.33-.29.4-.62.4-.84,0-.19-.02-.38-.06-.56-.02-.1-.04-.21-.04-.3v-28.3c0-.09.01-.19.04-.3Z"/>
  <path class="cls-9" d="m147.06,44.79c-.79.66-1.64,1.17-2.53,1.51-.89.34-1.78.51-2.63.51-1.25,0-2.24-.33-3.04-1-.86-.71-1.3-1.96-1.3-3.72v-13.64c0-.09.01-.19.04-.3.04-.18.06-.37.06-.56,0-.22-.07-.55-.4-.84-.51-.44-1.2-.4-1.67,0-.26.23-.4.52-.4.84,0,.19.02.38.06.56.02.1.04.21.04.3v13.67c0,1.18.21,2.26.62,3.21.42.97,1.04,1.74,1.84,2.27,1.11.73,2.48,1.1,4.09,1.1,1.19,0,2.38-.22,3.51-.64,1.14-.43,2.14-1.04,2.95-1.84.29-.28.34-.58.34-.78,0-.23-.08-.45-.24-.63-.31-.35-.7-.47-1.34-.02Z"/>
  <path class="cls-9" d="m159.79,25.59c.04-.18.06-.36.06-.56,0-.32-.14-.61-.4-.84-.5-.43-1.21-.4-1.67,0-.27.23-.41.52-.41.84,0,.19.02.38.06.56.02.1.04.2.04.3v28.3c0,.09-.01.19-.04.3-.04.18-.06.36-.06.56,0,.23.07.55.41.84.24.21.54.32.85.32.29,0,.58-.11.82-.32.33-.29.41-.62.41-.84,0-.19-.02-.38-.06-.56-.02-.1-.04-.2-.04-.3v-28.3c0-.1.01-.2.04-.3Z"/>
  <path class="cls-9" d="m153.67,25.75c.04-.18.06-.36.06-.56,0-.32-.14-.61-.4-.84-.51-.43-1.21-.4-1.67,0-.34.29-.41.62-.41.84,0,.18.02.37.06.56.03.11.04.21.04.3v8.96h-6.01c-.31,0-.56.09-.75.28-.18.18-.28.42-.28.68s.1.5.28.68c.18.18.44.28.75.28h6.01v16.79c0,.09-.01.19-.04.3-.04.18-.06.37-.06.55,0,.32.14.62.4.84.24.21.54.32.85.32.3,0,.57-.11.82-.32.26-.23.4-.52.4-.84,0-.19-.02-.38-.06-.56-.02-.1-.04-.2-.04-.3v-27.67c0-.1.01-.19.04-.3Z"/>
  <path class="cls-12" d="m196.81,53.4c-.12-.05-.21-.08-.19-.07-2.98-1.92-5.68-3.69-7.99-5.27-.77-.57-1.32-.64-1.71-.25-.23.23-.28.46-.28.62,0,.46.4.81.7,1.03l4.08,2.89c1.59,1.11,2.92,2.05,3.98,2.83,0,0,.05.04.13.13.12.13.22.23.38.33.2.1.4.15.58.15.43,0,.78-.18,1.04-.57.1-.2.15-.41.15-.62,0-.49-.22-.78-.43-.96-.12-.09-.28-.17-.46-.25Z"/>
  <path class="cls-12" d="m188.8,33.04c.18.19.44.28.75.28h4.82v9.69c0,.1-.01.2-.04.3-.04.18-.06.37-.06.56,0,.22.07.55.4.84.25.21.53.32.85.32.3,0,.57-.11.82-.32.33-.29.4-.62.4-.84,0-.19-.02-.38-.06-.55-.02-.11-.04-.21-.04-.3v-17.12c0-.09.01-.19.04-.3.04-.18.06-.37.06-.56,0-.22-.07-.55-.41-.84-.51-.43-1.2-.4-1.67,0-.33.29-.41.62-.41.84,0,.19.02.38.06.56.02.1.04.2.04.3v5.51h-4.82c-.39,0-.62.15-.75.28-.18.18-.28.42-.28.68s.1.5.28.68Z"/>
  <path class="cls-12" d="m188.78,45.4c.17-.09.3-.18.41-.25.3-.23.46-.56.46-.96,0-.36-.14-.68-.38-.88-.43-.43-1.22-.4-1.7.07-.09.1-.19.23-.3.4-.08.12-.13.17-.15.19-1.1.9-2.57,2.19-4.39,3.83-1.82,1.64-3.83,3.57-5.95,5.72,0,0-.04.03-.15.08h0c-.22.11-.38.26-.5.45-.11.19-.17.41-.17.65,0,.29.08.54.25.76.14.18.4.4.88.4.45,0,.82-.19,1.07-.55.05-.07.11-.17.17-.28.04-.08.07-.1.07-.11,2.04-2.08,4.07-4.06,6.04-5.86,1.96-1.8,3.32-2.97,4.05-3.49.07-.05.17-.11.28-.17Z"/>
  <path class="cls-12" d="m181.07,41.24c1.43,0,2.9-.16,4.36-.49,1.46-.32,2.85-.79,4.15-1.41.57-.31.69-.7.69-.97,0-.38-.24-.83-.93-.83-.17,0-.37.04-.64.15-1.14.55-2.37.98-3.64,1.26-1.27.29-2.54.43-3.77.43-1.68,0-3.13-.25-4.31-.75-.7-.28-1.2-.73-1.52-1.36-.33-.66-.5-1.66-.5-2.98v-.72h11.53c.3,0,.55-.09.74-.26.21-.18.32-.43.32-.7s-.11-.52-.32-.7c-.19-.17-.44-.26-.74-.26h-11.53v-3.73h12.58c.3,0,.55-.09.74-.26.21-.18.32-.43.32-.7s-.11-.52-.32-.7c-.19-.17-.44-.26-.74-.26h-12.59c-.25,0-.32-.02-.33-.03-.78-.32-1.32-.25-1.71.17h0c-.21.24-.33.53-.33.85,0,.17.02.35.06.52.02.1.04.2.04.3v6.51c0,1.68.28,3.02.82,3.98.56.99,1.48,1.72,2.73,2.18,1.41.5,3.03.75,4.83.75Z"/>
  <path class="cls-12" d="m216.47,37.94c1.36-1.1,2.04-2.87,2.04-5.25v-5.26c0-.1.01-.2.04-.3.04-.18.06-.37.06-.56,0-.23-.07-.55-.41-.84-.51-.43-1.2-.4-1.67,0-.33.29-.41.62-.41.84,0,.19.02.38.06.55.02.11.04.21.04.3v2.62c-2.15-.37-3.99-.56-5.48-.56-2.59,0-4.56.48-5.88,1.43v-3.49c0-.09.01-.19.04-.3.04-.18.06-.37.06-.55,0-.32-.14-.61-.41-.84-.51-.43-1.2-.4-1.67,0-.26.23-.4.52-.4.84,0,.19.02.38.06.56.02.1.04.21.04.3v6.31c0,1.89.66,3.35,1.95,4.35,1.26.98,3.25,1.47,5.91,1.47s4.69-.55,6.02-1.62Zm-11.6-3.48c.06-.91.52-1.61,1.43-2.15.97-.57,2.45-.87,4.41-.87,1.51,0,3.36.2,5.51.6v.64c0,1.81-.45,3.09-1.34,3.82-.92.75-2.41,1.14-4.43,1.14-3.62,0-5.45-1.06-5.58-3.18Z"/>
  <path class="cls-12" d="m229.99,31.52c-.19-.17-.44-.26-.74-.26h-4v-5.38c0-.09.01-.19.04-.3.04-.18.06-.37.06-.55,0-.32-.14-.61-.41-.84-.51-.43-1.2-.4-1.67,0-.26.23-.4.52-.4.84,0,.19.02.38.06.56.02.1.04.21.04.3v13.64c0,.09-.01.19-.04.3h0c-.04.18-.06.37-.06.56,0,.22.07.55.4.84.24.21.54.32.85.32.3,0,.57-.11.82-.32.33-.29.4-.61.4-.84,0-.18-.02-.35-.07-.51-.02-.08-.03-.13-.03-.15v-6.53h4c.3,0,.55-.09.74-.26.21-.18.32-.43.32-.7s-.11-.52-.32-.7Z"/>
  <path class="cls-12" d="m224.94,52.26c-1.24.67-2.73,1.19-4.43,1.54-1.71.35-3.46.53-5.19.53-2.16,0-3.96-.25-5.35-.76-.75-.28-1.33-.66-1.73-1.15-.37-.44-.56-1.19-.57-2.22h16.49c.3,0,.55-.09.74-.26.21-.18.32-.43.32-.7s-.11-.52-.32-.7c-.19-.17-.44-.26-.74-.26h-16.49v-3.31h16.82c.3,0,.55-.09.74-.26.21-.18.31-.43.31-.7s-.11-.52-.31-.7c-.19-.17-.44-.26-.74-.26h-16.83c-.25,0-.32-.02-.33-.03-.78-.32-1.32-.25-1.71.17-.22.23-.33.53-.33.85,0,.17.02.35.06.52.02.11.04.21.04.3v5.23c0,1.54.34,2.73,1.02,3.53.66.78,1.61,1.38,2.84,1.78,1.73.56,3.72.85,5.91.85,1.89,0,3.8-.21,5.68-.62,1.88-.41,3.59-1.01,5.02-1.75.41-.16.64-.49.64-.89,0-.25-.11-.49-.3-.66-.31-.27-.75-.33-1.26-.08Z"/>
  <g>
    <path class="cls-4" d="m65.71,42.67c-1.3,3.16-5.57,7.63-9.59,8.42-.89.17-1.8-.2-2.35-.92-2.68-3.56-2.15-9.55-.84-12.74,1.45-3.53,5.19-4.49,8.71-3.04s5.51,4.76,4.06,8.29Z"/>
    <circle class="cls-8" cx="62.01" cy="33.51" r="2.54"/>
    <circle class="cls-8" cx="64.42" cy="35.99" r="2.54"/>
    <circle class="cls-8" cx="58.66" cy="33.62" r="2.54"/>
  </g>
  <g>
    <path class="cls-3" d="m56.05,22.52c-.41-.27-.85-.45-1.29-.56-.9-.22-1.76-.59-2.53-1.1-.38-.25-.81-.44-1.29-.56-1.77-.44-3.68.38-4.58,1.96-1.25,2.19-.3,4.91,1.94,5.89.26.11.53.2.79.25.82.17,1.6.51,2.29.99.22.16.47.29.73.41,2.25.98,4.88-.19,5.63-2.59.54-1.74-.16-3.69-1.69-4.69Z"/>
    <path class="cls-10" d="m53.73,20.87l.03.63c.01.24.14.45.34.58l.54.33-.59.22c-.22.08-.39.27-.44.5l-.15.61-.39-.49c-.15-.18-.38-.28-.62-.27l-.63.05.35-.53c.13-.2.15-.45.06-.67l-.24-.58.61.17c.23.06.47,0,.65-.15l.48-.41Z"/>
  </g>
  <g>
    <path class="cls-1" d="m40.68,34.02c2.37,5.25.74,11.11-3.64,13.09s-9.85-.68-12.22-5.93-1.88-13.65,2.5-15.63,11,3.22,13.37,8.47Z"/>
    <path class="cls-1" d="m34.94,36.61c2.37,5.25.74,11.11-3.64,13.09s-9.85-.68-12.22-5.93-1.88-13.65,2.5-15.63,11,3.22,13.37,8.47Z"/>
    <path class="cls-5" d="m34.19,36.42c1.55,3.44.9,7.09-1.45,8.15s-5.52-.87-7.07-4.31-1.65-8.75.7-9.81,6.27,2.53,7.82,5.97Z"/>
    <circle class="cls-2" cx="20.77" cy="32.21" r="7.04"/>
    <circle class="cls-2" cx="22.8" cy="23.57" r="7.04"/>
    <circle class="cls-2" cx="23.43" cy="41.05" r="7.04"/>
    <path class="cls-5" d="m36.68,40.47c2.03,4.49.66,7.21-2,8.41s-5.6.42-7.63-4.07-3.34-13.16-.69-14.36,8.28,5.53,10.31,10.02Z"/>
    <path class="cls-13" d="m21.67,33.3s1.97.71,3.77-.04"/>
    <path class="cls-13" d="m22.66,25.99s1.97.71,3.77-.04"/>
    <path class="cls-13" d="m22.38,41.86s1.97.72,3.77-.02"/>
    <circle class="cls-11" cx="31.56" cy="27.35" r="7.04"/>
    <circle class="cls-11" cx="36.43" cy="35.18" r="7.04"/>
  </g>
  <path class="cls-6" d="m63.92,43.69c2.34,0,4.08,2.11,3.7,4.42-2.11,12.81-13.24,19.55-26.64,19.55s-24.54-6.74-26.64-19.55c-.38-2.31,1.36-4.42,3.7-4.42h45.88Z"/>
</svg>