<svg width="12" height="13" viewBox="0 0 12 13" fill="none" xmlns="http://www.w3.org/2000/svg">
<g id="Group 10">
<path id="Ellipse 11 (Stroke)" fill-rule="evenodd" clip-rule="evenodd" d="M5.87359 11.7425C8.79773 11.7425 11.1682 9.37201 11.1682 6.44787C11.1682 3.52373 8.79773 1.15324 5.87359 1.15324C2.94945 1.15324 0.578961 3.52373 0.578961 6.44787C0.578961 9.37201 2.94945 11.7425 5.87359 11.7425ZM5.87359 12.0734C8.98049 12.0734 11.4991 9.55477 11.4991 6.44787C11.4991 3.34097 8.98049 0.822327 5.87359 0.822327C2.76669 0.822327 0.248047 3.34097 0.248047 6.44787C0.248047 9.55477 2.76669 12.0734 5.87359 12.0734Z" fill="#061422"/>
<path id="a" d="M7.14109 6.39491C6.88959 6.50081 6.63479 6.5703 6.37668 6.60339C6.11856 6.63648 5.86045 6.66295 5.60234 6.68281C5.14568 6.7159 4.78829 6.81848 4.53018 6.99056C4.27868 7.16263 4.15293 7.42406 4.15293 7.77483C4.15293 7.93366 4.18272 8.07265 4.24228 8.19178C4.30846 8.30429 4.39119 8.40025 4.49047 8.47967C4.59636 8.55247 4.71549 8.60873 4.84785 8.64844C4.98684 8.68153 5.12582 8.69808 5.26481 8.69808C5.50306 8.69808 5.7347 8.66829 5.95973 8.60873C6.18475 8.54916 6.3833 8.45982 6.55537 8.34069C6.73406 8.21494 6.87636 8.05941 6.98225 7.8741C7.08814 7.68217 7.14109 7.45715 7.14109 7.19903V6.39491ZM6.13842 6.09709C6.25093 6.08385 6.3833 6.064 6.53552 6.03752C6.69436 6.01105 6.82341 5.97465 6.92269 5.92832C7.02196 5.882 7.08152 5.80589 7.10138 5.69999C7.12785 5.58748 7.14109 5.4849 7.14109 5.39224C7.14109 5.0878 7.04181 4.83962 6.84327 4.64769C6.65134 4.44914 6.32373 4.34986 5.86045 4.34986C5.65528 4.34986 5.46666 4.36972 5.29459 4.40943C5.12251 4.44252 4.97029 4.50539 4.83793 4.59805C4.71218 4.68409 4.60629 4.80321 4.52025 4.95544C4.44083 5.10104 4.38788 5.28635 4.36141 5.51137H3.75584C3.77569 5.20693 3.84518 4.94882 3.96431 4.73703C4.08344 4.51863 4.23566 4.34324 4.42097 4.21088C4.6129 4.07189 4.83131 3.97262 5.07618 3.91306C5.32768 3.84687 5.59241 3.81378 5.87038 3.81378C6.12849 3.81378 6.37006 3.84356 6.59508 3.90313C6.82672 3.95607 7.02527 4.04542 7.19073 4.17117C7.3628 4.2903 7.49517 4.45245 7.58782 4.65761C7.6871 4.86278 7.73673 5.11427 7.73673 5.4121V8.21163C7.73673 8.44327 7.77644 8.59218 7.85586 8.65837C7.9419 8.71793 8.11067 8.70139 8.36216 8.60873V9.07532C8.31583 9.08855 8.24634 9.10841 8.15369 9.13488C8.06765 9.16136 7.98161 9.17459 7.89557 9.17459C7.80292 9.17459 7.71357 9.16467 7.62753 9.14481C7.52826 9.13157 7.44884 9.10179 7.38927 9.05546C7.32971 9.00252 7.28007 8.94295 7.24036 8.87677C7.20727 8.80397 7.18411 8.72786 7.17087 8.64844C7.15763 8.5624 7.15102 8.47305 7.15102 8.3804C6.89952 8.65837 6.61163 8.87015 6.28733 9.01575C5.96303 9.16136 5.61227 9.23416 5.23502 9.23416C5.01 9.23416 4.7916 9.20437 4.57981 9.14481C4.37465 9.08525 4.19264 8.99259 4.0338 8.86684C3.87497 8.74109 3.74922 8.58887 3.65656 8.41018C3.56391 8.22487 3.51758 8.00647 3.51758 7.75497C3.51758 6.88136 4.11653 6.36513 5.31444 6.20629L6.13842 6.09709Z" fill="#061422"/>
</g>
</svg>
