<?xml version="1.0" encoding="UTF-8"?>
<svg id="Layer_1" data-name="Layer 1" xmlns="http://www.w3.org/2000/svg" xmlns:xlink="http://www.w3.org/1999/xlink" viewBox="0 0 89.03 89.03">
  <defs>
    <style>
      .cls-1 {
        fill: none;
      }

      .cls-2 {
        clip-path: url(#clippath);
      }

      .cls-3 {
        fill: #f5f5f5;
      }

      .cls-4 {
        fill: #fff;
      }

      .cls-5 {
        fill: #bae9a6;
      }

      .cls-6 {
        fill: #8fc878;
      }

      .cls-7 {
        fill: #a4d6f0;
      }
    </style>
    <clipPath id="clippath">
      <circle class="cls-1" cx="44.52" cy="44.52" r="31.5" transform="translate(-9.11 77.5) rotate(-76.6)"/>
    </clipPath>
  </defs>
  <circle class="cls-3" cx="44.52" cy="44.52" r="44.52"/>
  <g>
    <g>
      <circle class="cls-4" cx="44.52" cy="44.52" r="31.5" transform="translate(-9.11 77.5) rotate(-76.6)"/>
      <circle class="cls-4" cx="44.52" cy="44.52" r="31.5" transform="translate(-9.11 77.5) rotate(-76.6)"/>
      <circle class="cls-4" cx="44.52" cy="44.52" r="31.5" transform="translate(-9.11 77.5) rotate(-76.6)"/>
      <circle class="cls-7" cx="44.52" cy="44.52" r="31.5" transform="translate(-9.11 77.5) rotate(-76.6)"/>
    </g>
    <g class="cls-2">
      <path class="cls-6" d="m45.08,26.04h0c-.97,0-1.77.79-1.77,1.77v.32c0,.97.79,1.77,1.77,1.77h0c.97,0,1.77-.79,1.77-1.77v-.32c0-.97-.79-1.77-1.77-1.77Z"/>
      <path class="cls-6" d="m48.84,24.53h-.06c-.41,0-.75.34-.75.75s.34.75.75.75h.06c.41,0,.75-.34.75-.75s-.34-.75-.75-.75Z"/>
      <path class="cls-6" d="m38.55,51.62h-2.71v-1.11c0-1.32-1.08-2.4-2.4-2.4h-7.8c-.35,0-.68.08-.98.21.04-.16.06-.33.06-.5,0-1.19-.97-2.16-2.16-2.16h-2.04c-.58,0-1.06-.48-1.06-1.06s.48-1.06,1.06-1.06h3.41c1.32,0,2.4-1.08,2.4-2.4,0-1.11,1.91-1.11,1.91-1.11,1.32,0,2.4-1.08,2.4-2.4,0-2.17,2.23-2.27,2.23-2.27h1.52c1.19,0,2.16-.97,2.16-2.16s-.97-2.16-2.16-2.16h-6.04c-.67,0-1.22-.55-1.22-1.22s.55-1.22,1.22-1.22h3.65c1.32,0,2.4-1.08,2.4-2.4v-.31c0-1.32-1.08-2.4-2.4-2.4h-14.58c-1.32,0-2.4,1.08-2.4,2.4v.16h-2c-1.32,0-2.4,1.08-2.4,2.4v4.52c0,.91.52,1.71,1.27,2.12-.04.17-.06.35-.06.53v4.24c0,1.12.77,2.06,1.81,2.33,0,.08-.01.17-.01.26v2.6c0,1.32,1.08,2.4,2.4,2.4h1.29c-.02.13-.04.26-.04.39,0,1.19.97,2.16,2.16,2.16h3.1c.27,0,.53-.05.78-.15-.06.21-.1.44-.1.67v4.97c0,1.32,1.08,2.4,2.4,2.4h.69v3.91c0,1.32,1.08,2.4,2.4,2.4h1.14c.24,0,1.69.13,1.69,2.42v.73c0,1.32,1.08,2.4,2.4,2.4h.9c.09,0,.18,0,.26-.02v.77c0,1.08.88,1.96,1.96,1.96s1.96-.88,1.96-1.96v-1.49c0-1.02-.79-1.86-1.78-1.95v-3.58c0-2.16,1.28-2.22,1.28-2.22,1.32,0,2.4-1.08,2.4-2.4v-4.83c0-1.32-1.08-2.4-2.4-2.4Z"/>
      <path class="cls-6" d="m38.55,11.91h-8.91c-1.32,0-2.4,1.08-2.4,2.4v3.76c0,1.32,1.08,2.4,2.4,2.4h4.46v1.65c0,1.32,1.08,2.4,2.4,2.4h2.05c1.32,0,2.4-1.08,2.4-2.4v-7.82c0-1.32-1.08-2.4-2.4-2.4Z"/>
      <path class="cls-6" d="m24.35,18h-1.37c-1.09,0-1.98.89-1.98,1.98h0c0,1.09.89,1.98,1.98,1.98h1.37c1.09,0,1.98-.89,1.98-1.98h0c0-1.09-.89-1.98-1.98-1.98Z"/>
      <path class="cls-6" d="m80.97,32.89c0-1.32-1.08-2.4-2.4-2.4h-4.36c.43-.74.68-1.59.68-2.5v-1.08c0-2.72-2.23-4.95-4.95-4.95h-11.47v-3.35c0-1.32-1.08-2.4-2.4-2.4h-.64c-1.32,0-2.4,1.08-2.4,2.4v2.8c-1.02.03-1.84.87-1.84,1.9s.85,1.9,1.9,1.9h.64c-.19.52-.3,1.08-.31,1.66h-.74c-1.54,0-2.79,1.26-2.79,2.79,0,.58.18,1.11.48,1.56-1.32.22-2.34,1.37-2.34,2.75v1.47c0,1.54,1.26,2.79,2.79,2.79h1.37c1.54,0,2.79-1.26,2.79-2.79v-1.47c0-.73.6-1.32,1.32-1.32s1.32.6,1.32,1.32v4.27c0,.92.75,1.67,1.67,1.67s1.67-.75,1.67-1.67v-1.7c0-.65.53-1.18,1.18-1.18s1.18.53,1.18,1.18v2.12c0,1.21-.93,1.24-.93,1.24h-.25c-.7,0-1.27.57-1.27,1.27s.57,1.27,1.27,1.27h.32c.22,0,.86.05.86.46v.42h0c0,.07-.04.49-.93.49h-7.65c-1.32,0-2.4,1.08-2.4,2.4v.93h-3.09c-1.32,0-2.4,1.08-2.4,2.4v2.45c0,1.32,1.08,2.4,2.4,2.4h1.91c.51.03,1.86.31,1.86,2.48v.6c0,1.32,1.08,2.4,2.4,2.4,0,0,.74.07.74,2.88v1.19c0,1.32,1.08,2.4,2.4,2.4h1.03c1.32,0,2.4-1.08,2.4-2.4v-3.14c0-.34-.07-.66-.2-.95,1.18-.15,2.11-1.16,2.11-2.38v-1.13h.05c1.32,0,2.4-1.08,2.4-2.4v-1.02c.76-.41,1.27-1.2,1.27-2.12v-4.54c0-.58.48-1.06,1.06-1.06s1.06.48,1.06,1.06c0,0-.33,2.93,2.44,2.93h.69s.03,0,.05,0v.54c0,1.32,1.08,2.4,2.4,2.4h3.24c1.32,0,2.4-1.08,2.4-2.4v-6.18c0-.17-.02-.33-.05-.49.03-.16.05-.32.05-.49v-9.71Zm-26.43-.42s0-.01-.01-.02h.01v.02Z"/>
      <path class="cls-6" d="m56.07,16.2h-.64s-.03,0-.04,0c1.09.98,2.12,2.01,3.08,3.11v-.71c0-1.32-1.08-2.4-2.4-2.4Z"/>
      <path class="cls-6" d="m78.57,30.48h-4.36c.43-.74.68-1.59.68-2.5v-1.08c0-2.72-2.23-4.95-4.95-4.95h-9.33c4.66,6.31,7.41,14.12,7.41,22.56,0,.32,0,.65-.01.97.19-.16.43-.26.69-.26.58,0,1.06.48,1.06,1.06,0,0-.33,2.93,2.44,2.93h.69s.03,0,.05,0v.54c0,1.32,1.08,2.4,2.4,2.4h3.24c1.32,0,2.4-1.08,2.4-2.4v-6.18c0-.17-.02-.33-.05-.49.03-.16.05-.32.05-.49v-9.71c0-1.32-1.08-2.4-2.4-2.4Z"/>
      <path class="cls-5" d="m67.79,57.35h0c-.78,0-1.42.64-1.42,1.42v1.03c0,.78.64,1.42,1.42,1.42h0c.78,0,1.42-.64,1.42-1.42v-1.03c0-.78-.64-1.42-1.42-1.42Z"/>
      <path class="cls-6" d="m20.89,45.66h-.37c-.58,0-1.06-.48-1.06-1.06s.48-1.06,1.06-1.06h.5c.19-7.41,2.49-14.29,6.33-20.06h-9.91c-1.32,0-2.4,1.08-2.4,2.4v.16h-2c-1.32,0-2.4,1.08-2.4,2.4v4.52c0,.91.52,1.71,1.27,2.12-.04.17-.06.35-.06.53v4.24c0,1.12.77,2.06,1.81,2.33,0,.08-.01.17-.01.26v2.6c0,1.32,1.08,2.4,2.4,2.4h1.29c-.02.13-.04.26-.04.39,0,1.19.97,2.16,2.16,2.16h1.95c-.2-1.42-.33-2.86-.38-4.33h-.14Z"/>
      <path class="cls-6" d="m39.26,12.02c-.22-.07-.46-.11-.7-.11h-8.91c-1.32,0-2.4,1.08-2.4,2.4v3.76c0,1.3,1.04,2.36,2.33,2.4,2.72-3.34,6-6.2,9.69-8.46Z"/>
      <circle class="cls-6" cx="68.14" cy="31.21" r=".88"/>
      <circle class="cls-6" cx="73.06" cy="37.62" r=".88"/>
      <circle class="cls-6" cx="70.79" cy="41.71" r=".88"/>
    </g>
  </g>
</svg>