<?xml version="1.0" encoding="UTF-8"?>
<svg id="Layer_1" data-name="Layer 1" xmlns="http://www.w3.org/2000/svg" viewBox="0 0 89.03 89.03">
  <defs>
    <style>
      .cls-1 {
        fill: #f5f5f5;
      }

      .cls-2 {
        fill: #ef8989;
      }

      .cls-3 {
        fill: #e3ce9b;
      }

      .cls-4 {
        fill: #e5b164;
      }

      .cls-5 {
        fill: #9ad284;
      }

      .cls-6 {
        fill: #a37bc6;
      }

      .cls-7 {
        fill: #86ba93;
      }
    </style>
  </defs>
  <circle class="cls-1" cx="44.76" cy="44.52" r="44.52"/>
  <circle class="cls-6" cx="34.36" cy="45.25" r="7.71"/>
  <circle class="cls-6" cx="28.93" cy="25.12" r="5.45"/>
  <path class="cls-6" d="m27.4,48.59s-4.68-9.8-3.93-23.47l10.78-1.17s1.73,11.04,6.65,17.23l-13.5,7.41Z"/>
  <g>
    <circle class="cls-5" cx="28.23" cy="22.31" r="1.15"/>
    <circle class="cls-5" cx="29.27" cy="22.85" r="1.15"/>
    <circle class="cls-5" cx="29.91" cy="21.96" r="1.15"/>
    <g>
      <circle class="cls-5" cx="29.38" cy="18.66" r=".62"/>
      <circle class="cls-5" cx="29.37" cy="18.69" r=".62"/>
      <circle class="cls-5" cx="29.37" cy="18.66" r=".62"/>
      <circle class="cls-5" cx="29.37" cy="18.66" r=".62"/>
      <circle class="cls-5" cx="29.37" cy="18.67" r=".62"/>
      <circle class="cls-5" cx="29.37" cy="18.67" r=".62"/>
      <circle class="cls-5" cx="29.37" cy="18.68" r=".62"/>
      <circle class="cls-5" cx="29.37" cy="18.68" r=".61"/>
      <circle class="cls-5" cx="29.36" cy="18.69" r=".61"/>
      <circle class="cls-5" cx="29.36" cy="18.7" r=".61"/>
      <circle class="cls-5" cx="29.36" cy="18.71" r=".61"/>
      <circle class="cls-5" cx="29.35" cy="18.72" r=".61"/>
      <circle class="cls-5" cx="29.35" cy="18.73" r=".61"/>
      <circle class="cls-5" cx="29.34" cy="18.74" r=".61"/>
      <circle class="cls-5" cx="29.34" cy="18.76" r=".61"/>
      <circle class="cls-5" cx="29.33" cy="18.77" r=".6"/>
      <circle class="cls-5" cx="29.33" cy="18.79" r=".6"/>
      <circle class="cls-5" cx="29.32" cy="18.8" r=".6"/>
      <circle class="cls-5" cx="29.32" cy="18.82" r=".6"/>
      <circle class="cls-5" cx="29.31" cy="18.84" r=".6"/>
      <circle class="cls-5" cx="29.31" cy="18.85" r=".6"/>
      <circle class="cls-5" cx="29.3" cy="18.87" r=".6"/>
      <circle class="cls-5" cx="29.29" cy="18.89" r=".6"/>
      <circle class="cls-5" cx="29.29" cy="18.91" r=".59"/>
      <circle class="cls-5" cx="29.28" cy="18.93" r=".59"/>
      <circle class="cls-5" cx="29.27" cy="18.96" r=".59"/>
      <circle class="cls-5" cx="29.27" cy="18.98" r=".59"/>
      <circle class="cls-5" cx="29.26" cy="19" r=".59"/>
      <circle class="cls-5" cx="29.25" cy="19.03" r=".59"/>
      <circle class="cls-5" cx="29.24" cy="19.05" r=".59"/>
      <circle class="cls-5" cx="29.23" cy="19.08" r=".59"/>
      <circle class="cls-5" cx="29.23" cy="19.1" r=".58"/>
      <circle class="cls-5" cx="29.22" cy="19.13" r=".58"/>
      <circle class="cls-5" cx="29.21" cy="19.16" r=".58"/>
      <circle class="cls-5" cx="29.2" cy="19.19" r=".58"/>
      <circle class="cls-5" cx="29.19" cy="19.22" r=".58"/>
      <circle class="cls-5" cx="29.19" cy="19.25" r=".58"/>
      <circle class="cls-5" cx="29.18" cy="19.28" r=".58"/>
      <circle class="cls-5" cx="29.17" cy="19.31" r=".57"/>
      <circle class="cls-5" cx="29.16" cy="19.34" r=".57"/>
      <circle class="cls-5" cx="29.15" cy="19.37" r=".57"/>
      <circle class="cls-5" cx="29.14" cy="19.4" r=".57"/>
      <circle class="cls-5" cx="29.13" cy="19.44" r=".57"/>
      <circle class="cls-5" cx="29.13" cy="19.47" r=".57"/>
      <circle class="cls-5" cx="29.12" cy="19.5" r=".57"/>
      <circle class="cls-5" cx="29.11" cy="19.54" r=".57"/>
      <circle class="cls-5" cx="29.1" cy="19.57" r=".56"/>
      <circle class="cls-5" cx="29.09" cy="19.61" r=".56"/>
      <circle class="cls-5" cx="29.08" cy="19.64" r=".56"/>
      <circle class="cls-5" cx="29.07" cy="19.68" r=".56"/>
      <circle class="cls-5" cx="29.07" cy="19.72" r=".56"/>
      <circle class="cls-5" cx="29.06" cy="19.75" r=".56"/>
      <circle class="cls-5" cx="29.05" cy="19.79" r=".56"/>
      <circle class="cls-5" cx="29.04" cy="19.83" r=".56"/>
      <circle class="cls-5" cx="29.03" cy="19.87" r=".55"/>
      <circle class="cls-5" cx="29.03" cy="19.9" r=".55"/>
      <circle class="cls-5" cx="29.02" cy="19.94" r=".55"/>
      <circle class="cls-5" cx="29.01" cy="19.98" r=".55"/>
      <circle class="cls-5" cx="29" cy="20.02" r=".55"/>
      <circle class="cls-5" cx="29" cy="20.06" r=".55"/>
      <circle class="cls-5" cx="28.99" cy="20.1" r=".55"/>
      <circle class="cls-5" cx="28.98" cy="20.14" r=".55"/>
      <circle class="cls-5" cx="28.98" cy="20.18" r=".54"/>
      <circle class="cls-5" cx="28.97" cy="20.22" r=".54"/>
      <circle class="cls-5" cx="28.96" cy="20.27" r=".54"/>
      <circle class="cls-5" cx="28.96" cy="20.31" r=".54"/>
      <circle class="cls-5" cx="28.95" cy="20.35" r=".54"/>
      <circle class="cls-5" cx="28.95" cy="20.39" r=".54"/>
      <circle class="cls-5" cx="28.94" cy="20.43" r=".54"/>
      <circle class="cls-5" cx="28.93" cy="20.47" r=".54"/>
      <circle class="cls-5" cx="28.93" cy="20.52" r=".53"/>
      <circle class="cls-5" cx="28.93" cy="20.56" r=".53"/>
      <circle class="cls-5" cx="28.92" cy="20.6" r=".53"/>
      <circle class="cls-5" cx="28.92" cy="20.64" r=".53"/>
      <circle class="cls-5" cx="28.91" cy="20.69" r=".53"/>
      <circle class="cls-5" cx="28.91" cy="20.73" r=".53"/>
      <circle class="cls-5" cx="28.91" cy="20.77" r=".53"/>
      <circle class="cls-5" cx="28.9" cy="20.82" r=".53"/>
      <circle class="cls-5" cx="28.9" cy="20.86" r=".52"/>
      <circle class="cls-5" cx="28.9" cy="20.9" r=".52"/>
      <circle class="cls-5" cx="28.9" cy="20.95" r=".52"/>
      <circle class="cls-5" cx="28.9" cy="20.99" r=".52"/>
      <circle class="cls-5" cx="28.9" cy="21.03" r=".52"/>
      <circle class="cls-5" cx="28.9" cy="21.08" r=".52"/>
      <circle class="cls-5" cx="28.9" cy="21.12" r=".52"/>
      <circle class="cls-5" cx="28.9" cy="21.16" r=".52"/>
      <circle class="cls-5" cx="28.9" cy="21.2" r=".51"/>
      <circle class="cls-5" cx="28.9" cy="21.25" r=".51"/>
      <circle class="cls-5" cx="28.9" cy="21.29" r=".51"/>
      <circle class="cls-5" cx="28.9" cy="21.33" r=".51"/>
      <circle class="cls-5" cx="28.9" cy="21.38" r=".51"/>
      <circle class="cls-5" cx="28.91" cy="21.42" r=".51"/>
      <circle class="cls-5" cx="28.91" cy="21.46" r=".51"/>
      <circle class="cls-5" cx="28.91" cy="21.5" r=".5"/>
      <circle class="cls-5" cx="28.92" cy="21.55" r=".5"/>
      <circle class="cls-5" cx="28.92" cy="21.59" r=".5"/>
      <circle class="cls-5" cx="28.93" cy="21.63" r=".5"/>
      <circle class="cls-5" cx="28.98" cy="21.71" r=".5"/>
      <circle class="cls-5" cx="28.98" cy="21.74" r=".5"/>
      <circle class="cls-5" cx="28.97" cy="21.77" r=".5"/>
      <circle class="cls-5" cx="28.97" cy="21.8" r=".5"/>
      <circle class="cls-5" cx="28.96" cy="21.84" r=".49"/>
    </g>
  </g>
  <g>
    <path class="cls-4" d="m68.29,47.9c-1.28,3.12-5.5,7.53-9.46,8.31-.88.17-1.77-.19-2.32-.91-2.65-3.51-2.12-9.43-.82-12.58,1.43-3.48,5.12-4.43,8.6-3,3.48,1.43,5.43,4.7,4,8.18Z"/>
    <circle class="cls-5" cx="64.64" cy="38.86" r="2.51"/>
    <circle class="cls-5" cx="67.02" cy="41.31" r="2.51"/>
    <circle class="cls-5" cx="61.33" cy="38.97" r="2.51"/>
  </g>
  <path class="cls-3" d="m67.68,50.09c2.31,0,4.03,2.08,3.66,4.36-2.08,12.65-13.06,19.3-26.3,19.3s-24.22-6.65-26.3-19.3c-.37-2.28,1.35-4.36,3.66-4.36h45.29Z"/>
  <path class="cls-2" d="m56.91,28.45c-1.27-2.11-2.74-2.55-4.17-2.58-1.16-.84-2.59-1.37-4.88-.45-1.46.58-2.44,2.13-2.65,3.69-.31,2.32.48,5.02,2.89,5.83.17.06.34.1.51.14.33.07.64.15.96.26.31.11.62.23.92.37.16.08.32.14.49.2,2.41.81,4.67-.87,5.82-2.91.77-1.37.93-3.2.11-4.54Z"/>
  <path class="cls-7" d="m56.25,23.08c-.49-.21-1.23-.4-2.05,0s-1.11,1.11-1.24,1.63c.52.22,1.23.4,2.05,0s1.1-1.08,1.24-1.63Z"/>
</svg>