<svg width="222" height="47" viewBox="0 0 222 47" fill="none" xmlns="http://www.w3.org/2000/svg">
<path d="M3.04688 9.21094H9.0625V32.8242H23.3203V38H3.04688V9.21094ZM34.2492 20.7344C32.9602 20.7344 31.9576 21.138 31.2414 21.9453C30.5383 22.7526 30.0956 23.8464 29.9133 25.2266H38.5656C38.4745 23.7552 38.0253 22.6419 37.218 21.8867C36.4237 21.1185 35.4341 20.7344 34.2492 20.7344ZM34.2492 16.1445C36.0201 16.1445 37.6151 16.4766 39.0344 17.1406C40.4536 17.8047 41.6255 18.8529 42.55 20.2852C43.3833 21.5482 43.9237 23.013 44.1711 24.6797C44.3143 25.6562 44.3729 27.0625 44.3469 28.8984H29.7766C29.8547 31.0339 30.5253 32.5312 31.7883 33.3906C32.5565 33.9245 33.481 34.1914 34.5617 34.1914C35.7076 34.1914 36.6385 33.8659 37.3547 33.2148C37.7453 32.8633 38.0904 32.375 38.3898 31.75H44.0734C43.9302 33.013 43.2727 34.2956 42.1008 35.5977C40.2779 37.668 37.7258 38.7031 34.4445 38.7031C31.7362 38.7031 29.3469 37.8307 27.2766 36.0859C25.2062 34.3411 24.1711 31.5026 24.1711 27.5703C24.1711 23.8854 25.1021 21.0599 26.9641 19.0938C28.8391 17.1276 31.2674 16.1445 34.2492 16.1445ZM55.3148 20.7344C54.0258 20.7344 53.0232 21.138 52.307 21.9453C51.6039 22.7526 51.1612 23.8464 50.9789 25.2266H59.6312C59.5401 23.7552 59.0909 22.6419 58.2836 21.8867C57.4893 21.1185 56.4997 20.7344 55.3148 20.7344ZM55.3148 16.1445C57.0857 16.1445 58.6807 16.4766 60.1 17.1406C61.5193 17.8047 62.6911 18.8529 63.6156 20.2852C64.449 21.5482 64.9893 23.013 65.2367 24.6797C65.3799 25.6562 65.4385 27.0625 65.4125 28.8984H50.8422C50.9203 31.0339 51.5909 32.5312 52.8539 33.3906C53.6221 33.9245 54.5466 34.1914 55.6273 34.1914C56.7732 34.1914 57.7042 33.8659 58.4203 33.2148C58.8109 32.8633 59.156 32.375 59.4555 31.75H65.1391C64.9958 33.013 64.3383 34.2956 63.1664 35.5977C61.3435 37.668 58.7914 38.7031 55.5102 38.7031C52.8018 38.7031 50.4125 37.8307 48.3422 36.0859C46.2719 34.3411 45.2367 31.5026 45.2367 27.5703C45.2367 23.8854 46.1677 21.0599 48.0297 19.0938C49.9047 17.1276 52.3331 16.1445 55.3148 16.1445ZM72.7867 29.1133C72.969 30.4284 73.3271 31.4115 73.8609 32.0625C74.8375 33.2474 76.5107 33.8398 78.8805 33.8398C80.2997 33.8398 81.4521 33.6836 82.3375 33.3711C84.0172 32.7721 84.857 31.6589 84.857 30.0312C84.857 29.0807 84.4404 28.3451 83.607 27.8242C82.7737 27.3164 81.4651 26.8672 79.6813 26.4766L76.6344 25.793C73.6396 25.1159 71.5693 24.3802 70.4234 23.5859C68.4833 22.2578 67.5133 20.181 67.5133 17.3555C67.5133 14.7773 68.4508 12.6354 70.3258 10.9297C72.2008 9.22396 74.9547 8.37109 78.5875 8.37109C81.6214 8.37109 84.206 9.17839 86.3414 10.793C88.4898 12.3945 89.6161 14.7253 89.7203 17.7852H83.9391C83.8349 16.0534 83.0797 14.8229 81.6734 14.0938C80.7359 13.612 79.5706 13.3711 78.1773 13.3711C76.6279 13.3711 75.3909 13.6836 74.4664 14.3086C73.5419 14.9336 73.0797 15.806 73.0797 16.9258C73.0797 17.9544 73.5354 18.7227 74.4469 19.2305C75.0328 19.569 76.2828 19.9661 78.1969 20.4219L83.1578 21.6133C85.3323 22.1341 86.9729 22.8307 88.0797 23.7031C89.7984 25.0573 90.6578 27.0169 90.6578 29.582C90.6578 32.2122 89.6487 34.3997 87.6305 36.1445C85.6253 37.8763 82.7867 38.7422 79.1148 38.7422C75.3648 38.7422 72.4156 37.8893 70.2672 36.1836C68.1188 34.4648 67.0445 32.1081 67.0445 29.1133H72.7867ZM99.0086 16.7109V29.543C99.0086 30.7539 99.1518 31.6654 99.4383 32.2773C99.9461 33.3581 100.942 33.8984 102.427 33.8984C104.328 33.8984 105.63 33.1302 106.333 31.5938C106.697 30.7604 106.88 29.6602 106.88 28.293V16.7109H112.524V38H107.114V34.9922C107.062 35.0573 106.932 35.2526 106.723 35.5781C106.515 35.9036 106.268 36.1901 105.981 36.4375C105.109 37.2188 104.262 37.7526 103.442 38.0391C102.635 38.3255 101.684 38.4688 100.591 38.4688C97.4396 38.4688 95.3172 37.3359 94.2234 35.0703C93.6115 33.8203 93.3055 31.9779 93.3055 29.543V16.7109H99.0086ZM128.512 16.2031C130.712 16.2031 132.509 16.7826 133.902 17.9414C135.309 19.0872 136.012 20.9948 136.012 23.6641V38H130.309V25.0508C130.309 23.931 130.159 23.0716 129.859 22.4727C129.312 21.3789 128.271 20.832 126.734 20.832C124.846 20.832 123.551 21.6328 122.848 23.2344C122.483 24.0807 122.301 25.1615 122.301 26.4766V38H116.754V16.75H122.125V19.8555C122.841 18.7617 123.518 17.974 124.156 17.4922C125.302 16.6328 126.754 16.2031 128.512 16.2031ZM140.515 9.21094H146.433V21.0664L157.546 9.21094H165.32L153.523 21.0664L165.925 38H158.191L149.304 25.4219L146.433 28.3711V38H140.515V9.21094ZM168.534 42.082L169.237 42.1211C169.784 42.1471 170.304 42.1276 170.799 42.0625C171.294 41.9974 171.711 41.8477 172.049 41.6133C172.375 41.3919 172.674 40.9297 172.948 40.2266C173.234 39.5234 173.351 39.0938 173.299 38.9375L165.487 16.7109H171.678L176.327 32.4141L180.721 16.7109H186.639L179.334 37.6484C177.928 41.6849 176.815 44.1849 175.995 45.1484C175.174 46.125 173.534 46.6133 171.073 46.6133C170.578 46.6133 170.181 46.6068 169.881 46.5938C169.582 46.5938 169.133 46.5742 168.534 46.5352V42.082ZM198.291 34.0742C199.918 34.0742 201.168 33.4948 202.041 32.3359C202.913 31.1771 203.349 29.5299 203.349 27.3945C203.349 25.2591 202.913 23.6185 202.041 22.4727C201.168 21.3138 199.918 20.7344 198.291 20.7344C196.663 20.7344 195.407 21.3138 194.521 22.4727C193.649 23.6185 193.212 25.2591 193.212 27.3945C193.212 29.5299 193.649 31.1771 194.521 32.3359C195.407 33.4948 196.663 34.0742 198.291 34.0742ZM209.189 27.3945C209.189 30.5195 208.291 33.1953 206.494 35.4219C204.697 37.6354 201.969 38.7422 198.31 38.7422C194.651 38.7422 191.923 37.6354 190.127 35.4219C188.33 33.1953 187.431 30.5195 187.431 27.3945C187.431 24.3216 188.33 21.6589 190.127 19.4062C191.923 17.1536 194.651 16.0273 198.31 16.0273C201.969 16.0273 204.697 17.1536 206.494 19.4062C208.291 21.6589 209.189 24.3216 209.189 27.3945Z" fill="#061922"/>
<path d="M221.872 5.24142L221.035 2.65273L217.84 3.70359V0.185791H215.146V3.58825L211.83 2.49895L211 5.08764L214.201 6.13849L212.154 8.9899L214.335 10.5854L216.312 7.83652L218.36 10.6815L220.541 9.0796L218.563 6.33072L221.872 5.24142Z" fill="#061922"/>
</svg>
