<svg width="112" height="94" viewBox="0 0 112 94" fill="none" xmlns="http://www.w3.org/2000/svg">
<mask id="path-1-outside-1_134_1856" maskUnits="userSpaceOnUse" x="-1" y="-1" width="114" height="97" fill="black">
<rect fill="white" x="-1" y="-1" width="114" height="97"/>
<path d="M5.48047 4.21875C6.91276 4.21875 7.72656 4.31641 7.92188 4.51172C8.05208 4.70703 7.92188 5.0651 7.53125 5.58594C7.27083 5.91146 7.10807 6.13932 7.04297 6.26953C6.91276 6.59505 6.84766 6.88802 6.84766 7.14844V17.3047H34.4844V4.21875H38.8789C40.4414 4.21875 41.3854 4.38151 41.7109 4.70703C41.9062 4.90234 41.8411 5.32552 41.5156 5.97656C41.3203 6.30208 41.1901 6.5625 41.125 6.75781C41.0599 7.08333 41.0273 7.3763 41.0273 7.63672V42.9883H0.5V4.21875H5.48047ZM6.84766 22.5781V37.9102H34.4844V22.5781H6.84766ZM62.1211 0.410156H67.2969C68.5339 0.410156 69.25 0.540365 69.4453 0.800781C69.5755 0.996094 69.4779 1.41927 69.1523 2.07031C68.957 2.33073 68.8268 2.52604 68.7617 2.65625C68.6966 2.91667 68.6641 3.17708 68.6641 3.4375V49.1406H62.1211V0.410156ZM7.62891 61.0547H70.1289V66.4258H42.1016C42.1667 68.1836 43.1107 70.0716 44.9336 72.0898C46.6914 74.1081 49.0352 75.9635 51.9648 77.6562C55.0898 79.4792 58.4753 80.8789 62.1211 81.8555C66.0924 82.8971 70.0964 83.3854 74.1328 83.3203L70.6172 89.375C63.5859 88.7891 56.9453 86.8034 50.6953 83.418C45.2266 80.4232 41.2878 77.1029 38.8789 73.457C36.1445 77.2331 32.2383 80.5534 27.1602 83.418C21.0404 86.8034 14.3672 88.7891 7.14062 89.375L3.625 83.418C7.53125 83.4831 11.4701 82.9622 15.4414 81.8555C19.0872 80.8789 22.4401 79.4792 25.5 77.6562C28.4297 75.9635 30.806 74.1081 32.6289 72.0898C34.3867 70.0716 35.3633 68.1836 35.5586 66.4258H7.62891V61.0547ZM25.5977 49.3359H52.0625V54.707H25.5977V49.3359ZM102.453 93.9648V90.1562C104.602 89.375 106.066 88.4635 106.848 87.4219C107.499 86.5104 107.824 85.2409 107.824 83.6133V80H102.453V71.1133H111.34V83.125C111.34 86.1198 110.754 88.3984 109.582 89.9609C108.28 91.6536 105.904 92.9883 102.453 93.9648Z"/>
</mask>
<path d="M5.48047 4.21875C6.91276 4.21875 7.72656 4.31641 7.92188 4.51172C8.05208 4.70703 7.92188 5.0651 7.53125 5.58594C7.27083 5.91146 7.10807 6.13932 7.04297 6.26953C6.91276 6.59505 6.84766 6.88802 6.84766 7.14844V17.3047H34.4844V4.21875H38.8789C40.4414 4.21875 41.3854 4.38151 41.7109 4.70703C41.9062 4.90234 41.8411 5.32552 41.5156 5.97656C41.3203 6.30208 41.1901 6.5625 41.125 6.75781C41.0599 7.08333 41.0273 7.3763 41.0273 7.63672V42.9883H0.5V4.21875H5.48047ZM6.84766 22.5781V37.9102H34.4844V22.5781H6.84766ZM62.1211 0.410156H67.2969C68.5339 0.410156 69.25 0.540365 69.4453 0.800781C69.5755 0.996094 69.4779 1.41927 69.1523 2.07031C68.957 2.33073 68.8268 2.52604 68.7617 2.65625C68.6966 2.91667 68.6641 3.17708 68.6641 3.4375V49.1406H62.1211V0.410156ZM7.62891 61.0547H70.1289V66.4258H42.1016C42.1667 68.1836 43.1107 70.0716 44.9336 72.0898C46.6914 74.1081 49.0352 75.9635 51.9648 77.6562C55.0898 79.4792 58.4753 80.8789 62.1211 81.8555C66.0924 82.8971 70.0964 83.3854 74.1328 83.3203L70.6172 89.375C63.5859 88.7891 56.9453 86.8034 50.6953 83.418C45.2266 80.4232 41.2878 77.1029 38.8789 73.457C36.1445 77.2331 32.2383 80.5534 27.1602 83.418C21.0404 86.8034 14.3672 88.7891 7.14062 89.375L3.625 83.418C7.53125 83.4831 11.4701 82.9622 15.4414 81.8555C19.0872 80.8789 22.4401 79.4792 25.5 77.6562C28.4297 75.9635 30.806 74.1081 32.6289 72.0898C34.3867 70.0716 35.3633 68.1836 35.5586 66.4258H7.62891V61.0547ZM25.5977 49.3359H52.0625V54.707H25.5977V49.3359ZM102.453 93.9648V90.1562C104.602 89.375 106.066 88.4635 106.848 87.4219C107.499 86.5104 107.824 85.2409 107.824 83.6133V80H102.453V71.1133H111.34V83.125C111.34 86.1198 110.754 88.3984 109.582 89.9609C108.28 91.6536 105.904 92.9883 102.453 93.9648Z" fill="#061922"/>
<path d="M7.92188 4.51172L8.75393 3.95702L8.699 3.87463L8.62898 3.80461L7.92188 4.51172ZM7.53125 5.58594L8.31212 6.21063L8.32188 6.19843L8.33125 6.18594L7.53125 5.58594ZM7.04297 6.26953L6.14854 5.82232L6.12994 5.85952L6.11449 5.89814L7.04297 6.26953ZM6.84766 17.3047H5.84766V18.3047H6.84766V17.3047ZM34.4844 17.3047V18.3047H35.4844V17.3047H34.4844ZM34.4844 4.21875V3.21875H33.4844V4.21875H34.4844ZM41.7109 4.70703L41.0038 5.41414L41.7109 4.70703ZM41.5156 5.97656L42.3731 6.49106L42.3929 6.45813L42.4101 6.42378L41.5156 5.97656ZM41.125 6.75781L40.1763 6.44159L40.1566 6.50065L40.1444 6.5617L41.125 6.75781ZM41.0273 42.9883V43.9883H42.0273V42.9883H41.0273ZM0.5 42.9883H-0.5V43.9883H0.5V42.9883ZM0.5 4.21875V3.21875H-0.5V4.21875H0.5ZM6.84766 22.5781V21.5781H5.84766V22.5781H6.84766ZM6.84766 37.9102H5.84766V38.9102H6.84766V37.9102ZM34.4844 37.9102V38.9102H35.4844V37.9102H34.4844ZM34.4844 22.5781H35.4844V21.5781H34.4844V22.5781ZM62.1211 0.410156V-0.589844H61.1211V0.410156H62.1211ZM69.4453 0.800781L70.2774 0.246081L70.262 0.222986L70.2453 0.200781L69.4453 0.800781ZM69.1523 2.07031L69.9523 2.67031L70.0064 2.59818L70.0468 2.51753L69.1523 2.07031ZM68.7617 2.65625L67.8673 2.20904L67.8182 2.30722L67.7916 2.41371L68.7617 2.65625ZM68.6641 49.1406V50.1406H69.6641V49.1406H68.6641ZM62.1211 49.1406H61.1211V50.1406H62.1211V49.1406ZM7.62891 61.0547V60.0547H6.62891V61.0547H7.62891ZM70.1289 61.0547H71.1289V60.0547H70.1289V61.0547ZM70.1289 66.4258V67.4258H71.1289V66.4258H70.1289ZM42.1016 66.4258V65.4258H41.0638L41.1022 66.4628L42.1016 66.4258ZM44.9336 72.0898L45.6877 71.4331L45.6817 71.4263L45.6757 71.4196L44.9336 72.0898ZM51.9648 77.6562L52.4687 76.7925L52.4651 76.7904L51.9648 77.6562ZM62.1211 81.8555L61.8624 82.8214L61.8674 82.8227L62.1211 81.8555ZM74.1328 83.3203L74.9976 83.8224L75.8863 82.2919L74.1167 82.3204L74.1328 83.3203ZM70.6172 89.375L70.5341 90.3715L71.1644 90.4241L71.482 89.8771L70.6172 89.375ZM50.6953 83.418L50.215 84.2951L50.219 84.2973L50.6953 83.418ZM38.8789 73.457L39.7132 72.9058L38.9166 71.7L38.069 72.8705L38.8789 73.457ZM27.1602 83.418L27.6442 84.293L27.6515 84.2889L27.1602 83.418ZM7.14062 89.375L6.27942 89.8833L6.59755 90.4223L7.22144 90.3717L7.14062 89.375ZM3.625 83.418L3.64166 82.4181L1.8562 82.3884L2.76379 83.9262L3.625 83.418ZM15.4414 81.8555L15.1827 80.8895L15.1729 80.8922L15.4414 81.8555ZM25.5 77.6562L24.9997 76.7903L24.9882 76.7971L25.5 77.6562ZM32.6289 72.0898L33.371 72.7601L33.3771 72.7534L33.383 72.7466L32.6289 72.0898ZM35.5586 66.4258L36.5525 66.5362L36.6759 65.4258H35.5586V66.4258ZM7.62891 66.4258H6.62891V67.4258H7.62891V66.4258ZM25.5977 49.3359V48.3359H24.5977V49.3359H25.5977ZM52.0625 49.3359H53.0625V48.3359H52.0625V49.3359ZM52.0625 54.707V55.707H53.0625V54.707H52.0625ZM25.5977 54.707H24.5977V55.707H25.5977V54.707ZM5.48047 5.21875C6.18147 5.21875 6.69716 5.24302 7.04589 5.28487C7.22167 5.30596 7.32718 5.32838 7.38061 5.34389C7.46648 5.36882 7.35054 5.3546 7.21477 5.21883L8.62898 3.80461C8.39555 3.57118 8.10465 3.47151 7.93823 3.4232C7.73939 3.36547 7.51531 3.32685 7.28418 3.29912C6.81911 3.24331 6.21176 3.21875 5.48047 3.21875V5.21875ZM7.08982 5.06642C6.99446 4.92338 6.9707 4.78096 6.9707 4.68872C6.9707 4.60652 6.98875 4.56667 6.98208 4.58501C6.97652 4.60031 6.95849 4.6428 6.9151 4.71603C6.87264 4.78768 6.81276 4.87725 6.73125 4.98594L8.33125 6.18594C8.55012 5.89411 8.74739 5.58277 8.86167 5.2685C8.96733 4.97793 9.08268 4.45015 8.75393 3.95702L7.08982 5.06642ZM6.75038 4.96124C6.49901 5.27545 6.26837 5.58266 6.14854 5.82232L7.9374 6.71675C7.93411 6.72331 7.95427 6.68487 8.0276 6.58221C8.09468 6.4883 8.18836 6.36533 8.31212 6.21063L6.75038 4.96124ZM6.11449 5.89814C5.95242 6.30332 5.84766 6.72507 5.84766 7.14844H7.84766C7.84766 7.05097 7.8731 6.88679 7.97145 6.64092L6.11449 5.89814ZM5.84766 7.14844V17.3047H7.84766V7.14844H5.84766ZM6.84766 18.3047H34.4844V16.3047H6.84766V18.3047ZM35.4844 17.3047V4.21875H33.4844V17.3047H35.4844ZM34.4844 5.21875H38.8789V3.21875H34.4844V5.21875ZM38.8789 5.21875C39.634 5.21875 40.1968 5.25868 40.5889 5.32628C41.0366 5.40347 41.0774 5.48773 41.0038 5.41414L42.418 3.99992C42.0189 3.60081 41.425 3.44093 40.9287 3.35536C40.3768 3.2602 39.6863 3.21875 38.8789 3.21875V5.21875ZM41.0038 5.41414C40.8965 5.30681 40.8478 5.18666 40.83 5.10225C40.8144 5.02814 40.8243 4.99253 40.8202 5.01884C40.8166 5.04263 40.8045 5.09744 40.7711 5.18926C40.7384 5.27938 40.6898 5.39208 40.6212 5.52935L42.4101 6.42378C42.5916 6.06072 42.7414 5.68436 42.797 5.32296C42.8506 4.97433 42.8434 4.42533 42.418 3.99992L41.0038 5.41414ZM40.6581 5.46207C40.4511 5.80715 40.2763 6.14177 40.1763 6.44159L42.0737 7.07404C42.104 6.98323 42.1895 6.79702 42.3731 6.49106L40.6581 5.46207ZM40.1444 6.5617C40.0697 6.93513 40.0273 7.29539 40.0273 7.63672H42.0273C42.0273 7.45721 42.0501 7.23154 42.1056 6.95393L40.1444 6.5617ZM40.0273 7.63672V42.9883H42.0273V7.63672H40.0273ZM41.0273 41.9883H0.5V43.9883H41.0273V41.9883ZM1.5 42.9883V4.21875H-0.5V42.9883H1.5ZM0.5 5.21875H5.48047V3.21875H0.5V5.21875ZM5.84766 22.5781V37.9102H7.84766V22.5781H5.84766ZM6.84766 38.9102H34.4844V36.9102H6.84766V38.9102ZM35.4844 37.9102V22.5781H33.4844V37.9102H35.4844ZM34.4844 21.5781H6.84766V23.5781H34.4844V21.5781ZM62.1211 1.41016H67.2969V-0.589844H62.1211V1.41016ZM67.2969 1.41016C67.8907 1.41016 68.3106 1.44218 68.5828 1.49168C68.719 1.51643 68.7863 1.54003 68.8073 1.54903C68.8377 1.56207 68.7426 1.53055 68.6453 1.40078L70.2453 0.200781C70.0503 -0.0591993 69.7925 -0.204649 69.5951 -0.289262C69.3882 -0.377921 69.1626 -0.435702 68.9406 -0.476057C68.4967 -0.556762 67.94 -0.589844 67.2969 -0.589844V1.41016ZM68.6133 1.35548C68.5193 1.2145 68.5041 1.08886 68.5016 1.04255C68.4993 0.997701 68.5065 0.991405 68.4953 1.03979C68.4722 1.14002 68.4056 1.32764 68.2579 1.6231L70.0468 2.51753C70.2246 2.16195 70.3696 1.81246 70.4441 1.48951C70.507 1.21704 70.5828 0.704251 70.2774 0.246081L68.6133 1.35548ZM68.3523 1.47031C68.154 1.73482 67.9759 1.99182 67.8673 2.20904L69.6561 3.10346C69.6777 3.06026 69.7601 2.92664 69.9523 2.67031L68.3523 1.47031ZM67.7916 2.41371C67.7073 2.751 67.6641 3.09283 67.6641 3.4375H69.6641C69.6641 3.26133 69.686 3.08233 69.7319 2.89879L67.7916 2.41371ZM67.6641 3.4375V49.1406H69.6641V3.4375H67.6641ZM68.6641 48.1406H62.1211V50.1406H68.6641V48.1406ZM63.1211 49.1406V0.410156H61.1211V49.1406H63.1211ZM7.62891 62.0547H70.1289V60.0547H7.62891V62.0547ZM69.1289 61.0547V66.4258H71.1289V61.0547H69.1289ZM70.1289 65.4258H42.1016V67.4258H70.1289V65.4258ZM41.1022 66.4628C41.1797 68.5538 42.293 70.6582 44.1915 72.7601L45.6757 71.4196C43.9284 69.485 43.1536 67.8134 43.1009 66.3888L41.1022 66.4628ZM44.1795 72.7466C46.0261 74.8667 48.4634 76.7881 51.4646 78.5221L52.4651 76.7904C49.6069 75.139 47.3567 73.3494 45.6877 71.4331L44.1795 72.7466ZM51.461 78.52C54.666 80.3896 58.1344 81.8228 61.8624 82.8214L62.3798 80.8895C58.8162 79.935 55.5136 78.5687 52.4687 76.7925L51.461 78.52ZM61.8674 82.8227C65.9253 83.8871 70.0199 84.3868 74.1489 84.3202L74.1167 82.3204C70.1728 82.3841 66.2596 81.9072 62.3748 80.8882L61.8674 82.8227ZM73.268 82.8182L69.7524 88.8729L71.482 89.8771L74.9976 83.8224L73.268 82.8182ZM70.7002 88.3785C63.8078 87.8041 57.301 85.8587 51.1716 82.5387L50.219 84.2973C56.5897 87.748 63.3641 89.774 70.5341 90.3715L70.7002 88.3785ZM51.1756 82.5409C45.7926 79.593 42.0023 76.3703 39.7132 72.9058L38.0446 74.0083C40.5732 77.8355 44.6606 81.2534 50.215 84.2951L51.1756 82.5409ZM38.069 72.8705C35.4375 76.5045 31.652 79.736 26.6688 82.547L27.6515 84.2889C32.8245 81.3708 36.8516 77.9616 39.6888 74.0435L38.069 72.8705ZM26.6761 82.5429C20.6851 85.8571 14.1502 87.8034 7.05981 88.3783L7.22144 90.3717C14.5842 89.7747 21.3956 87.7497 27.6442 84.293L26.6761 82.5429ZM8.00183 88.8667L4.48621 82.9097L2.76379 83.9262L6.27942 89.8833L8.00183 88.8667ZM3.60834 84.4178C7.61608 84.4846 11.6509 83.95 15.7099 82.8188L15.1729 80.8922C11.2892 81.9745 7.44642 82.4815 3.64166 82.4181L3.60834 84.4178ZM15.7001 82.8214C19.4295 81.8225 22.8683 80.3881 26.0118 78.5154L24.9882 76.7971C22.0119 78.5703 18.7449 79.9353 15.1827 80.8895L15.7001 82.8214ZM26.0003 78.5221C28.9992 76.7894 31.4635 74.872 33.371 72.7601L31.8868 71.4196C30.1484 73.3442 27.8602 75.1377 24.9997 76.7904L26.0003 78.5221ZM33.383 72.7466C35.2101 70.6489 36.3259 68.5757 36.5525 66.5362L34.5647 66.3154C34.4007 67.7915 33.5634 69.4944 31.8748 71.4331L33.383 72.7466ZM35.5586 65.4258H7.62891V67.4258H35.5586V65.4258ZM8.62891 66.4258V61.0547H6.62891V66.4258H8.62891ZM25.5977 50.3359H52.0625V48.3359H25.5977V50.3359ZM51.0625 49.3359V54.707H53.0625V49.3359H51.0625ZM52.0625 53.707H25.5977V55.707H52.0625V53.707ZM26.5977 54.707V49.3359H24.5977V54.707H26.5977ZM102.453 93.9648H101.453V95.2871L102.725 94.927L102.453 93.9648ZM102.453 90.1562L102.111 89.2165L101.453 89.4558V90.1562H102.453ZM106.848 87.4219L107.648 88.0219L107.655 88.0126L107.661 88.0031L106.848 87.4219ZM107.824 80H108.824V79H107.824V80ZM102.453 80H101.453V81H102.453V80ZM102.453 71.1133V70.1133H101.453V71.1133H102.453ZM111.34 71.1133H112.34V70.1133H111.34V71.1133ZM109.582 89.9609L110.375 90.5707L110.382 90.5609L109.582 89.9609ZM103.453 93.9648V90.1562H101.453V93.9648H103.453ZM102.795 91.096C105.005 90.2924 106.691 89.297 107.648 88.0219L106.048 86.8219C105.442 87.6301 104.198 88.4576 102.111 89.2165L102.795 91.096ZM107.661 88.0031C108.477 86.8609 108.824 85.3589 108.824 83.6133H106.824C106.824 85.1228 106.52 86.1599 106.034 86.8406L107.661 88.0031ZM108.824 83.6133V80H106.824V83.6133H108.824ZM107.824 79H102.453V81H107.824V79ZM103.453 80V71.1133H101.453V80H103.453ZM102.453 72.1133H111.34V70.1133H102.453V72.1133ZM110.34 71.1133V83.125H112.34V71.1133H110.34ZM110.34 83.125C110.34 86.0122 109.771 88.042 108.782 89.3609L110.382 90.5609C111.737 88.7549 112.34 86.2274 112.34 83.125H110.34ZM108.789 89.3512C107.681 90.7923 105.552 92.0486 102.181 93.0026L102.725 94.927C106.255 93.928 108.879 92.515 110.375 90.5706L108.789 89.3512Z" fill="#061922" mask="url(#path-1-outside-1_134_1856)"/>
</svg>
