<svg width="319" height="203" viewBox="0 0 319 203" fill="none" xmlns="http://www.w3.org/2000/svg">
<mask id="path-1-outside-1_134_1857" maskUnits="userSpaceOnUse" x="-2" y="-1.42902" width="322" height="206" fill="black">
<rect fill="white" x="-2" y="-1.42902" width="322" height="206"/>
<path d="M5.05859 10.7468H55.3516V16.0202H34.0625C33.0859 24.6791 34.6484 33.0775 38.75 41.2155C43.1771 50.0697 49.5898 56.3197 57.9883 59.9655L52.1289 64.653C46.9857 61.528 42.4609 57.5241 38.5547 52.6413C34.3229 47.433 31.4909 42.1595 30.0586 36.821C28.2357 41.8991 25.013 47.0749 20.3906 52.3483C15.8984 57.4265 11.0482 61.528 5.83984 64.653L0.078125 60.3561C8.60677 55.7337 15.2474 49.8744 20 42.778C25.3385 34.7702 27.7474 25.8509 27.2266 16.0202H5.05859V10.7468ZM74.4922 0.395203C76.1849 0.590515 77.194 0.850932 77.5195 1.17645C77.7148 1.37177 77.6172 1.72984 77.2266 2.25067C76.9661 2.57619 76.7708 2.83661 76.6406 3.03192C76.5104 3.42255 76.4453 3.81317 76.4453 4.2038V86.235H69.8047V0.395203H74.4922ZM112.969 4.10614H177.422C176.901 10.877 176.25 16.7363 175.469 21.6843C174.818 25.7207 173.874 30.3757 172.637 35.6491H187.969V41.1179H102.715V35.6491H165.801C166.973 30.7663 167.917 26.6322 168.633 23.2468C169.479 17.9733 169.87 13.416 169.805 9.57489H112.969V4.10614ZM116.289 53.1296H174.395V86.235H167.559V83.5007H122.93V86.1374H116.289V53.1296ZM167.559 58.3054H122.93V78.5202H167.559V58.3054ZM27.3242 130.434C22.2461 130.434 18.2096 132.908 15.2148 137.856C12.4154 142.348 11.0156 147.85 11.0156 154.36C11.0156 160.805 12.4154 166.242 15.2148 170.669C18.2096 175.682 22.2461 178.188 27.3242 178.188C32.4023 178.188 36.3737 175.682 39.2383 170.669C41.9076 166.242 43.2422 160.805 43.2422 154.36C43.2422 147.85 41.9076 142.348 39.2383 137.856C36.3737 132.908 32.4023 130.434 27.3242 130.434ZM27.2266 124.966C34.4531 124.966 40.2474 128.025 44.6094 134.145C48.3854 139.614 50.2734 146.385 50.2734 154.458C50.2734 162.466 48.3854 169.204 44.6094 174.673C40.2474 180.923 34.4531 184.048 27.2266 184.048C19.9349 184.048 14.2057 180.923 10.0391 174.673C6.13281 169.204 4.17969 162.466 4.17969 154.458C4.17969 146.385 6.13281 139.614 10.0391 134.145C14.2057 128.025 19.9349 124.966 27.2266 124.966ZM74.8828 114.028C76.5104 114.223 77.4544 114.451 77.7148 114.712C77.9102 114.907 77.8451 115.265 77.5195 115.786C77.194 116.242 76.9987 116.632 76.9336 116.958C76.7383 117.479 76.6406 118.032 76.6406 118.618V200.356H69.8047V114.028H74.8828ZM111.699 119.204H176.348C176.348 125.519 176.055 130.923 175.469 135.415C174.818 141.014 173.678 146.417 172.051 151.626L165.508 150.258C167.005 145.897 168.112 141.437 168.828 136.88C169.284 133.234 169.512 129.165 169.512 124.673H111.699V119.204ZM102.715 156.508H138.945V136.489H143.926C145.423 136.489 146.302 136.619 146.562 136.88C146.693 137.075 146.562 137.563 146.172 138.344C145.977 138.735 145.846 139.028 145.781 139.223C145.651 139.549 145.586 139.874 145.586 140.2V156.508H187.383V161.977H102.715V156.508ZM146.855 169.399C148.223 169.529 149.004 169.79 149.199 170.18C149.329 170.376 149.199 170.766 148.809 171.352C148.483 171.808 148.288 172.101 148.223 172.231C148.092 172.557 148.027 172.882 148.027 173.208C149.785 179.458 153.431 184.796 158.965 189.223C164.564 193.781 171.335 196.613 179.277 197.719L174.199 202.993C167.624 201.691 161.667 198.989 156.328 194.887C151.055 190.851 147.116 185.968 144.512 180.239C141.517 186.359 137.057 191.339 131.133 195.18C125.924 198.631 119.935 200.942 113.164 202.114L108.672 196.938C117.005 195.897 124.134 193.097 130.059 188.54C136.699 183.397 140.247 176.854 140.703 168.911L146.855 169.399ZM274.492 114.809C276.25 115.005 277.292 115.2 277.617 115.395C277.878 115.525 277.812 115.883 277.422 116.469C277.161 116.86 276.966 117.153 276.836 117.348C276.706 117.739 276.641 118.13 276.641 118.52V200.649H270V114.809H274.492ZM256.621 118.032C258.249 118.162 259.225 118.357 259.551 118.618C259.681 118.813 259.616 119.171 259.355 119.692C259.225 119.887 259.095 120.05 258.965 120.18C258.9 120.441 258.867 120.701 258.867 120.962V194.106H252.324V157.583H239.531C239.531 163.507 238.034 168.618 235.039 172.915C231.263 178.383 225.859 181.118 218.828 181.118C213.099 181.118 208.477 178.253 204.961 172.524C201.706 167.251 200.111 160.968 200.176 153.676C200.176 146.385 201.836 140.232 205.156 135.219C208.737 129.751 213.652 127.016 219.902 127.016C226.348 127.016 231.296 129.458 234.746 134.341C238.001 138.768 239.596 144.594 239.531 151.821H252.324V118.032H256.621ZM220 132.973C215.833 132.973 212.546 135.187 210.137 139.614C207.923 143.455 206.816 148.273 206.816 154.067C206.816 159.731 207.923 164.549 210.137 168.52C212.546 172.947 215.833 175.161 220 175.161C224.036 175.161 227.292 172.947 229.766 168.52C231.914 164.549 232.988 159.731 232.988 154.067C232.988 148.273 231.914 143.455 229.766 139.614C227.292 135.187 224.036 132.973 220 132.973ZM309.258 195.571V186.684H318.145V195.571H309.258Z"/>
</mask>
<path d="M5.05859 10.7468H55.3516V16.0202H34.0625C33.0859 24.6791 34.6484 33.0775 38.75 41.2155C43.1771 50.0697 49.5898 56.3197 57.9883 59.9655L52.1289 64.653C46.9857 61.528 42.4609 57.5241 38.5547 52.6413C34.3229 47.433 31.4909 42.1595 30.0586 36.821C28.2357 41.8991 25.013 47.0749 20.3906 52.3483C15.8984 57.4265 11.0482 61.528 5.83984 64.653L0.078125 60.3561C8.60677 55.7337 15.2474 49.8744 20 42.778C25.3385 34.7702 27.7474 25.8509 27.2266 16.0202H5.05859V10.7468ZM74.4922 0.395203C76.1849 0.590515 77.194 0.850932 77.5195 1.17645C77.7148 1.37177 77.6172 1.72984 77.2266 2.25067C76.9661 2.57619 76.7708 2.83661 76.6406 3.03192C76.5104 3.42255 76.4453 3.81317 76.4453 4.2038V86.235H69.8047V0.395203H74.4922ZM112.969 4.10614H177.422C176.901 10.877 176.25 16.7363 175.469 21.6843C174.818 25.7207 173.874 30.3757 172.637 35.6491H187.969V41.1179H102.715V35.6491H165.801C166.973 30.7663 167.917 26.6322 168.633 23.2468C169.479 17.9733 169.87 13.416 169.805 9.57489H112.969V4.10614ZM116.289 53.1296H174.395V86.235H167.559V83.5007H122.93V86.1374H116.289V53.1296ZM167.559 58.3054H122.93V78.5202H167.559V58.3054ZM27.3242 130.434C22.2461 130.434 18.2096 132.908 15.2148 137.856C12.4154 142.348 11.0156 147.85 11.0156 154.36C11.0156 160.805 12.4154 166.242 15.2148 170.669C18.2096 175.682 22.2461 178.188 27.3242 178.188C32.4023 178.188 36.3737 175.682 39.2383 170.669C41.9076 166.242 43.2422 160.805 43.2422 154.36C43.2422 147.85 41.9076 142.348 39.2383 137.856C36.3737 132.908 32.4023 130.434 27.3242 130.434ZM27.2266 124.966C34.4531 124.966 40.2474 128.025 44.6094 134.145C48.3854 139.614 50.2734 146.385 50.2734 154.458C50.2734 162.466 48.3854 169.204 44.6094 174.673C40.2474 180.923 34.4531 184.048 27.2266 184.048C19.9349 184.048 14.2057 180.923 10.0391 174.673C6.13281 169.204 4.17969 162.466 4.17969 154.458C4.17969 146.385 6.13281 139.614 10.0391 134.145C14.2057 128.025 19.9349 124.966 27.2266 124.966ZM74.8828 114.028C76.5104 114.223 77.4544 114.451 77.7148 114.712C77.9102 114.907 77.8451 115.265 77.5195 115.786C77.194 116.242 76.9987 116.632 76.9336 116.958C76.7383 117.479 76.6406 118.032 76.6406 118.618V200.356H69.8047V114.028H74.8828ZM111.699 119.204H176.348C176.348 125.519 176.055 130.923 175.469 135.415C174.818 141.014 173.678 146.417 172.051 151.626L165.508 150.258C167.005 145.897 168.112 141.437 168.828 136.88C169.284 133.234 169.512 129.165 169.512 124.673H111.699V119.204ZM102.715 156.508H138.945V136.489H143.926C145.423 136.489 146.302 136.619 146.562 136.88C146.693 137.075 146.562 137.563 146.172 138.344C145.977 138.735 145.846 139.028 145.781 139.223C145.651 139.549 145.586 139.874 145.586 140.2V156.508H187.383V161.977H102.715V156.508ZM146.855 169.399C148.223 169.529 149.004 169.79 149.199 170.18C149.329 170.376 149.199 170.766 148.809 171.352C148.483 171.808 148.288 172.101 148.223 172.231C148.092 172.557 148.027 172.882 148.027 173.208C149.785 179.458 153.431 184.796 158.965 189.223C164.564 193.781 171.335 196.613 179.277 197.719L174.199 202.993C167.624 201.691 161.667 198.989 156.328 194.887C151.055 190.851 147.116 185.968 144.512 180.239C141.517 186.359 137.057 191.339 131.133 195.18C125.924 198.631 119.935 200.942 113.164 202.114L108.672 196.938C117.005 195.897 124.134 193.097 130.059 188.54C136.699 183.397 140.247 176.854 140.703 168.911L146.855 169.399ZM274.492 114.809C276.25 115.005 277.292 115.2 277.617 115.395C277.878 115.525 277.812 115.883 277.422 116.469C277.161 116.86 276.966 117.153 276.836 117.348C276.706 117.739 276.641 118.13 276.641 118.52V200.649H270V114.809H274.492ZM256.621 118.032C258.249 118.162 259.225 118.357 259.551 118.618C259.681 118.813 259.616 119.171 259.355 119.692C259.225 119.887 259.095 120.05 258.965 120.18C258.9 120.441 258.867 120.701 258.867 120.962V194.106H252.324V157.583H239.531C239.531 163.507 238.034 168.618 235.039 172.915C231.263 178.383 225.859 181.118 218.828 181.118C213.099 181.118 208.477 178.253 204.961 172.524C201.706 167.251 200.111 160.968 200.176 153.676C200.176 146.385 201.836 140.232 205.156 135.219C208.737 129.751 213.652 127.016 219.902 127.016C226.348 127.016 231.296 129.458 234.746 134.341C238.001 138.768 239.596 144.594 239.531 151.821H252.324V118.032H256.621ZM220 132.973C215.833 132.973 212.546 135.187 210.137 139.614C207.923 143.455 206.816 148.273 206.816 154.067C206.816 159.731 207.923 164.549 210.137 168.52C212.546 172.947 215.833 175.161 220 175.161C224.036 175.161 227.292 172.947 229.766 168.52C231.914 164.549 232.988 159.731 232.988 154.067C232.988 148.273 231.914 143.455 229.766 139.614C227.292 135.187 224.036 132.973 220 132.973ZM309.258 195.571V186.684H318.145V195.571H309.258Z" fill="#061922"/>
<path d="M5.05859 10.7468V9.74677H4.05859V10.7468H5.05859ZM55.3516 10.7468H56.3516V9.74677H55.3516V10.7468ZM55.3516 16.0202V17.0202H56.3516V16.0202H55.3516ZM34.0625 16.0202V15.0202H33.1689L33.0688 15.9081L34.0625 16.0202ZM38.75 41.2155L39.6444 40.7683L39.643 40.7654L38.75 41.2155ZM57.9883 59.9655L58.613 60.7464L59.9093 59.7093L58.3865 59.0482L57.9883 59.9655ZM52.1289 64.653L51.6096 65.5076L52.2074 65.8708L52.7536 65.4339L52.1289 64.653ZM38.5547 52.6413L39.3356 52.0166L39.3308 52.0107L38.5547 52.6413ZM30.0586 36.821L31.0244 36.5619L30.1967 33.4766L29.1174 36.4831L30.0586 36.821ZM20.3906 52.3483L21.1396 53.0109L21.1426 53.0075L20.3906 52.3483ZM5.83984 64.653L5.24202 65.4546L5.77945 65.8554L6.35434 65.5105L5.83984 64.653ZM0.078125 60.3561L-0.398375 59.477L-1.77386 60.2225L-0.519699 61.1578L0.078125 60.3561ZM20 42.778L20.8309 43.3345L20.8321 43.3327L20 42.778ZM27.2266 16.0202L28.2252 15.9673L28.175 15.0202H27.2266V16.0202ZM5.05859 16.0202H4.05859V17.0202H5.05859V16.0202ZM74.4922 0.395203L74.6068 -0.598207L74.5497 -0.604797H74.4922V0.395203ZM77.2266 2.25067L78.0074 2.87537L78.0172 2.86317L78.0266 2.85067L77.2266 2.25067ZM76.6406 3.03192L75.8086 2.47722L75.7343 2.58865L75.6919 2.71569L76.6406 3.03192ZM76.4453 86.235V87.235H77.4453V86.235H76.4453ZM69.8047 86.235H68.8047V87.235H69.8047V86.235ZM69.8047 0.395203V-0.604797H68.8047V0.395203H69.8047ZM5.05859 11.7468H55.3516V9.74677H5.05859V11.7468ZM54.3516 10.7468V16.0202H56.3516V10.7468H54.3516ZM55.3516 15.0202H34.0625V17.0202H55.3516V15.0202ZM33.0688 15.9081C32.0694 24.7693 33.6722 33.3623 37.857 41.6656L39.643 40.7654C35.6247 32.7926 34.1025 24.5888 35.0562 16.1323L33.0688 15.9081ZM37.8556 41.6627C42.3785 50.7087 48.958 57.1356 57.5901 60.8828L58.3865 59.0482C50.2216 55.5038 43.9756 49.4307 39.6444 40.7683L37.8556 41.6627ZM57.3636 59.1846L51.5042 63.8721L52.7536 65.4339L58.613 60.7464L57.3636 59.1846ZM52.6482 63.7984C47.6088 60.7365 43.1716 56.8117 39.3356 52.0166L37.7738 53.266C41.7503 58.2365 46.3626 62.3195 51.6096 65.5076L52.6482 63.7984ZM39.3308 52.0107C35.1691 46.8886 32.4134 41.7388 31.0244 36.5619L29.0928 37.0801C30.5684 42.5803 33.4767 47.9773 37.7786 53.2719L39.3308 52.0107ZM29.1174 36.4831C27.3474 41.4137 24.2019 46.4831 19.6386 51.6892L21.1426 53.0075C25.8241 47.6666 29.1239 42.3845 30.9998 37.1588L29.1174 36.4831ZM19.6416 51.6858C15.2094 56.6961 10.4365 60.7288 5.32535 63.7955L6.35434 65.5105C11.6599 62.3272 16.5875 58.1568 21.1396 53.0109L19.6416 51.6858ZM6.43767 63.8514L0.675949 59.5545L-0.519699 61.1578L5.24202 65.4546L6.43767 63.8514ZM0.554625 61.2353C9.20626 56.5463 15.9764 50.5829 20.8309 43.3345L19.1691 42.2216C14.5184 49.1659 8.00728 54.9212 -0.398375 59.477L0.554625 61.2353ZM20.8321 43.3327C26.293 35.1412 28.7571 26.0079 28.2252 15.9673L26.228 16.0731C26.7377 25.6939 24.384 34.3992 19.1679 42.2233L20.8321 43.3327ZM27.2266 15.0202H5.05859V17.0202H27.2266V15.0202ZM6.05859 16.0202V10.7468H4.05859V16.0202H6.05859ZM74.3776 1.38861C75.203 1.48386 75.8275 1.59142 76.2687 1.70528C76.768 1.83414 76.8589 1.93002 76.8124 1.88356L78.2266 0.469346C77.8547 0.0973692 77.2782 -0.0997248 76.7684 -0.231277C76.2005 -0.377838 75.4741 -0.498139 74.6068 -0.598207L74.3776 1.38861ZM76.8124 1.88356C76.7135 1.78466 76.6491 1.6564 76.6263 1.52724C76.606 1.41228 76.6255 1.33757 76.628 1.32837C76.6307 1.31852 76.6252 1.34233 76.5904 1.40492C76.5568 1.46542 76.5044 1.54686 76.4266 1.65067L78.0266 2.85067C78.2492 2.55379 78.4594 2.21433 78.5575 1.85461C78.6639 1.46471 78.6637 0.906423 78.2266 0.469346L76.8124 1.88356ZM76.4457 1.62598C76.1787 1.95967 75.9625 2.24626 75.8086 2.47722L77.4727 3.58662C77.5791 3.42696 77.7536 3.19271 78.0074 2.87537L76.4457 1.62598ZM75.6919 2.71569C75.5296 3.20274 75.4453 3.69999 75.4453 4.2038H77.4453C77.4453 3.92635 77.4912 3.64236 77.5893 3.34815L75.6919 2.71569ZM75.4453 4.2038V86.235H77.4453V4.2038H75.4453ZM76.4453 85.235H69.8047V87.235H76.4453V85.235ZM70.8047 86.235V0.395203H68.8047V86.235H70.8047ZM69.8047 1.3952H74.4922V-0.604797H69.8047V1.3952ZM112.969 4.10614V3.10614H111.969V4.10614H112.969ZM177.422 4.10614L178.419 4.18284L178.502 3.10614H177.422V4.10614ZM175.469 21.6843L176.456 21.8435L176.457 21.8402L175.469 21.6843ZM172.637 35.6491L171.663 35.4207L171.375 36.6491H172.637V35.6491ZM187.969 35.6491H188.969V34.6491H187.969V35.6491ZM187.969 41.1179V42.1179H188.969V41.1179H187.969ZM102.715 41.1179H101.715V42.1179H102.715V41.1179ZM102.715 35.6491V34.6491H101.715V35.6491H102.715ZM165.801 35.6491V36.6491H166.589L166.773 35.8825L165.801 35.6491ZM168.633 23.2468L169.611 23.4537L169.616 23.4296L169.62 23.4052L168.633 23.2468ZM169.805 9.57489L170.805 9.55794L170.788 8.57489H169.805V9.57489ZM112.969 9.57489H111.969V10.5749H112.969V9.57489ZM116.289 53.1296V52.1296H115.289V53.1296H116.289ZM174.395 53.1296H175.395V52.1296H174.395V53.1296ZM174.395 86.235V87.235H175.395V86.235H174.395ZM167.559 86.235H166.559V87.235H167.559V86.235ZM167.559 83.5007H168.559V82.5007H167.559V83.5007ZM122.93 83.5007V82.5007H121.93V83.5007H122.93ZM122.93 86.1374V87.1374H123.93V86.1374H122.93ZM116.289 86.1374H115.289V87.1374H116.289V86.1374ZM167.559 58.3054H168.559V57.3054H167.559V58.3054ZM122.93 58.3054V57.3054H121.93V58.3054H122.93ZM122.93 78.5202H121.93V79.5202H122.93V78.5202ZM167.559 78.5202V79.5202H168.559V78.5202H167.559ZM112.969 5.10614H177.422V3.10614H112.969V5.10614ZM176.425 4.02944C175.905 10.7824 175.257 16.614 174.481 21.5283L176.457 21.8402C177.243 16.8587 177.897 10.9716 178.419 4.18284L176.425 4.02944ZM174.482 21.525C173.835 25.5323 172.896 30.1633 171.663 35.4207L173.61 35.8775C174.851 30.588 175.8 25.9092 176.456 21.8435L174.482 21.525ZM172.637 36.6491H187.969V34.6491H172.637V36.6491ZM186.969 35.6491V41.1179H188.969V35.6491H186.969ZM187.969 40.1179H102.715V42.1179H187.969V40.1179ZM103.715 41.1179V35.6491H101.715V41.1179H103.715ZM102.715 36.6491H165.801V34.6491H102.715V36.6491ZM166.773 35.8825C167.946 30.9944 168.893 26.8509 169.611 23.4537L167.654 23.0398C166.941 26.4134 165.999 30.5382 164.828 35.4157L166.773 35.8825ZM169.62 23.4052C170.473 18.0944 170.871 13.4755 170.805 9.55794L168.805 9.59184C168.869 13.3565 168.486 17.8523 167.645 23.0883L169.62 23.4052ZM169.805 8.57489H112.969V10.5749H169.805V8.57489ZM113.969 9.57489V4.10614H111.969V9.57489H113.969ZM116.289 54.1296H174.395V52.1296H116.289V54.1296ZM173.395 53.1296V86.235H175.395V53.1296H173.395ZM174.395 85.235H167.559V87.235H174.395V85.235ZM168.559 86.235V83.5007H166.559V86.235H168.559ZM167.559 82.5007H122.93V84.5007H167.559V82.5007ZM121.93 83.5007V86.1374H123.93V83.5007H121.93ZM122.93 85.1374H116.289V87.1374H122.93V85.1374ZM117.289 86.1374V53.1296H115.289V86.1374H117.289ZM167.559 57.3054H122.93V59.3054H167.559V57.3054ZM121.93 58.3054V78.5202H123.93V58.3054H121.93ZM122.93 79.5202H167.559V77.5202H122.93V79.5202ZM168.559 78.5202V58.3054H166.559V78.5202H168.559ZM15.2148 137.856L16.0636 138.385L16.0703 138.374L15.2148 137.856ZM15.2148 170.669L16.0733 170.156L16.0668 170.145L16.06 170.134L15.2148 170.669ZM39.2383 170.669L38.3819 170.152L38.3759 170.162L38.37 170.173L39.2383 170.669ZM39.2383 137.856L38.3728 138.357L38.3786 138.367L39.2383 137.856ZM44.6094 134.145L45.4323 133.577L45.428 133.571L45.4237 133.565L44.6094 134.145ZM44.6094 174.673L45.4294 175.245L45.4323 175.241L44.6094 174.673ZM10.0391 174.673L10.8711 174.118L10.8622 174.104L10.8528 174.091L10.0391 174.673ZM10.0391 134.145L10.8528 134.726L10.8593 134.717L10.8657 134.708L10.0391 134.145ZM74.8828 114.028L75.002 113.035L74.9426 113.028H74.8828V114.028ZM77.5195 115.786L78.3333 116.367L78.3512 116.342L78.3675 116.316L77.5195 115.786ZM76.9336 116.958L77.8699 117.309L77.8983 117.233L77.9142 117.154L76.9336 116.958ZM76.6406 200.356V201.356H77.6406V200.356H76.6406ZM69.8047 200.356H68.8047V201.356H69.8047V200.356ZM69.8047 114.028V113.028H68.8047V114.028H69.8047ZM27.3242 129.434C21.842 129.434 17.5054 132.141 14.3593 137.338L16.0703 138.374C18.9139 133.676 22.6502 131.434 27.3242 131.434V129.434ZM14.3662 137.327C11.4473 142.011 10.0156 147.706 10.0156 154.36H12.0156C12.0156 147.994 13.3835 142.686 16.0635 138.385L14.3662 137.327ZM10.0156 154.36C10.0156 160.951 11.448 166.583 14.3696 171.203L16.06 170.134C13.3827 165.9 12.0156 160.66 12.0156 154.36H10.0156ZM14.3564 171.181C17.4995 176.443 21.8356 179.188 27.3242 179.188V177.188C22.6565 177.188 18.9198 174.921 16.0733 170.156L14.3564 171.181ZM27.3242 179.188C32.8167 179.188 37.0932 176.438 40.1065 171.165L38.37 170.173C35.6542 174.925 31.988 177.188 27.3242 177.188V179.188ZM40.0947 171.185C42.8785 166.568 44.2422 160.943 44.2422 154.36H42.2422C42.2422 160.668 40.9366 165.915 38.3819 170.152L40.0947 171.185ZM44.2422 154.36C44.2422 147.714 42.8792 142.026 40.098 137.345L38.3786 138.367C40.936 142.671 42.2422 147.986 42.2422 154.36H44.2422ZM40.1037 137.355C37.0874 132.145 32.8101 129.434 27.3242 129.434V131.434C31.9945 131.434 35.66 133.671 38.3729 138.357L40.1037 137.355ZM27.2266 125.966C34.1148 125.966 39.6119 128.857 43.7951 134.726L45.4237 133.565C40.8829 127.194 34.7914 123.966 27.2266 123.966V125.966ZM43.7865 134.713C47.4244 139.982 49.2734 146.544 49.2734 154.458H51.2734C51.2734 146.226 49.3465 139.246 45.4323 133.577L43.7865 134.713ZM49.2734 154.458C49.2734 162.305 47.4253 168.834 43.7865 174.104L45.4323 175.241C49.3456 169.573 51.2734 162.626 51.2734 154.458H49.2734ZM43.7893 174.1C39.6023 180.1 34.1057 183.048 27.2266 183.048V185.048C34.8005 185.048 40.8925 181.746 45.4294 175.245L43.7893 174.1ZM27.2266 183.048C20.2812 183.048 14.859 180.1 10.8711 174.118L9.20701 175.227C13.5524 181.745 19.5886 185.048 27.2266 185.048V183.048ZM10.8528 174.091C7.08948 168.823 5.17969 162.298 5.17969 154.458H3.17969C3.17969 162.633 5.17615 169.585 9.22533 175.254L10.8528 174.091ZM5.17969 154.458C5.17969 146.55 7.09043 139.994 10.8528 134.726L9.22533 133.564C5.17519 139.234 3.17969 146.219 3.17969 154.458H5.17969ZM10.8657 134.708C14.8495 128.857 20.2718 125.966 27.2266 125.966V123.966C19.5979 123.966 13.5619 127.194 9.21246 133.582L10.8657 134.708ZM74.7637 115.021C75.5611 115.117 76.16 115.217 76.5769 115.317C76.7858 115.368 76.9274 115.413 77.0157 115.449C77.1225 115.492 77.0837 115.495 77.0077 115.419L78.422 114.005C78.2158 113.798 77.9613 113.674 77.7671 113.596C77.5542 113.509 77.3092 113.437 77.0462 113.373C76.5191 113.246 75.8321 113.135 75.002 113.035L74.7637 115.021ZM77.0077 115.419C76.9211 115.332 76.8641 115.224 76.8391 115.118C76.8164 115.021 76.8269 114.957 76.8286 114.948C76.8303 114.939 76.8272 114.961 76.801 115.02C76.7756 115.077 76.7345 115.155 76.6715 115.256L78.3675 116.316C78.5577 116.012 78.7308 115.666 78.7964 115.306C78.867 114.917 78.8227 114.405 78.422 114.005L77.0077 115.419ZM76.7058 115.205C76.347 115.707 76.0586 116.233 75.953 116.762L77.9142 117.154C77.9388 117.031 78.041 116.776 78.3333 116.367L76.7058 115.205ZM75.9973 116.607C75.7576 117.246 75.6406 117.918 75.6406 118.618H77.6406C77.6406 118.145 77.7189 117.711 77.8699 117.309L75.9973 116.607ZM75.6406 118.618V200.356H77.6406V118.618H75.6406ZM76.6406 199.356H69.8047V201.356H76.6406V199.356ZM70.8047 200.356V114.028H68.8047V200.356H70.8047ZM69.8047 115.028H74.8828V113.028H69.8047V115.028ZM111.699 119.204V118.204H110.699V119.204H111.699ZM176.348 119.204H177.348V118.204H176.348V119.204ZM175.469 135.415L174.477 135.285L174.475 135.299L175.469 135.415ZM172.051 151.626L171.846 152.605L172.735 152.79L173.005 151.924L172.051 151.626ZM165.508 150.258L164.562 149.934L164.194 151.006L165.303 151.237L165.508 150.258ZM168.828 136.88L169.816 137.035L169.818 137.019L169.82 137.004L168.828 136.88ZM169.512 124.673H170.512V123.673H169.512V124.673ZM111.699 124.673H110.699V125.673H111.699V124.673ZM102.715 156.508V155.508H101.715V156.508H102.715ZM138.945 156.508V157.508H139.945V156.508H138.945ZM138.945 136.489V135.489H137.945V136.489H138.945ZM146.562 136.88L147.395 136.325L147.34 136.242L147.27 136.172L146.562 136.88ZM145.781 139.223L146.71 139.595L146.721 139.567L146.73 139.54L145.781 139.223ZM145.586 156.508H144.586V157.508H145.586V156.508ZM187.383 156.508H188.383V155.508H187.383V156.508ZM187.383 161.977V162.977H188.383V161.977H187.383ZM102.715 161.977H101.715V162.977H102.715V161.977ZM146.855 169.399L146.95 168.404L146.942 168.403L146.935 168.402L146.855 169.399ZM149.199 170.18L148.305 170.628L148.333 170.683L148.367 170.735L149.199 170.18ZM148.809 171.352L149.622 171.933L149.632 171.92L149.641 171.907L148.809 171.352ZM148.223 172.231L147.328 171.784L147.31 171.821L147.294 171.86L148.223 172.231ZM148.027 173.208H147.027V173.346L147.065 173.478L148.027 173.208ZM158.965 189.223L159.596 188.448L159.59 188.442L158.965 189.223ZM179.277 197.719L179.998 198.413L181.359 197L179.415 196.729L179.277 197.719ZM174.199 202.993L174.005 203.974L174.541 204.08L174.92 203.687L174.199 202.993ZM156.328 194.887L156.937 194.094L156.936 194.093L156.328 194.887ZM144.512 180.239L145.422 179.825L144.545 177.896L143.613 179.799L144.512 180.239ZM131.133 195.18L130.589 194.341L130.581 194.347L131.133 195.18ZM113.164 202.114L112.409 202.769L112.779 203.196L113.335 203.099L113.164 202.114ZM108.672 196.938L108.548 195.946L106.688 196.178L107.917 197.594L108.672 196.938ZM130.059 188.54L130.668 189.332L130.671 189.33L130.059 188.54ZM140.703 168.911L140.782 167.914L139.763 167.833L139.705 168.854L140.703 168.911ZM111.699 120.204H176.348V118.204H111.699V120.204ZM175.348 119.204C175.348 125.491 175.056 130.849 174.477 135.285L176.46 135.544C177.054 130.996 177.348 125.547 177.348 119.204H175.348ZM174.475 135.299C173.831 140.838 172.705 146.181 171.096 151.327L173.005 151.924C174.652 146.654 175.804 141.189 176.462 135.53L174.475 135.299ZM172.255 150.647L165.712 149.28L165.303 151.237L171.846 152.605L172.255 150.647ZM166.454 150.583C167.97 146.166 169.091 141.65 169.816 137.035L167.84 136.724C167.133 141.224 166.04 145.627 164.562 149.934L166.454 150.583ZM169.82 137.004C170.282 133.309 170.512 129.197 170.512 124.673H168.512C168.512 129.132 168.285 133.159 167.836 136.756L169.82 137.004ZM169.512 123.673H111.699V125.673H169.512V123.673ZM112.699 124.673V119.204H110.699V124.673H112.699ZM102.715 157.508H138.945V155.508H102.715V157.508ZM139.945 156.508V136.489H137.945V156.508H139.945ZM138.945 137.489H143.926V135.489H138.945V137.489ZM143.926 137.489C144.654 137.489 145.192 137.521 145.561 137.576C145.746 137.603 145.862 137.633 145.927 137.655C146.006 137.682 145.945 137.677 145.855 137.587L147.27 136.172C147.049 135.952 146.781 135.833 146.576 135.763C146.355 135.687 146.109 135.635 145.855 135.597C145.345 135.522 144.695 135.489 143.926 135.489V137.489ZM145.73 137.434C145.614 137.26 145.611 137.108 145.611 137.081C145.611 137.049 145.616 137.061 145.596 137.135C145.557 137.283 145.461 137.53 145.277 137.897L147.066 138.792C147.273 138.377 147.438 137.99 147.529 137.65C147.574 137.48 147.611 137.284 147.611 137.081C147.611 136.884 147.576 136.597 147.395 136.325L145.73 137.434ZM145.277 137.897C145.079 138.294 144.921 138.64 144.833 138.907L146.73 139.54C146.771 139.416 146.874 139.176 147.066 138.792L145.277 137.897ZM144.853 138.852C144.679 139.286 144.586 139.738 144.586 140.2H146.586C146.586 140.011 146.623 139.811 146.71 139.595L144.853 138.852ZM144.586 140.2V156.508H146.586V140.2H144.586ZM145.586 157.508H187.383V155.508H145.586V157.508ZM186.383 156.508V161.977H188.383V156.508H186.383ZM187.383 160.977H102.715V162.977H187.383V160.977ZM103.715 161.977V156.508H101.715V161.977H103.715ZM146.761 170.395C147.412 170.457 147.863 170.545 148.151 170.641C148.489 170.753 148.395 170.807 148.305 170.628L150.094 169.733C149.808 169.163 149.226 168.891 148.783 168.743C148.289 168.579 147.666 168.472 146.95 168.404L146.761 170.395ZM148.367 170.735C148.266 170.583 148.248 170.439 148.248 170.363C148.248 170.295 148.262 170.27 148.251 170.304C148.241 170.333 148.217 170.391 148.17 170.479C148.124 170.566 148.061 170.671 147.977 170.798L149.641 171.907C149.856 171.584 150.042 171.255 150.148 170.936C150.24 170.66 150.362 170.122 150.031 169.626L148.367 170.735ZM147.995 170.771C147.685 171.204 147.436 171.568 147.328 171.784L149.117 172.678C149.114 172.684 149.121 172.67 149.148 172.627C149.172 172.588 149.205 172.535 149.25 172.468C149.339 172.335 149.463 172.157 149.622 171.933L147.995 170.771ZM147.294 171.86C147.12 172.294 147.027 172.745 147.027 173.208H149.027C149.027 173.019 149.064 172.819 149.151 172.603L147.294 171.86ZM147.065 173.478C148.884 179.948 152.659 185.459 158.34 190.004L159.59 188.442C154.203 184.133 150.686 178.967 148.99 172.937L147.065 173.478ZM158.334 189.999C164.09 194.684 171.036 197.581 179.139 198.71L179.415 196.729C171.633 195.645 165.038 192.877 159.596 188.448L158.334 189.999ZM178.557 197.026L173.479 202.299L174.92 203.687L179.998 198.413L178.557 197.026ZM174.393 202.012C167.97 200.74 162.154 198.103 156.937 194.094L155.719 195.68C161.179 199.875 167.278 202.642 174.005 203.974L174.393 202.012ZM156.936 194.093C151.786 190.151 147.954 185.396 145.422 179.825L143.601 180.653C146.277 186.54 150.324 191.551 155.72 195.681L156.936 194.093ZM143.613 179.799C140.701 185.75 136.367 190.595 130.589 194.341L131.677 196.019C137.748 192.083 142.332 186.967 145.41 180.679L143.613 179.799ZM130.581 194.347C125.499 197.713 119.642 199.978 112.994 201.129L113.335 203.099C120.228 201.906 126.35 199.548 131.685 196.014L130.581 194.347ZM113.919 201.458L109.427 196.283L107.917 197.594L112.409 202.769L113.919 201.458ZM108.796 197.93C117.284 196.869 124.586 194.011 130.668 189.332L129.449 187.747C123.682 192.183 116.727 194.924 108.548 195.946L108.796 197.93ZM130.671 189.33C137.526 184.021 141.228 177.217 141.701 168.968L139.705 168.854C139.267 176.49 135.873 182.772 129.446 187.749L130.671 189.33ZM140.624 169.908L146.776 170.396L146.935 168.402L140.782 167.914L140.624 169.908ZM274.492 114.809L274.603 113.815L274.548 113.809H274.492V114.809ZM277.617 115.395L277.103 116.253L277.136 116.272L277.17 116.29L277.617 115.395ZM277.422 116.469L276.59 115.915L277.422 116.469ZM276.836 117.348L276.004 116.794L275.93 116.905L275.887 117.032L276.836 117.348ZM276.641 200.649V201.649H277.641V200.649H276.641ZM270 200.649H269V201.649H270V200.649ZM270 114.809V113.809H269V114.809H270ZM256.621 118.032L256.701 117.035L256.661 117.032H256.621V118.032ZM259.551 118.618L260.383 118.063L260.297 117.934L260.175 117.837L259.551 118.618ZM259.355 119.692L260.188 120.247L260.222 120.195L260.25 120.139L259.355 119.692ZM258.965 120.18L258.258 119.473L258.062 119.669L257.995 119.938L258.965 120.18ZM258.867 194.106V195.106H259.867V194.106H258.867ZM252.324 194.106H251.324V195.106H252.324V194.106ZM252.324 157.583H253.324V156.583H252.324V157.583ZM239.531 157.583V156.583H238.531V157.583H239.531ZM235.039 172.915L234.219 172.343L234.216 172.347L235.039 172.915ZM204.961 172.524L205.813 172.001L205.812 171.999L204.961 172.524ZM200.176 153.676L201.176 153.685V153.676H200.176ZM205.156 135.219L205.99 135.772L205.993 135.767L205.156 135.219ZM234.746 134.341L233.929 134.918L233.935 134.925L233.94 134.933L234.746 134.341ZM239.531 151.821L238.531 151.812L238.522 152.821H239.531V151.821ZM252.324 151.821V152.821H253.324V151.821H252.324ZM252.324 118.032V117.032H251.324V118.032H252.324ZM210.137 139.614L211.003 140.113L211.009 140.103L211.015 140.092L210.137 139.614ZM210.137 168.52L211.015 168.042L211.01 168.033L210.137 168.52ZM229.766 168.52L230.639 169.008L230.645 168.996L229.766 168.52ZM229.766 139.614L228.893 140.102L228.893 140.102L229.766 139.614ZM274.382 115.803C275.25 115.9 275.922 115.994 276.408 116.085C276.651 116.131 276.834 116.173 276.964 116.21C277.11 116.252 277.135 116.272 277.103 116.253L278.132 114.538C277.936 114.42 277.709 114.343 277.513 114.287C277.302 114.227 277.054 114.171 276.776 114.119C276.22 114.015 275.492 113.914 274.603 113.815L274.382 115.803ZM277.17 116.29C277.041 116.225 276.9 116.098 276.823 115.907C276.756 115.739 276.775 115.61 276.78 115.583C276.785 115.554 276.787 115.569 276.753 115.638C276.722 115.703 276.67 115.794 276.59 115.915L278.254 117.024C278.467 116.704 278.677 116.328 278.748 115.94C278.785 115.734 278.796 115.455 278.68 115.164C278.555 114.851 278.323 114.63 278.064 114.501L277.17 116.29ZM276.59 115.915C276.584 115.923 276.589 115.916 276.584 115.924C276.576 115.936 276.586 115.921 276.578 115.933C276.562 115.957 276.582 115.927 276.566 115.951C276.534 115.999 276.573 115.94 276.542 115.987C276.526 116.01 276.546 115.981 276.53 116.004C276.52 116.02 276.529 116.007 276.518 116.022C276.487 116.069 276.526 116.01 276.495 116.057C276.455 116.116 276.49 116.065 276.45 116.124C276.45 116.125 276.449 116.126 276.449 116.126C276.448 116.127 276.448 116.128 276.447 116.128C276.447 116.129 276.447 116.13 276.446 116.13C276.446 116.131 276.445 116.132 276.445 116.132C276.442 116.136 276.442 116.137 276.439 116.141C276.436 116.146 276.44 116.139 276.436 116.145C276.434 116.148 276.436 116.145 276.434 116.149C276.431 116.153 276.431 116.153 276.428 116.157C276.427 116.159 276.427 116.159 276.426 116.161C276.425 116.162 276.423 116.164 276.423 116.165C276.422 116.166 276.422 116.167 276.422 116.167C276.421 116.168 276.421 116.169 276.42 116.169C276.417 116.175 276.421 116.168 276.417 116.173C276.417 116.174 276.417 116.175 276.416 116.175C276.416 116.176 276.415 116.177 276.415 116.177C276.414 116.178 276.414 116.179 276.413 116.179C276.413 116.18 276.413 116.181 276.412 116.181C276.412 116.182 276.411 116.183 276.411 116.183C276.41 116.184 276.41 116.185 276.409 116.185C276.409 116.186 276.409 116.187 276.408 116.187C276.408 116.188 276.407 116.189 276.407 116.189C276.331 116.303 276.316 116.326 276.248 116.427C276.24 116.44 276.238 116.443 276.23 116.455C276.228 116.458 276.23 116.455 276.228 116.458C276.225 116.462 276.228 116.457 276.225 116.461C276.223 116.464 276.223 116.465 276.221 116.468C276.209 116.486 276.224 116.464 276.212 116.481C276.211 116.483 276.204 116.493 276.203 116.494C276.192 116.512 276.206 116.49 276.195 116.507C276.187 116.519 276.194 116.509 276.186 116.52C276.185 116.521 276.179 116.531 276.178 116.533C276.176 116.536 276.178 116.533 276.176 116.536C276.173 116.54 276.176 116.535 276.174 116.539C276.168 116.547 276.175 116.537 276.169 116.545C276.166 116.551 276.169 116.546 276.165 116.551C276.165 116.552 276.165 116.552 276.164 116.553C276.164 116.553 276.164 116.554 276.163 116.555C276.162 116.556 276.162 116.556 276.161 116.558C276.16 116.559 276.154 116.568 276.153 116.57C276.153 116.571 276.15 116.575 276.149 116.576C276.149 116.576 276.147 116.579 276.147 116.579C276.147 116.579 276.146 116.58 276.146 116.58C276.146 116.581 276.145 116.581 276.145 116.582C276.143 116.585 276.145 116.582 276.143 116.585C276.143 116.585 276.141 116.588 276.141 116.588C276.141 116.588 276.14 116.589 276.14 116.589C276.14 116.59 276.139 116.59 276.139 116.591C276.139 116.591 276.138 116.592 276.138 116.592C276.138 116.593 276.137 116.593 276.137 116.594C276.137 116.594 276.136 116.595 276.136 116.595C276.136 116.596 276.135 116.596 276.135 116.597C276.132 116.602 276.137 116.595 276.133 116.6C276.13 116.604 276.134 116.599 276.131 116.603C276.131 116.603 276.129 116.605 276.129 116.606C276.129 116.606 276.126 116.611 276.125 116.612C276.122 116.617 276.125 116.612 276.121 116.617C276.116 116.625 276.123 116.615 276.118 116.623C276.117 116.624 276.114 116.628 276.114 116.629C276.097 116.654 276.012 116.781 276.004 116.794L277.668 117.903C277.669 117.901 277.673 117.896 277.674 117.894C277.68 117.886 277.675 117.893 277.68 117.884C277.689 117.872 277.675 117.892 277.684 117.88C277.684 117.879 277.686 117.876 277.687 117.875C277.687 117.875 277.69 117.87 277.69 117.87C277.691 117.868 277.69 117.87 277.692 117.868C277.692 117.867 277.692 117.867 277.692 117.866C277.693 117.866 277.693 117.866 277.693 117.865C277.693 117.865 277.719 117.826 277.72 117.825C277.772 117.747 277.724 117.82 277.778 117.738C277.791 117.718 277.827 117.665 277.842 117.642C277.902 117.553 277.85 117.629 277.912 117.537C277.946 117.487 277.916 117.532 277.95 117.481C277.954 117.475 277.984 117.429 277.988 117.422C277.997 117.41 278.061 117.314 278.071 117.299C278.087 117.274 278.229 117.061 278.254 117.024L276.59 115.915ZM275.887 117.032C275.725 117.519 275.641 118.016 275.641 118.52H277.641C277.641 118.243 277.687 117.959 277.785 117.665L275.887 117.032ZM275.641 118.52V200.649H277.641V118.52H275.641ZM276.641 199.649H270V201.649H276.641V199.649ZM271 200.649V114.809H269V200.649H271ZM270 115.809H274.492V113.809H270V115.809ZM256.541 119.029C257.337 119.092 257.945 119.17 258.378 119.257C258.595 119.3 258.75 119.342 258.854 119.379C258.971 119.419 258.972 119.435 258.926 119.399L260.175 117.837C259.967 117.67 259.724 117.564 259.515 117.491C259.294 117.413 259.042 117.35 258.77 117.295C258.227 117.187 257.532 117.102 256.701 117.035L256.541 119.029ZM258.719 119.173C258.649 119.068 258.626 118.97 258.619 118.912C258.612 118.858 258.619 118.834 258.616 118.854C258.612 118.873 258.602 118.915 258.576 118.985C258.551 119.053 258.514 119.14 258.461 119.245L260.25 120.139C260.4 119.838 260.527 119.523 260.583 119.212C260.638 118.914 260.654 118.469 260.383 118.063L258.719 119.173ZM258.523 119.137C258.42 119.292 258.331 119.4 258.258 119.473L259.672 120.887C259.859 120.7 260.03 120.483 260.188 120.247L258.523 119.137ZM257.995 119.938C257.91 120.275 257.867 120.617 257.867 120.962H259.867C259.867 120.785 259.889 120.606 259.935 120.423L257.995 119.938ZM257.867 120.962V194.106H259.867V120.962H257.867ZM258.867 193.106H252.324V195.106H258.867V193.106ZM253.324 194.106V157.583H251.324V194.106H253.324ZM252.324 156.583H239.531V158.583H252.324V156.583ZM238.531 157.583C238.531 163.331 237.082 168.235 234.219 172.343L235.859 173.487C238.986 169 240.531 163.684 240.531 157.583H238.531ZM234.216 172.347C230.639 177.527 225.553 180.118 218.828 180.118V182.118C226.165 182.118 231.887 179.24 235.862 173.483L234.216 172.347ZM218.828 180.118C213.512 180.118 209.184 177.494 205.813 172.001L204.109 173.047C207.769 179.012 212.686 182.118 218.828 182.118V180.118ZM205.812 171.999C202.672 166.912 201.112 160.822 201.176 153.685L199.176 153.668C199.109 161.114 200.739 167.589 204.11 173.049L205.812 171.999ZM201.176 153.676C201.176 146.539 202.799 140.589 205.99 135.772L204.323 134.667C200.873 139.876 199.176 146.231 199.176 153.676H201.176ZM205.993 135.767C209.399 130.565 214.008 128.016 219.902 128.016V126.016C213.297 126.016 208.075 128.936 204.32 134.672L205.993 135.767ZM219.902 128.016C226.053 128.016 230.683 130.323 233.929 134.918L235.563 133.763C231.908 128.592 226.643 126.016 219.902 126.016V128.016ZM233.94 134.933C237.032 139.138 238.595 144.734 238.531 151.812L240.531 151.83C240.598 144.455 238.97 138.397 235.552 133.748L233.94 134.933ZM239.531 152.821H252.324V150.821H239.531V152.821ZM253.324 151.821V118.032H251.324V151.821H253.324ZM252.324 119.032H256.621V117.032H252.324V119.032ZM220 131.973C215.384 131.973 211.799 134.467 209.258 139.136L211.015 140.092C213.293 135.906 216.283 133.973 220 133.973V131.973ZM209.27 139.115C206.946 143.147 205.816 148.15 205.816 154.067H207.816C207.816 148.396 208.9 143.763 211.003 140.113L209.27 139.115ZM205.816 154.067C205.816 159.86 206.949 164.855 209.263 169.007L211.01 168.033C208.898 164.243 207.816 159.602 207.816 154.067H205.816ZM209.258 168.998C211.799 173.667 215.384 176.161 220 176.161V174.161C216.283 174.161 213.293 172.228 211.015 168.042L209.258 168.998ZM220 176.161C224.496 176.161 228.041 173.656 230.639 169.008L228.893 168.032C226.542 172.238 223.577 174.161 220 174.161V176.161ZM230.645 168.996C232.89 164.846 233.988 159.856 233.988 154.067H231.988C231.988 159.606 230.938 164.252 228.886 168.044L230.645 168.996ZM233.988 154.067C233.988 148.154 232.893 143.156 230.638 139.126L228.893 140.102C230.936 143.754 231.988 148.391 231.988 154.067H233.988ZM230.639 139.126C228.041 134.478 224.496 131.973 220 131.973V133.973C223.577 133.973 226.542 135.896 228.893 140.102L230.639 139.126ZM309.258 195.571H308.258V196.571H309.258V195.571ZM309.258 186.684V185.684H308.258V186.684H309.258ZM318.145 186.684H319.145V185.684H318.145V186.684ZM318.145 195.571V196.571H319.145V195.571H318.145ZM310.258 195.571V186.684H308.258V195.571H310.258ZM309.258 187.684H318.145V185.684H309.258V187.684ZM317.145 186.684V195.571H319.145V186.684H317.145ZM318.145 194.571H309.258V196.571H318.145V194.571Z" fill="#061922" mask="url(#path-1-outside-1_134_1857)"/>
</svg>
