<svg width="8" height="9" viewBox="0 0 8 9" fill="none" xmlns="http://www.w3.org/2000/svg">
<path d="M3.2685 8.98798H2.57422V2.99399H3.2685V3.82713C3.54622 3.53398 3.83165 3.29484 4.12479 3.1097C4.42565 2.92456 4.78436 2.83199 5.20093 2.83199C5.57122 2.83199 5.9145 2.89756 6.23079 3.0287C6.54707 3.15213 6.81321 3.37198 7.02921 3.68827C7.17579 3.90427 7.26064 4.12798 7.28378 4.35941C7.31464 4.58313 7.33007 4.81841 7.33007 5.06527V8.98798H6.63579V5.07684C6.63579 4.53684 6.51621 4.13184 6.27707 3.86184C6.03793 3.59184 5.64064 3.45684 5.08522 3.45684C4.86922 3.45684 4.6725 3.49156 4.49507 3.56098C4.31764 3.6227 4.15565 3.70756 4.00907 3.81556C3.87022 3.92356 3.75065 4.04698 3.65036 4.18584C3.55007 4.3247 3.47293 4.47127 3.41893 4.62555C3.3495 4.81841 3.30707 5.00355 3.29165 5.18098C3.27622 5.35841 3.2685 5.55127 3.2685 5.75955V8.98798Z" fill="#061422"/>
<path d="M0.460495 8.98816V2.99416H1.15478V8.98816H0.460495ZM0.425781 1.68659V0.656738H1.18949V1.68659H0.425781Z" fill="#061422"/>
</svg>
