<svg width="12" height="12" viewBox="0 0 12 12" fill="none" xmlns="http://www.w3.org/2000/svg">
<path fill-rule="evenodd" clip-rule="evenodd" d="M9.60272 0.902629H2.7676C1.80192 0.902629 1.01908 1.68547 1.01908 2.65115V9.48626C1.01908 10.4519 1.80192 11.2348 2.7676 11.2348H9.60272C10.5684 11.2348 11.3512 10.4519 11.3512 9.48626V2.65115C11.3512 1.68547 10.5684 0.902629 9.60272 0.902629ZM2.7676 0.584717C1.62634 0.584717 0.701172 1.50989 0.701172 2.65115V9.48626C0.701172 10.6275 1.62634 11.5527 2.7676 11.5527H9.60272C10.744 11.5527 11.6691 10.6275 11.6691 9.48626V2.65115C11.6691 1.50989 10.744 0.584717 9.60272 0.584717H2.7676Z" fill="#061422"/>
<path fill-rule="evenodd" clip-rule="evenodd" d="M6.34472 8.5324C7.61766 8.5324 8.64959 7.50048 8.64959 6.22753C8.64959 4.95459 7.61766 3.92267 6.34472 3.92267C5.07178 3.92267 4.03986 4.95459 4.03986 6.22753C4.03986 7.50048 5.07178 8.5324 6.34472 8.5324ZM6.34472 9.00927C7.88103 9.00927 9.12646 7.76384 9.12646 6.22753C9.12646 4.69123 7.88103 3.4458 6.34472 3.4458C4.80841 3.4458 3.56299 4.69123 3.56299 6.22753C3.56299 7.76384 4.80841 9.00927 6.34472 9.00927Z" fill="#061422"/>
<path d="M10.2386 2.41263C10.2386 2.63211 10.0607 2.81002 9.84124 2.81002C9.62177 2.81002 9.44385 2.63211 9.44385 2.41263C9.44385 2.19316 9.62177 2.01524 9.84124 2.01524C10.0607 2.01524 10.2386 2.19316 10.2386 2.41263Z" fill="#061422"/>
</svg>
