<svg width="11" height="8" viewBox="0 0 11 8" fill="none" xmlns="http://www.w3.org/2000/svg">
<path d="M10.0061 4.55212C10.0061 4.30089 9.96971 4.0662 9.89699 3.84803C9.83088 3.62325 9.7284 3.43152 9.58957 3.27285C9.45734 3.10757 9.28876 2.97866 9.08381 2.8861C8.87887 2.78693 8.64417 2.73735 8.37972 2.73735C8.11527 2.73735 7.88058 2.78693 7.67563 2.8861C7.4773 2.98527 7.30541 3.11749 7.15996 3.28277C7.02113 3.44805 6.90873 3.63977 6.82279 3.85794C6.73684 4.07611 6.68065 4.3075 6.6542 4.55212H10.0061ZM6.6542 5.04796C6.6542 5.32563 6.69057 5.59007 6.76329 5.8413C6.83601 6.08591 6.94179 6.30077 7.08063 6.48589C7.22607 6.66439 7.40788 6.80983 7.62605 6.92222C7.84422 7.028 8.09544 7.08089 8.37972 7.08089C8.76978 7.08089 9.10365 6.97842 9.38132 6.77347C9.65899 6.56853 9.8441 6.27764 9.93666 5.9008H10.6011C10.5284 6.14541 10.4325 6.3735 10.3135 6.58505C10.1945 6.79 10.0457 6.97181 9.86724 7.13048C9.68874 7.28253 9.47718 7.40154 9.23256 7.48748C8.98795 7.57343 8.70367 7.6164 8.37972 7.6164C7.96983 7.6164 7.61613 7.54698 7.31863 7.40815C7.02112 7.26931 6.77651 7.08089 6.58479 6.84289C6.39306 6.59828 6.25092 6.314 6.15837 5.99005C6.06581 5.65949 6.01953 5.30579 6.01953 4.92896C6.01953 4.55212 6.07242 4.19842 6.1782 3.86786C6.29059 3.5373 6.44595 3.24971 6.64429 3.0051C6.84923 2.75388 7.09715 2.55885 7.38804 2.42001C7.67894 2.27457 8.0095 2.20184 8.37972 2.20184C9.08712 2.20184 9.64246 2.44646 10.0457 2.93568C10.449 3.4183 10.6474 4.12239 10.6407 5.04796H6.6542Z" fill="#061422"/>
<path d="M0.733911 6.9023H2.44951C2.81974 6.9023 3.14038 6.88578 3.41144 6.85272C3.68911 6.81966 3.91719 6.75355 4.0957 6.65438C4.2742 6.54861 4.40642 6.40316 4.49237 6.21805C4.58492 6.02632 4.6312 5.7751 4.6312 5.46437C4.6312 5.16687 4.58162 4.92887 4.48245 4.75036C4.38328 4.56525 4.24114 4.42311 4.05603 4.32394C3.87092 4.22478 3.64944 4.15866 3.3916 4.12561C3.13377 4.08594 2.84618 4.06611 2.52885 4.06611H0.733911V6.9023ZM0.733911 3.49094H2.43959C2.78999 3.49094 3.08418 3.46118 3.32219 3.40168C3.56019 3.34218 3.75191 3.25624 3.89736 3.14385C4.04281 3.02485 4.14528 2.88271 4.20478 2.71743C4.27089 2.54554 4.30395 2.35051 4.30395 2.13234C4.30395 1.90756 4.26759 1.71914 4.19486 1.56708C4.12214 1.40841 4.00644 1.2828 3.84778 1.19024C3.68911 1.09108 3.48086 1.02166 3.22302 0.981992C2.97179 0.935714 2.66107 0.912575 2.29084 0.912575H0.733911V3.49094ZM0.0595703 7.47748V0.337402H2.63793C3.05443 0.337402 3.41144 0.380375 3.70894 0.46632C4.00644 0.552266 4.24775 0.674573 4.43287 0.833241C4.62459 0.991909 4.76342 1.18363 4.84937 1.40841C4.93532 1.62658 4.97829 1.86789 4.97829 2.13234C4.97829 2.38356 4.94523 2.60173 4.87912 2.78684C4.81301 2.96535 4.72706 3.1174 4.62128 3.24302C4.5155 3.36202 4.3932 3.45788 4.25436 3.5306C4.12214 3.59671 3.98331 3.64299 3.83786 3.66944V3.68927C4.3337 3.76199 4.70062 3.95702 4.93862 4.27436C5.18323 4.5917 5.30554 4.98837 5.30554 5.46437C5.30554 5.8346 5.24604 6.14863 5.12704 6.40647C5.01465 6.6643 4.85598 6.87255 4.65103 7.03122C4.44609 7.18989 4.19817 7.30559 3.90728 7.37831C3.623 7.44442 3.31227 7.47748 2.9751 7.47748H0.0595703Z" fill="#061422"/>
</svg>
