<svg width="10" height="7" viewBox="0 0 10 7" fill="none" xmlns="http://www.w3.org/2000/svg">
<g id="Group 13">
<g id="Be">
<path id="Vector" d="M9.12982 4.08166C9.12982 3.85125 9.09647 3.636 9.02977 3.43591C8.96914 3.22976 8.87516 3.05393 8.74783 2.90841C8.62656 2.75682 8.47195 2.63859 8.28398 2.5537C8.09602 2.46275 7.88077 2.41728 7.63824 2.41728C7.39571 2.41728 7.18046 2.46275 6.99249 2.5537C6.8106 2.64465 6.65295 2.76592 6.51956 2.9175C6.39223 3.06908 6.28915 3.24492 6.21033 3.44501C6.1315 3.6451 6.07996 3.85732 6.05571 4.08166H9.12982ZM6.05571 4.53641C6.05571 4.79107 6.08906 5.0336 6.15576 5.26401C6.22245 5.48835 6.31947 5.68541 6.4468 5.85518C6.58019 6.01889 6.74693 6.15228 6.94702 6.25536C7.14711 6.35237 7.37752 6.40088 7.63824 6.40088C7.99597 6.40088 8.30217 6.3069 8.55683 6.11894C8.81149 5.93097 8.98127 5.66419 9.06615 5.31858H9.67552C9.60882 5.54292 9.5209 5.7521 9.41176 5.94613C9.30262 6.13409 9.1662 6.30083 9.00249 6.44635C8.83878 6.58581 8.64475 6.69495 8.42041 6.77377C8.19606 6.8526 7.93534 6.89201 7.63824 6.89201C7.26231 6.89201 6.93793 6.82834 6.66508 6.70101C6.39223 6.57368 6.16788 6.40088 5.99205 6.1826C5.81621 5.95826 5.68585 5.69753 5.60096 5.40043C5.51608 5.09727 5.47363 4.77288 5.47363 4.42727C5.47363 4.08166 5.52214 3.75727 5.61915 3.4541C5.72223 3.15094 5.86472 2.88718 6.04662 2.66284C6.23458 2.43243 6.46195 2.25357 6.72874 2.12624C6.99553 1.99284 7.29869 1.92615 7.63824 1.92615C8.28701 1.92615 8.79633 2.15049 9.1662 2.59918C9.53606 3.0418 9.71796 3.68754 9.71189 4.53641H6.05571Z" fill="#061422"/>
<path id="Vector_2" d="M0.626271 6.23713H2.1997C2.53925 6.23713 2.83332 6.22197 3.08192 6.19165C3.33658 6.16134 3.54576 6.1007 3.70947 6.00975C3.87318 5.91274 3.99445 5.77935 4.07327 5.60957C4.15816 5.43374 4.2006 5.20333 4.2006 4.91835C4.2006 4.6455 4.15513 4.42723 4.06418 4.26352C3.97323 4.09374 3.84286 3.96338 3.67309 3.87243C3.50332 3.78148 3.3002 3.72085 3.06373 3.69053C2.82726 3.65415 2.5635 3.63596 2.27246 3.63596H0.626271V6.23713ZM0.626271 3.10845H2.19061C2.51196 3.10845 2.78178 3.08117 3.00006 3.0266C3.21834 2.97203 3.39418 2.8932 3.52757 2.79013C3.66096 2.68099 3.75495 2.55063 3.80952 2.39904C3.87015 2.2414 3.90047 2.06253 3.90047 1.86244C3.90047 1.65629 3.86712 1.48348 3.80042 1.34403C3.73372 1.19851 3.62762 1.0833 3.4821 0.998416C3.33658 0.907466 3.14558 0.843801 2.90911 0.807421C2.67871 0.764978 2.39373 0.743756 2.05418 0.743756H0.626271V3.10845ZM0.0078125 6.76464V0.216248H2.37251C2.7545 0.216248 3.08192 0.255659 3.35477 0.334482C3.62762 0.413306 3.84893 0.525477 4.0187 0.670997C4.19454 0.816517 4.32187 0.992353 4.40069 1.19851C4.47951 1.3986 4.51892 1.61991 4.51892 1.86244C4.51892 2.09285 4.48861 2.29294 4.42797 2.46271C4.36734 2.62642 4.28852 2.76587 4.1915 2.88108C4.09449 2.99022 3.98232 3.07814 3.85499 3.14483C3.73372 3.20547 3.60639 3.24791 3.473 3.27216V3.29035C3.92775 3.35705 4.26427 3.53592 4.48254 3.82696C4.70689 4.118 4.81906 4.48179 4.81906 4.91835C4.81906 5.2579 4.76449 5.54591 4.65535 5.78238C4.55227 6.01885 4.40675 6.20984 4.21879 6.35536C4.03083 6.50088 3.80345 6.60699 3.53667 6.67369C3.27594 6.73432 2.99097 6.76464 2.68174 6.76464H0.0078125Z" fill="#061422"/>
</g>
</g>
</svg>
