<svg width="7" height="9" viewBox="0 0 7 9" fill="none" xmlns="http://www.w3.org/2000/svg">
<g id="Group 12">
<g id="in">
<path id="Vector" d="M2.86771 8.41337H2.23096V2.91609H2.86771V3.68019C3.12241 3.41134 3.38418 3.19202 3.65303 3.02222C3.92896 2.85242 4.25795 2.76752 4.64 2.76752C4.9796 2.76752 5.29444 2.82765 5.58451 2.94793C5.87459 3.06113 6.11867 3.26277 6.31677 3.55284C6.4512 3.75094 6.52902 3.95612 6.55025 4.16837C6.57855 4.37354 6.5927 4.58933 6.5927 4.81573V8.41337H5.95595V4.82634C5.95595 4.33109 5.84629 3.95966 5.62696 3.71203C5.40764 3.46441 5.04327 3.34059 4.53387 3.34059C4.33577 3.34059 4.15536 3.37243 3.99263 3.43611C3.82991 3.4927 3.68133 3.57053 3.54691 3.66958C3.41956 3.76863 3.3099 3.88183 3.21792 4.00918C3.12595 4.13653 3.0552 4.27096 3.00567 4.41246C2.942 4.58933 2.90308 4.75913 2.88893 4.92186C2.87478 5.08458 2.86771 5.26146 2.86771 5.45248V8.41337Z" fill="#061422"/>
<path id="Vector_2" d="M0.292091 8.41341V2.91613H0.928842V8.41341H0.292091ZM0.260254 1.71691V0.7724H0.96068V1.71691H0.260254Z" fill="#061422"/>
</g>
</g>
</svg>
