<svg width="11" height="11" viewBox="0 0 11 11" fill="none" xmlns="http://www.w3.org/2000/svg">
<g id="Group 11">
<path id="Rectangle 5 (Stroke)" fill-rule="evenodd" clip-rule="evenodd" d="M8.8426 0.351626H2.5739C1.68824 0.351626 0.970278 1.06959 0.970278 1.95525V8.22395C0.970278 9.1096 1.68824 9.82757 2.5739 9.82757H8.8426C9.72826 9.82757 10.4462 9.1096 10.4462 8.22395V1.95525C10.4462 1.06959 9.72826 0.351626 8.8426 0.351626ZM2.5739 0.0600586C1.52722 0.0600586 0.678711 0.908564 0.678711 1.95525V8.22395C0.678711 9.27063 1.52722 10.1191 2.5739 10.1191H8.8426C9.88929 10.1191 10.7378 9.27063 10.7378 8.22395V1.95525C10.7378 0.908564 9.88929 0.0600586 8.8426 0.0600586H2.5739Z" fill="#061422"/>
<path id="Ellipse 9 (Stroke)" fill-rule="evenodd" clip-rule="evenodd" d="M5.85444 7.34929C7.02189 7.34929 7.9683 6.40288 7.9683 5.23542C7.9683 4.06796 7.02189 3.12156 5.85444 3.12156C4.68698 3.12156 3.74057 4.06796 3.74057 5.23542C3.74057 6.40288 4.68698 7.34929 5.85444 7.34929ZM5.85444 7.78664C7.26344 7.78664 8.40565 6.64442 8.40565 5.23542C8.40565 3.82642 7.26344 2.6842 5.85444 2.6842C4.44544 2.6842 3.30322 3.82642 3.30322 5.23542C3.30322 6.64442 4.44544 7.78664 5.85444 7.78664Z" fill="#061422"/>
<path id="Ellipse 10" d="M9.4257 1.73665C9.4257 1.93794 9.26252 2.10111 9.06124 2.10111C8.85995 2.10111 8.69678 1.93794 8.69678 1.73665C8.69678 1.53537 8.85995 1.37219 9.06124 1.37219C9.26252 1.37219 9.4257 1.53537 9.4257 1.73665Z" fill="#061422"/>
</g>
</svg>
