<svg width="613" height="432" viewBox="0 0 613 432" fill="none" xmlns="http://www.w3.org/2000/svg">
<g clip-path="url(#clip0_185_36)">
<path d="M48.8411 27.9343C48.247 27.5727 47.6249 27.2839 46.985 27.0463C49.1692 17.6255 47.1797 8.957 41.2522 5.38136C33.1845 0.515203 20.8679 6.94203 13.7521 19.725C6.62841 32.5106 7.4025 46.8232 15.4781 51.6867C16.0722 52.0484 16.6943 52.3372 17.3342 52.5747C15.15 61.9955 17.1395 70.6641 23.0669 74.2397C23.6611 74.6013 24.2832 74.8901 24.923 75.1277C22.7388 84.5485 24.7283 93.217 30.6558 96.7927C38.7314 101.656 51.0429 95.2402 58.156 82.449C65.2717 69.666 64.4977 55.3535 56.4299 50.4873C55.8358 50.1257 55.2137 49.8369 54.5738 49.5993C56.7581 40.1785 54.7686 31.51 48.8411 27.9343Z" fill="#F7CF2B"/>
<path d="M28.6654 47.6388C30.5534 47.0035 31.3989 44.4523 30.5537 41.9405C29.7085 39.4287 27.4927 37.9075 25.6047 38.5428C23.7166 39.1781 22.8712 41.7293 23.7164 44.2411C24.5616 46.7529 26.7773 48.2741 28.6654 47.6388Z" fill="#F9F8F4"/>
<mask id="mask0_185_36" style="mask-type:luminance" maskUnits="userSpaceOnUse" x="23" y="38" width="8" height="10">
<path d="M28.6654 47.6388C30.5534 47.0035 31.3989 44.4523 30.5537 41.9405C29.7085 39.4287 27.4927 37.9075 25.6047 38.5428C23.7166 39.1781 22.8712 41.7293 23.7164 44.2411C24.5616 46.7529 26.7773 48.2741 28.6654 47.6388Z" fill="white"/>
</mask>
<g mask="url(#mask0_185_36)">
<path d="M29.9217 40.0881C30.4577 41.2392 29.6962 43.1619 28.3052 43.63C26.9141 44.0981 25.3773 43.2747 24.8763 41.7858C24.3753 40.297 25.0553 38.5737 26.4928 38.244C28.2793 37.833 29.2584 38.6629 29.9217 40.0881Z" fill="#333132"/>
</g>
<path d="M39.6756 43.9339C41.5637 43.2986 42.4091 40.7473 41.5639 38.2355C40.7187 35.7237 38.503 34.2025 36.6149 34.8378C34.7269 35.4731 33.8815 38.0244 34.7266 40.5362C35.5718 43.048 37.7876 44.5692 39.6756 43.9339Z" fill="#F9F8F4"/>
<mask id="mask1_185_36" style="mask-type:luminance" maskUnits="userSpaceOnUse" x="34" y="34" width="8" height="11">
<path d="M39.6756 43.9339C41.5637 43.2986 42.4091 40.7473 41.5639 38.2355C40.7187 35.7237 38.503 34.2025 36.6149 34.8378C34.7269 35.4731 33.8815 38.0244 34.7266 40.5362C35.5718 43.048 37.7876 44.5692 39.6756 43.9339Z" fill="white"/>
</mask>
<g mask="url(#mask1_185_36)">
<path d="M40.9242 36.3858C41.4602 37.5369 40.6986 39.4597 39.3076 39.9277C37.9166 40.3958 36.3797 39.5725 35.8787 38.0836C35.3777 36.5947 36.0577 34.8715 37.4953 34.5417C39.2817 34.1308 40.2609 34.9606 40.9242 36.3858Z" fill="#333132"/>
</g>
</g>
<g clip-path="url(#clip1_185_36)">
<path d="M125.547 74.5752C112.692 71.1889 99.519 78.8687 96.1327 91.7236C92.7464 104.578 100.426 117.751 113.281 121.138C126.136 124.524 139.309 116.844 142.695 103.989C146.082 91.1345 138.408 77.9632 125.547 74.5752ZM116.716 108.098C111.061 106.608 107.683 100.814 109.172 95.1585C110.662 89.5032 116.457 86.125 122.112 87.6148C127.767 89.1046 131.145 94.899 129.656 100.554C128.166 106.21 122.371 109.588 116.716 108.098Z" fill="#3050D6"/>
<path d="M119.049 84.9378C120.354 85.2815 121.756 84.2513 122.181 82.6368C122.607 81.0222 121.894 79.4348 120.589 79.0911C119.284 78.7474 117.882 79.7776 117.456 81.3921C117.031 83.0066 117.744 84.5941 119.049 84.9378Z" fill="#F9F8F4"/>
<mask id="mask2_185_36" style="mask-type:luminance" maskUnits="userSpaceOnUse" x="117" y="79" width="6" height="7">
<path d="M119.049 84.9378C120.354 85.2815 121.756 84.2513 122.181 82.6368C122.607 81.0222 121.894 79.4348 120.589 79.0911C119.284 78.7474 117.882 79.7776 117.456 81.3921C117.031 83.0066 117.744 84.5941 119.049 84.9378Z" fill="white"/>
</mask>
<g mask="url(#mask2_185_36)">
<path d="M122.488 81.4472C122.377 82.2436 121.254 82.971 120.29 82.7172C119.327 82.4634 118.751 81.4862 119.003 80.5293C119.255 79.5724 120.267 78.9214 121.201 79.2593C122.366 79.6861 122.626 80.4673 122.488 81.4472Z" fill="#333132"/>
</g>
<path d="M126.097 86.7944C127.401 87.1381 128.804 86.1079 129.229 84.4933C129.655 82.8788 128.942 81.2914 127.637 80.9476C126.332 80.6039 124.93 81.6342 124.504 83.2487C124.079 84.8632 124.792 86.4507 126.097 86.7944Z" fill="#F9F8F4"/>
<mask id="mask3_185_36" style="mask-type:luminance" maskUnits="userSpaceOnUse" x="124" y="80" width="6" height="7">
<path d="M126.097 86.7944C127.401 87.1381 128.804 86.1079 129.229 84.4933C129.655 82.8788 128.942 81.2914 127.637 80.9476C126.332 80.6039 124.93 81.6342 124.504 83.2487C124.079 84.8632 124.792 86.4507 126.097 86.7944Z" fill="white"/>
</mask>
<g mask="url(#mask3_185_36)">
<path d="M129.536 83.3037C129.425 84.1001 128.301 84.8275 127.338 84.5737C126.375 84.3199 125.799 83.3427 126.051 82.3859C126.303 81.429 127.315 80.778 128.249 81.1159C129.414 81.5427 129.674 82.3239 129.536 83.3037Z" fill="#333132"/>
</g>
</g>
<g clip-path="url(#clip2_185_36)">
<path d="M524.346 339.308L516.151 316.272L508.707 329.165L479.334 318.375L485.793 351.578L451.293 377.777L483.902 382.059L497.367 411.094L511.098 394.129L524.283 400.117L526.379 388.424L555.963 389.882L535.62 365.6L555.55 330.77L524.346 339.308Z" fill="#E5283F"/>
<path d="M492.078 370.792C494.937 372.443 499.002 370.753 501.158 367.019C503.314 363.285 502.744 358.919 499.886 357.269C497.027 355.619 492.962 357.308 490.806 361.042C488.65 364.777 489.22 369.142 492.078 370.792Z" fill="#F9F8F4"/>
<mask id="mask4_185_36" style="mask-type:luminance" maskUnits="userSpaceOnUse" x="489" y="356" width="14" height="16">
<path d="M492.078 370.792C494.937 372.443 499.002 370.753 501.158 367.019C503.314 363.285 502.744 358.919 499.886 357.269C497.027 355.619 492.962 357.308 490.806 361.042C488.65 364.777 489.22 369.142 492.078 370.792Z" fill="white"/>
</mask>
<g mask="url(#mask4_185_36)">
<path d="M502.733 364.26C501.908 366.156 498.714 367.268 496.611 366.054C494.508 364.84 493.832 362.059 495.104 359.855C496.376 357.652 499.242 356.642 501.226 358.061C503.691 359.831 503.755 361.93 502.733 364.26Z" fill="#333132"/>
</g>
<path d="M506.352 379.033C509.211 380.684 513.276 378.994 515.432 375.26C517.588 371.526 517.018 367.16 514.16 365.51C511.301 363.86 507.236 365.549 505.08 369.283C502.924 373.018 503.494 377.383 506.352 379.033Z" fill="#F9F8F4"/>
<mask id="mask5_185_36" style="mask-type:luminance" maskUnits="userSpaceOnUse" x="503" y="364" width="14" height="16">
<path d="M506.352 379.033C509.211 380.684 513.276 378.994 515.432 375.26C517.588 371.526 517.018 367.16 514.16 365.51C511.301 363.86 507.236 365.549 505.08 369.283C502.924 373.018 503.494 377.383 506.352 379.033Z" fill="white"/>
</mask>
<g mask="url(#mask5_185_36)">
<path d="M517.007 372.501C516.182 374.397 512.988 375.509 510.885 374.295C508.782 373.081 508.106 370.3 509.378 368.096C510.65 365.893 513.516 364.883 515.5 366.302C517.965 368.072 518.029 370.171 517.007 372.501Z" fill="#333132"/>
</g>
</g>
<g clip-path="url(#clip3_185_36)">
<path d="M609.514 142.262L563.299 132.067L558.468 153.966L604.682 164.162L609.514 142.262Z" fill="#1AA36F"/>
<path d="M589.843 173.637L600.038 127.422L578.139 122.591L567.943 168.806L589.843 173.637Z" fill="#1AA36F"/>
<path d="M580.538 146.203C582.019 146.53 583.561 145.25 583.981 143.345C584.401 141.44 583.541 139.63 582.06 139.303C580.579 138.977 579.038 140.256 578.618 142.162C578.198 144.067 579.057 145.876 580.538 146.203Z" fill="#F9F8F4"/>
<mask id="mask6_185_36" style="mask-type:luminance" maskUnits="userSpaceOnUse" x="578" y="139" width="7" height="8">
<path d="M580.538 146.203C582.019 146.53 583.561 145.25 583.981 143.345C584.401 141.44 583.541 139.63 582.06 139.303C580.579 138.977 579.038 140.256 578.618 142.162C578.198 144.067 579.057 145.876 580.538 146.203Z" fill="white"/>
</mask>
<g mask="url(#mask6_185_36)">
<path d="M584.277 141.938C584.181 142.869 582.94 143.781 581.851 143.541C580.761 143.301 580.076 142.19 580.324 141.066C580.572 139.942 581.684 139.118 582.75 139.463C584.076 139.894 584.398 140.793 584.277 141.938Z" fill="#333132"/>
</g>
<path d="M587.933 147.834C589.414 148.161 590.956 146.881 591.376 144.976C591.796 143.071 590.936 141.262 589.455 140.935C587.974 140.608 586.433 141.888 586.013 143.793C585.593 145.698 586.452 147.508 587.933 147.834Z" fill="#F9F8F4"/>
<mask id="mask7_185_36" style="mask-type:luminance" maskUnits="userSpaceOnUse" x="585" y="140" width="7" height="8">
<path d="M587.933 147.834C589.414 148.161 590.956 146.881 591.376 144.976C591.796 143.071 590.936 141.262 589.455 140.935C587.974 140.608 586.433 141.888 586.013 143.793C585.593 145.698 586.452 147.508 587.933 147.834Z" fill="white"/>
</mask>
<g mask="url(#mask7_185_36)">
<path d="M591.672 143.569C591.576 144.5 590.335 145.413 589.246 145.173C588.156 144.932 587.471 143.822 587.719 142.698C587.967 141.573 589.079 140.749 590.146 141.094C591.471 141.526 591.793 142.424 591.672 143.569Z" fill="#333132"/>
</g>
</g>
<defs>
<clipPath id="clip0_185_36">
<rect width="45.0002" height="91.7312" fill="white" transform="translate(0 14.788) rotate(-18.5975)"/>
</clipPath>
<clipPath id="clip1_185_36">
<rect width="48.1511" height="48.1511" fill="white" transform="translate(102.266 68.4423) rotate(14.758)"/>
</clipPath>
<clipPath id="clip2_185_36">
<rect width="102.116" height="98.6544" fill="white" transform="translate(493.021 294.669) rotate(30)"/>
</clipPath>
<clipPath id="clip3_185_36">
<rect width="47.326" height="47.326" fill="white" transform="translate(565.981 119.909) rotate(12.4409)"/>
</clipPath>
</defs>
</svg>
