<svg width="674" height="190" viewBox="0 0 674 190" fill="none" xmlns="http://www.w3.org/2000/svg">
<g clip-path="url(#clip0_141_42)">
<path d="M673.872 115.466H580.872V159.534H673.872V115.466Z" fill="#1AA36F"/>
<path d="M649.407 184V91H605.338V184H649.407Z" fill="#1AA36F"/>
<path d="M619.938 135.294C622.918 135.294 625.334 132.186 625.334 128.352C625.334 124.518 622.918 121.41 619.938 121.41C616.958 121.41 614.542 124.518 614.542 128.352C614.542 132.186 616.958 135.294 619.938 135.294Z" fill="#F9F8F4"/>
<mask id="mask0_141_42" style="mask-type:luminance" maskUnits="userSpaceOnUse" x="614" y="121" width="12" height="15">
<path d="M619.938 135.294C622.918 135.294 625.334 132.186 625.334 128.352C625.334 124.518 622.918 121.41 619.938 121.41C616.958 121.41 614.542 124.518 614.542 128.352C614.542 132.186 616.958 135.294 619.938 135.294Z" fill="white"/>
</mask>
<g mask="url(#mask0_141_42)">
<path d="M625.306 125.527C625.517 127.354 623.522 129.631 621.329 129.631C619.137 129.631 617.353 127.79 617.353 125.527C617.353 123.265 619.137 121.213 621.329 121.424C624.056 121.691 625.053 123.279 625.306 125.527Z" fill="#333132"/>
</g>
<path d="M634.82 135.294C637.8 135.294 640.216 132.186 640.216 128.352C640.216 124.518 637.8 121.41 634.82 121.41C631.84 121.41 629.424 124.518 629.424 128.352C629.424 132.186 631.84 135.294 634.82 135.294Z" fill="#F9F8F4"/>
<mask id="mask1_141_42" style="mask-type:luminance" maskUnits="userSpaceOnUse" x="629" y="121" width="12" height="15">
<path d="M634.82 135.294C637.8 135.294 640.216 132.186 640.216 128.352C640.216 124.518 637.8 121.41 634.82 121.41C631.84 121.41 629.424 124.518 629.424 128.352C629.424 132.186 631.84 135.294 634.82 135.294Z" fill="white"/>
</mask>
<g mask="url(#mask1_141_42)">
<path d="M640.188 125.527C640.399 127.354 638.403 129.631 636.211 129.631C634.019 129.631 632.234 127.79 632.234 125.527C632.234 123.265 634.019 121.213 636.211 121.424C638.937 121.691 639.935 123.279 640.188 125.527Z" fill="#333132"/>
</g>
</g>
<g clip-path="url(#clip1_141_42)">
<path d="M85.563 56.5423C84.6575 55.4689 83.6514 54.5167 82.5783 53.6511C92.8403 37.0486 94.6177 19.1995 85.563 8.55239C73.2385 -5.93806 45.4874 -1.57534 23.6052 18.2819C1.70617 38.1392 -6.04065 65.9949 6.30061 80.4853C7.20608 81.5587 8.21216 82.5108 9.28532 83.3765C-0.976707 99.979 -2.75412 117.828 6.30061 128.475C7.20608 129.549 8.21216 130.501 9.28532 131.366C-0.976707 147.969 -2.75412 165.818 6.30061 176.465C18.6419 190.956 46.3762 186.61 68.2584 166.736C90.1407 146.878 97.8875 119.023 85.563 104.532C84.6575 103.459 83.6514 102.507 82.5783 101.641C92.8403 85.0385 94.6177 67.1894 85.563 56.5423Z" fill="#F7CF2B"/>
<path d="M34.1857 81.2297C38.2141 81.2297 41.4798 76.8969 41.4798 71.5521C41.4798 66.2073 38.2141 61.8745 34.1857 61.8745C30.1573 61.8745 26.8916 66.2073 26.8916 71.5521C26.8916 76.8969 30.1573 81.2297 34.1857 81.2297Z" fill="#F9F8F4"/>
<mask id="mask2_141_42" style="mask-type:luminance" maskUnits="userSpaceOnUse" x="26" y="61" width="16" height="21">
<path d="M34.1857 81.2297C38.2141 81.2297 41.4798 76.8969 41.4798 71.5521C41.4798 66.2073 38.2141 61.8745 34.1857 61.8745C30.1573 61.8745 26.8916 66.2073 26.8916 71.5521C26.8916 76.8969 30.1573 81.2297 34.1857 81.2297Z" fill="white"/>
</mask>
<g mask="url(#mask2_141_42)">
<path d="M41.4628 67.6048C41.7479 70.1497 39.0482 73.3352 36.0803 73.3352C33.1123 73.3352 30.6978 70.773 30.6978 67.6048C30.6978 64.4367 33.1123 61.5801 36.0803 61.8744C39.7692 62.238 41.1107 64.454 41.4628 67.6048Z" fill="#333132"/>
</g>
<path d="M57.6779 81.2297C61.7063 81.2297 64.972 76.8969 64.972 71.5521C64.972 66.2073 61.7063 61.8745 57.6779 61.8745C53.6495 61.8745 50.3838 66.2073 50.3838 71.5521C50.3838 76.8969 53.6495 81.2297 57.6779 81.2297Z" fill="#F9F8F4"/>
<mask id="mask3_141_42" style="mask-type:luminance" maskUnits="userSpaceOnUse" x="50" y="61" width="15" height="21">
<path d="M57.6779 81.2297C61.7063 81.2297 64.972 76.8969 64.972 71.5521C64.972 66.2073 61.7063 61.8745 57.6779 61.8745C53.6495 61.8745 50.3838 66.2073 50.3838 71.5521C50.3838 76.8969 53.6495 81.2297 57.6779 81.2297Z" fill="white"/>
</mask>
<g mask="url(#mask3_141_42)">
<path d="M64.9384 67.6048C65.2235 70.1497 62.5238 73.3352 59.5559 73.3352C56.5879 73.3352 54.1733 70.773 54.1733 67.6048C54.1733 64.4367 56.5879 61.5801 59.5559 61.8744C63.2448 62.238 64.5863 64.454 64.9384 67.6048Z" fill="#333132"/>
</g>
</g>
<g clip-path="url(#clip2_141_42)">
<path d="M237.288 93C210.233 93 188.288 114.721 188.288 141.5C188.288 168.279 210.233 190 237.288 190C264.344 190 286.288 168.279 286.288 141.5C286.288 114.721 264.358 93 237.288 93ZM237.288 162.836C225.385 162.836 215.733 153.281 215.733 141.5C215.733 129.719 225.385 120.164 237.288 120.164C249.191 120.164 258.844 129.719 258.844 141.5C258.844 153.281 249.191 162.836 237.288 162.836Z" fill="#3050D6"/>
<path d="M229.872 116.521C232.618 116.521 234.844 113.795 234.844 110.431C234.844 107.068 232.618 104.341 229.872 104.341C227.126 104.341 224.899 107.068 224.899 110.431C224.899 113.795 227.126 116.521 229.872 116.521Z" fill="#F9F8F4"/>
<mask id="mask4_141_42" style="mask-type:luminance" maskUnits="userSpaceOnUse" x="224" y="104" width="11" height="13">
<path d="M229.872 116.521C232.618 116.521 234.844 113.795 234.844 110.431C234.844 107.068 232.618 104.341 229.872 104.341C227.126 104.341 224.899 107.068 224.899 110.431C224.899 113.795 227.126 116.521 229.872 116.521Z" fill="white"/>
</mask>
<g mask="url(#mask4_141_42)">
<path d="M234.83 107.957C235.024 109.565 233.191 111.559 231.163 111.559C229.135 111.559 227.497 109.95 227.497 107.957C227.497 105.964 229.149 104.176 231.163 104.355C233.677 104.589 234.594 105.977 234.83 107.957Z" fill="#333132"/>
</g>
<path d="M244.705 116.521C247.451 116.521 249.677 113.795 249.677 110.431C249.677 107.068 247.451 104.341 244.705 104.341C241.959 104.341 239.732 107.068 239.732 110.431C239.732 113.795 241.959 116.521 244.705 116.521Z" fill="#F9F8F4"/>
<mask id="mask5_141_42" style="mask-type:luminance" maskUnits="userSpaceOnUse" x="239" y="104" width="11" height="13">
<path d="M244.705 116.521C247.451 116.521 249.677 113.795 249.677 110.431C249.677 107.068 247.451 104.341 244.705 104.341C241.959 104.341 239.732 107.068 239.732 110.431C239.732 113.795 241.959 116.521 244.705 116.521Z" fill="white"/>
</mask>
<g mask="url(#mask5_141_42)">
<path d="M249.663 107.957C249.857 109.565 248.024 111.559 245.996 111.559C243.968 111.559 242.33 109.95 242.33 107.957C242.33 105.964 243.982 104.176 245.996 104.355C248.51 104.589 249.427 105.977 249.663 107.957Z" fill="#333132"/>
</g>
</g>
<g clip-path="url(#clip3_141_42)">
<path d="M433.793 105.942L413.559 88.7482V104.896L380.044 110.69L404.169 138.374L385.931 181.692L418.956 168.03L447.412 188L451.117 164.618L466.783 163.093L462.402 150.973L491.044 136.3L458.696 124.523L458.527 81L433.793 105.942Z" fill="#E5283F"/>
<path d="M420.529 153.013C424.117 153.013 427.026 149.222 427.026 144.545C427.026 139.868 424.117 136.077 420.529 136.077C416.941 136.077 414.033 139.868 414.033 144.545C414.033 149.222 416.941 153.013 420.529 153.013Z" fill="#F9F8F4"/>
<mask id="mask6_141_42" style="mask-type:luminance" maskUnits="userSpaceOnUse" x="414" y="136" width="14" height="18">
<path d="M420.529 153.013C424.117 153.013 427.026 149.222 427.026 144.545C427.026 139.868 424.117 136.077 420.529 136.077C416.941 136.077 414.033 139.868 414.033 144.545C414.033 149.222 416.941 153.013 420.529 153.013Z" fill="white"/>
</mask>
<g mask="url(#mask6_141_42)">
<path d="M427.009 141.1C427.263 143.328 424.86 146.105 422.221 146.105C419.582 146.105 417.433 143.86 417.433 141.1C417.433 138.34 419.582 135.837 422.221 136.094C425.503 136.42 426.704 138.357 427.009 141.1Z" fill="#333132"/>
</g>
<path d="M438.445 153.013C442.033 153.013 444.942 149.222 444.942 144.545C444.942 139.868 442.033 136.077 438.445 136.077C434.857 136.077 431.949 139.868 431.949 144.545C431.949 149.222 434.857 153.013 438.445 153.013Z" fill="#F9F8F4"/>
<mask id="mask7_141_42" style="mask-type:luminance" maskUnits="userSpaceOnUse" x="431" y="136" width="14" height="18">
<path d="M438.445 153.013C442.033 153.013 444.942 149.222 444.942 144.545C444.942 139.868 442.033 136.077 438.445 136.077C434.857 136.077 431.949 139.868 431.949 144.545C431.949 149.222 434.857 153.013 438.445 153.013Z" fill="white"/>
</mask>
<g mask="url(#mask7_141_42)">
<path d="M444.925 141.1C445.179 143.328 442.776 146.105 440.137 146.105C437.498 146.105 435.349 143.86 435.349 141.1C435.349 138.34 437.498 135.837 440.137 136.094C443.419 136.42 444.62 138.357 444.925 141.1Z" fill="#333132"/>
</g>
</g>
<defs>
<clipPath id="clip0_141_42">
<rect width="93" height="93" fill="white" transform="translate(580.872 91)"/>
</clipPath>
<clipPath id="clip1_141_42">
<rect width="91" height="185" fill="white" transform="translate(0.431641)"/>
</clipPath>
<clipPath id="clip2_141_42">
<rect width="98" height="97" fill="white" transform="translate(188.288 93)"/>
</clipPath>
<clipPath id="clip3_141_42">
<rect width="111" height="107" fill="white" transform="translate(380.044 81)"/>
</clipPath>
</defs>
</svg>
