<svg width="388" height="117" viewBox="0 0 388 117" fill="none" xmlns="http://www.w3.org/2000/svg">
<rect x="4.63965" y="0.808594" width="382.918" height="115.985" rx="34" fill="#0F815E"/>
<path d="M0.308836 116.794C6.14617 113.149 4.65599 84.1811 4.65599 84.1811L20.5176 105.407C20.5176 105.407 14.7649 116.794 0.308836 116.794Z" fill="#0F815E"/>
<path d="M87.0886 64.9863H85.3486V51.6213H87.0886V64.9863ZM76.4236 57.3213C76.4236 54.5013 77.6986 52.5363 79.8736 52.5363C82.0636 52.5363 83.3386 54.5013 83.3386 57.3213C83.3386 60.1113 82.0636 62.0763 79.8736 62.0763C77.6986 62.0763 76.4236 60.1263 76.4236 57.3213ZM81.6586 57.3213C81.6586 55.2063 80.9086 53.9463 79.8736 53.9463C78.8686 53.9463 78.1336 55.2063 78.1336 57.3213C78.1336 59.4213 78.8686 60.6663 79.8736 60.6663C80.9086 60.6663 81.6586 59.4213 81.6586 57.3213ZM101.102 59.0313H89.0271V57.6363H93.6321V55.2063H95.4021V57.6363H101.102V59.0313ZM100.067 63.7113L99.2871 65.0913C97.4421 64.8063 95.5371 63.5613 94.8771 62.4063C94.3071 63.5763 92.4021 64.8363 90.4371 65.0763C90.1671 64.6113 89.9121 64.1313 89.6271 63.6663C92.0271 63.4263 93.9771 62.1663 93.9771 60.3663V59.9013H95.7771V60.3663C95.7771 62.1213 97.8771 63.4263 100.067 63.7113ZM99.5421 52.1013C99.5421 54.5913 99.3771 55.8363 99.1371 56.9313L97.4271 56.7213C97.6521 55.8513 97.7871 54.8763 97.7871 53.4813H90.4071V52.1013H99.5421ZM114.166 60.9213L113.176 62.2113C111.961 61.5813 110.356 59.8713 109.966 58.5813C109.636 59.9313 108.301 61.7313 106.741 62.4813L105.646 61.1913C107.881 59.9613 109.036 57.9213 109.036 55.1163V54.4263H106.351V52.9863H113.461V54.4263H110.866V55.1013C110.866 57.9213 112.156 59.8263 114.166 60.9213ZM117.001 64.9863H115.246V57.7113H112.996V56.2263H115.246V51.6213H117.001V64.9863ZM131 59.0313H118.925V57.6363H123.53V55.2063H125.3V57.6363H131V59.0313ZM129.965 63.7113L129.185 65.0913C127.34 64.8063 125.435 63.5613 124.775 62.4063C124.205 63.5763 122.3 64.8363 120.335 65.0763C120.065 64.6113 119.81 64.1313 119.525 63.6663C121.925 63.4263 123.875 62.1663 123.875 60.3663V59.9013H125.675V60.3663C125.675 62.1213 127.775 63.4263 129.965 63.7113ZM129.44 52.1013C129.44 54.5913 129.275 55.8363 129.035 56.9313L127.325 56.7213C127.55 55.8513 127.685 54.8763 127.685 53.4813H120.305V52.1013H129.44ZM146.884 51.6213V59.4213H145.144V57.6063H143.239V56.2413H145.144V54.8013H143.239V53.4363H145.144V51.6213H146.884ZM142.564 58.6713H136.279V52.3863H138.034V54.2613H140.824V52.3563H142.564V58.6713ZM140.824 57.2913V55.6263H138.034V57.2913H140.824ZM146.989 62.2863C146.989 63.9063 145.309 64.9713 142.384 64.9713C139.504 64.9713 137.839 63.9063 137.839 62.2863C137.839 60.6213 139.504 59.5713 142.384 59.5713C145.309 59.5713 146.989 60.6213 146.989 62.2863ZM142.384 60.9813C140.659 60.9813 139.624 61.4763 139.624 62.2863C139.624 63.0813 140.659 63.5613 142.384 63.5613C144.184 63.5613 145.174 63.0813 145.174 62.2863C145.174 61.4763 144.184 60.9813 142.384 60.9813ZM156.427 54.5313C156.427 55.9713 155.032 56.9913 153.082 56.9913C151.132 56.9913 149.692 55.9713 149.692 54.5013C149.692 53.0913 151.132 52.0413 153.082 52.0413C155.032 52.0413 156.427 53.0913 156.427 54.5313ZM155.797 60.6063V59.3463H158.347V51.6213H160.102V61.9563H158.347V60.6063H155.797ZM160.312 64.6263H150.502V60.6813H152.257V63.2313H160.312V64.6263ZM154.447 61.3113H152.707V58.9263C151.312 58.9713 150.007 58.9863 149.002 58.9863C148.927 58.5363 148.852 58.0563 148.762 57.6063C152.047 57.6063 155.407 57.4413 157.282 57.2013L157.387 58.4913C156.472 58.6413 155.482 58.7313 154.447 58.8063V61.3113ZM154.687 54.5313C154.687 53.9463 154.072 53.3463 153.082 53.3463C152.062 53.3463 151.462 53.9463 151.462 54.5313C151.462 55.1163 152.062 55.6713 153.082 55.6713C154.072 55.6713 154.687 55.1163 154.687 54.5313ZM176.571 64.8363H167.481V61.3263H174.411V60.5013H167.391V59.1063H176.196V62.6013H169.221V63.4263H176.571V64.8363ZM178.101 55.8063H176.196V58.3113H174.411V51.6213H176.196V54.3663H178.101V55.8063ZM165.816 55.1913C165.816 53.3913 167.286 52.0863 169.281 52.0863C171.276 52.0863 172.731 53.3613 172.731 55.1913C172.731 56.9613 171.276 58.1613 169.281 58.1613C167.376 58.1613 165.816 57.0063 165.816 55.1913ZM167.541 55.1763C167.541 56.0613 168.261 56.7213 169.281 56.7213C170.331 56.7213 171.036 55.9863 171.036 55.1763C171.036 54.2463 170.346 53.5263 169.281 53.5263C168.336 53.5263 167.541 54.2613 167.541 55.1763ZM189.175 51.6213V56.7513H191.155V58.2063H189.175V64.9863H187.39V51.6213H189.175ZM178.825 57.3213C178.825 54.5013 180.115 52.5363 182.29 52.5363C184.48 52.5363 185.755 54.5013 185.755 57.3213C185.755 60.1113 184.48 62.0763 182.29 62.0763C180.115 62.0763 178.825 60.1263 178.825 57.3213ZM184.075 57.3213C184.075 55.2063 183.325 53.9463 182.29 53.9463C181.285 53.9463 180.535 55.2063 180.535 57.3213C180.535 59.4213 181.285 60.6663 182.29 60.6663C183.325 60.6663 184.075 59.4213 184.075 57.3213ZM203.773 63.3213H191.698V61.9263H196.828V59.3313H193.153V52.5363H194.893V54.6063H200.578V52.5063H202.333V59.3313H198.583V61.9263H203.773V63.3213ZM200.578 57.9363V55.9563H194.893V57.9363H200.578ZM215.732 64.9863H213.977V51.6213H215.732V64.9863ZM211.622 53.0163C211.517 57.0513 209.732 60.3513 205.652 62.5713L204.572 61.2513C207.497 59.9163 209.492 57.1263 209.732 54.4713H205.382V53.0163H211.622ZM230.03 58.2063H228.095V64.9863H226.355V51.6213H228.095V56.7513H230.03V58.2063ZM224.585 52.9863C224.465 57.0213 222.695 60.3513 218.6 62.5713L217.535 61.2513C220.445 59.9163 222.44 57.1113 222.68 54.4413H218.345V52.9863H224.585ZM243.844 55.8063V51.6213H245.584V64.9863H243.844V57.2763H240.244V55.8063H243.844ZM242.269 61.3563C240.634 61.7913 237.979 61.9413 236.389 61.9413H235.174V52.9563H236.914V60.4563C238.774 60.4563 240.619 60.3213 242.059 59.9613L242.269 61.3563ZM258.098 52.1463V57.5463H249.098V52.1463H258.098ZM254.438 65.0013H252.683V60.5613H247.553V59.1663H259.628V60.5613H254.438V65.0013ZM256.358 56.1513V53.5413H250.853V56.1513H256.358ZM264.561 57.3213C264.561 54.5013 265.836 52.5363 268.011 52.5363C269.991 52.5363 271.206 54.1413 271.416 56.5263H273.771V51.6213H275.526V64.9863H273.771V58.0113H271.431C271.236 60.4263 270.006 62.0763 268.011 62.0763C265.836 62.0763 264.561 60.1263 264.561 57.3213ZM269.781 57.3213C269.781 55.2063 269.046 53.9463 268.011 53.9463C267.006 53.9463 266.271 55.2063 266.271 57.3213C266.271 59.4213 267.006 60.6663 268.011 60.6663C269.046 60.6663 269.781 59.4213 269.781 57.3213ZM284.62 61.6263C283.225 61.8963 281.62 62.0013 279.34 62.0013C278.875 62.0013 278.41 61.9863 277.93 61.9863V56.3913H281.965V54.1563H277.93V52.7613H283.72V57.7863H279.7V60.5613C280.945 60.5613 282.7 60.5463 284.425 60.2163L284.62 61.6263ZM284.59 59.6163V58.2063H286.75V56.1813H284.59V54.7563H286.75V51.6213H288.49V64.9863H286.75V59.6163H284.59ZM298.169 55.0113C298.169 56.6163 296.699 57.7863 294.659 57.7863C292.589 57.7863 291.194 56.6163 291.194 55.0113C291.194 53.3613 292.589 52.1463 294.659 52.1463C296.759 52.1463 298.169 53.3613 298.169 55.0113ZM297.209 61.9863V60.6363H299.969V51.6213H301.709V64.9863H299.969V61.9863H297.209ZM295.589 64.5963H293.819V60.0963C292.499 60.1563 291.494 60.1713 290.474 60.1713L290.234 58.7463C291.764 58.7463 293.144 58.7313 294.614 58.6713C296.519 58.5663 297.824 58.4763 298.964 58.3263L299.054 59.6613C298.079 59.7963 296.834 59.9013 295.589 59.9913V64.5963ZM296.429 54.9963C296.429 54.2013 295.694 53.5863 294.659 53.5863C293.669 53.5863 292.949 54.2013 292.949 54.9963C292.949 55.7913 293.654 56.3613 294.659 56.3613C295.724 56.3613 296.429 55.7913 296.429 54.9963ZM314.327 55.9563C314.327 57.9963 312.392 59.4663 309.452 59.4663C306.527 59.4663 304.592 57.9963 304.592 55.9563C304.592 53.9013 306.527 52.4013 309.452 52.4013C312.392 52.4013 314.327 53.9013 314.327 55.9563ZM315.482 63.3213H303.407V61.9113H306.107V59.6913L307.862 59.7663V61.9113H310.997V59.7663L312.752 59.6913V61.9113H315.482V63.3213ZM312.527 55.9563C312.527 54.7413 311.312 53.8713 309.452 53.8713C307.592 53.8713 306.392 54.7413 306.392 55.9563C306.392 57.1563 307.592 58.0263 309.452 58.0263C311.297 58.0263 312.527 57.1563 312.527 55.9563Z" fill="white"/>
</svg>
