<svg width="1138" height="574" viewBox="0 0 1138 574" fill="none" xmlns="http://www.w3.org/2000/svg">
<g filter="url(#filter0_d_159_886)">
<rect x="20.3979" y="20.7446" width="1077.2" height="513.145" rx="57" fill="white"/>
</g>
<path d="M528.055 77.1133H530.274V81.5591L534.442 77.1133H537.357L532.933 81.5591L537.584 87.9092H534.684L531.351 83.1924L530.274 84.2983V87.9092H528.055V77.1133ZM541.839 81.4346C541.356 81.4346 540.98 81.5859 540.711 81.8887C540.448 82.1914 540.282 82.6016 540.213 83.1191H543.458C543.424 82.5674 543.255 82.1499 542.953 81.8667C542.655 81.5786 542.284 81.4346 541.839 81.4346ZM541.839 79.7134C542.503 79.7134 543.102 79.8379 543.634 80.0869C544.166 80.3359 544.605 80.729 544.952 81.2661C545.265 81.7397 545.467 82.2891 545.56 82.9141C545.614 83.2803 545.636 83.8076 545.626 84.4961H540.162C540.191 85.2969 540.443 85.8584 540.917 86.1807C541.205 86.3809 541.551 86.481 541.957 86.481C542.386 86.481 542.735 86.3589 543.004 86.1147C543.15 85.9829 543.28 85.7998 543.392 85.5654H545.523C545.47 86.0391 545.223 86.52 544.784 87.0083C544.1 87.7847 543.143 88.1729 541.913 88.1729C540.897 88.1729 540.001 87.8457 539.225 87.1914C538.448 86.5371 538.06 85.4727 538.06 83.998C538.06 82.6162 538.409 81.5566 539.107 80.8193C539.811 80.082 540.721 79.7134 541.839 79.7134ZM547.362 89.4399L547.625 89.4546C547.831 89.4644 548.026 89.457 548.211 89.4326C548.397 89.4082 548.553 89.3521 548.68 89.2642C548.802 89.1812 548.915 89.0078 549.017 88.7441C549.125 88.4805 549.168 88.3193 549.149 88.2607L546.219 79.9258H548.541L550.284 85.8145L551.932 79.9258H554.151L551.412 87.7773C550.885 89.291 550.467 90.2285 550.16 90.5898C549.852 90.9561 549.237 91.1392 548.314 91.1392C548.128 91.1392 547.979 91.1367 547.867 91.1318C547.755 91.1318 547.586 91.1245 547.362 91.1099V89.4399ZM560.157 82.7896C560.118 82.4917 560.018 82.2231 559.857 81.9839C559.623 81.6616 559.259 81.5005 558.766 81.5005C558.062 81.5005 557.582 81.8496 557.323 82.5479C557.186 82.9189 557.118 83.4121 557.118 84.0273C557.118 84.6133 557.186 85.0845 557.323 85.4409C557.572 86.105 558.041 86.437 558.729 86.437C559.217 86.437 559.564 86.3052 559.769 86.0415C559.974 85.7778 560.099 85.436 560.143 85.0161H562.274C562.225 85.6509 561.996 86.2515 561.585 86.8179C560.931 87.731 559.962 88.1875 558.678 88.1875C557.394 88.1875 556.449 87.8066 555.843 87.0449C555.238 86.2832 554.935 85.2944 554.935 84.0786C554.935 82.7065 555.27 81.6396 555.938 80.8779C556.607 80.1162 557.53 79.7354 558.707 79.7354C559.708 79.7354 560.526 79.96 561.161 80.4092C561.8 80.8584 562.179 81.6519 562.296 82.7896H560.157ZM567.32 86.437C567.931 86.437 568.399 86.2197 568.727 85.7852C569.054 85.3506 569.217 84.7329 569.217 83.9321C569.217 83.1313 569.054 82.5161 568.727 82.0864C568.399 81.6519 567.931 81.4346 567.32 81.4346C566.71 81.4346 566.239 81.6519 565.907 82.0864C565.58 82.5161 565.416 83.1313 565.416 83.9321C565.416 84.7329 565.58 85.3506 565.907 85.7852C566.239 86.2197 566.71 86.437 567.32 86.437ZM571.407 83.9321C571.407 85.104 571.07 86.1074 570.396 86.9424C569.723 87.7725 568.7 88.1875 567.328 88.1875C565.956 88.1875 564.933 87.7725 564.259 86.9424C563.585 86.1074 563.248 85.104 563.248 83.9321C563.248 82.7798 563.585 81.7812 564.259 80.9365C564.933 80.0918 565.956 79.6694 567.328 79.6694C568.7 79.6694 569.723 80.0918 570.396 80.9365C571.07 81.7812 571.407 82.7798 571.407 83.9321ZM575.04 87.9092H572.953V77.1133H575.04V87.9092ZM580.665 86.437C581.275 86.437 581.744 86.2197 582.071 85.7852C582.398 85.3506 582.562 84.7329 582.562 83.9321C582.562 83.1313 582.398 82.5161 582.071 82.0864C581.744 81.6519 581.275 81.4346 580.665 81.4346C580.055 81.4346 579.583 81.6519 579.251 82.0864C578.924 82.5161 578.761 83.1313 578.761 83.9321C578.761 84.7329 578.924 85.3506 579.251 85.7852C579.583 86.2197 580.055 86.437 580.665 86.437ZM584.752 83.9321C584.752 85.104 584.415 86.1074 583.741 86.9424C583.067 87.7725 582.044 88.1875 580.672 88.1875C579.3 88.1875 578.277 87.7725 577.604 86.9424C576.93 86.1074 576.593 85.104 576.593 83.9321C576.593 82.7798 576.93 81.7812 577.604 80.9365C578.277 80.0918 579.3 79.6694 580.672 79.6694C582.044 79.6694 583.067 80.0918 583.741 80.9365C584.415 81.7812 584.752 82.7798 584.752 83.9321ZM590.589 79.7354C590.628 79.7354 590.66 79.7378 590.685 79.7427C590.714 79.7427 590.775 79.7451 590.868 79.75V81.8887C590.736 81.874 590.619 81.8643 590.516 81.8594C590.414 81.8545 590.331 81.8521 590.267 81.8521C589.427 81.8521 588.863 82.1255 588.575 82.6724C588.414 82.98 588.333 83.4536 588.333 84.0933V87.9092H586.231V79.9258H588.224V81.3174C588.546 80.7852 588.827 80.4214 589.066 80.2261C589.457 79.8989 589.964 79.7354 590.589 79.7354Z" fill="#3F7665"/>
<path d="M168.592 468.617V459.699H174.065V460.96H170.191V463.625H173.207V464.86H170.191V468.617H168.592ZM175.885 468.617L179.135 461.025H175.092V459.764H180.864V460.713L177.653 468.617H175.885ZM185.903 468.76C183.42 468.76 181.886 467.304 181.886 464.301V463.976C181.886 460.765 183.758 459.556 186.072 459.556C187.06 459.556 187.762 459.725 188.308 460.024V461.272C187.619 460.999 187.008 460.856 186.189 460.856C184.642 460.856 183.615 461.688 183.615 463.807V464.262C183.615 466.303 184.33 467.46 186.202 467.46C187.216 467.46 187.866 467.2 188.399 466.979V468.214C187.788 468.539 186.969 468.76 185.903 468.76ZM189.958 468.617V459.699H195.431V460.96H191.557V463.625H194.573V464.86H191.557V468.617H189.958ZM196.64 468.617V467.681L198.343 465.887C199.578 464.587 200.566 463.482 200.566 462.364C200.566 461.285 199.981 460.869 198.85 460.869C198.226 460.869 197.498 461.168 197.004 461.467L196.744 460.284C197.342 459.933 198.252 459.608 199.279 459.608C201.229 459.608 202.23 460.544 202.23 462.156C202.23 463.742 200.878 465.159 199.786 466.29L198.733 467.369H202.308V468.617H196.64ZM203.974 468.617V459.699H207.094C209.148 459.699 210.032 460.531 210.032 461.948C210.032 462.884 209.642 463.56 208.576 463.898V463.937C209.694 464.145 210.422 464.769 210.422 466.069C210.422 467.551 209.421 468.617 207.315 468.617H203.974ZM205.56 467.421H207.094C208.173 467.421 208.745 466.953 208.745 465.978C208.745 464.951 208.134 464.561 207.003 464.561H205.56V467.421ZM205.56 463.495H206.808C207.744 463.495 208.446 463.183 208.446 462.169C208.446 461.207 207.9 460.882 206.873 460.882H205.56V463.495Z" fill="#222222"/>
<path d="M282.784 468.747C281.718 468.747 280.678 468.448 280.171 468.123L280.431 466.966C280.886 467.252 281.848 467.473 282.511 467.473C283.707 467.473 284.409 466.979 284.409 465.978C284.409 465.029 283.694 464.639 282.563 464.626L281.64 464.6V463.443L282.459 463.43C283.486 463.404 284.175 462.936 284.175 462.104C284.175 461.207 283.564 460.882 282.589 460.882C281.926 460.882 281.224 461.103 280.691 461.35L280.509 460.167C281.055 459.855 282.134 459.608 283.005 459.608C284.656 459.608 285.774 460.388 285.774 461.818C285.774 462.884 285.15 463.56 284.175 463.898C285.293 464.119 286.073 464.756 286.073 466.082C286.073 467.72 284.812 468.747 282.784 468.747ZM290.846 468.773C288.896 468.773 287.388 467.525 287.388 464.496V463.937C287.388 460.752 289.026 459.608 290.859 459.608C292.705 459.608 294.291 460.765 294.291 463.898V464.457C294.291 467.59 292.705 468.773 290.846 468.773ZM290.846 467.551C292.042 467.551 292.64 466.693 292.64 464.561V463.898C292.64 461.779 292.029 460.843 290.859 460.843C289.65 460.843 289.052 461.727 289.052 463.807V464.496C289.052 466.563 289.637 467.551 290.846 467.551ZM298.028 468.747C297.014 468.747 296.065 468.487 295.493 468.136L295.779 466.914C296.26 467.2 296.936 467.447 297.625 467.447C298.86 467.447 299.614 466.849 299.614 465.77C299.614 464.639 298.912 464.171 297.69 464.171C297.131 464.171 296.299 464.444 295.883 464.652L296.208 459.751H300.862V460.999H297.43L297.261 463.17C297.56 463.092 298.041 463.014 298.379 463.014C300.16 463.014 301.265 463.924 301.265 465.809C301.265 467.46 300.056 468.747 298.028 468.747ZM305.915 468.773C303.965 468.773 302.457 467.525 302.457 464.496V463.937C302.457 460.752 304.095 459.608 305.928 459.608C307.774 459.608 309.36 460.765 309.36 463.898V464.457C309.36 467.59 307.774 468.773 305.915 468.773ZM305.915 467.551C307.111 467.551 307.709 466.693 307.709 464.561V463.898C307.709 461.779 307.098 460.843 305.928 460.843C304.719 460.843 304.121 461.727 304.121 463.807V464.496C304.121 466.563 304.706 467.551 305.915 467.551ZM311.213 468.617V459.699H314.138C316.868 459.699 318.402 461.012 318.402 463.924V464.184C318.402 467.044 317.011 468.617 314.151 468.617H311.213ZM312.812 467.356H314.164C315.906 467.356 316.712 466.498 316.712 464.34V463.911C316.712 461.662 315.737 460.96 314.047 460.96H312.812V467.356ZM322.896 468.773C320.738 468.773 319.62 467.265 319.62 464.821V464.184C319.62 460.856 321.323 459.621 323.442 459.621C324.339 459.621 325.145 459.894 325.522 460.115L325.21 461.285C324.872 461.103 324.118 460.895 323.533 460.895C322.207 460.895 321.336 461.545 321.206 463.833C321.661 463.443 322.363 463.053 323.286 463.053C324.82 463.053 325.938 464.015 325.938 465.718C325.938 467.421 324.872 468.773 322.896 468.773ZM322.857 467.59C323.806 467.59 324.391 466.953 324.391 465.835C324.391 464.639 323.728 464.197 322.818 464.197C322.168 464.197 321.531 464.652 321.219 465.068V465.146C321.219 466.654 321.687 467.59 322.857 467.59Z" fill="#222222"/>
<path d="M396.084 468.617V459.699H401.648V460.96H397.683V463.404H400.764V464.652H397.683V467.356H401.726V468.617H396.084ZM405.434 468.747C404.42 468.747 403.471 468.487 402.899 468.136L403.185 466.914C403.666 467.2 404.342 467.447 405.031 467.447C406.266 467.447 407.02 466.849 407.02 465.77C407.02 464.639 406.318 464.171 405.096 464.171C404.537 464.171 403.705 464.444 403.289 464.652L403.614 459.751H408.268V460.999H404.836L404.667 463.17C404.966 463.092 405.447 463.014 405.785 463.014C407.566 463.014 408.671 463.924 408.671 465.809C408.671 467.46 407.462 468.747 405.434 468.747ZM409.837 468.617V467.681L411.54 465.887C412.775 464.587 413.763 463.482 413.763 462.364C413.763 461.285 413.178 460.869 412.047 460.869C411.423 460.869 410.695 461.168 410.201 461.467L409.941 460.284C410.539 459.933 411.449 459.608 412.476 459.608C414.426 459.608 415.427 460.544 415.427 462.156C415.427 463.742 414.075 465.159 412.983 466.29L411.93 467.369H415.505V468.617H409.837ZM419.953 468.773C417.834 468.773 416.638 467.811 416.638 466.368C416.638 465.25 417.496 464.457 418.471 464.067C417.548 463.651 416.898 463.04 416.898 461.935C416.898 460.557 418.081 459.608 419.953 459.608C421.825 459.608 422.969 460.427 422.969 461.818C422.969 462.793 422.267 463.495 421.344 463.937C422.384 464.288 423.32 464.938 423.32 466.186C423.32 467.694 422.072 468.773 419.953 468.773ZM419.914 467.603C421.006 467.603 421.708 467.07 421.708 466.303C421.708 465.38 421.019 464.925 419.693 464.574C418.9 464.847 418.146 465.445 418.146 466.238C418.146 467.096 418.835 467.603 419.914 467.603ZM420.174 463.404C420.863 463.118 421.461 462.65 421.461 461.935C421.461 461.272 420.98 460.765 419.979 460.765C419.069 460.765 418.497 461.194 418.497 461.896C418.497 462.663 419.069 463.131 420.174 463.404ZM426.905 468.747C425.839 468.747 424.799 468.448 424.292 468.123L424.552 466.966C425.007 467.252 425.969 467.473 426.632 467.473C427.828 467.473 428.53 466.979 428.53 465.978C428.53 465.029 427.815 464.639 426.684 464.626L425.761 464.6V463.443L426.58 463.43C427.607 463.404 428.296 462.936 428.296 462.104C428.296 461.207 427.685 460.882 426.71 460.882C426.047 460.882 425.345 461.103 424.812 461.35L424.63 460.167C425.176 459.855 426.255 459.608 427.126 459.608C428.777 459.608 429.895 460.388 429.895 461.818C429.895 462.884 429.271 463.56 428.296 463.898C429.414 464.119 430.194 464.756 430.194 466.082C430.194 467.72 428.933 468.747 426.905 468.747ZM431.86 468.617V459.699H437.333V460.96H433.459V463.625H436.475V464.86H433.459V468.617H431.86Z" fill="#222222"/>
<path d="M687.819 468.617V467.681L689.522 465.887C690.757 464.587 691.745 463.482 691.745 462.364C691.745 461.285 691.16 460.869 690.029 460.869C689.405 460.869 688.677 461.168 688.183 461.467L687.923 460.284C688.521 459.933 689.431 459.608 690.458 459.608C692.408 459.608 693.409 460.544 693.409 462.156C693.409 463.742 692.057 465.159 690.965 466.29L689.912 467.369H693.487V468.617H687.819ZM696.089 468.669V461.337L694.594 461.636V460.7L696.856 459.686H697.701V468.669H696.089ZM699.144 468.617L702.394 459.699H704.032L707.204 468.617H705.553L704.747 466.355H701.432L700.626 468.617H699.144ZM703.057 461.597L701.809 465.159H704.344L703.096 461.597H703.057ZM710.498 468.747C709.432 468.747 708.392 468.448 707.885 468.123L708.145 466.966C708.6 467.252 709.562 467.473 710.225 467.473C711.421 467.473 712.123 466.979 712.123 465.978C712.123 465.029 711.408 464.639 710.277 464.626L709.354 464.6V463.443L710.173 463.43C711.2 463.404 711.889 462.936 711.889 462.104C711.889 461.207 711.278 460.882 710.303 460.882C709.64 460.882 708.938 461.103 708.405 461.35L708.223 460.167C708.769 459.855 709.848 459.608 710.719 459.608C712.37 459.608 713.488 460.388 713.488 461.818C713.488 462.884 712.864 463.56 711.889 463.898C713.007 464.119 713.787 464.756 713.787 466.082C713.787 467.72 712.526 468.747 710.498 468.747ZM717.338 468.747C716.324 468.747 715.375 468.487 714.803 468.136L715.089 466.914C715.57 467.2 716.246 467.447 716.935 467.447C718.17 467.447 718.924 466.849 718.924 465.77C718.924 464.639 718.222 464.171 717 464.171C716.441 464.171 715.609 464.444 715.193 464.652L715.518 459.751H720.172V460.999H716.74L716.571 463.17C716.87 463.092 717.351 463.014 717.689 463.014C719.47 463.014 720.575 463.924 720.575 465.809C720.575 467.46 719.366 468.747 717.338 468.747ZM724.003 468.747C722.989 468.747 722.04 468.487 721.468 468.136L721.754 466.914C722.235 467.2 722.911 467.447 723.6 467.447C724.835 467.447 725.589 466.849 725.589 465.77C725.589 464.639 724.887 464.171 723.665 464.171C723.106 464.171 722.274 464.444 721.858 464.652L722.183 459.751H726.837V460.999H723.405L723.236 463.17C723.535 463.092 724.016 463.014 724.354 463.014C726.135 463.014 727.24 463.924 727.24 465.809C727.24 467.46 726.031 468.747 724.003 468.747Z" fill="#222222"/>
<path d="M774.625 468.617V459.699H777.55C780.28 459.699 781.814 461.012 781.814 463.924V464.184C781.814 467.044 780.423 468.617 777.563 468.617H774.625ZM776.224 467.356H777.576C779.318 467.356 780.124 466.498 780.124 464.34V463.911C780.124 461.662 779.149 460.96 777.459 460.96H776.224V467.356ZM783.461 468.617V459.699H786.386C789.116 459.699 790.65 461.012 790.65 463.924V464.184C790.65 467.044 789.259 468.617 786.399 468.617H783.461ZM785.06 467.356H786.412C788.154 467.356 788.96 466.498 788.96 464.34V463.911C788.96 461.662 787.985 460.96 786.295 460.96H785.06V467.356ZM792.297 468.617V459.699H795.417C797.471 459.699 798.355 460.531 798.355 461.948C798.355 462.884 797.965 463.56 796.899 463.898V463.937C798.017 464.145 798.745 464.769 798.745 466.069C798.745 467.551 797.744 468.617 795.638 468.617H792.297ZM793.883 467.421H795.417C796.496 467.421 797.068 466.953 797.068 465.978C797.068 464.951 796.457 464.561 795.326 464.561H793.883V467.421ZM793.883 463.495H795.131C796.067 463.495 796.769 463.183 796.769 462.169C796.769 461.207 796.223 460.882 795.196 460.882H793.883V463.495ZM799.994 468.617V467.681L801.697 465.887C802.932 464.587 803.92 463.482 803.92 462.364C803.92 461.285 803.335 460.869 802.204 460.869C801.58 460.869 800.852 461.168 800.358 461.467L800.098 460.284C800.696 459.933 801.606 459.608 802.633 459.608C804.583 459.608 805.584 460.544 805.584 462.156C805.584 463.742 804.232 465.159 803.14 466.29L802.087 467.369H805.662V468.617H799.994ZM808.264 468.669V461.337L806.769 461.636V460.7L809.031 459.686H809.876V468.669H808.264ZM814.647 459.621C816.779 459.621 817.975 461.025 817.975 463.534V464.132C817.975 467.577 816.389 468.773 814.231 468.773C813.334 468.773 812.476 468.461 812.06 468.214L812.333 467.044C812.697 467.239 813.503 467.486 814.14 467.486C815.44 467.486 816.324 466.953 816.402 464.691C815.947 465.107 815.245 465.484 814.309 465.484C812.788 465.484 811.657 464.431 811.657 462.715C811.657 460.973 812.671 459.621 814.647 459.621ZM814.686 460.804C813.711 460.804 813.191 461.506 813.191 462.598C813.191 463.794 813.867 464.327 814.777 464.327C815.427 464.327 816.09 463.885 816.389 463.456V463.235C816.389 461.753 815.882 460.804 814.686 460.804Z" fill="#222222"/>
<path d="M863.551 468.617V459.699H869.024V460.96H865.15V463.625H868.166V464.86H865.15V468.617H863.551ZM873.054 459.621C875.186 459.621 876.382 461.025 876.382 463.534V464.132C876.382 467.577 874.796 468.773 872.638 468.773C871.741 468.773 870.883 468.461 870.467 468.214L870.74 467.044C871.104 467.239 871.91 467.486 872.547 467.486C873.847 467.486 874.731 466.953 874.809 464.691C874.354 465.107 873.652 465.484 872.716 465.484C871.195 465.484 870.064 464.431 870.064 462.715C870.064 460.973 871.078 459.621 873.054 459.621ZM873.093 460.804C872.118 460.804 871.598 461.506 871.598 462.598C871.598 463.794 872.274 464.327 873.184 464.327C873.834 464.327 874.497 463.885 874.796 463.456V463.235C874.796 461.753 874.289 460.804 873.093 460.804ZM880.895 468.773C878.776 468.773 877.58 467.811 877.58 466.368C877.58 465.25 878.438 464.457 879.413 464.067C878.49 463.651 877.84 463.04 877.84 461.935C877.84 460.557 879.023 459.608 880.895 459.608C882.767 459.608 883.911 460.427 883.911 461.818C883.911 462.793 883.209 463.495 882.286 463.937C883.326 464.288 884.262 464.938 884.262 466.186C884.262 467.694 883.014 468.773 880.895 468.773ZM880.856 467.603C881.948 467.603 882.65 467.07 882.65 466.303C882.65 465.38 881.961 464.925 880.635 464.574C879.842 464.847 879.088 465.445 879.088 466.238C879.088 467.096 879.777 467.603 880.856 467.603ZM881.116 463.404C881.805 463.118 882.403 462.65 882.403 461.935C882.403 461.272 881.922 460.765 880.921 460.765C880.011 460.765 879.439 461.194 879.439 461.896C879.439 462.663 880.011 463.131 881.116 463.404ZM885.831 468.617V459.699H888.756C891.486 459.699 893.02 461.012 893.02 463.924V464.184C893.02 467.044 891.629 468.617 888.769 468.617H885.831ZM887.43 467.356H888.782C890.524 467.356 891.33 466.498 891.33 464.34V463.911C891.33 461.662 890.355 460.96 888.665 460.96H887.43V467.356ZM897.774 468.773C895.824 468.773 894.316 467.525 894.316 464.496V463.937C894.316 460.752 895.954 459.608 897.787 459.608C899.633 459.608 901.219 460.765 901.219 463.898V464.457C901.219 467.59 899.633 468.773 897.774 468.773ZM897.774 467.551C898.97 467.551 899.568 466.693 899.568 464.561V463.898C899.568 461.779 898.957 460.843 897.787 460.843C896.578 460.843 895.98 461.727 895.98 463.807V464.496C895.98 466.563 896.565 467.551 897.774 467.551ZM903.072 468.617V459.699H908.545V460.96H904.671V463.625H907.687V464.86H904.671V468.617H903.072Z" fill="#222222"/>
<path d="M263.987 286.175H268.313V300.57H265.511V290.833C265.511 290.554 265.514 290.163 265.521 289.662C265.527 289.154 265.53 288.763 265.53 288.49L262.806 300.57H259.886L257.181 288.49C257.181 288.763 257.184 289.154 257.19 289.662C257.197 290.163 257.2 290.554 257.2 290.833V300.57H254.397V286.175H258.772L261.39 297.494L263.987 286.175ZM276.751 295.394C276.575 295.505 276.396 295.596 276.214 295.667C276.038 295.733 275.794 295.794 275.481 295.853L274.856 295.97C274.271 296.074 273.851 296.201 273.597 296.351C273.167 296.605 272.952 296.999 272.952 297.533C272.952 298.008 273.082 298.353 273.343 298.568C273.61 298.776 273.932 298.88 274.31 298.88C274.909 298.88 275.459 298.705 275.96 298.353C276.468 298.001 276.731 297.36 276.751 296.429V295.394ZM275.062 294.095C275.576 294.03 275.944 293.949 276.165 293.851C276.562 293.682 276.761 293.418 276.761 293.06C276.761 292.624 276.608 292.324 276.302 292.162C276.002 291.992 275.56 291.908 274.974 291.908C274.316 291.908 273.851 292.07 273.577 292.396C273.382 292.637 273.252 292.962 273.187 293.373H270.501C270.56 292.442 270.82 291.677 271.282 291.078C272.018 290.14 273.281 289.671 275.071 289.671C276.237 289.671 277.272 289.903 278.177 290.365C279.082 290.827 279.534 291.699 279.534 292.982V297.865C279.534 298.203 279.541 298.613 279.554 299.095C279.573 299.46 279.629 299.707 279.72 299.837C279.811 299.968 279.948 300.075 280.13 300.16V300.57H277.103C277.018 300.355 276.959 300.153 276.927 299.964C276.894 299.776 276.868 299.561 276.849 299.32C276.465 299.736 276.022 300.091 275.521 300.384C274.922 300.729 274.244 300.902 273.489 300.902C272.526 300.902 271.728 300.628 271.097 300.082C270.472 299.528 270.159 298.747 270.159 297.738C270.159 296.429 270.664 295.482 271.673 294.896C272.226 294.577 273.04 294.349 274.114 294.212L275.062 294.095ZM284.876 288.656H282.054V286.087H284.876V288.656ZM282.054 289.925H284.876V300.57H282.054V289.925ZM293.479 289.671C294.58 289.671 295.478 289.961 296.175 290.541C296.878 291.113 297.229 292.067 297.229 293.402V300.57H294.378V294.095C294.378 293.535 294.303 293.106 294.153 292.806C293.88 292.259 293.359 291.986 292.591 291.986C291.647 291.986 290.999 292.386 290.647 293.187C290.465 293.61 290.374 294.151 290.374 294.808V300.57H287.601V289.945H290.286V291.498C290.644 290.951 290.983 290.557 291.302 290.316C291.875 289.886 292.601 289.671 293.479 289.671ZM311.731 293.744C311.679 293.347 311.546 292.988 311.331 292.669C311.019 292.24 310.534 292.025 309.876 292.025C308.938 292.025 308.297 292.49 307.952 293.421C307.77 293.916 307.679 294.574 307.679 295.394C307.679 296.175 307.77 296.804 307.952 297.279C308.284 298.164 308.909 298.607 309.827 298.607C310.478 298.607 310.94 298.431 311.214 298.08C311.487 297.728 311.653 297.272 311.712 296.712H314.554C314.489 297.559 314.183 298.36 313.636 299.115C312.763 300.332 311.471 300.941 309.759 300.941C308.047 300.941 306.787 300.433 305.979 299.417C305.172 298.402 304.769 297.083 304.769 295.462C304.769 293.633 305.215 292.21 306.106 291.195C306.998 290.179 308.229 289.671 309.798 289.671C311.132 289.671 312.223 289.971 313.069 290.57C313.922 291.169 314.427 292.227 314.583 293.744H311.731ZM321.282 298.607C322.096 298.607 322.721 298.317 323.157 297.738C323.593 297.158 323.812 296.335 323.812 295.267C323.812 294.199 323.593 293.379 323.157 292.806C322.721 292.227 322.096 291.937 321.282 291.937C320.468 291.937 319.84 292.227 319.397 292.806C318.961 293.379 318.743 294.199 318.743 295.267C318.743 296.335 318.961 297.158 319.397 297.738C319.84 298.317 320.468 298.607 321.282 298.607ZM326.731 295.267C326.731 296.83 326.282 298.167 325.384 299.281C324.485 300.388 323.121 300.941 321.292 300.941C319.463 300.941 318.099 300.388 317.2 299.281C316.302 298.167 315.853 296.83 315.853 295.267C315.853 293.731 316.302 292.399 317.2 291.273C318.099 290.147 319.463 289.583 321.292 289.583C323.121 289.583 324.485 290.147 325.384 291.273C326.282 292.399 326.731 293.731 326.731 295.267ZM331.575 300.57H328.792V286.175H331.575V300.57ZM339.075 298.607C339.889 298.607 340.514 298.317 340.95 297.738C341.386 297.158 341.604 296.335 341.604 295.267C341.604 294.199 341.386 293.379 340.95 292.806C340.514 292.227 339.889 291.937 339.075 291.937C338.261 291.937 337.633 292.227 337.19 292.806C336.754 293.379 336.536 294.199 336.536 295.267C336.536 296.335 336.754 297.158 337.19 297.738C337.633 298.317 338.261 298.607 339.075 298.607ZM344.524 295.267C344.524 296.83 344.075 298.167 343.177 299.281C342.278 300.388 340.914 300.941 339.085 300.941C337.256 300.941 335.892 300.388 334.993 299.281C334.095 298.167 333.646 296.83 333.646 295.267C333.646 293.731 334.095 292.399 334.993 291.273C335.892 290.147 337.256 289.583 339.085 289.583C340.914 289.583 342.278 290.147 343.177 291.273C344.075 292.399 344.524 293.731 344.524 295.267ZM352.308 289.671C352.36 289.671 352.402 289.675 352.435 289.681C352.474 289.681 352.555 289.684 352.679 289.691V292.542C352.503 292.523 352.347 292.51 352.21 292.503C352.073 292.497 351.963 292.494 351.878 292.494C350.758 292.494 350.006 292.858 349.622 293.587C349.407 293.998 349.3 294.629 349.3 295.482V300.57H346.497V289.925H349.153V291.781C349.583 291.071 349.957 290.586 350.276 290.326C350.797 289.889 351.474 289.671 352.308 289.671Z" fill="#222222"/>
<path d="M147.18 446.707C147.271 447.364 147.45 447.856 147.717 448.181C148.205 448.774 149.042 449.07 150.227 449.07C150.936 449.07 151.512 448.992 151.955 448.835C152.795 448.536 153.215 447.979 153.215 447.166C153.215 446.69 153.007 446.322 152.59 446.062C152.173 445.808 151.519 445.583 150.627 445.388L149.104 445.046C147.606 444.708 146.571 444.34 145.998 443.943C145.028 443.279 144.543 442.24 144.543 440.828C144.543 439.539 145.012 438.468 145.949 437.615C146.887 436.762 148.264 436.335 150.08 436.335C151.597 436.335 152.889 436.739 153.957 437.546C155.031 438.347 155.594 439.513 155.646 441.042H152.756C152.704 440.177 152.326 439.561 151.623 439.197C151.154 438.956 150.572 438.835 149.875 438.835C149.1 438.835 148.482 438.992 148.02 439.304C147.557 439.617 147.326 440.053 147.326 440.613C147.326 441.127 147.554 441.511 148.01 441.765C148.303 441.934 148.928 442.133 149.885 442.361L152.365 442.957C153.452 443.217 154.273 443.565 154.826 444.001C155.686 444.679 156.115 445.658 156.115 446.941C156.115 448.256 155.611 449.35 154.602 450.222C153.599 451.088 152.18 451.521 150.344 451.521C148.469 451.521 146.994 451.095 145.92 450.242C144.846 449.382 144.309 448.204 144.309 446.707H147.18ZM160.891 440.505V446.921C160.891 447.527 160.962 447.983 161.105 448.289C161.359 448.829 161.857 449.099 162.6 449.099C163.55 449.099 164.201 448.715 164.553 447.947C164.735 447.53 164.826 446.98 164.826 446.296V440.505H167.648V451.15H164.943V449.646C164.917 449.679 164.852 449.776 164.748 449.939C164.644 450.102 164.52 450.245 164.377 450.369C163.941 450.759 163.518 451.026 163.107 451.169C162.704 451.313 162.229 451.384 161.682 451.384C160.106 451.384 159.045 450.818 158.498 449.685C158.192 449.06 158.039 448.139 158.039 446.921V440.505H160.891ZM176.096 440.271C177.495 440.271 178.589 440.776 179.377 441.785C180.171 442.794 180.568 444.096 180.568 445.691C180.568 447.345 180.178 448.715 179.396 449.802C178.615 450.889 177.525 451.433 176.125 451.433C175.246 451.433 174.54 451.257 174.006 450.906C173.687 450.697 173.342 450.333 172.971 449.812V451.15H170.246V436.775H173.02V441.892C173.371 441.397 173.758 441.02 174.182 440.759C174.683 440.434 175.321 440.271 176.096 440.271ZM175.383 449.138C176.099 449.138 176.656 448.848 177.053 448.269C177.45 447.69 177.648 446.928 177.648 445.984C177.648 445.229 177.551 444.604 177.355 444.109C176.984 443.171 176.301 442.703 175.305 442.703C174.296 442.703 173.602 443.162 173.225 444.08C173.029 444.568 172.932 445.199 172.932 445.974C172.932 446.886 173.133 447.641 173.537 448.24C173.941 448.839 174.556 449.138 175.383 449.138ZM194.494 444.324C194.442 443.927 194.309 443.569 194.094 443.25C193.781 442.82 193.296 442.605 192.639 442.605C191.701 442.605 191.06 443.07 190.715 444.001C190.533 444.496 190.441 445.154 190.441 445.974C190.441 446.755 190.533 447.384 190.715 447.859C191.047 448.744 191.672 449.187 192.59 449.187C193.241 449.187 193.703 449.011 193.977 448.66C194.25 448.308 194.416 447.852 194.475 447.292H197.316C197.251 448.139 196.945 448.94 196.398 449.695C195.526 450.912 194.234 451.521 192.521 451.521C190.809 451.521 189.549 451.013 188.742 449.998C187.935 448.982 187.531 447.664 187.531 446.042C187.531 444.213 187.977 442.791 188.869 441.775C189.761 440.759 190.992 440.251 192.561 440.251C193.895 440.251 194.986 440.551 195.832 441.15C196.685 441.749 197.189 442.807 197.346 444.324H194.494ZM204.045 449.187C204.859 449.187 205.484 448.897 205.92 448.318C206.356 447.738 206.574 446.915 206.574 445.847C206.574 444.779 206.356 443.959 205.92 443.386C205.484 442.807 204.859 442.517 204.045 442.517C203.231 442.517 202.603 442.807 202.16 443.386C201.724 443.959 201.506 444.779 201.506 445.847C201.506 446.915 201.724 447.738 202.16 448.318C202.603 448.897 203.231 449.187 204.045 449.187ZM209.494 445.847C209.494 447.41 209.045 448.748 208.146 449.861C207.248 450.968 205.884 451.521 204.055 451.521C202.225 451.521 200.861 450.968 199.963 449.861C199.064 448.748 198.615 447.41 198.615 445.847C198.615 444.311 199.064 442.979 199.963 441.853C200.861 440.727 202.225 440.164 204.055 440.164C205.884 440.164 207.248 440.727 208.146 441.853C209.045 442.979 209.494 444.311 209.494 445.847ZM214.338 451.15H211.555V436.755H214.338V451.15ZM221.838 449.187C222.652 449.187 223.277 448.897 223.713 448.318C224.149 447.738 224.367 446.915 224.367 445.847C224.367 444.779 224.149 443.959 223.713 443.386C223.277 442.807 222.652 442.517 221.838 442.517C221.024 442.517 220.396 442.807 219.953 443.386C219.517 443.959 219.299 444.779 219.299 445.847C219.299 446.915 219.517 447.738 219.953 448.318C220.396 448.897 221.024 449.187 221.838 449.187ZM227.287 445.847C227.287 447.41 226.838 448.748 225.939 449.861C225.041 450.968 223.677 451.521 221.848 451.521C220.018 451.521 218.654 450.968 217.756 449.861C216.857 448.748 216.408 447.41 216.408 445.847C216.408 444.311 216.857 442.979 217.756 441.853C218.654 440.727 220.018 440.164 221.848 440.164C223.677 440.164 225.041 440.727 225.939 441.853C226.838 442.979 227.287 444.311 227.287 445.847ZM235.07 440.251C235.122 440.251 235.165 440.255 235.197 440.261C235.236 440.261 235.318 440.264 235.441 440.271V443.123C235.266 443.103 235.109 443.09 234.973 443.083C234.836 443.077 234.725 443.074 234.641 443.074C233.521 443.074 232.769 443.438 232.385 444.167C232.17 444.578 232.062 445.209 232.062 446.062V451.15H229.26V440.505H231.916V442.361C232.346 441.651 232.72 441.166 233.039 440.906C233.56 440.47 234.237 440.251 235.07 440.251Z" fill="#222222"/>
<path d="M260.521 446.707C260.612 447.364 260.791 447.856 261.058 448.181C261.546 448.774 262.382 449.07 263.567 449.07C264.277 449.07 264.853 448.992 265.296 448.835C266.136 448.536 266.556 447.979 266.556 447.166C266.556 446.69 266.347 446.322 265.931 446.062C265.514 445.808 264.86 445.583 263.968 445.388L262.444 445.046C260.947 444.708 259.912 444.34 259.339 443.943C258.369 443.279 257.884 442.24 257.884 440.828C257.884 439.539 258.353 438.468 259.29 437.615C260.228 436.762 261.604 436.335 263.421 436.335C264.938 436.335 266.23 436.739 267.298 437.546C268.372 438.347 268.935 439.513 268.987 441.042H266.097C266.045 440.177 265.667 439.561 264.964 439.197C264.495 438.956 263.912 438.835 263.216 438.835C262.441 438.835 261.823 438.992 261.36 439.304C260.898 439.617 260.667 440.053 260.667 440.613C260.667 441.127 260.895 441.511 261.351 441.765C261.644 441.934 262.269 442.133 263.226 442.361L265.706 442.957C266.793 443.217 267.614 443.565 268.167 444.001C269.026 444.679 269.456 445.658 269.456 446.941C269.456 448.256 268.951 449.35 267.942 450.222C266.94 451.088 265.521 451.521 263.685 451.521C261.81 451.521 260.335 451.095 259.261 450.242C258.187 449.382 257.649 448.204 257.649 446.707H260.521ZM274.231 440.505V446.921C274.231 447.527 274.303 447.983 274.446 448.289C274.7 448.829 275.198 449.099 275.94 449.099C276.891 449.099 277.542 448.715 277.894 447.947C278.076 447.53 278.167 446.98 278.167 446.296V440.505H280.989V451.15H278.284V449.646C278.258 449.679 278.193 449.776 278.089 449.939C277.985 450.102 277.861 450.245 277.718 450.369C277.282 450.759 276.858 451.026 276.448 451.169C276.045 451.313 275.569 451.384 275.022 451.384C273.447 451.384 272.386 450.818 271.839 449.685C271.533 449.06 271.38 448.139 271.38 446.921V440.505H274.231ZM289.437 440.271C290.836 440.271 291.93 440.776 292.718 441.785C293.512 442.794 293.909 444.096 293.909 445.691C293.909 447.345 293.519 448.715 292.737 449.802C291.956 450.889 290.866 451.433 289.466 451.433C288.587 451.433 287.881 451.257 287.347 450.906C287.028 450.697 286.683 450.333 286.312 449.812V451.15H283.587V436.775H286.36V441.892C286.712 441.397 287.099 441.02 287.522 440.759C288.024 440.434 288.662 440.271 289.437 440.271ZM288.724 449.138C289.44 449.138 289.996 448.848 290.394 448.269C290.791 447.69 290.989 446.928 290.989 445.984C290.989 445.229 290.892 444.604 290.696 444.109C290.325 443.171 289.642 442.703 288.646 442.703C287.636 442.703 286.943 443.162 286.565 444.08C286.37 444.568 286.272 445.199 286.272 445.974C286.272 446.886 286.474 447.641 286.878 448.24C287.282 448.839 287.897 449.138 288.724 449.138ZM307.835 444.324C307.783 443.927 307.649 443.569 307.435 443.25C307.122 442.82 306.637 442.605 305.979 442.605C305.042 442.605 304.401 443.07 304.056 444.001C303.873 444.496 303.782 445.154 303.782 445.974C303.782 446.755 303.873 447.384 304.056 447.859C304.388 448.744 305.013 449.187 305.931 449.187C306.582 449.187 307.044 449.011 307.317 448.66C307.591 448.308 307.757 447.852 307.815 447.292H310.657C310.592 448.139 310.286 448.94 309.739 449.695C308.867 450.912 307.575 451.521 305.862 451.521C304.15 451.521 302.89 451.013 302.083 449.998C301.276 448.982 300.872 447.664 300.872 446.042C300.872 444.213 301.318 442.791 302.21 441.775C303.102 440.759 304.332 440.251 305.901 440.251C307.236 440.251 308.326 440.551 309.173 441.15C310.026 441.749 310.53 442.807 310.687 444.324H307.835ZM317.386 449.187C318.2 449.187 318.825 448.897 319.261 448.318C319.697 447.738 319.915 446.915 319.915 445.847C319.915 444.779 319.697 443.959 319.261 443.386C318.825 442.807 318.2 442.517 317.386 442.517C316.572 442.517 315.944 442.807 315.501 443.386C315.065 443.959 314.847 444.779 314.847 445.847C314.847 446.915 315.065 447.738 315.501 448.318C315.944 448.897 316.572 449.187 317.386 449.187ZM322.835 445.847C322.835 447.41 322.386 448.748 321.487 449.861C320.589 450.968 319.225 451.521 317.396 451.521C315.566 451.521 314.202 450.968 313.304 449.861C312.405 448.748 311.956 447.41 311.956 445.847C311.956 444.311 312.405 442.979 313.304 441.853C314.202 440.727 315.566 440.164 317.396 440.164C319.225 440.164 320.589 440.727 321.487 441.853C322.386 442.979 322.835 444.311 322.835 445.847ZM327.679 451.15H324.896V436.755H327.679V451.15ZM335.179 449.187C335.993 449.187 336.618 448.897 337.054 448.318C337.49 447.738 337.708 446.915 337.708 445.847C337.708 444.779 337.49 443.959 337.054 443.386C336.618 442.807 335.993 442.517 335.179 442.517C334.365 442.517 333.737 442.807 333.294 443.386C332.858 443.959 332.64 444.779 332.64 445.847C332.64 446.915 332.858 447.738 333.294 448.318C333.737 448.897 334.365 449.187 335.179 449.187ZM340.628 445.847C340.628 447.41 340.179 448.748 339.28 449.861C338.382 450.968 337.018 451.521 335.188 451.521C333.359 451.521 331.995 450.968 331.097 449.861C330.198 448.748 329.749 447.41 329.749 445.847C329.749 444.311 330.198 442.979 331.097 441.853C331.995 440.727 333.359 440.164 335.188 440.164C337.018 440.164 338.382 440.727 339.28 441.853C340.179 442.979 340.628 444.311 340.628 445.847ZM348.411 440.251C348.463 440.251 348.506 440.255 348.538 440.261C348.577 440.261 348.659 440.264 348.782 440.271V443.123C348.606 443.103 348.45 443.09 348.313 443.083C348.177 443.077 348.066 443.074 347.981 443.074C346.862 443.074 346.11 443.438 345.726 444.167C345.511 444.578 345.403 445.209 345.403 446.062V451.15H342.601V440.505H345.257V442.361C345.687 441.651 346.061 441.166 346.38 440.906C346.901 440.47 347.578 440.251 348.411 440.251Z" fill="#222222"/>
<path d="M757.169 240.606C756.941 239.623 756.384 238.936 755.499 238.545C755.004 238.331 754.454 238.223 753.849 238.223C752.69 238.223 751.736 238.663 750.987 239.542C750.245 240.414 749.874 241.729 749.874 243.487C749.874 245.258 750.278 246.511 751.085 247.247C751.892 247.982 752.81 248.35 753.839 248.35C754.848 248.35 755.675 248.06 756.319 247.481C756.964 246.895 757.361 246.13 757.511 245.186H754.181V242.784H760.177V250.508H758.185L757.882 248.711C757.302 249.395 756.782 249.877 756.319 250.157C755.525 250.645 754.549 250.889 753.39 250.889C751.482 250.889 749.92 250.228 748.702 248.907C747.433 247.579 746.798 245.762 746.798 243.458C746.798 241.127 747.439 239.258 748.722 237.852C750.004 236.446 751.7 235.743 753.81 235.743C755.639 235.743 757.107 236.208 758.214 237.139C759.327 238.064 759.965 239.219 760.128 240.606H757.169ZM768.614 239.61C768.666 239.61 768.709 239.613 768.741 239.62C768.78 239.62 768.862 239.623 768.985 239.629V242.481C768.81 242.461 768.653 242.448 768.517 242.442C768.38 242.435 768.269 242.432 768.185 242.432C767.065 242.432 766.313 242.797 765.929 243.526C765.714 243.936 765.606 244.568 765.606 245.42V250.508H762.804V239.864H765.46V241.719C765.89 241.01 766.264 240.525 766.583 240.264C767.104 239.828 767.781 239.61 768.614 239.61ZM776.495 245.333C776.319 245.443 776.14 245.534 775.958 245.606C775.782 245.671 775.538 245.733 775.226 245.792L774.601 245.909C774.015 246.013 773.595 246.14 773.341 246.29C772.911 246.543 772.696 246.937 772.696 247.471C772.696 247.946 772.826 248.292 773.087 248.506C773.354 248.715 773.676 248.819 774.054 248.819C774.653 248.819 775.203 248.643 775.704 248.292C776.212 247.94 776.476 247.299 776.495 246.368V245.333ZM774.806 244.034C775.32 243.969 775.688 243.887 775.909 243.79C776.306 243.62 776.505 243.357 776.505 242.999C776.505 242.562 776.352 242.263 776.046 242.1C775.746 241.931 775.304 241.846 774.718 241.846C774.06 241.846 773.595 242.009 773.321 242.334C773.126 242.575 772.996 242.901 772.931 243.311H770.245C770.304 242.38 770.564 241.615 771.026 241.016C771.762 240.079 773.025 239.61 774.815 239.61C775.981 239.61 777.016 239.841 777.921 240.303C778.826 240.765 779.278 241.638 779.278 242.92V247.803C779.278 248.142 779.285 248.552 779.298 249.034C779.317 249.398 779.373 249.646 779.464 249.776C779.555 249.906 779.692 250.014 779.874 250.098V250.508H776.847C776.762 250.293 776.703 250.092 776.671 249.903C776.638 249.714 776.612 249.499 776.593 249.258C776.209 249.675 775.766 250.03 775.265 250.323C774.666 250.668 773.989 250.84 773.233 250.84C772.27 250.84 771.472 250.567 770.841 250.02C770.216 249.467 769.903 248.685 769.903 247.676C769.903 246.368 770.408 245.42 771.417 244.834C771.97 244.515 772.784 244.288 773.858 244.151L774.806 244.034ZM782.188 252.549L782.54 252.569C782.813 252.582 783.074 252.572 783.321 252.54C783.569 252.507 783.777 252.432 783.946 252.315C784.109 252.204 784.259 251.973 784.396 251.622C784.539 251.27 784.597 251.055 784.571 250.977L780.665 239.864H783.761L786.085 247.715L788.282 239.864H791.241L787.589 250.333C786.886 252.351 786.329 253.601 785.919 254.083C785.509 254.571 784.688 254.815 783.458 254.815C783.211 254.815 783.012 254.812 782.862 254.805C782.713 254.805 782.488 254.795 782.188 254.776V252.549ZM800.626 247.11C800.685 247.605 800.812 247.956 801.007 248.165C801.352 248.536 801.99 248.721 802.921 248.721C803.468 248.721 803.901 248.64 804.22 248.477C804.545 248.314 804.708 248.07 804.708 247.745C804.708 247.432 804.578 247.194 804.317 247.032C804.057 246.869 803.09 246.589 801.417 246.192C800.213 245.892 799.363 245.518 798.868 245.069C798.373 244.626 798.126 243.988 798.126 243.155C798.126 242.172 798.51 241.329 799.278 240.625C800.053 239.916 801.14 239.561 802.54 239.561C803.868 239.561 804.949 239.828 805.782 240.362C806.622 240.889 807.104 241.804 807.228 243.106H804.444C804.405 242.748 804.304 242.465 804.142 242.256C803.836 241.879 803.315 241.69 802.579 241.69C801.974 241.69 801.541 241.784 801.28 241.973C801.026 242.162 800.899 242.383 800.899 242.637C800.899 242.956 801.036 243.187 801.31 243.331C801.583 243.48 802.55 243.737 804.21 244.102C805.317 244.362 806.147 244.756 806.7 245.284C807.247 245.818 807.521 246.485 807.521 247.286C807.521 248.34 807.127 249.203 806.339 249.874C805.558 250.538 804.347 250.87 802.706 250.87C801.033 250.87 799.796 250.518 798.995 249.815C798.201 249.105 797.804 248.204 797.804 247.11H800.626ZM815.948 243.682C815.896 243.285 815.763 242.927 815.548 242.608C815.235 242.178 814.75 241.963 814.093 241.963C813.155 241.963 812.514 242.429 812.169 243.36C811.987 243.855 811.896 244.512 811.896 245.333C811.896 246.114 811.987 246.742 812.169 247.217C812.501 248.103 813.126 248.545 814.044 248.545C814.695 248.545 815.157 248.37 815.431 248.018C815.704 247.667 815.87 247.211 815.929 246.651H818.771C818.705 247.497 818.399 248.298 817.853 249.053C816.98 250.271 815.688 250.879 813.976 250.879C812.263 250.879 811.004 250.372 810.196 249.356C809.389 248.34 808.985 247.022 808.985 245.401C808.985 243.571 809.431 242.149 810.323 241.133C811.215 240.118 812.446 239.61 814.015 239.61C815.349 239.61 816.44 239.909 817.286 240.508C818.139 241.107 818.644 242.165 818.8 243.682H815.948ZM826.593 245.333C826.417 245.443 826.238 245.534 826.056 245.606C825.88 245.671 825.636 245.733 825.323 245.792L824.698 245.909C824.112 246.013 823.692 246.14 823.438 246.29C823.009 246.543 822.794 246.937 822.794 247.471C822.794 247.946 822.924 248.292 823.185 248.506C823.451 248.715 823.774 248.819 824.151 248.819C824.75 248.819 825.3 248.643 825.802 248.292C826.31 247.94 826.573 247.299 826.593 246.368V245.333ZM824.903 244.034C825.418 243.969 825.785 243.887 826.007 243.79C826.404 243.62 826.603 243.357 826.603 242.999C826.603 242.562 826.45 242.263 826.144 242.1C825.844 241.931 825.401 241.846 824.815 241.846C824.158 241.846 823.692 242.009 823.419 242.334C823.224 242.575 823.093 242.901 823.028 243.311H820.343C820.401 242.38 820.662 241.615 821.124 241.016C821.86 240.079 823.123 239.61 824.913 239.61C826.078 239.61 827.114 239.841 828.019 240.303C828.924 240.765 829.376 241.638 829.376 242.92V247.803C829.376 248.142 829.382 248.552 829.396 249.034C829.415 249.398 829.47 249.646 829.562 249.776C829.653 249.906 829.789 250.014 829.972 250.098V250.508H826.944C826.86 250.293 826.801 250.092 826.769 249.903C826.736 249.714 826.71 249.499 826.69 249.258C826.306 249.675 825.864 250.03 825.362 250.323C824.763 250.668 824.086 250.84 823.331 250.84C822.368 250.84 821.57 250.567 820.938 250.02C820.313 249.467 820.001 248.685 820.001 247.676C820.001 246.368 820.506 245.42 821.515 244.834C822.068 244.515 822.882 244.288 823.956 244.151L824.903 244.034ZM834.698 250.508H831.915V236.114H834.698V250.508ZM841.622 241.875C840.978 241.875 840.476 242.077 840.118 242.481C839.767 242.885 839.545 243.431 839.454 244.122H843.78C843.735 243.386 843.51 242.829 843.106 242.452C842.709 242.068 842.215 241.875 841.622 241.875ZM841.622 239.581C842.507 239.581 843.305 239.747 844.015 240.079C844.724 240.411 845.31 240.935 845.772 241.651C846.189 242.282 846.459 243.015 846.583 243.848C846.655 244.336 846.684 245.04 846.671 245.958H839.386C839.425 247.025 839.76 247.774 840.392 248.204C840.776 248.471 841.238 248.604 841.778 248.604C842.351 248.604 842.817 248.441 843.175 248.116C843.37 247.94 843.543 247.696 843.692 247.383H846.534C846.463 248.015 846.134 248.656 845.548 249.307C844.636 250.342 843.36 250.86 841.72 250.86C840.366 250.86 839.171 250.424 838.136 249.551C837.101 248.679 836.583 247.26 836.583 245.293C836.583 243.451 837.049 242.038 837.979 241.055C838.917 240.072 840.131 239.581 841.622 239.581Z" fill="#222222"/>
<path d="M758.722 433.755V436.304H754.415V448.15H751.388V436.304H747.062V433.755H758.722ZM762.979 439.517C762.335 439.517 761.834 439.719 761.476 440.123C761.124 440.526 760.903 441.073 760.812 441.763H765.138C765.092 441.028 764.868 440.471 764.464 440.093C764.067 439.709 763.572 439.517 762.979 439.517ZM762.979 437.222C763.865 437.222 764.662 437.388 765.372 437.72C766.082 438.052 766.668 438.576 767.13 439.292C767.547 439.924 767.817 440.656 767.94 441.49C768.012 441.978 768.041 442.681 768.028 443.599H760.743C760.782 444.667 761.118 445.416 761.749 445.845C762.133 446.112 762.595 446.246 763.136 446.246C763.709 446.246 764.174 446.083 764.532 445.757C764.728 445.582 764.9 445.337 765.05 445.025H767.892C767.82 445.656 767.491 446.298 766.905 446.949C765.994 447.984 764.718 448.501 763.077 448.501C761.723 448.501 760.528 448.065 759.493 447.193C758.458 446.32 757.94 444.901 757.94 442.935C757.94 441.093 758.406 439.68 759.337 438.697C760.274 437.714 761.489 437.222 762.979 437.222ZM772.081 444.751C772.14 445.246 772.267 445.598 772.462 445.806C772.807 446.177 773.445 446.363 774.376 446.363C774.923 446.363 775.356 446.281 775.675 446.119C776 445.956 776.163 445.712 776.163 445.386C776.163 445.074 776.033 444.836 775.772 444.673C775.512 444.511 774.545 444.231 772.872 443.833C771.668 443.534 770.818 443.16 770.323 442.71C769.828 442.268 769.581 441.63 769.581 440.796C769.581 439.813 769.965 438.97 770.733 438.267C771.508 437.557 772.595 437.203 773.995 437.203C775.323 437.203 776.404 437.47 777.237 438.003C778.077 438.531 778.559 439.445 778.683 440.748H775.899C775.86 440.389 775.759 440.106 775.597 439.898C775.291 439.52 774.77 439.332 774.034 439.332C773.429 439.332 772.996 439.426 772.735 439.615C772.481 439.804 772.354 440.025 772.354 440.279C772.354 440.598 772.491 440.829 772.765 440.972C773.038 441.122 774.005 441.379 775.665 441.744C776.772 442.004 777.602 442.398 778.155 442.925C778.702 443.459 778.976 444.126 778.976 444.927C778.976 445.982 778.582 446.845 777.794 447.515C777.013 448.179 775.802 448.511 774.161 448.511C772.488 448.511 771.251 448.16 770.45 447.457C769.656 446.747 769.259 445.845 769.259 444.751H772.081ZM779.952 439.585V437.603H781.437V434.634H784.19V437.603H785.919V439.585H784.19V445.21C784.19 445.647 784.246 445.92 784.356 446.031C784.467 446.135 784.806 446.187 785.372 446.187C785.457 446.187 785.545 446.187 785.636 446.187C785.733 446.181 785.828 446.174 785.919 446.167V448.248L784.601 448.296C783.285 448.342 782.387 448.114 781.905 447.613C781.593 447.294 781.437 446.802 781.437 446.138V439.585H779.952ZM799.054 437.251C799.106 437.251 799.148 437.255 799.181 437.261C799.22 437.261 799.301 437.264 799.425 437.271V440.123C799.249 440.103 799.093 440.09 798.956 440.083C798.819 440.077 798.709 440.074 798.624 440.074C797.504 440.074 796.752 440.438 796.368 441.167C796.153 441.578 796.046 442.209 796.046 443.062V448.15H793.243V437.505H795.899V439.361C796.329 438.651 796.703 438.166 797.022 437.906C797.543 437.47 798.22 437.251 799.054 437.251ZM805.265 439.517C804.62 439.517 804.119 439.719 803.761 440.123C803.409 440.526 803.188 441.073 803.097 441.763H807.423C807.377 441.028 807.153 440.471 806.749 440.093C806.352 439.709 805.857 439.517 805.265 439.517ZM805.265 437.222C806.15 437.222 806.948 437.388 807.657 437.72C808.367 438.052 808.953 438.576 809.415 439.292C809.832 439.924 810.102 440.656 810.226 441.49C810.297 441.978 810.326 442.681 810.313 443.599H803.028C803.067 444.667 803.403 445.416 804.034 445.845C804.418 446.112 804.881 446.246 805.421 446.246C805.994 446.246 806.459 446.083 806.817 445.757C807.013 445.582 807.185 445.337 807.335 445.025H810.177C810.105 445.656 809.776 446.298 809.19 446.949C808.279 447.984 807.003 448.501 805.362 448.501C804.008 448.501 802.813 448.065 801.778 447.193C800.743 446.32 800.226 444.901 800.226 442.935C800.226 441.093 800.691 439.68 801.622 438.697C802.56 437.714 803.774 437.222 805.265 437.222ZM814.366 444.751C814.425 445.246 814.552 445.598 814.747 445.806C815.092 446.177 815.73 446.363 816.661 446.363C817.208 446.363 817.641 446.281 817.96 446.119C818.285 445.956 818.448 445.712 818.448 445.386C818.448 445.074 818.318 444.836 818.058 444.673C817.797 444.511 816.83 444.231 815.157 443.833C813.953 443.534 813.103 443.16 812.608 442.71C812.114 442.268 811.866 441.63 811.866 440.796C811.866 439.813 812.25 438.97 813.019 438.267C813.793 437.557 814.881 437.203 816.28 437.203C817.608 437.203 818.689 437.47 819.522 438.003C820.362 438.531 820.844 439.445 820.968 440.748H818.185C818.146 440.389 818.045 440.106 817.882 439.898C817.576 439.52 817.055 439.332 816.319 439.332C815.714 439.332 815.281 439.426 815.021 439.615C814.767 439.804 814.64 440.025 814.64 440.279C814.64 440.598 814.776 440.829 815.05 440.972C815.323 441.122 816.29 441.379 817.95 441.744C819.057 442.004 819.887 442.398 820.44 442.925C820.987 443.459 821.261 444.126 821.261 444.927C821.261 445.982 820.867 446.845 820.079 447.515C819.298 448.179 818.087 448.511 816.446 448.511C814.773 448.511 813.536 448.16 812.735 447.457C811.941 446.747 811.544 445.845 811.544 444.751H814.366ZM826.104 437.505V443.921C826.104 444.527 826.176 444.983 826.319 445.289C826.573 445.829 827.071 446.099 827.813 446.099C828.764 446.099 829.415 445.715 829.767 444.947C829.949 444.53 830.04 443.98 830.04 443.296V437.505H832.862V448.15H830.157V446.646C830.131 446.679 830.066 446.776 829.962 446.939C829.858 447.102 829.734 447.245 829.591 447.369C829.155 447.759 828.731 448.026 828.321 448.169C827.918 448.313 827.442 448.384 826.896 448.384C825.32 448.384 824.259 447.818 823.712 446.685C823.406 446.06 823.253 445.139 823.253 443.921V437.505H826.104ZM838.399 448.15H835.616V433.755H838.399V448.15ZM840.03 439.585V437.603H841.515V434.634H844.269V437.603H845.997V439.585H844.269V445.21C844.269 445.647 844.324 445.92 844.435 446.031C844.545 446.135 844.884 446.187 845.45 446.187C845.535 446.187 845.623 446.187 845.714 446.187C845.812 446.181 845.906 446.174 845.997 446.167V448.248L844.679 448.296C843.364 448.342 842.465 448.114 841.983 447.613C841.671 447.294 841.515 446.802 841.515 446.138V439.585H840.03Z" fill="#222222"/>
<path d="M373.861 446.707C373.952 447.364 374.131 447.856 374.398 448.181C374.886 448.774 375.723 449.07 376.908 449.07C377.617 449.07 378.194 448.992 378.636 448.835C379.476 448.536 379.896 447.979 379.896 447.166C379.896 446.69 379.688 446.322 379.271 446.062C378.854 445.808 378.2 445.583 377.308 445.388L375.785 445.046C374.287 444.708 373.252 444.34 372.679 443.943C371.709 443.279 371.224 442.24 371.224 440.828C371.224 439.539 371.693 438.468 372.63 437.615C373.568 436.762 374.945 436.335 376.761 436.335C378.278 436.335 379.57 436.739 380.638 437.546C381.712 438.347 382.276 439.513 382.328 441.042H379.437C379.385 440.177 379.007 439.561 378.304 439.197C377.835 438.956 377.253 438.835 376.556 438.835C375.781 438.835 375.163 438.992 374.701 439.304C374.238 439.617 374.007 440.053 374.007 440.613C374.007 441.127 374.235 441.511 374.691 441.765C374.984 441.934 375.609 442.133 376.566 442.361L379.046 442.957C380.134 443.217 380.954 443.565 381.507 444.001C382.367 444.679 382.796 445.658 382.796 446.941C382.796 448.256 382.292 449.35 381.283 450.222C380.28 451.088 378.861 451.521 377.025 451.521C375.15 451.521 373.675 451.095 372.601 450.242C371.527 449.382 370.99 448.204 370.99 446.707H373.861ZM387.572 440.505V446.921C387.572 447.527 387.643 447.983 387.787 448.289C388.041 448.829 388.539 449.099 389.281 449.099C390.231 449.099 390.882 448.715 391.234 447.947C391.416 447.53 391.507 446.98 391.507 446.296V440.505H394.33V451.15H391.625V449.646C391.598 449.679 391.533 449.776 391.429 449.939C391.325 450.102 391.201 450.245 391.058 450.369C390.622 450.759 390.199 451.026 389.789 451.169C389.385 451.313 388.91 451.384 388.363 451.384C386.787 451.384 385.726 450.818 385.179 449.685C384.873 449.06 384.72 448.139 384.72 446.921V440.505H387.572ZM402.777 440.271C404.177 440.271 405.27 440.776 406.058 441.785C406.852 442.794 407.25 444.096 407.25 445.691C407.25 447.345 406.859 448.715 406.078 449.802C405.296 450.889 404.206 451.433 402.806 451.433C401.927 451.433 401.221 451.257 400.687 450.906C400.368 450.697 400.023 450.333 399.652 449.812V451.15H396.927V436.775H399.701V441.892C400.052 441.397 400.44 441.02 400.863 440.759C401.364 440.434 402.002 440.271 402.777 440.271ZM402.064 449.138C402.78 449.138 403.337 448.848 403.734 448.269C404.131 447.69 404.33 446.928 404.33 445.984C404.33 445.229 404.232 444.604 404.037 444.109C403.666 443.171 402.982 442.703 401.986 442.703C400.977 442.703 400.283 443.162 399.906 444.08C399.71 444.568 399.613 445.199 399.613 445.974C399.613 446.886 399.815 447.641 400.218 448.24C400.622 448.839 401.237 449.138 402.064 449.138ZM421.175 444.324C421.123 443.927 420.99 443.569 420.775 443.25C420.462 442.82 419.977 442.605 419.32 442.605C418.382 442.605 417.741 443.07 417.396 444.001C417.214 444.496 417.123 445.154 417.123 445.974C417.123 446.755 417.214 447.384 417.396 447.859C417.728 448.744 418.353 449.187 419.271 449.187C419.922 449.187 420.384 449.011 420.658 448.66C420.931 448.308 421.097 447.852 421.156 447.292H423.998C423.932 448.139 423.626 448.94 423.08 449.695C422.207 450.912 420.915 451.521 419.203 451.521C417.49 451.521 416.231 451.013 415.423 449.998C414.616 448.982 414.212 447.664 414.212 446.042C414.212 444.213 414.658 442.791 415.55 441.775C416.442 440.759 417.673 440.251 419.242 440.251C420.576 440.251 421.667 440.551 422.513 441.15C423.366 441.749 423.871 442.807 424.027 444.324H421.175ZM430.726 449.187C431.54 449.187 432.165 448.897 432.601 448.318C433.037 447.738 433.255 446.915 433.255 445.847C433.255 444.779 433.037 443.959 432.601 443.386C432.165 442.807 431.54 442.517 430.726 442.517C429.912 442.517 429.284 442.807 428.841 443.386C428.405 443.959 428.187 444.779 428.187 445.847C428.187 446.915 428.405 447.738 428.841 448.318C429.284 448.897 429.912 449.187 430.726 449.187ZM436.175 445.847C436.175 447.41 435.726 448.748 434.828 449.861C433.929 450.968 432.565 451.521 430.736 451.521C428.906 451.521 427.542 450.968 426.644 449.861C425.746 448.748 425.296 447.41 425.296 445.847C425.296 444.311 425.746 442.979 426.644 441.853C427.542 440.727 428.906 440.164 430.736 440.164C432.565 440.164 433.929 440.727 434.828 441.853C435.726 442.979 436.175 444.311 436.175 445.847ZM441.019 451.15H438.236V436.755H441.019V451.15ZM448.519 449.187C449.333 449.187 449.958 448.897 450.394 448.318C450.83 447.738 451.048 446.915 451.048 445.847C451.048 444.779 450.83 443.959 450.394 443.386C449.958 442.807 449.333 442.517 448.519 442.517C447.705 442.517 447.077 442.807 446.634 443.386C446.198 443.959 445.98 444.779 445.98 445.847C445.98 446.915 446.198 447.738 446.634 448.318C447.077 448.897 447.705 449.187 448.519 449.187ZM453.968 445.847C453.968 447.41 453.519 448.748 452.621 449.861C451.722 450.968 450.358 451.521 448.529 451.521C446.699 451.521 445.335 450.968 444.437 449.861C443.539 448.748 443.089 447.41 443.089 445.847C443.089 444.311 443.539 442.979 444.437 441.853C445.335 440.727 446.699 440.164 448.529 440.164C450.358 440.164 451.722 440.727 452.621 441.853C453.519 442.979 453.968 444.311 453.968 445.847ZM461.751 440.251C461.804 440.251 461.846 440.255 461.878 440.261C461.917 440.261 461.999 440.264 462.123 440.271V443.123C461.947 443.103 461.791 443.09 461.654 443.083C461.517 443.077 461.406 443.074 461.322 443.074C460.202 443.074 459.45 443.438 459.066 444.167C458.851 444.578 458.744 445.209 458.744 446.062V451.15H455.941V440.505H458.597V442.361C459.027 441.651 459.401 441.166 459.72 440.906C460.241 440.47 460.918 440.251 461.751 440.251Z" fill="#222222"/>
<path d="M283.906 318.089V310.757L282.411 311.056V310.12L284.673 309.106H285.518V318.089H283.906ZM286.961 318.037L290.211 309.119H291.849L295.021 318.037H293.37L292.564 315.775H289.249L288.443 318.037H286.961ZM290.874 311.017L289.626 314.579H292.161L290.913 311.017H290.874ZM295.48 318.037L298.73 309.119H300.368L303.54 318.037H301.889L301.083 315.775H297.768L296.962 318.037H295.48ZM299.393 311.017L298.145 314.579H300.68L299.432 311.017H299.393ZM306.834 318.167C305.768 318.167 304.728 317.868 304.221 317.543L304.481 316.386C304.936 316.672 305.898 316.893 306.561 316.893C307.757 316.893 308.459 316.399 308.459 315.398C308.459 314.449 307.744 314.059 306.613 314.046L305.69 314.02V312.863L306.509 312.85C307.536 312.824 308.225 312.356 308.225 311.524C308.225 310.627 307.614 310.302 306.639 310.302C305.976 310.302 305.274 310.523 304.741 310.77L304.559 309.587C305.105 309.275 306.184 309.028 307.055 309.028C308.706 309.028 309.824 309.808 309.824 311.238C309.824 312.304 309.2 312.98 308.225 313.318C309.343 313.539 310.123 314.176 310.123 315.502C310.123 317.14 308.862 318.167 306.834 318.167ZM314.636 318.193C312.478 318.193 311.36 316.685 311.36 314.241V313.604C311.36 310.276 313.063 309.041 315.182 309.041C316.079 309.041 316.885 309.314 317.262 309.535L316.95 310.705C316.612 310.523 315.858 310.315 315.273 310.315C313.947 310.315 313.076 310.965 312.946 313.253C313.401 312.863 314.103 312.473 315.026 312.473C316.56 312.473 317.678 313.435 317.678 315.138C317.678 316.841 316.612 318.193 314.636 318.193ZM314.597 317.01C315.546 317.01 316.131 316.373 316.131 315.255C316.131 314.059 315.468 313.617 314.558 313.617C313.908 313.617 313.271 314.072 312.959 314.488V314.566C312.959 316.074 313.427 317.01 314.597 317.01ZM319.292 318.037V309.119H324.765V310.38H320.891V313.045H323.907V314.28H320.891V318.037H319.292Z" fill="#222222"/>
<path d="M687.472 269.975V261.057H692.945V262.318H689.071V264.983H692.087V266.218H689.071V269.975H687.472ZM696.416 270.105C695.402 270.105 694.453 269.845 693.881 269.494L694.167 268.272C694.648 268.558 695.324 268.805 696.013 268.805C697.248 268.805 698.002 268.207 698.002 267.128C698.002 265.997 697.3 265.529 696.078 265.529C695.519 265.529 694.687 265.802 694.271 266.01L694.596 261.109H699.25V262.357H695.818L695.649 264.528C695.948 264.45 696.429 264.372 696.767 264.372C698.548 264.372 699.653 265.282 699.653 267.167C699.653 268.818 698.444 270.105 696.416 270.105ZM701.196 269.975V261.057H706.669V262.318H702.795V264.983H705.811V266.218H702.795V269.975H701.196ZM708.489 269.975L711.739 262.383H707.696V261.122H713.468V262.071L710.257 269.975H708.489ZM714.945 269.975V261.057H720.418V262.318H716.544V264.983H719.56V266.218H716.544V269.975H714.945ZM724.448 260.979C726.58 260.979 727.776 262.383 727.776 264.892V265.49C727.776 268.935 726.19 270.131 724.032 270.131C723.135 270.131 722.277 269.819 721.861 269.572L722.134 268.402C722.498 268.597 723.304 268.844 723.941 268.844C725.241 268.844 726.125 268.311 726.203 266.049C725.748 266.465 725.046 266.842 724.11 266.842C722.589 266.842 721.458 265.789 721.458 264.073C721.458 262.331 722.472 260.979 724.448 260.979ZM724.487 262.162C723.512 262.162 722.992 262.864 722.992 263.956C722.992 265.152 723.668 265.685 724.578 265.685C725.228 265.685 725.891 265.243 726.19 264.814V264.593C726.19 263.111 725.683 262.162 724.487 262.162Z" fill="#222222"/>
<path d="M772.3 269.975V261.057H775.42C777.474 261.057 778.358 261.889 778.358 263.306C778.358 264.242 777.968 264.918 776.902 265.256V265.295C778.02 265.503 778.748 266.127 778.748 267.427C778.748 268.909 777.747 269.975 775.641 269.975H772.3ZM773.886 268.779H775.42C776.499 268.779 777.071 268.311 777.071 267.336C777.071 266.309 776.46 265.919 775.329 265.919H773.886V268.779ZM773.886 264.853H775.134C776.07 264.853 776.772 264.541 776.772 263.527C776.772 262.565 776.226 262.24 775.199 262.24H773.886V264.853ZM780.374 269.975V261.057H783.299C786.029 261.057 787.563 262.37 787.563 265.282V265.542C787.563 268.402 786.172 269.975 783.312 269.975H780.374ZM781.973 268.714H783.325C785.067 268.714 785.873 267.856 785.873 265.698V265.269C785.873 263.02 784.898 262.318 783.208 262.318H781.973V268.714ZM789.21 269.975V261.057H792.33C794.384 261.057 795.268 261.889 795.268 263.306C795.268 264.242 794.878 264.918 793.812 265.256V265.295C794.93 265.503 795.658 266.127 795.658 267.427C795.658 268.909 794.657 269.975 792.551 269.975H789.21ZM790.796 268.779H792.33C793.409 268.779 793.981 268.311 793.981 267.336C793.981 266.309 793.37 265.919 792.239 265.919H790.796V268.779ZM790.796 264.853H792.044C792.98 264.853 793.682 264.541 793.682 263.527C793.682 262.565 793.136 262.24 792.109 262.24H790.796V264.853ZM797.284 269.975V261.057H800.209C802.939 261.057 804.473 262.37 804.473 265.282V265.542C804.473 268.402 803.082 269.975 800.222 269.975H797.284ZM798.883 268.714H800.235C801.977 268.714 802.783 267.856 802.783 265.698V265.269C802.783 263.02 801.808 262.318 800.118 262.318H798.883V268.714ZM806.12 269.975V261.057H809.24C811.294 261.057 812.178 261.889 812.178 263.306C812.178 264.242 811.788 264.918 810.722 265.256V265.295C811.84 265.503 812.568 266.127 812.568 267.427C812.568 268.909 811.567 269.975 809.461 269.975H806.12ZM807.706 268.779H809.24C810.319 268.779 810.891 268.311 810.891 267.336C810.891 266.309 810.28 265.919 809.149 265.919H807.706V268.779ZM807.706 264.853H808.954C809.89 264.853 810.592 264.541 810.592 263.527C810.592 262.565 810.046 262.24 809.019 262.24H807.706V264.853ZM814.195 269.975V261.057H817.12C819.85 261.057 821.384 262.37 821.384 265.282V265.542C821.384 268.402 819.993 269.975 817.133 269.975H814.195ZM815.794 268.714H817.146C818.888 268.714 819.694 267.856 819.694 265.698V265.269C819.694 263.02 818.719 262.318 817.029 262.318H815.794V268.714Z" fill="#222222"/>
<path d="M868.558 270.131C866.608 270.131 865.1 268.883 865.1 265.854V265.295C865.1 262.11 866.738 260.966 868.571 260.966C870.417 260.966 872.003 262.123 872.003 265.256V265.815C872.003 268.948 870.417 270.131 868.558 270.131ZM868.558 268.909C869.754 268.909 870.352 268.051 870.352 265.919V265.256C870.352 263.137 869.741 262.201 868.571 262.201C867.362 262.201 866.764 263.085 866.764 265.165V265.854C866.764 267.921 867.349 268.909 868.558 268.909ZM876.702 270.131C874.544 270.131 873.426 268.623 873.426 266.179V265.542C873.426 262.214 875.129 260.979 877.248 260.979C878.145 260.979 878.951 261.252 879.328 261.473L879.016 262.643C878.678 262.461 877.924 262.253 877.339 262.253C876.013 262.253 875.142 262.903 875.012 265.191C875.467 264.801 876.169 264.411 877.092 264.411C878.626 264.411 879.744 265.373 879.744 267.076C879.744 268.779 878.678 270.131 876.702 270.131ZM876.663 268.948C877.612 268.948 878.197 268.311 878.197 267.193C878.197 265.997 877.534 265.555 876.624 265.555C875.974 265.555 875.337 266.01 875.025 266.426V266.504C875.025 268.012 875.493 268.948 876.663 268.948ZM881.875 270.027V262.695L880.38 262.994V262.058L882.642 261.044H883.487V270.027H881.875ZM889.168 270.118V268.298H885.073V267.362L889.584 261.057H890.676V267.115H891.989V268.298H890.676V270.118H889.168ZM886.815 267.115H889.181V263.761L886.815 267.115ZM892.94 269.975V269.039L894.643 267.245C895.878 265.945 896.866 264.84 896.866 263.722C896.866 262.643 896.281 262.227 895.15 262.227C894.526 262.227 893.798 262.526 893.304 262.825L893.044 261.642C893.642 261.291 894.552 260.966 895.579 260.966C897.529 260.966 898.53 261.902 898.53 263.514C898.53 265.1 897.178 266.517 896.086 267.648L895.033 268.727H898.608V269.975H892.94ZM899.897 269.975V269.039L901.6 267.245C902.835 265.945 903.823 264.84 903.823 263.722C903.823 262.643 903.238 262.227 902.107 262.227C901.483 262.227 900.755 262.526 900.261 262.825L900.001 261.642C900.599 261.291 901.509 260.966 902.536 260.966C904.486 260.966 905.487 261.902 905.487 263.514C905.487 265.1 904.135 266.517 903.043 267.648L901.99 268.727H905.565V269.975H899.897Z" fill="#222222"/>
<circle cx="302.471" cy="217.879" r="52.3953" fill="#1AA36F"/>
<circle cx="189.131" cy="389.86" r="30.9951" fill="#F7CF2B"/>
<circle cx="302.472" cy="389.86" r="30.9951" fill="#3050D6"/>
<circle cx="415.812" cy="389.86" r="30.9951" fill="#E5283F"/>
<rect x="672.126" y="147.259" width="70.6206" height="70.6206" rx="19" fill="#F5F7F9"/>
<rect x="672.126" y="345.9" width="70.6206" height="70.6206" rx="19" fill="#21A355"/>
<rect x="761.302" y="147.259" width="70.6206" height="70.6206" rx="19" fill="#BDBDBD"/>
<rect x="761.302" y="345.9" width="70.6206" height="70.6206" rx="19" fill="#DDB219"/>
<rect x="850.478" y="147.259" width="70.6206" height="70.6206" rx="19" fill="#061422"/>
<rect x="850.478" y="345.9" width="70.6206" height="70.6206" rx="19" fill="#F98D0F"/>
<line x1="555.537" y1="147.259" x2="555.537" y2="473.15" stroke="#CCCCCC"/>
<defs>
<filter id="filter0_d_159_886" x="0.397949" y="0.744629" width="1137.2" height="573.145" filterUnits="userSpaceOnUse" color-interpolation-filters="sRGB">
<feFlood flood-opacity="0" result="BackgroundImageFix"/>
<feColorMatrix in="SourceAlpha" type="matrix" values="0 0 0 0 0 0 0 0 0 0 0 0 0 0 0 0 0 0 127 0" result="hardAlpha"/>
<feOffset dx="10" dy="10"/>
<feGaussianBlur stdDeviation="15"/>
<feComposite in2="hardAlpha" operator="out"/>
<feColorMatrix type="matrix" values="0 0 0 0 0.0588235 0 0 0 0 0.505882 0 0 0 0 0.368627 0 0 0 0.1 0"/>
<feBlend mode="normal" in2="BackgroundImageFix" result="effect1_dropShadow_159_886"/>
<feBlend mode="normal" in="SourceGraphic" in2="effect1_dropShadow_159_886" result="shape"/>
</filter>
</defs>
</svg>
