<svg width="431" height="117" viewBox="0 0 431 117" fill="none" xmlns="http://www.w3.org/2000/svg">
<rect x="5.13379" y="0.443848" width="425.425" height="115.985" rx="34" fill="#8CCFBB"/>
<path d="M0.430038 116.429C6.76945 112.784 5.1511 83.8164 5.1511 83.8164L22.377 105.042C22.377 105.042 16.1295 116.429 0.430038 116.429Z" fill="#8CCFBB"/>
<path d="M58.2771 50.4463H56.5371V40.7563H58.2771V50.4463ZM58.5771 53.7613H49.3071V49.4863H51.0771V52.3813H58.5771V53.7613ZM47.6571 45.0463C47.6571 43.1563 49.0821 41.7463 51.2721 41.7463C53.4771 41.7463 54.8871 43.1563 54.8871 45.0463C54.8871 46.9663 53.4771 48.3313 51.2721 48.3313C49.0821 48.3313 47.6571 46.9663 47.6571 45.0463ZM49.4571 45.0463C49.4571 46.1113 50.1471 46.8913 51.2721 46.8913C52.4271 46.8913 53.1021 46.1113 53.1021 45.0463C53.1021 44.0263 52.4271 43.2463 51.2721 43.2463C50.1471 43.2463 49.4571 44.0263 49.4571 45.0463ZM62.4656 49.7113C64.0556 49.7413 66.1256 49.7263 67.6406 49.3513L67.8356 50.6863C66.4556 51.0013 64.1456 51.1513 62.0156 51.1363L60.7406 51.1213V41.9113H66.8756V43.3063H62.4656V45.5713H66.3056V46.9663H62.4656V49.7113ZM71.2556 54.1213H69.5156V47.0263H67.2806V45.5263H69.5156V40.7563H71.2556V54.1213ZM85.1641 52.8913C84.8941 53.3563 84.6091 53.8063 84.3391 54.2563C82.5391 53.9413 80.6191 52.7413 79.9591 51.5263C79.3741 52.7563 77.4541 53.9413 75.5791 54.2563C75.2941 53.7913 75.0091 53.3263 74.7391 52.8463C77.0791 52.5763 79.0891 51.2413 79.0891 49.3963V49.0063H80.8891V49.3963C80.8891 51.2413 82.9291 52.5163 85.1641 52.8913ZM79.3441 47.7463C78.6691 47.9563 76.5841 48.1663 74.9791 48.1663C74.5741 48.1663 74.1691 48.1513 73.7641 48.1513V41.9113H75.4891V46.7113C76.7791 46.7113 78.2941 46.5913 79.1191 46.3363L79.3441 47.7463ZM80.2591 45.0613H77.9941V43.6513H80.2591V40.9963H81.8941V48.3313H80.2591V45.0613ZM84.5491 49.5313H82.8841V40.7563H84.5491V49.5313ZM94.8727 53.5063H93.2227V47.2813H92.0827C91.9327 49.4413 91.0627 51.3463 89.1877 51.3463C87.1327 51.3463 86.3077 48.9913 86.3077 46.5313C86.3077 44.1013 87.1327 41.7613 89.1877 41.7613C91.0777 41.7613 91.9327 43.6663 92.0827 45.8413H93.2227V41.0113H94.8727V53.5063ZM97.5427 54.1213H95.8927V40.7563H97.5427V54.1213ZM90.4777 46.5463C90.4777 44.7613 90.1027 43.2913 89.2027 43.2913C88.3327 43.2913 87.9577 44.7613 87.9577 46.5463C87.9577 48.3313 88.3327 49.7863 89.2027 49.7863C90.1027 49.7863 90.4777 48.3313 90.4777 46.5463ZM111.226 48.7513H99.1512V47.3413H111.226V48.7513ZM109.741 45.8413H100.771V41.1913H102.526V44.4463H109.741V45.8413ZM109.831 53.7613H100.696V49.8163H102.436V52.3663H109.831V53.7613ZM125.34 44.9413V40.7563H127.08V54.1213H125.34V46.4113H121.74V44.9413H125.34ZM123.765 50.4913C122.13 50.9263 119.475 51.0763 117.885 51.0763H116.67V42.0913H118.41V49.5913C120.27 49.5913 122.115 49.4563 123.555 49.0963L123.765 50.4913ZM139.594 41.2813V46.6813H130.594V41.2813H139.594ZM135.934 54.1363H134.179V49.6963H129.049V48.3013H141.124V49.6963H135.934V54.1363ZM137.854 45.2863V42.6763H132.349V45.2863H137.854ZM158.313 45.0463H156.423V47.2663H154.638V40.7563H156.423V43.6063H158.313V45.0463ZM152.613 47.2213H146.358V41.6713H152.613V47.2213ZM150.873 45.8563V43.0213H148.098V45.8563H150.873ZM151.323 53.3263C150.318 53.5813 148.638 53.7913 147.063 53.7913V48.7363H148.743V52.3813C149.493 52.3513 150.483 52.2013 151.158 52.0363L151.323 53.3263ZM155.763 48.9763H152.658V47.7913H155.763V48.9763ZM157.563 50.6263H150.918V49.4113H157.563V50.6263ZM156.633 52.5763C156.633 53.7013 155.508 54.2863 154.173 54.2863C152.838 54.2863 151.728 53.7013 151.728 52.5763C151.728 51.4663 152.838 50.8813 154.173 50.8813C155.508 50.8813 156.633 51.4663 156.633 52.5763ZM155.073 52.5763C155.073 52.2013 154.653 52.0363 154.173 52.0363C153.693 52.0363 153.288 52.2013 153.288 52.5763C153.288 52.9663 153.693 53.1163 154.173 53.1163C154.653 53.1163 155.073 52.9663 155.073 52.5763ZM171.021 48.8863H158.946V47.4763H171.021V48.8863ZM169.626 53.7613H160.431V49.8613H162.186V52.3813H169.626V53.7613ZM169.656 43.9213C169.656 45.4813 167.916 46.6213 164.991 46.6213C162.051 46.6213 160.341 45.4813 160.341 43.9213C160.341 42.3913 162.051 41.2513 164.976 41.2513C167.916 41.2513 169.656 42.3913 169.656 43.9213ZM167.841 43.9513C167.841 43.1413 166.746 42.6013 164.976 42.6013C163.251 42.6013 162.141 43.1413 162.141 43.9513C162.141 44.7313 163.251 45.2563 164.976 45.2563C166.746 45.2563 167.841 44.7313 167.841 43.9513ZM187.985 44.0113H186.32V45.5113H187.985V46.9213H186.32V48.5713H184.535V40.7563H186.32V42.5713H187.985V44.0113ZM186.47 51.4063C186.47 53.0413 184.79 54.1063 181.88 54.1063C179.015 54.1063 177.32 53.0413 177.32 51.4063C177.32 49.7413 179.015 48.6913 181.88 48.6913C184.79 48.6913 186.47 49.7413 186.47 51.4063ZM181.88 50.1013C180.14 50.1013 179.12 50.5963 179.12 51.4063C179.12 52.2163 180.14 52.6963 181.88 52.6963C183.665 52.6963 184.685 52.2163 184.685 51.4063C184.685 50.5963 183.665 50.1013 181.88 50.1013ZM175.925 44.6863C175.925 42.8563 177.44 41.5063 179.375 41.5063C181.31 41.5063 182.84 42.8263 182.84 44.6863C182.84 46.5763 181.325 47.7613 179.375 47.7613C177.47 47.7613 175.925 46.5763 175.925 44.6863ZM177.635 44.6713C177.635 45.7063 178.34 46.4413 179.375 46.4413C180.425 46.4413 181.16 45.6913 181.16 44.6713C181.16 43.7113 180.47 42.9313 179.375 42.9313C178.325 42.9313 177.635 43.7263 177.635 44.6713ZM191.169 44.8063C191.169 45.7963 191.889 46.5613 193.089 46.5613C194.304 46.5613 195.024 45.7963 195.024 44.8063C195.024 43.8613 194.304 43.0963 193.089 43.0963C191.889 43.0963 191.169 43.8613 191.169 44.8063ZM200.124 40.7563V54.1213H198.384V40.7563H200.124ZM189.369 44.8213C189.369 42.9463 190.839 41.6113 193.089 41.6113C195.354 41.6113 196.794 42.9463 196.794 44.8213C196.794 46.6813 195.354 48.0313 193.089 48.0313C190.839 48.0313 189.369 46.6813 189.369 44.8213ZM197.829 50.7013C196.554 50.8663 194.739 51.0163 193.314 51.0913C191.829 51.1513 190.239 51.2113 189.114 51.1963L188.859 49.6963C190.404 49.6963 191.694 49.6813 193.209 49.6213C194.874 49.5613 196.494 49.4413 197.679 49.2913L197.829 50.7013ZM216.908 51.4513C216.908 53.0713 215.183 54.0913 212.228 54.0913C209.272 54.0913 207.548 53.0713 207.548 51.4513C207.548 49.7863 209.272 48.7663 212.228 48.7663C215.183 48.7663 216.908 49.7863 216.908 51.4513ZM206.228 43.1413V41.7013H213.263V43.1413H210.728C210.863 45.0013 212.213 46.2463 213.668 46.7263C213.368 47.1913 213.038 47.6413 212.723 48.1063C211.703 47.7163 210.398 46.7113 209.828 45.4963C209.423 46.7863 208.013 48.0463 206.723 48.4963C206.363 48.0313 206.033 47.5813 205.673 47.1313C207.548 46.4563 208.778 45.0463 208.883 43.1413H206.228ZM213.053 45.3613V43.9513H215.063V40.7563H216.818V48.7063H215.063V45.3613H213.053ZM212.228 50.1763C210.413 50.1763 209.348 50.6413 209.348 51.4513C209.348 52.2313 210.413 52.6963 212.228 52.6963C214.073 52.6963 215.123 52.2313 215.123 51.4513C215.123 50.6413 214.073 50.1763 212.228 50.1763ZM230.816 52.4563H218.741V51.0613H223.871V48.4663H220.196V41.6713H221.936V43.7413H227.621V41.6413H229.376V48.4663H225.626V51.0613H230.816V52.4563ZM227.621 47.0713V45.0913H221.936V47.0713H227.621ZM244.095 47.3413H242.16V54.1213H240.42V40.7563H242.16V45.8863H244.095V47.3413ZM238.65 42.1213C238.53 46.1563 236.76 49.4863 232.665 51.7063L231.6 50.3863C234.51 49.0513 236.505 46.2463 236.745 43.5763H232.41V42.1213H238.65ZM259.693 48.1513H257.938V45.4363H255.478V43.9963H257.938V40.7563H259.693V48.1513ZM259.693 53.9563H250.903V48.8413H259.693V53.9563ZM257.938 52.5913V50.2063H252.673V52.5913H257.938ZM255.478 41.5513C255.328 45.2713 253.303 47.3713 249.613 48.6313L248.683 47.2213C251.113 46.6063 253.048 45.2263 253.528 43.0063H249.268V41.5513H255.478ZM272.327 51.6313C272.327 53.1763 270.617 54.1213 267.662 54.1213C264.692 54.1213 262.982 53.1763 262.982 51.6313C262.982 50.1163 264.692 49.1713 267.647 49.1713C270.617 49.1713 272.327 50.1163 272.327 51.6313ZM273.077 45.0163L272.327 46.3963C270.377 46.2313 268.427 45.1963 267.662 43.9063C266.987 45.2413 265.097 46.2163 262.982 46.3963L262.262 45.0463C264.332 44.9413 266.162 44.1013 266.627 42.7363H262.862V41.3413H272.492V42.7363H268.742C269.267 44.1013 271.292 44.9263 273.077 45.0163ZM273.692 47.1463V48.5263H261.617V47.1463H273.692ZM270.527 51.6463C270.527 50.9713 269.402 50.5513 267.647 50.5513C265.922 50.5513 264.797 50.9713 264.797 51.6463C264.797 52.3213 265.922 52.7413 267.647 52.7413C269.402 52.7413 270.527 52.3213 270.527 51.6463ZM283.206 49.7563L283.386 51.0913C282.126 51.2563 280.806 51.3763 279.216 51.4513C277.776 51.4963 275.916 51.5563 274.806 51.5563L274.566 50.1313C275.751 50.1313 276.921 50.1163 278.061 50.0863V47.6413H275.646V41.9563H282.321V43.3513H277.401V46.2613H282.366V47.6413H279.816V50.0263C281.076 49.9663 282.246 49.8763 283.206 49.7563ZM285.711 40.7563V54.1213H283.956V40.7563H285.711ZM295.929 49.5763L294.954 50.9413C293.769 50.3413 292.134 48.6463 291.729 47.3563C291.414 48.7063 290.064 50.4913 288.504 51.2563L287.454 49.9513C289.704 48.7513 290.799 46.6813 290.799 43.8763V43.5163H288.129V42.1213H295.224V43.5163H292.644V43.8613C292.644 46.6813 293.919 48.5413 295.929 49.5763ZM298.629 54.1213H296.874V40.7563H298.629V54.1213ZM309.938 53.5063C308.933 53.7613 307.373 53.9563 305.798 53.9563V48.8413H307.478V52.5613C308.243 52.5463 309.023 52.3813 309.698 52.2163L309.938 53.5063ZM314.288 48.9763H311.198V47.7913H314.288V48.9763ZM316.088 50.6263H309.443V49.4113H316.088V50.6263ZM316.853 44.9563H314.948V47.2813H313.163V40.7563H314.948V43.5163H316.853V44.9563ZM304.613 44.5513C304.613 42.7513 306.083 41.3413 308.063 41.3413C310.043 41.3413 311.528 42.7063 311.528 44.5513C311.528 46.3363 310.043 47.6263 308.063 47.6263C306.083 47.6263 304.613 46.3963 304.613 44.5513ZM306.353 44.5363C306.353 45.4663 307.013 46.1563 308.063 46.1563C309.128 46.1563 309.788 45.4663 309.788 44.5363C309.788 43.6213 309.128 42.7963 308.063 42.7963C306.998 42.7963 306.353 43.6213 306.353 44.5363ZM315.158 52.5763C315.158 53.7013 314.033 54.2863 312.698 54.2863C311.363 54.2863 310.253 53.7013 310.253 52.5763C310.253 51.4663 311.363 50.8813 312.698 50.8813C314.033 50.8813 315.158 51.4663 315.158 52.5763ZM313.598 52.5763C313.598 52.2013 313.178 52.0363 312.698 52.0363C312.218 52.0363 311.813 52.2013 311.813 52.5763C311.813 52.9663 312.218 53.1163 312.698 53.1163C313.178 53.1163 313.598 52.9663 313.598 52.5763ZM329.546 48.8863H317.471V47.4763H329.546V48.8863ZM328.151 53.7613H318.956V49.8613H320.711V52.3813H328.151V53.7613ZM328.181 43.9213C328.181 45.4813 326.441 46.6213 323.516 46.6213C320.576 46.6213 318.866 45.4813 318.866 43.9213C318.866 42.3913 320.576 41.2513 323.501 41.2513C326.441 41.2513 328.181 42.3913 328.181 43.9213ZM326.366 43.9513C326.366 43.1413 325.271 42.6013 323.501 42.6013C321.776 42.6013 320.666 43.1413 320.666 43.9513C320.666 44.7313 321.776 45.2563 323.501 45.2563C325.271 45.2563 326.366 44.7313 326.366 43.9513ZM341.835 54.1213H340.17V47.4163H339.06V53.5063H337.41V40.9963H339.06V46.0063H340.17V40.7563H341.835V54.1213ZM337.02 50.0863L336.045 51.3313C335.175 50.8213 334.05 49.5613 333.705 48.3763C333.39 49.6213 332.28 51.0013 331.2 51.6313L330.135 50.4463C331.875 49.3213 332.76 47.8963 332.865 45.4963H330.66V44.1013H336.69V45.4963H334.575C334.695 47.8513 335.58 49.2463 337.02 50.0863ZM335.475 43.1713H331.98V41.7763H335.475V43.1713ZM354.364 48.9763H350.314V51.0613H355.504V52.4563H343.429V51.0613H348.559V48.9763H344.974V44.5513H352.234V43.0063H344.899V41.6113H353.974V45.9463H346.714V47.5663H354.364V48.9763ZM367.862 44.7013C367.862 46.5763 366.302 47.8213 364.307 47.8213C362.357 47.8213 360.767 46.5763 360.767 44.7013C360.767 42.8563 362.327 41.4763 364.307 41.4763C366.287 41.4763 367.862 42.8263 367.862 44.7013ZM371.537 54.1513C370.697 53.7913 369.602 52.6813 369.302 51.8263C369.062 52.6963 368.177 53.8813 367.067 54.4063C366.677 54.0013 366.317 53.5963 365.927 53.2063C367.517 52.4713 368.417 51.0763 368.417 49.3963V48.8113H370.142V49.3963C370.142 51.0463 371.207 52.3813 372.572 52.8613L371.537 54.1513ZM369.632 40.7563H371.387V48.1963H369.632V40.7563ZM365.792 52.8013C365.357 52.5913 364.757 52.0363 364.547 51.5563C364.217 52.5613 363.092 53.7913 362.027 54.2113L360.992 52.9363C362.537 52.2613 363.572 50.9863 363.572 49.2763V48.8563H365.282V49.2313C365.282 50.4313 366.002 51.2863 366.872 51.6163L365.792 52.8013ZM366.167 44.6863C366.167 43.7113 365.477 42.9313 364.307 42.9313C363.197 42.9313 362.462 43.7413 362.462 44.6863C362.462 45.7063 363.227 46.4713 364.307 46.4713C365.387 46.4713 366.167 45.6763 366.167 44.6863ZM373.416 46.4563C373.416 43.6363 374.691 41.6713 376.866 41.6713C378.846 41.6713 380.061 43.2763 380.271 45.6613H382.626V40.7563H384.381V54.1213H382.626V47.1463H380.286C380.091 49.5613 378.861 51.2113 376.866 51.2113C374.691 51.2113 373.416 49.2613 373.416 46.4563ZM378.636 46.4563C378.636 44.3413 377.901 43.0813 376.866 43.0813C375.861 43.0813 375.126 44.3413 375.126 46.4563C375.126 48.5563 375.861 49.8013 376.866 49.8013C377.901 49.8013 378.636 48.5563 378.636 46.4563ZM58.5921 75.1213H56.9271V68.4313H55.6371V74.5063H54.0021V61.9963H55.6371V67.0213H56.9271V61.7563H58.5921V75.1213ZM53.4621 71.1913C52.7571 71.4013 50.6121 71.5813 49.0221 71.5813H47.8221V63.3163H49.5471V70.1263C50.8521 70.1263 52.4121 70.0213 53.2371 69.7813C53.2971 70.2613 53.3871 70.7113 53.4621 71.1913ZM72.5906 68.3413H70.6556V75.1213H68.9156V61.7563H70.6556V66.8863H72.5906V68.3413ZM67.1456 63.1213C67.0256 67.1563 65.2556 70.4863 61.1606 72.7063L60.0956 71.3863C63.0056 70.0513 65.0006 67.2463 65.2406 64.5763H60.9056V63.1213H67.1456ZM84.7396 64.6663C84.7396 66.1063 83.3446 67.1263 81.3946 67.1263C79.4446 67.1263 78.0046 66.1063 78.0046 64.6363C78.0046 63.2263 79.4446 62.1763 81.3946 62.1763C83.3446 62.1763 84.7396 63.2263 84.7396 64.6663ZM84.1096 70.7413V69.4813H86.6596V61.7563H88.4146V72.0913H86.6596V70.7413H84.1096ZM88.6246 74.7613H78.8146V70.8163H80.5696V73.3663H88.6246V74.7613ZM82.7596 71.4463H81.0196V69.0613C79.6246 69.1063 78.3196 69.1213 77.3146 69.1213C77.2396 68.6713 77.1646 68.1913 77.0746 67.7413C80.3596 67.7413 83.7196 67.5763 85.5946 67.3363L85.6996 68.6263C84.7846 68.7763 83.7946 68.8663 82.7596 68.9413V71.4463ZM82.9996 64.6663C82.9996 64.0813 82.3846 63.4813 81.3946 63.4813C80.3746 63.4813 79.7746 64.0813 79.7746 64.6663C79.7746 65.2513 80.3746 65.8063 81.3946 65.8063C82.3846 65.8063 82.9996 65.2513 82.9996 64.6663ZM97.8081 66.3313H90.0531V64.9363H97.8081V66.3313ZM91.9281 64.0063V62.6263H96.0531V64.0063H91.9281ZM100.568 61.7563V67.1713H102.428V68.6263H100.568V75.1213H98.7981V61.7563H100.568ZM90.7131 69.6763C90.7131 68.0413 92.0181 66.7963 93.9381 66.7963C95.8581 66.7963 97.1631 67.9963 97.1631 69.6763C97.1631 71.3113 95.8581 72.5563 93.9381 72.5563C92.0181 72.5563 90.7131 71.3713 90.7131 69.6763ZM92.4231 69.6763C92.4231 70.5463 93.0531 71.1313 93.9381 71.1313C94.9131 71.1313 95.4531 70.5463 95.4531 69.6763C95.4531 68.7913 94.8081 68.2063 93.9381 68.2063C93.0681 68.2063 92.4231 68.7913 92.4231 69.6763ZM115.167 69.7513H103.092V68.3413H115.167V69.7513ZM113.682 66.8413H104.712V62.1913H106.467V65.4463H113.682V66.8413ZM113.772 74.7613H104.637V70.8163H106.377V73.3663H113.772V74.7613ZM131.156 72.4513C131.156 74.0713 129.431 75.0913 126.476 75.0913C123.521 75.0913 121.796 74.0713 121.796 72.4513C121.796 70.7863 123.521 69.7663 126.476 69.7663C129.431 69.7663 131.156 70.7863 131.156 72.4513ZM120.476 64.1413V62.7013H127.511V64.1413H124.976C125.111 66.0013 126.461 67.2463 127.916 67.7263C127.616 68.1913 127.286 68.6413 126.971 69.1063C125.951 68.7163 124.646 67.7113 124.076 66.4963C123.671 67.7863 122.261 69.0463 120.971 69.4963C120.611 69.0313 120.281 68.5813 119.921 68.1313C121.796 67.4563 123.026 66.0463 123.131 64.1413H120.476ZM127.301 66.3613V64.9513H129.311V61.7563H131.066V69.7063H129.311V66.3613H127.301ZM126.476 71.1763C124.661 71.1763 123.596 71.6413 123.596 72.4513C123.596 73.2313 124.661 73.6963 126.476 73.6963C128.321 73.6963 129.371 73.2313 129.371 72.4513C129.371 71.6413 128.321 71.1763 126.476 71.1763ZM145.064 73.4563H132.989V72.0613H138.119V69.4663H134.444V62.6713H136.184V64.7413H141.869V62.6413H143.624V69.4663H139.874V72.0613H145.064V73.4563ZM141.869 68.0713V66.0913H136.184V68.0713H141.869ZM158.043 69.1513H145.968V67.8613H158.043V69.1513ZM156.813 74.9713H147.498V71.8663H154.758V71.1613H147.438V69.9013H156.498V73.0213H149.253V73.7113H156.813V74.9713ZM156.708 67.1563H147.558V64.1263H154.653V63.4213H147.528V62.1763H156.423V65.2213H149.313V65.9113H156.708V67.1563ZM164.627 70.0663H173.552V71.4463H170.057C170.447 72.7813 172.412 73.8613 174.197 73.8763L173.357 75.2413C171.572 75.0763 169.577 73.7563 169.052 72.8263C168.587 73.7713 166.652 75.0613 164.747 75.2113L163.907 73.8463C165.752 73.8463 167.717 72.8413 168.122 71.4463H164.627V70.0663ZM163.172 65.4463V64.0663H170.222V65.4463H167.702C168.032 66.8713 169.262 67.6513 170.537 67.9963C170.252 68.4463 169.967 68.8963 169.667 69.3463C168.647 69.0463 167.252 68.1163 166.712 66.9763C166.232 68.1763 164.897 69.3163 163.577 69.7213C163.262 69.2863 162.932 68.8213 162.602 68.3863C164.237 67.8463 165.377 66.9163 165.692 65.4463H163.172ZM175.172 66.4963H173.327V69.3913H171.587V61.7563H173.327V65.0563H175.172V66.4963ZM164.762 63.3313V61.9663H168.647V63.3313H164.762ZM186.92 75.1213H185.165V61.7563H186.92V75.1213ZM182.81 63.1513C182.705 67.1863 180.92 70.4863 176.84 72.7063L175.76 71.3863C178.685 70.0513 180.68 67.2613 180.92 64.6063H176.57V63.1513H182.81ZM203.824 74.9563H194.824V70.7413H203.824V74.9563ZM202.054 73.5913V72.0913H196.594V73.5913H202.054ZM203.824 70.1713H202.054V61.7563H203.824V70.1713ZM200.839 65.3713H193.054V64.0213H200.839V65.3713ZM194.989 63.4513V62.0713H198.979V63.4513H194.989ZM200.164 67.9213C200.164 69.2563 198.799 70.1413 196.969 70.1413C195.139 70.1413 193.759 69.2563 193.759 67.9213C193.759 66.6013 195.124 65.7163 196.969 65.7163C198.799 65.7163 200.164 66.6013 200.164 67.9213ZM195.499 67.9213C195.499 68.4763 196.189 68.8663 196.969 68.8663C197.764 68.8663 198.424 68.4763 198.424 67.9213C198.424 67.3813 197.764 66.9913 196.969 66.9913C196.174 66.9913 195.499 67.3813 195.499 67.9213ZM216.428 66.2563H207.368V61.9813H216.323V63.3763H209.123V64.8613H216.428V66.2563ZM217.838 68.4913H205.763V67.0813H217.838V68.4913ZM216.728 75.0613H207.308V71.5813H214.493V70.7713H207.218V69.3913H216.248V72.8413H209.048V73.6213H216.728V75.0613ZM218.831 67.4563C218.831 64.6363 220.106 62.6713 222.281 62.6713C224.261 62.6713 225.476 64.2763 225.686 66.6613H228.041V61.7563H229.796V75.1213H228.041V68.1463H225.701C225.506 70.5613 224.276 72.2113 222.281 72.2113C220.106 72.2113 218.831 70.2613 218.831 67.4563ZM224.051 67.4563C224.051 65.3413 223.316 64.0813 222.281 64.0813C221.276 64.0813 220.541 65.3413 220.541 67.4563C220.541 69.5563 221.276 70.8013 222.281 70.8013C223.316 70.8013 224.051 69.5563 224.051 67.4563ZM242.64 66.0913C242.64 68.1313 240.705 69.6013 237.765 69.6013C234.84 69.6013 232.905 68.1313 232.905 66.0913C232.905 64.0363 234.84 62.5363 237.765 62.5363C240.705 62.5363 242.64 64.0363 242.64 66.0913ZM243.795 73.4563H231.72V72.0463H234.42V69.8263L236.175 69.9013V72.0463H239.31V69.9013L241.065 69.8263V72.0463H243.795V73.4563ZM240.84 66.0913C240.84 64.8763 239.625 64.0063 237.765 64.0063C235.905 64.0063 234.705 64.8763 234.705 66.0913C234.705 67.2913 235.905 68.1613 237.765 68.1613C239.61 68.1613 240.84 67.2913 240.84 66.0913Z" fill="white"/>
</svg>
