<svg width="539" height="319" viewBox="0 0 539 319" fill="none" xmlns="http://www.w3.org/2000/svg">
<g filter="url(#filter0_d_141_41)">
<rect x="20.8926" y="20.1304" width="477.552" height="258.875" rx="57" fill="#F4FFFB"/>
</g>
<path d="M229.917 68.7988C229.986 69.292 230.12 69.6606 230.32 69.9048C230.687 70.3491 231.314 70.5713 232.203 70.5713C232.735 70.5713 233.167 70.5127 233.499 70.3955C234.129 70.1709 234.444 69.7534 234.444 69.1431C234.444 68.7866 234.288 68.5107 233.975 68.3154C233.663 68.125 233.172 67.9565 232.503 67.8101L231.36 67.5537C230.237 67.2998 229.461 67.0239 229.031 66.7261C228.304 66.228 227.94 65.4492 227.94 64.3896C227.94 63.4229 228.292 62.6196 228.995 61.98C229.698 61.3403 230.73 61.0205 232.093 61.0205C233.23 61.0205 234.2 61.3232 235 61.9287C235.806 62.5293 236.229 63.4033 236.268 64.5508H234.1C234.061 63.9014 233.777 63.4399 233.25 63.1665C232.898 62.9858 232.461 62.8955 231.939 62.8955C231.358 62.8955 230.894 63.0127 230.547 63.2471C230.201 63.4814 230.027 63.8086 230.027 64.2285C230.027 64.6143 230.198 64.9023 230.54 65.0928C230.76 65.2197 231.229 65.3687 231.946 65.5396L233.807 65.9863C234.622 66.1816 235.237 66.4429 235.652 66.77C236.297 67.2778 236.619 68.0127 236.619 68.9746C236.619 69.9609 236.241 70.7812 235.484 71.4355C234.732 72.085 233.667 72.4097 232.291 72.4097C230.884 72.4097 229.778 72.0898 228.973 71.4502C228.167 70.8057 227.764 69.9219 227.764 68.7988H229.917ZM240.267 63.1958H238.15V61.2695H240.267V63.1958ZM238.15 64.1479H240.267V72.1313H238.15V64.1479ZM245.723 70.4175C246.211 70.4175 246.624 70.2344 246.961 69.8682C247.298 69.4971 247.466 68.9087 247.466 68.103C247.466 67.3462 247.305 66.77 246.983 66.3745C246.666 65.979 246.238 65.7812 245.701 65.7812C244.969 65.7812 244.463 66.1255 244.185 66.814C244.039 67.1802 243.965 67.6318 243.965 68.1689C243.965 68.6328 244.043 69.0454 244.2 69.4067C244.483 70.0806 244.991 70.4175 245.723 70.4175ZM245.203 63.9575C245.604 63.9575 245.953 64.0186 246.25 64.1406C246.758 64.3506 247.168 64.7363 247.481 65.2979V64.1479H249.51V71.7212C249.51 72.7515 249.336 73.5278 248.99 74.0503C248.394 74.9487 247.251 75.3979 245.562 75.3979C244.542 75.3979 243.709 75.1978 243.064 74.7974C242.42 74.397 242.063 73.7988 241.995 73.0029H244.266C244.324 73.2471 244.419 73.4229 244.551 73.5303C244.776 73.7207 245.154 73.8159 245.687 73.8159C246.438 73.8159 246.941 73.5645 247.195 73.0615C247.361 72.7393 247.444 72.1973 247.444 71.4355V70.9229C247.244 71.2646 247.029 71.521 246.8 71.6919C246.385 72.0093 245.845 72.168 245.181 72.168C244.156 72.168 243.335 71.8091 242.72 71.0913C242.11 70.3687 241.805 69.3921 241.805 68.1616C241.805 66.9751 242.1 65.979 242.691 65.1733C243.282 64.3628 244.119 63.9575 245.203 63.9575ZM255.889 63.9575C256.714 63.9575 257.388 64.1748 257.911 64.6094C258.438 65.0391 258.702 65.7544 258.702 66.7554V72.1313H256.563V67.2754C256.563 66.8555 256.507 66.5332 256.395 66.3086C256.189 65.8984 255.799 65.6934 255.223 65.6934C254.515 65.6934 254.029 65.9937 253.765 66.5942C253.628 66.9116 253.56 67.3169 253.56 67.8101V72.1313H251.48V64.1626H253.494V65.3271C253.763 64.917 254.017 64.6216 254.256 64.4409C254.686 64.1187 255.23 63.9575 255.889 63.9575ZM262.781 63.1958H260.665V61.2695H262.781V63.1958ZM260.665 64.1479H262.781V72.1313H260.665V64.1479ZM263.99 65.708V64.2212H265.103V61.9946H267.168V64.2212H268.465V65.708H267.168V69.9268C267.168 70.2539 267.21 70.459 267.293 70.542C267.376 70.6201 267.63 70.6592 268.055 70.6592C268.118 70.6592 268.184 70.6592 268.252 70.6592C268.326 70.6543 268.396 70.6494 268.465 70.6445V72.2046L267.476 72.2412C266.49 72.2754 265.816 72.1045 265.455 71.7285C265.22 71.4893 265.103 71.1206 265.103 70.6226V65.708H263.99ZM271.885 64.1479V68.96C271.885 69.4141 271.939 69.7559 272.046 69.9854C272.237 70.3906 272.61 70.5933 273.167 70.5933C273.88 70.5933 274.368 70.3052 274.632 69.729C274.769 69.4165 274.837 69.0039 274.837 68.4912V64.1479H276.954V72.1313H274.925V71.0034C274.905 71.0278 274.856 71.1011 274.778 71.2231C274.7 71.3452 274.607 71.4526 274.5 71.5454C274.173 71.8384 273.855 72.0386 273.548 72.146C273.245 72.2534 272.889 72.3071 272.479 72.3071C271.297 72.3071 270.501 71.8823 270.091 71.0327C269.861 70.564 269.747 69.873 269.747 68.96V64.1479H271.885ZM283.311 63.9575C283.35 63.9575 283.382 63.96 283.406 63.9648C283.436 63.9648 283.497 63.9673 283.589 63.9722V66.1108C283.458 66.0962 283.34 66.0864 283.238 66.0815C283.135 66.0767 283.052 66.0742 282.989 66.0742C282.149 66.0742 281.585 66.3477 281.297 66.8945C281.136 67.2021 281.055 67.6758 281.055 68.3154V72.1313H278.953V64.1479H280.945V65.5396C281.268 65.0073 281.548 64.6436 281.788 64.4482C282.178 64.1211 282.686 63.9575 283.311 63.9575ZM287.969 65.6567C287.486 65.6567 287.11 65.8081 286.841 66.1108C286.578 66.4136 286.412 66.8237 286.343 67.3413H289.588C289.554 66.7896 289.385 66.3721 289.083 66.0889C288.785 65.8008 288.414 65.6567 287.969 65.6567ZM287.969 63.9355C288.633 63.9355 289.231 64.0601 289.764 64.3091C290.296 64.5581 290.735 64.9512 291.082 65.4883C291.395 65.9619 291.597 66.5112 291.69 67.1362C291.744 67.5024 291.766 68.0298 291.756 68.7183H286.292C286.321 69.519 286.573 70.0806 287.046 70.4028C287.334 70.603 287.681 70.7031 288.086 70.7031C288.516 70.7031 288.865 70.5811 289.134 70.3369C289.28 70.2051 289.41 70.022 289.522 69.7876H291.653C291.6 70.2612 291.353 70.7422 290.914 71.2305C290.23 72.0068 289.273 72.395 288.042 72.395C287.027 72.395 286.131 72.0679 285.354 71.4136C284.578 70.7593 284.19 69.6948 284.19 68.2202C284.19 66.8384 284.539 65.7788 285.237 65.0415C285.94 64.3042 286.851 63.9355 287.969 63.9355Z" fill="#3F7665"/>
<g clip-path="url(#clip0_141_41)">
<path d="M168.923 183.395L164.307 156.97L137.972 155.699L143.114 182.839L137.176 182.716L141.025 202.656L202.977 202.735L200.078 184.067L168.923 183.395Z" fill="url(#paint0_linear_141_41)"/>
<path d="M173.816 180.918L199.683 181.539L192.249 133.686L126.806 128.913L130.648 148.852L168.682 150.918L173.816 180.918Z" fill="url(#paint1_linear_141_41)"/>
<path d="M238.653 154.724L242.195 182.565L268.055 183.193L263.242 138.865L197.799 134.091L200.626 152.651L238.653 154.724Z" fill="url(#paint2_linear_141_41)"/>
<path d="M237.163 184.861L233.95 160.314L207.607 159.05L211.347 184.305L205.417 184.175L208.235 202.743L270.195 202.822L268.31 185.525L237.163 184.861Z" fill="url(#paint3_linear_141_41)"/>
<path d="M293.411 141.067L268.025 139.211L273.882 180.788L295.412 181.366L293.411 141.067Z" fill="url(#paint4_linear_141_41)"/>
<path d="M274.08 182.644L275.664 197.882C276.037 201.443 278.082 202.837 281.368 202.837L297.296 202.858L295.573 183.178L274.08 182.644Z" fill="url(#paint5_linear_141_41)"/>
<path d="M331.745 175.66C310.084 174.895 300.831 178.679 301.707 189.238C302.583 199.796 312.275 203.913 333.366 203.913C354.457 203.913 363.688 200.107 363.396 190.335C363.104 180.571 353.398 176.419 331.737 175.66H331.745ZM322.535 188.003L323.361 185.908C329.152 188.566 336.689 189.786 342.816 189.541L342.918 191.606C336.44 191.859 328.553 190.797 322.543 188.003H322.535Z" fill="url(#paint6_linear_141_41)"/>
<path d="M360.709 151.098L360.548 145.964L339.793 144.447L340.443 157.62C333.892 158.747 325.785 158.949 320.001 158.631L319.855 156.443C325.347 156.76 333.023 156.768 337.463 155.959L336.857 144.238L298.194 141.414L299.794 160.725C300.473 168.886 304.103 172.974 314.612 173.364C325.647 173.775 335.644 173.075 341.122 171.508L341.297 174.996L361.475 175.733L361.22 167.471L366.967 167.738L366.551 151.481L360.716 151.091L360.709 151.098Z" fill="url(#paint7_linear_141_41)"/>
<path d="M370.823 185.056L371.13 198.568C371.203 201.724 373.131 202.959 376.417 202.967L392.345 202.988L392.316 185.598L370.823 185.063V185.056Z" fill="url(#paint8_linear_141_41)"/>
<path d="M393.806 148.39L368.421 146.534L370.787 183.409L392.317 183.987L393.806 148.39Z" fill="url(#paint9_linear_141_41)"/>
</g>
<defs>
<filter id="filter0_d_141_41" x="0.892578" y="0.130371" width="537.552" height="318.875" filterUnits="userSpaceOnUse" color-interpolation-filters="sRGB">
<feFlood flood-opacity="0" result="BackgroundImageFix"/>
<feColorMatrix in="SourceAlpha" type="matrix" values="0 0 0 0 0 0 0 0 0 0 0 0 0 0 0 0 0 0 127 0" result="hardAlpha"/>
<feOffset dx="10" dy="10"/>
<feGaussianBlur stdDeviation="15"/>
<feComposite in2="hardAlpha" operator="out"/>
<feColorMatrix type="matrix" values="0 0 0 0 0.0588235 0 0 0 0 0.505882 0 0 0 0 0.368627 0 0 0 0.1 0"/>
<feBlend mode="normal" in2="BackgroundImageFix" result="effect1_dropShadow_141_41"/>
<feBlend mode="normal" in="SourceGraphic" in2="effect1_dropShadow_141_41" result="shape"/>
</filter>
<linearGradient id="paint0_linear_141_41" x1="60.7716" y1="137.485" x2="408.371" y2="301.203" gradientUnits="userSpaceOnUse">
<stop stop-color="#00F870"/>
<stop offset="0.08" stop-color="#00C794"/>
<stop offset="0.15" stop-color="#009DB2"/>
<stop offset="0.22" stop-color="#007ACB"/>
<stop offset="0.29" stop-color="#0060DE"/>
<stop offset="0.36" stop-color="#004DEC"/>
<stop offset="0.44" stop-color="#0041F4"/>
<stop offset="0.52" stop-color="#003EF7"/>
<stop offset="1" stop-color="#8E00A4"/>
</linearGradient>
<linearGradient id="paint1_linear_141_41" x1="74.896" y1="107.492" x2="422.495" y2="271.21" gradientUnits="userSpaceOnUse">
<stop stop-color="#00F870"/>
<stop offset="0.08" stop-color="#00C794"/>
<stop offset="0.15" stop-color="#009DB2"/>
<stop offset="0.22" stop-color="#007ACB"/>
<stop offset="0.29" stop-color="#0060DE"/>
<stop offset="0.36" stop-color="#004DEC"/>
<stop offset="0.44" stop-color="#0041F4"/>
<stop offset="0.52" stop-color="#003EF7"/>
<stop offset="1" stop-color="#8E00A4"/>
</linearGradient>
<linearGradient id="paint2_linear_141_41" x1="85.9967" y1="83.9271" x2="433.596" y2="247.645" gradientUnits="userSpaceOnUse">
<stop stop-color="#00F870"/>
<stop offset="0.08" stop-color="#00C794"/>
<stop offset="0.15" stop-color="#009DB2"/>
<stop offset="0.22" stop-color="#007ACB"/>
<stop offset="0.29" stop-color="#0060DE"/>
<stop offset="0.36" stop-color="#004DEC"/>
<stop offset="0.44" stop-color="#0041F4"/>
<stop offset="0.52" stop-color="#003EF7"/>
<stop offset="1" stop-color="#8E00A4"/>
</linearGradient>
<linearGradient id="paint3_linear_141_41" x1="72.3036" y1="113.003" x2="419.903" y2="276.713" gradientUnits="userSpaceOnUse">
<stop stop-color="#00F870"/>
<stop offset="0.08" stop-color="#00C794"/>
<stop offset="0.15" stop-color="#009DB2"/>
<stop offset="0.22" stop-color="#007ACB"/>
<stop offset="0.29" stop-color="#0060DE"/>
<stop offset="0.36" stop-color="#004DEC"/>
<stop offset="0.44" stop-color="#0041F4"/>
<stop offset="0.52" stop-color="#003EF7"/>
<stop offset="1" stop-color="#8E00A4"/>
</linearGradient>
<linearGradient id="paint4_linear_141_41" x1="91.43" y1="72.3937" x2="439.029" y2="236.112" gradientUnits="userSpaceOnUse">
<stop stop-color="#00F870"/>
<stop offset="0.08" stop-color="#00C794"/>
<stop offset="0.15" stop-color="#009DB2"/>
<stop offset="0.22" stop-color="#007ACB"/>
<stop offset="0.29" stop-color="#0060DE"/>
<stop offset="0.36" stop-color="#004DEC"/>
<stop offset="0.44" stop-color="#0041F4"/>
<stop offset="0.52" stop-color="#003EF7"/>
<stop offset="1" stop-color="#8E00A4"/>
</linearGradient>
<linearGradient id="paint5_linear_141_41" x1="79.7159" y1="97.2661" x2="427.315" y2="260.984" gradientUnits="userSpaceOnUse">
<stop stop-color="#00F870"/>
<stop offset="0.08" stop-color="#00C794"/>
<stop offset="0.15" stop-color="#009DB2"/>
<stop offset="0.22" stop-color="#007ACB"/>
<stop offset="0.29" stop-color="#0060DE"/>
<stop offset="0.36" stop-color="#004DEC"/>
<stop offset="0.44" stop-color="#0041F4"/>
<stop offset="0.52" stop-color="#003EF7"/>
<stop offset="1" stop-color="#8E00A4"/>
</linearGradient>
<linearGradient id="paint6_linear_141_41" x1="88.9031" y1="77.7522" x2="436.502" y2="241.47" gradientUnits="userSpaceOnUse">
<stop stop-color="#00F870"/>
<stop offset="0.08" stop-color="#00C794"/>
<stop offset="0.15" stop-color="#009DB2"/>
<stop offset="0.22" stop-color="#007ACB"/>
<stop offset="0.29" stop-color="#0060DE"/>
<stop offset="0.36" stop-color="#004DEC"/>
<stop offset="0.44" stop-color="#0041F4"/>
<stop offset="0.52" stop-color="#003EF7"/>
<stop offset="1" stop-color="#8E00A4"/>
</linearGradient>
<linearGradient id="paint7_linear_141_41" x1="101.099" y1="51.8543" x2="448.706" y2="215.572" gradientUnits="userSpaceOnUse">
<stop stop-color="#00F870"/>
<stop offset="0.08" stop-color="#00C794"/>
<stop offset="0.15" stop-color="#009DB2"/>
<stop offset="0.22" stop-color="#007ACB"/>
<stop offset="0.29" stop-color="#0060DE"/>
<stop offset="0.36" stop-color="#004DEC"/>
<stop offset="0.44" stop-color="#0041F4"/>
<stop offset="0.52" stop-color="#003EF7"/>
<stop offset="1" stop-color="#8E00A4"/>
</linearGradient>
<linearGradient id="paint8_linear_141_41" x1="96.3084" y1="62.0301" x2="443.908" y2="225.748" gradientUnits="userSpaceOnUse">
<stop stop-color="#00F870"/>
<stop offset="0.08" stop-color="#00C794"/>
<stop offset="0.15" stop-color="#009DB2"/>
<stop offset="0.22" stop-color="#007ACB"/>
<stop offset="0.29" stop-color="#0060DE"/>
<stop offset="0.36" stop-color="#004DEC"/>
<stop offset="0.44" stop-color="#0041F4"/>
<stop offset="0.52" stop-color="#003EF7"/>
<stop offset="1" stop-color="#8E00A4"/>
</linearGradient>
<linearGradient id="paint9_linear_141_41" x1="107.088" y1="39.1437" x2="454.695" y2="202.854" gradientUnits="userSpaceOnUse">
<stop stop-color="#00F870"/>
<stop offset="0.08" stop-color="#00C794"/>
<stop offset="0.15" stop-color="#009DB2"/>
<stop offset="0.22" stop-color="#007ACB"/>
<stop offset="0.29" stop-color="#0060DE"/>
<stop offset="0.36" stop-color="#004DEC"/>
<stop offset="0.44" stop-color="#0041F4"/>
<stop offset="0.52" stop-color="#003EF7"/>
<stop offset="1" stop-color="#8E00A4"/>
</linearGradient>
<clipPath id="clip0_141_41">
<rect width="267" height="75" fill="white" transform="translate(126.806 128.913)"/>
</clipPath>
</defs>
</svg>
