<svg width="332" height="135" viewBox="0 0 332 135" fill="none" xmlns="http://www.w3.org/2000/svg">
<g clip-path="url(#clip0_171_115)">
<path fill-rule="evenodd" clip-rule="evenodd" d="M107.341 61.0466L77.4046 60.3261L71.463 25.5261L27.4457 23.1302L23 0L98.7371 5.53751L107.341 61.0466ZM66.4006 32.5465L71.7422 63.1996L107.798 63.9787L111.153 85.6345L39.4561 85.5423L35.002 62.4121L41.8733 62.5545L35.9232 31.072L66.4006 32.5465ZM152.44 29.941L156.539 62.2362L186.467 62.965L180.897 11.5441L105.16 6.00659L108.431 27.5367L152.44 29.941ZM146.997 36.4253L150.716 64.9003L186.763 65.671L188.944 85.7351L117.238 85.6429L113.976 64.1044L120.839 64.2552L116.511 34.9592L146.997 36.4253ZM215.812 14.0993L186.434 11.9463L193.212 60.1754L218.128 60.8456L215.812 14.0993ZM195.274 80.0048L193.44 62.3284L218.314 62.9483L220.309 85.7769L201.875 85.7518C198.072 85.7518 195.706 84.1349 195.274 80.0048ZM260.176 54.2273C235.108 53.3393 224.399 57.729 225.413 69.9769C226.427 82.2248 237.643 86.9999 262.052 86.9999C286.461 86.9999 297.144 82.585 296.806 71.2503C296.468 59.9239 285.236 55.1069 260.167 54.2273H260.176ZM249.518 68.5444L250.473 66.1149C257.175 69.1978 265.898 70.6136 272.989 70.3288L273.107 72.7247C265.61 73.0179 256.482 71.7864 249.526 68.5444H249.518ZM293.511 19.7793L293.697 25.7356L293.705 25.7273L300.458 26.1797L300.94 45.0373L294.288 44.7274L294.584 54.3112L271.232 53.4567L271.029 49.4104C264.69 51.2283 253.119 52.0409 240.348 51.5634C228.186 51.111 223.986 46.3693 223.2 36.9028L221.349 14.5015L266.093 17.7771L266.794 31.3737C261.656 32.312 252.773 32.3036 246.417 31.935L246.586 34.4733C253.28 34.842 262.661 34.6074 270.243 33.3005L269.49 18.02L293.511 19.7793ZM305.402 65.1348L305.757 80.8007C305.842 84.4617 308.073 85.8942 311.876 85.9026L330.31 85.9277L330.276 65.7548L305.402 65.1348ZM302.621 20.4409L332 22.5939L330.276 63.8865L305.359 63.2163L302.621 20.4409Z" fill="white"/>
</g>
<path d="M7.31703 128.224H2.37703V111.404H9.09703V113.784H5.05703V125.844H7.85703C9.19703 125.844 10.197 125.664 10.777 125.204V111.184H13.437V118.124H14.857V111.084H17.517V129.444H14.857V120.524H13.437V129.224H10.777V127.444C10.157 127.944 8.97703 128.224 7.31703 128.224ZM24.6763 110.544H27.4163V112.384H31.1963V114.644H20.7363V112.384H24.6763V110.544ZM21.2763 119.284C21.2763 118.184 21.6963 117.284 22.4163 116.624C23.2363 115.864 24.4963 115.424 25.9963 115.424C27.4963 115.424 28.7563 115.864 29.5963 116.624C30.2963 117.284 30.7363 118.184 30.7363 119.284C30.7363 120.364 30.2963 121.264 29.5963 121.924C28.7563 122.704 27.4963 123.124 25.9963 123.124C24.4963 123.124 23.2363 122.704 22.4163 121.924C21.6963 121.264 21.2763 120.364 21.2763 119.284ZM23.9163 119.284C23.9163 119.704 24.0563 120.044 24.3363 120.324C24.7163 120.704 25.3163 120.924 25.9963 120.924C26.6963 120.924 27.2963 120.704 27.6763 120.324C27.9563 120.044 28.0963 119.704 28.0963 119.284C28.0963 118.844 27.9563 118.504 27.6763 118.224C27.2963 117.844 26.6963 117.624 25.9963 117.624C25.3163 117.624 24.7163 117.844 24.3363 118.224C24.0563 118.504 23.9163 118.844 23.9163 119.284ZM35.9963 116.084H38.5363V118.484H35.9963V124.504H33.2563V111.084H35.9963V116.084ZM25.0763 127.144H36.3163V129.524H22.3363V123.884H25.0763V127.144ZM40.7755 111.304H49.9155V121.444H40.7755V111.304ZM43.4555 113.644V119.104H47.2355V113.644H43.4555ZM52.9355 123.964V111.084H55.6755V123.964H52.9355ZM41.8355 129.524V123.024H44.5755V127.144H55.9955V129.524H41.8355ZM72.0147 113.664H60.4347V111.304H74.7547V114.704C74.7547 115.764 74.6747 116.784 74.4347 117.564H71.7547C71.9547 116.784 72.0147 115.804 72.0147 114.804V113.664ZM59.3947 118.464H75.9147V120.844H68.9947V123.304H74.7547V129.744H72.0147V125.664H60.4347V123.304H66.2947V120.844H59.3947V118.464ZM84.0928 123.704V123.384H86.9528V123.544C86.9528 125.164 87.9528 126.084 89.3328 126.084C90.7128 126.084 91.7128 125.164 91.7128 123.544C91.7128 121.884 90.7128 120.964 89.2528 120.964H87.6928V118.644H89.2528C90.4528 118.644 91.2728 117.884 91.2728 116.544C91.2728 115.264 90.4728 114.484 89.3328 114.484C88.1728 114.484 87.3728 115.264 87.3728 116.544V116.684H84.5728V116.324C84.5728 113.904 86.3128 112.084 89.3328 112.084C92.3528 112.084 94.0728 113.904 94.0728 116.324C94.0728 117.964 93.1528 119.304 91.7328 119.784C93.4928 120.264 94.5528 121.644 94.5528 123.704C94.5528 126.624 92.4128 128.464 89.3328 128.464C86.2528 128.464 84.0928 126.624 84.0928 123.704ZM102.473 128.224H97.5333V111.404H104.253V113.784H100.213V125.844H103.013C104.353 125.844 105.353 125.664 105.933 125.204V111.184H108.593V118.124H110.013V111.084H112.673V129.444H110.013V120.524H108.593V129.224H105.933V127.444C105.313 127.944 104.133 128.224 102.473 128.224ZM116.513 111.304H125.653V121.444H116.513V111.304ZM119.193 113.644V119.104H122.973V113.644H119.193ZM131.153 115.884H133.693V118.264H131.153V123.964H128.413V111.084H131.153V115.884ZM120.233 127.144H131.473V129.524H117.493V123.024H120.233V127.144ZM141.852 113.324C141.852 116.564 143.352 118.024 145.692 118.704V121.124C143.492 120.724 141.552 119.664 140.512 118.264C139.512 119.724 137.572 120.884 135.292 121.324V118.924C137.712 118.184 139.112 116.424 139.112 113.324V111.184H141.852V113.324ZM148.092 121.564V116.564H144.392V114.204H148.092V111.084H150.832V121.564H148.092ZM136.792 125.824C136.792 124.504 137.472 123.564 138.492 122.944C139.932 122.064 142.052 121.804 144.012 121.804C145.992 121.804 148.112 122.064 149.532 122.944C150.572 123.564 151.252 124.504 151.252 125.824C151.252 127.144 150.572 128.104 149.532 128.724C148.112 129.584 145.992 129.844 144.012 129.844C142.052 129.844 139.932 129.584 138.492 128.724C137.472 128.104 136.792 127.144 136.792 125.824ZM139.532 125.824C139.532 126.284 139.772 126.604 140.212 126.864C141.072 127.344 142.592 127.504 144.012 127.504C145.452 127.504 146.972 127.344 147.832 126.864C148.252 126.604 148.512 126.284 148.512 125.824C148.512 125.384 148.252 125.064 147.832 124.804C146.972 124.304 145.452 124.164 144.012 124.164C142.592 124.164 141.072 124.304 140.212 124.804C139.772 125.064 139.532 125.384 139.532 125.824ZM164.751 111.304V113.604H161.331C161.471 116.144 162.871 117.244 165.091 117.664V120.044C162.891 119.764 161.031 118.884 159.991 117.544C158.891 118.884 156.991 120.024 154.791 120.264V117.884C157.031 117.464 158.411 116.224 158.551 113.604H155.131V111.304H164.751ZM167.291 120.044V111.084H170.031V120.044H167.291ZM158.931 127.404H170.231V129.644H156.191V124.164H167.291V123.044H156.191V120.844H170.031V126.344H158.931V127.404ZM180.65 112.144H184.57V114.264H173.95V112.144H177.91V110.544H180.65V112.144ZM181.53 117.624C181.53 117.424 181.41 117.244 181.21 117.124C180.83 116.864 180.15 116.724 179.25 116.724C178.35 116.724 177.67 116.864 177.29 117.124C177.09 117.244 176.95 117.424 176.95 117.624C176.95 117.844 177.09 118.024 177.29 118.144C177.67 118.404 178.35 118.524 179.25 118.524C180.15 118.524 180.83 118.404 181.21 118.144C181.41 118.024 181.53 117.844 181.53 117.624ZM174.37 117.624C174.37 116.744 174.77 116.084 175.49 115.624C176.39 115.024 177.75 114.744 179.25 114.744C180.75 114.744 182.11 115.024 183.01 115.624C183.73 116.084 184.13 116.744 184.13 117.624C184.13 118.504 183.73 119.164 183.01 119.644C182.41 120.044 181.59 120.304 180.65 120.444V121.584H182.99C184.51 121.584 185.39 121.404 186.01 120.944V111.084H188.75V116.804H191.35V119.144H188.75V125.364H186.01V123.024C185.37 123.544 184.29 123.804 182.25 123.804H173.73V121.584H177.91V120.444C176.95 120.324 176.11 120.064 175.49 119.644C174.77 119.164 174.37 118.504 174.37 117.624ZM175.09 129.644V124.784H177.83V127.364H189.07V129.644H175.09ZM205.728 117.644V111.404H208.428V128.224H199.408V111.404H202.128V117.644H205.728ZM205.728 120.024H202.128V125.844H205.728V120.024ZM213.828 118.364H216.588V120.724H213.828V129.444H211.088V111.084H213.828V118.364ZM221.788 120.884H233.728V123.264H227.688V126.264H234.448V128.644H218.128V126.264H224.968V123.264H219.048V116.104H230.788V113.784H219.048V111.404H233.528V118.484H221.788V120.884ZM237.367 115.484C237.367 113.944 238.047 112.704 239.107 111.924C239.947 111.324 241.007 110.984 242.227 110.984C243.447 110.984 244.527 111.324 245.367 111.924C246.427 112.704 247.087 113.944 247.087 115.484C247.087 117.024 246.427 118.264 245.367 119.064C244.527 119.664 243.447 120.004 242.227 120.004C241.007 120.004 239.947 119.664 239.107 119.064C238.047 118.264 237.367 117.024 237.367 115.484ZM240.047 115.484C240.047 116.224 240.327 116.824 240.787 117.224C241.147 117.544 241.627 117.744 242.227 117.744C242.827 117.744 243.327 117.544 243.687 117.224C244.147 116.824 244.427 116.224 244.427 115.484C244.427 114.764 244.147 114.164 243.687 113.764C243.327 113.444 242.827 113.244 242.227 113.244C241.627 113.244 241.147 113.444 240.787 113.764C240.327 114.164 240.047 114.764 240.047 115.484ZM252.227 114.384H254.767V116.784H252.227V120.064H249.487V111.084H252.227V114.384ZM241.307 127.404H252.447V129.644H238.567V124.164H249.487V123.044H238.567V120.844H252.227V126.344H241.307V127.404ZM263.426 115.424V113.784H257.106V111.404H266.146V115.104C266.146 122.084 263.626 126.784 257.006 128.444V125.844C261.566 124.524 263.426 120.844 263.426 115.424ZM271.886 129.444H269.146V111.084H271.886V129.444Z" fill="#F9F9F9"/>
<defs>
<clipPath id="clip0_171_115">
<rect width="309" height="87" fill="white" transform="translate(23)"/>
</clipPath>
</defs>
</svg>
