<svg width="80" height="114" viewBox="0 0 80 114" fill="none" xmlns="http://www.w3.org/2000/svg">
<g clip-path="url(#clip0_153_100)">
<path d="M54.2094 31.4864C53.5499 31.085 52.8594 30.7644 52.1493 30.5008C54.5736 20.0444 52.3654 10.423 45.7864 6.45437C36.8318 1.05331 23.1613 8.18658 15.2634 22.3747C7.35668 36.5657 8.21586 52.4515 17.1791 57.8496C17.8386 58.251 18.5291 58.5715 19.2392 58.8352C16.8149 69.2916 19.0231 78.9129 25.6021 82.8816C26.2616 83.283 26.952 83.6036 27.6622 83.8672C25.2379 94.3236 27.4461 103.945 34.0251 107.914C42.9884 113.312 56.6532 106.19 64.5481 91.9933C72.4461 77.8052 71.5869 61.9194 62.6324 56.5184C61.9729 56.117 61.2824 55.7964 60.5723 55.5328C62.9966 45.0764 60.7884 35.455 54.2094 31.4864Z" fill="#F7CF2B"/>
<path d="M31.8156 53.3567C33.9112 52.6516 34.8495 49.8199 33.9114 47.032C32.9733 44.2441 30.514 42.5557 28.4184 43.2608C26.3228 43.966 25.3845 46.7976 26.3226 49.5855C27.2607 52.3734 29.72 54.0618 31.8156 53.3567Z" fill="#F9F8F4"/>
<mask id="mask0_153_100" style="mask-type:luminance" maskUnits="userSpaceOnUse" x="25" y="43" width="10" height="11">
<path d="M31.8156 53.3567C33.9112 52.6516 34.8495 49.8199 33.9114 47.032C32.9733 44.2441 30.514 42.5557 28.4184 43.2608C26.3228 43.966 25.3845 46.7976 26.3226 49.5855C27.2607 52.3734 29.72 54.0618 31.8156 53.3567Z" fill="white"/>
</mask>
<g mask="url(#mask0_153_100)">
<path d="M33.2101 44.9759C33.805 46.2535 32.9598 48.3876 31.4158 48.9071C29.8719 49.4267 28.1661 48.5128 27.61 46.8603C27.054 45.2077 27.8087 43.2951 29.4043 42.9291C31.3871 42.473 32.4739 43.3941 33.2101 44.9759Z" fill="#333132"/>
</g>
<path d="M44.0363 49.2446C46.1319 48.5395 47.0702 45.7078 46.1321 42.9199C45.194 40.132 42.7347 38.4436 40.6391 39.1488C38.5435 39.8539 37.6052 42.6856 38.5433 45.4735C39.4814 48.2614 41.9407 49.9498 44.0363 49.2446Z" fill="#F9F8F4"/>
<mask id="mask1_153_100" style="mask-type:luminance" maskUnits="userSpaceOnUse" x="38" y="38" width="9" height="12">
<path d="M44.0363 49.2446C46.1319 48.5395 47.0702 45.7078 46.1321 42.9199C45.194 40.132 42.7347 38.4436 40.6391 39.1488C38.5435 39.8539 37.6052 42.6856 38.5433 45.4735C39.4814 48.2614 41.9407 49.9498 44.0363 49.2446Z" fill="white"/>
</mask>
<g mask="url(#mask1_153_100)">
<path d="M45.422 40.8668C46.0169 42.1444 45.1717 44.2785 43.6277 44.798C42.0838 45.3175 40.378 44.4037 39.8219 42.7512C39.2659 41.0986 40.0206 39.186 41.6162 38.82C43.599 38.3639 44.6858 39.2849 45.422 40.8668Z" fill="#333132"/>
</g>
</g>
<defs>
<clipPath id="clip0_153_100">
<rect width="49.9467" height="101.814" fill="white" transform="translate(0 16.895) rotate(-18.5975)"/>
</clipPath>
</defs>
</svg>
