<svg width="714" height="54" viewBox="0 0 714 54" fill="none" xmlns="http://www.w3.org/2000/svg">
<path d="M44.4625 2.92074C44.4625 4.96074 44.1425 7.54074 43.6825 9.74074H46.2225V11.6007H30.1225V9.74074H34.3025C34.7025 8.48074 35.1025 6.20074 35.1025 4.76074H31.6025V2.92074H37.4825C37.4825 4.92074 37.1225 7.80074 36.6225 9.74074H41.3625C41.8425 8.04074 42.1025 5.80074 42.1025 4.76074H38.6825V2.92074H44.4625ZM44.3625 19.3607H32.1825V13.4807H34.5025V17.5207H44.3625V19.3607ZM48.0471 5.06074V3.14074H57.4471V5.06074H54.0271C54.1271 7.72074 55.9871 9.46074 57.9871 10.1207L56.7071 11.9407C55.3671 11.4607 53.6071 10.0807 52.8471 8.44074C52.3071 10.1807 50.4271 11.8407 48.7071 12.4407L47.3271 10.6007C49.8671 9.70074 51.5671 7.74074 51.6271 5.06074H48.0471ZM50.1071 13.3807H62.1871V19.8607H59.8271V15.2207H50.1071V13.3807ZM62.1671 12.4607H59.8271V8.24074H57.1871V6.36074H59.8271V2.02074H62.1671V12.4607ZM79.4518 19.8407H77.1318V2.02074H79.4518V19.8407ZM65.2318 9.62074C65.2318 5.86074 66.9318 3.24074 69.8318 3.24074C72.7518 3.24074 74.4518 5.86074 74.4518 9.62074C74.4518 13.3407 72.7518 15.9607 69.8318 15.9607C66.9318 15.9607 65.2318 13.3607 65.2318 9.62074ZM72.2118 9.62074C72.2118 6.80074 71.2118 5.12074 69.8318 5.12074C68.4918 5.12074 67.5118 6.80074 67.5118 9.62074C67.5118 12.4207 68.4918 14.0807 69.8318 14.0807C71.2118 14.0807 72.2118 12.4207 72.2118 9.62074Z" fill="#222222"/>
<path d="M236.983 9.62074C239.583 9.62074 242.203 9.48074 244.023 9.08074L244.283 10.8807C242.603 11.2607 239.683 11.5007 236.403 11.5007H234.663V3.36074H242.603V5.22074H236.983V9.62074ZM250.523 8.26074H248.003V12.4407H245.643V2.02074H248.003V6.36074H250.523V8.26074ZM248.223 16.2407C248.223 18.4007 245.983 19.8007 242.103 19.8007C238.263 19.8007 236.023 18.4007 236.023 16.2407C236.023 14.0207 238.263 12.6407 242.103 12.6407C245.983 12.6407 248.223 14.0207 248.223 16.2407ZM245.803 16.2407C245.803 15.1807 244.463 14.5207 242.103 14.5207C239.783 14.5207 238.423 15.1807 238.423 16.2407C238.423 17.3007 239.783 17.9407 242.103 17.9407C244.463 17.9407 245.803 17.3007 245.803 16.2407ZM266.108 19.8407H263.788V2.02074H266.108V19.8407ZM251.888 9.62074C251.888 5.86074 253.588 3.24074 256.488 3.24074C259.408 3.24074 261.108 5.86074 261.108 9.62074C261.108 13.3407 259.408 15.9607 256.488 15.9607C253.588 15.9607 251.888 13.3607 251.888 9.62074ZM258.868 9.62074C258.868 6.80074 257.868 5.12074 256.488 5.12074C255.148 5.12074 254.168 6.80074 254.168 9.62074C254.168 12.4207 255.148 14.0807 256.488 14.0807C257.868 14.0807 258.868 12.4207 258.868 9.62074Z" fill="#222222"/>
<path d="M434.112 2.02074V8.66074H436.172V10.5807H434.112V19.8407H431.832V2.02074H434.112ZM424.832 15.6207H419.652V3.66074H421.692V7.94074H422.772V3.62074H424.832V15.6207ZM422.772 13.7607V9.78074H421.692V13.7607H422.772ZM430.812 15.6207H425.672V3.66074H427.692V7.94074H428.792V3.62074H430.812V15.6207ZM428.792 13.7607V9.78074H427.692V13.7607H428.792ZM437.697 5.14074V3.28074H447.097V5.14074H443.677C443.857 7.70074 445.677 9.40074 447.677 10.0407L446.377 11.8807C445.017 11.3607 443.277 9.98074 442.497 8.34074C441.997 10.0807 440.097 11.7407 438.357 12.3407L436.977 10.5207C439.497 9.62074 441.177 7.74074 441.277 5.14074H437.697ZM439.577 13.2807H451.657V19.8607H449.297V15.1207H439.577V13.2807ZM451.637 12.4007H449.297V2.04074H451.637V12.4007ZM468.922 19.8407H466.602V2.02074H468.922V19.8407ZM454.702 9.62074C454.702 5.86074 456.402 3.24074 459.302 3.24074C462.222 3.24074 463.922 5.86074 463.922 9.62074C463.922 13.3407 462.222 15.9607 459.302 15.9607C456.402 15.9607 454.702 13.3607 454.702 9.62074ZM461.682 9.62074C461.682 6.80074 460.682 5.12074 459.302 5.12074C457.962 5.12074 456.982 6.80074 456.982 9.62074C456.982 12.4207 457.962 14.0807 459.302 14.0807C460.682 14.0807 461.682 12.4207 461.682 9.62074Z" fill="#222222"/>
<path d="M631.115 12.7807H615.015V10.9207H621.855V9.04074H624.215V10.9207H631.115V12.7807ZM616.895 14.1607H629.035V19.8807H626.715V16.0007H616.895V14.1607ZM629.795 8.46074H623.475V2.40074H629.655V4.26074H625.835V6.60074H629.795V8.46074ZM618.815 6.68074C619.695 6.68074 621.355 6.54074 622.495 6.24074L622.795 8.08074C621.175 8.46074 618.935 8.62074 616.455 8.60074V2.40074H622.295V4.26074H618.815V6.68074ZM648.42 12.7807H632.32V10.9207H639.16V9.04074H641.52V10.9207H648.42V12.7807ZM634.2 14.1607H646.34V19.8807H644.02V16.0007H634.2V14.1607ZM647.1 8.46074H640.78V2.40074H646.96V4.26074H643.14V6.60074H647.1V8.46074ZM636.12 6.68074C637 6.68074 638.66 6.54074 639.8 6.24074L640.1 8.08074C638.48 8.46074 636.24 8.62074 633.76 8.60074V2.40074H639.6V4.26074H636.12V6.68074ZM664.344 19.8407H662.024V2.02074H664.344V19.8407ZM650.124 9.62074C650.124 5.86074 651.824 3.24074 654.724 3.24074C657.644 3.24074 659.344 5.86074 659.344 9.62074C659.344 13.3407 657.644 15.9607 654.724 15.9607C651.824 15.9607 650.124 13.3607 650.124 9.62074ZM657.104 9.62074C657.104 6.80074 656.104 5.12074 654.724 5.12074C653.384 5.12074 652.404 6.80074 652.404 9.62074C652.404 12.4207 653.384 14.0807 654.724 14.0807C656.104 14.0807 657.104 12.4207 657.104 9.62074Z" fill="#222222"/>
<path d="M12.3032 49.1525H1.83824V47.9435H5.59524V44.0435H7.11624V47.9435H12.3032V49.1525ZM11.1072 40.2085C11.1592 43.1205 11.0162 45.2395 10.6132 46.7735L9.15724 46.5915C9.52124 45.2525 9.61224 43.0295 9.57324 41.4305H2.95624V40.2085H11.1072ZM20.3273 46.8385L19.4823 48.0215C18.4553 47.5015 17.0383 46.0325 16.6873 44.9145C16.4143 46.0845 15.2443 47.6315 13.8923 48.2945L12.9823 47.1635C14.9323 46.1235 15.8813 44.3295 15.8813 41.8985V41.5865H13.5673V40.3775H19.7163V41.5865H17.4803V41.8855C17.4803 44.3295 18.5853 45.9415 20.3273 46.8385ZM22.6673 50.7775H21.1463V39.1945H22.6673V50.7775ZM33.9023 45.7985H32.3943V44.7975H30.8473V43.6535H32.3943V42.7695H30.8603V41.6385H32.3943V39.1945H33.9023V45.7985ZM30.5353 42.1845H24.4123V41.0405H30.5353V42.1845ZM25.9463 40.5075V39.3635H29.1313V40.5075H25.9463ZM34.2533 50.7515H26.0763V47.9955H32.3943V47.4495H26.0763V46.3185H33.9023V49.0355H27.6233V49.6075H34.2533V50.7515ZM30.3143 44.2125C30.3143 45.2785 29.1313 45.9935 27.5843 45.9935C26.0503 45.9935 24.8543 45.2785 24.8543 44.2125C24.8543 43.1595 26.0373 42.4315 27.5843 42.4315C29.1313 42.4315 30.3143 43.1595 30.3143 44.2125ZM26.3363 44.2125C26.3363 44.6285 26.9083 44.9145 27.5843 44.9145C28.2603 44.9145 28.8323 44.6285 28.8323 44.2125C28.8323 43.8095 28.2603 43.5235 27.5843 43.5235C26.8953 43.5235 26.3363 43.8095 26.3363 44.2125ZM44.8644 48.6195C44.8644 49.9585 43.3824 50.7775 40.8214 50.7775C38.2474 50.7775 36.7654 49.9585 36.7654 48.6195C36.7654 47.3065 38.2474 46.4875 40.8084 46.4875C43.3824 46.4875 44.8644 47.3065 44.8644 48.6195ZM45.5144 42.8865L44.8644 44.0825C43.1744 43.9395 41.4844 43.0425 40.8214 41.9245C40.2364 43.0815 38.5984 43.9265 36.7654 44.0825L36.1414 42.9125C37.9354 42.8215 39.5214 42.0935 39.9244 40.9105H36.6614V39.7015H45.0074V40.9105H41.7574C42.2124 42.0935 43.9674 42.8085 45.5144 42.8865ZM46.0474 44.7325V45.9285H35.5824V44.7325H46.0474ZM43.3044 48.6325C43.3044 48.0475 42.3294 47.6835 40.8084 47.6835C39.3134 47.6835 38.3384 48.0475 38.3384 48.6325C38.3384 49.2175 39.3134 49.5815 40.8084 49.5815C42.3294 49.5815 43.3044 49.2175 43.3044 48.6325ZM60.9575 43.1985H59.3065V45.9675H57.7725V39.1945H59.3065V41.9505H60.9575V43.1985ZM57.0575 44.2515L56.1865 45.4345C55.2895 45.0965 54.0935 44.1605 53.5865 43.0945C53.2355 44.2775 51.9875 45.3565 50.9085 45.7335L49.9855 44.5245C51.6755 43.9265 52.7935 42.5485 52.7935 40.8065V39.7145H54.3535V40.7155C54.3535 42.5095 55.6925 43.8095 57.0575 44.2515ZM59.4365 48.4375C59.4365 49.8545 57.9805 50.7775 55.4585 50.7775C52.9625 50.7775 51.5065 49.8545 51.5065 48.4375C51.5065 46.9815 52.9625 46.0845 55.4585 46.0845C57.9805 46.0845 59.4365 46.9815 59.4365 48.4375ZM55.4585 47.2935C53.9505 47.2935 53.0665 47.7355 53.0665 48.4375C53.0665 49.1265 53.9505 49.5555 55.4585 49.5555C56.9925 49.5555 57.8895 49.1265 57.8895 48.4375C57.8895 47.7355 56.9925 47.2935 55.4585 47.2935ZM71.1525 48.4505C71.1525 49.8675 69.6965 50.7645 67.1615 50.7645C64.6655 50.7645 63.2225 49.8675 63.2225 48.4505C63.2225 47.0075 64.6655 46.1365 67.1615 46.1365C69.6965 46.1365 71.1525 47.0075 71.1525 48.4505ZM62.0135 41.2095V40.0005H68.1235V41.2095H65.9005C66.0435 42.8475 67.2135 43.9265 68.5005 44.3425L67.6555 45.5515C66.7715 45.2005 65.6405 44.3425 65.1335 43.2765C64.7955 44.4075 63.5605 45.4995 62.4295 45.8765L61.5455 44.6935C63.1445 44.1085 64.2495 42.8735 64.3275 41.2095H62.0135ZM71.0745 46.0845H69.5535V39.1945H71.0745V46.0845ZM67.1615 47.3455C65.6665 47.3455 64.7695 47.7615 64.7695 48.4505C64.7695 49.1525 65.6665 49.5425 67.1615 49.5425C68.7215 49.5425 69.5795 49.1525 69.5795 48.4505C69.5795 47.7615 68.7215 47.3455 67.1615 47.3455ZM86.0106 50.7775H84.5676V44.9405H83.5536V50.2445H82.1366V39.4025H83.5536V43.7185H84.5676V39.1945H86.0106V50.7775ZM81.2396 40.5595C81.2526 43.7835 79.8096 46.7085 77.0016 48.6585L76.0656 47.6315C77.3396 46.7735 78.3666 45.6945 79.0036 44.4335L76.4426 44.7715L76.2216 43.5105L79.4976 43.2115C79.6146 42.7435 79.7056 42.2755 79.7316 41.7815H76.6896V40.5595H81.2396ZM96.9726 46.1235H95.4646V39.1945H96.9726V46.1235ZM89.1466 46.7215H96.9856V50.7905H95.4646V47.9305H89.1466V46.7215ZM94.2036 44.2385L94.3596 45.3955C93.3716 45.6555 91.1096 45.8115 89.5496 45.8115C89.0296 45.8115 88.5096 45.8115 87.9896 45.7985V42.2105H91.6816V41.1445H87.9506V39.9355H93.2026V43.3415H89.5106V44.5895C90.9276 44.6675 93.3066 44.4985 94.2036 44.2385ZM100.603 46.9555C101.981 46.9815 103.775 46.9685 105.088 46.6435L105.257 47.8005C104.061 48.0735 102.059 48.2035 100.213 48.1905L99.1077 48.1775V40.1955H104.425V41.4045H100.603V43.3675H103.931V44.5765H100.603V46.9555ZM108.221 50.7775H106.713V44.6285H104.776V43.3285H106.713V39.1945H108.221V50.7775Z" fill="#222222"/>
<path d="M210.563 44.1345C212.253 44.1345 213.956 44.0435 215.139 43.7835L215.308 44.9535C214.216 45.2005 212.318 45.3565 210.186 45.3565H209.055V40.0655H214.216V41.2745H210.563V44.1345ZM219.364 43.2505H217.726V45.9675H216.192V39.1945H217.726V42.0155H219.364V43.2505ZM217.869 48.4375C217.869 49.8415 216.413 50.7515 213.891 50.7515C211.395 50.7515 209.939 49.8415 209.939 48.4375C209.939 46.9945 211.395 46.0975 213.891 46.0975C216.413 46.0975 217.869 46.9945 217.869 48.4375ZM216.296 48.4375C216.296 47.7485 215.425 47.3195 213.891 47.3195C212.383 47.3195 211.499 47.7485 211.499 48.4375C211.499 49.1265 212.383 49.5425 213.891 49.5425C215.425 49.5425 216.296 49.1265 216.296 48.4375ZM230.391 49.3215H219.926V48.1385H222.552V45.7205H224.073V48.1385H226.205V45.7205H227.726V48.1385H230.391V49.3215ZM229.156 44.9665H221.213V40.0525H222.721V43.7705H229.156V44.9665ZM245.301 43.1985H243.65V45.9675H242.116V39.1945H243.65V41.9505H245.301V43.1985ZM241.401 44.2515L240.53 45.4345C239.633 45.0965 238.437 44.1605 237.93 43.0945C237.579 44.2775 236.331 45.3565 235.252 45.7335L234.329 44.5245C236.019 43.9265 237.137 42.5485 237.137 40.8065V39.7145H238.697V40.7155C238.697 42.5095 240.036 43.8095 241.401 44.2515ZM243.78 48.4375C243.78 49.8545 242.324 50.7775 239.802 50.7775C237.306 50.7775 235.85 49.8545 235.85 48.4375C235.85 46.9815 237.306 46.0845 239.802 46.0845C242.324 46.0845 243.78 46.9815 243.78 48.4375ZM239.802 47.2935C238.294 47.2935 237.41 47.7355 237.41 48.4375C237.41 49.1265 238.294 49.5555 239.802 49.5555C241.336 49.5555 242.233 49.1265 242.233 48.4375C242.233 47.7355 241.336 47.2935 239.802 47.2935ZM255.496 48.4505C255.496 49.8675 254.04 50.7645 251.505 50.7645C249.009 50.7645 247.566 49.8675 247.566 48.4505C247.566 47.0075 249.009 46.1365 251.505 46.1365C254.04 46.1365 255.496 47.0075 255.496 48.4505ZM246.357 41.2095V40.0005H252.467V41.2095H250.244C250.387 42.8475 251.557 43.9265 252.844 44.3425L251.999 45.5515C251.115 45.2005 249.984 44.3425 249.477 43.2765C249.139 44.4075 247.904 45.4995 246.773 45.8765L245.889 44.6935C247.488 44.1085 248.593 42.8735 248.671 41.2095H246.357ZM255.418 46.0845H253.897V39.1945H255.418V46.0845ZM251.505 47.3455C250.01 47.3455 249.113 47.7615 249.113 48.4505C249.113 49.1525 250.01 49.5425 251.505 49.5425C253.065 49.5425 253.923 49.1525 253.923 48.4505C253.923 47.7615 253.065 47.3455 251.505 47.3455ZM270.354 50.7775H268.911V44.9405H267.897V50.2445H266.48V39.4025H267.897V43.7185H268.911V39.1945H270.354V50.7775ZM265.583 40.5595C265.596 43.7835 264.153 46.7085 261.345 48.6585L260.409 47.6315C261.683 46.7735 262.71 45.6945 263.347 44.4335L260.786 44.7715L260.565 43.5105L263.841 43.2115C263.958 42.7435 264.049 42.2755 264.075 41.7815H261.033V40.5595H265.583ZM281.316 46.1235H279.808V39.1945H281.316V46.1235ZM273.49 46.7215H281.329V50.7905H279.808V47.9305H273.49V46.7215ZM278.547 44.2385L278.703 45.3955C277.715 45.6555 275.453 45.8115 273.893 45.8115C273.373 45.8115 272.853 45.8115 272.333 45.7985V42.2105H276.025V41.1445H272.294V39.9355H277.546V43.3415H273.854V44.5895C275.271 44.6675 277.65 44.4985 278.547 44.2385ZM284.946 46.9555C286.324 46.9815 288.118 46.9685 289.431 46.6435L289.6 47.8005C288.404 48.0735 286.402 48.2035 284.556 48.1905L283.451 48.1775V40.1955H288.768V41.4045H284.946V43.3675H288.274V44.5765H284.946V46.9555ZM292.564 50.7775H291.056V44.6285H289.119V43.3285H291.056V39.1945H292.564V50.7775Z" fill="#222222"/>
<path d="M407.397 49.1525H396.932V47.9435H400.689V44.0435H402.21V47.9435H407.397V49.1525ZM406.201 40.2085C406.253 43.1205 406.11 45.2395 405.707 46.7735L404.251 46.5915C404.615 45.2525 404.706 43.0295 404.667 41.4305H398.05V40.2085H406.201ZM417.748 45.7985H416.24V44.7975H414.693V43.6535H416.24V42.7695H414.706V41.6385H416.24V39.1945H417.748V45.7985ZM414.381 42.1845H408.258V41.0405H414.381V42.1845ZM409.792 40.5075V39.3635H412.977V40.5075H409.792ZM418.099 50.7515H409.922V47.9955H416.24V47.4495H409.922V46.3185H417.748V49.0355H411.469V49.6075H418.099V50.7515ZM414.16 44.2125C414.16 45.2785 412.977 45.9935 411.43 45.9935C409.896 45.9935 408.7 45.2785 408.7 44.2125C408.7 43.1595 409.883 42.4315 411.43 42.4315C412.977 42.4315 414.16 43.1595 414.16 44.2125ZM410.182 44.2125C410.182 44.6285 410.754 44.9145 411.43 44.9145C412.106 44.9145 412.678 44.6285 412.678 44.2125C412.678 43.8095 412.106 43.5235 411.43 43.5235C410.741 43.5235 410.182 43.8095 410.182 44.2125ZM430.127 43.0165H428.489V45.4345H426.942V39.1945H428.489V41.7685H430.127V43.0165ZM428.489 50.6345H420.975V46.0455H422.483V47.1765H426.968V46.0195H428.489V50.6345ZM426.968 49.4255V48.3595H422.483V49.4255H426.968ZM419.48 42.4835C419.48 40.8975 420.806 39.7405 422.47 39.7405C424.147 39.7405 425.473 40.8715 425.473 42.4835C425.473 44.1215 424.173 45.1355 422.47 45.1355C420.819 45.1355 419.48 44.1215 419.48 42.4835ZM420.962 42.4835C420.962 43.3675 421.573 43.9785 422.47 43.9785C423.38 43.9785 424.017 43.3545 424.017 42.4835C424.017 41.6385 423.419 40.9885 422.47 40.9885C421.56 40.9885 420.962 41.6645 420.962 42.4835ZM444.803 43.1985H443.152V45.9675H441.618V39.1945H443.152V41.9505H444.803V43.1985ZM440.903 44.2515L440.032 45.4345C439.135 45.0965 437.939 44.1605 437.432 43.0945C437.081 44.2775 435.833 45.3565 434.754 45.7335L433.831 44.5245C435.521 43.9265 436.639 42.5485 436.639 40.8065V39.7145H438.199V40.7155C438.199 42.5095 439.538 43.8095 440.903 44.2515ZM443.282 48.4375C443.282 49.8545 441.826 50.7775 439.304 50.7775C436.808 50.7775 435.352 49.8545 435.352 48.4375C435.352 46.9815 436.808 46.0845 439.304 46.0845C441.826 46.0845 443.282 46.9815 443.282 48.4375ZM439.304 47.2935C437.796 47.2935 436.912 47.7355 436.912 48.4375C436.912 49.1265 437.796 49.5555 439.304 49.5555C440.838 49.5555 441.735 49.1265 441.735 48.4375C441.735 47.7355 440.838 47.2935 439.304 47.2935ZM454.998 48.4505C454.998 49.8675 453.542 50.7645 451.007 50.7645C448.511 50.7645 447.068 49.8675 447.068 48.4505C447.068 47.0075 448.511 46.1365 451.007 46.1365C453.542 46.1365 454.998 47.0075 454.998 48.4505ZM445.859 41.2095V40.0005H451.969V41.2095H449.746C449.889 42.8475 451.059 43.9265 452.346 44.3425L451.501 45.5515C450.617 45.2005 449.486 44.3425 448.979 43.2765C448.641 44.4075 447.406 45.4995 446.275 45.8765L445.391 44.6935C446.99 44.1085 448.095 42.8735 448.173 41.2095H445.859ZM454.92 46.0845H453.399V39.1945H454.92V46.0845ZM451.007 47.3455C449.512 47.3455 448.615 47.7615 448.615 48.4505C448.615 49.1525 449.512 49.5425 451.007 49.5425C452.567 49.5425 453.425 49.1525 453.425 48.4505C453.425 47.7615 452.567 47.3455 451.007 47.3455ZM469.856 50.7775H468.413V44.9405H467.399V50.2445H465.982V39.4025H467.399V43.7185H468.413V39.1945H469.856V50.7775ZM465.085 40.5595C465.098 43.7835 463.655 46.7085 460.847 48.6585L459.911 47.6315C461.185 46.7735 462.212 45.6945 462.849 44.4335L460.288 44.7715L460.067 43.5105L463.343 43.2115C463.46 42.7435 463.551 42.2755 463.577 41.7815H460.535V40.5595H465.085ZM480.818 46.1235H479.31V39.1945H480.818V46.1235ZM472.992 46.7215H480.831V50.7905H479.31V47.9305H472.992V46.7215ZM478.049 44.2385L478.205 45.3955C477.217 45.6555 474.955 45.8115 473.395 45.8115C472.875 45.8115 472.355 45.8115 471.835 45.7985V42.2105H475.527V41.1445H471.796V39.9355H477.048V43.3415H473.356V44.5895C474.773 44.6675 477.152 44.4985 478.049 44.2385ZM484.448 46.9555C485.826 46.9815 487.62 46.9685 488.933 46.6435L489.102 47.8005C487.906 48.0735 485.904 48.2035 484.058 48.1905L482.953 48.1775V40.1955H488.27V41.4045H484.448V43.3675H487.776V44.5765H484.448V46.9555ZM492.066 50.7775H490.558V44.6285H488.621V43.3285H490.558V39.1945H492.066V50.7775Z" fill="#222222"/>
<path d="M567.84 44.1345C567.84 41.6905 568.945 39.9875 570.83 39.9875C572.546 39.9875 573.599 41.3785 573.781 43.4455H575.822V39.1945H577.343V50.7775H575.822V44.7325H573.794C573.625 46.8255 572.559 48.2555 570.83 48.2555C568.945 48.2555 567.84 46.5655 567.84 44.1345ZM572.364 44.1345C572.364 42.3015 571.727 41.2095 570.83 41.2095C569.959 41.2095 569.322 42.3015 569.322 44.1345C569.322 45.9545 569.959 47.0335 570.83 47.0335C571.727 47.0335 572.364 45.9545 572.364 44.1345ZM589.475 45.4865H579.01V44.2645H589.475V45.4865ZM588.5 50.7255H580.297V47.8785H586.641V47.3325H580.271V46.1365H588.149V48.9445H581.818V49.4775H588.5V50.7255ZM588.396 43.7185H580.05V42.5225H581.662L581.428 41.1835L582.91 40.9755L583.092 42.5225H585.367L585.614 40.9755L587.083 41.1835L586.784 42.5225H588.396V43.7185ZM588.422 40.6505H580.011V39.4545H588.422V40.6505ZM603.514 50.7775H602.071V44.9795H600.953V50.2445H599.536V39.4025H600.953V43.7575H602.071V39.1945H603.514V50.7775ZM599.068 47.3715C598.457 47.5535 596.598 47.7095 595.22 47.7095H594.18V40.5465H595.675V46.4485C596.806 46.4485 598.158 46.3575 598.873 46.1495C598.925 46.5655 599.003 46.9555 599.068 47.3715ZM618.268 50.6865H610.299V47.5925H616.396V46.8515H610.221V45.6425H617.904V48.7105H611.833V49.4645H618.268V50.6865ZM608.856 41.0275V39.8185H614.966V41.0275H612.782C612.99 42.4965 614.108 43.3675 615.304 43.7445L614.472 44.9275C613.601 44.6155 612.496 43.7055 611.976 42.7045C611.625 43.8485 610.429 44.8625 609.311 45.2525L608.401 44.0955C609.909 43.5365 610.975 42.5355 611.157 41.0275H608.856ZM617.904 45.0575H616.396V39.1945H617.904V45.0575ZM626.591 45.9675L626.682 47.0855C624.641 47.3715 621.196 47.5015 619.584 47.5015C619.519 47.0855 619.454 46.6955 619.376 46.2795C620.325 46.2795 621.326 46.2795 622.301 46.2535V45.6425C621.131 45.4605 620.338 44.8755 620.338 44.0955C620.338 43.0945 621.482 42.4055 623.081 42.4055C624.68 42.4055 625.824 43.0945 625.824 44.0955C625.824 44.8885 625.018 45.4735 623.822 45.6425V46.2015C624.797 46.1625 625.746 46.0845 626.591 45.9675ZM628.762 39.1945V43.1075H630.192V44.3685H628.762V48.1905H627.241V39.1945H628.762ZM629.009 50.6085H621.014V47.9435H622.535V49.4255H629.009V50.6085ZM626.344 42.1975H619.831V41.0795H626.344V42.1975ZM621.482 40.6505V39.5195H624.758V40.6505H621.482ZM624.329 44.0955C624.329 43.7445 623.9 43.4715 623.081 43.4715C622.275 43.4715 621.833 43.7445 621.833 44.0955C621.833 44.3945 622.275 44.6935 623.081 44.6935C623.9 44.6935 624.329 44.3945 624.329 44.0955ZM638.073 46.8385L637.228 48.0215C636.201 47.5015 634.784 46.0325 634.433 44.9145C634.16 46.0845 632.99 47.6315 631.638 48.2945L630.728 47.1635C632.678 46.1235 633.627 44.3295 633.627 41.8985V41.5865H631.313V40.3775H637.462V41.5865H635.226V41.8855C635.226 44.3295 636.331 45.9415 638.073 46.8385ZM640.413 50.7775H638.892V39.1945H640.413V50.7775ZM651.661 46.0195H650.14V39.2075H651.661V46.0195ZM643.822 46.5785H651.674V50.7905H650.14V47.7875H643.822V46.5785ZM649.152 44.2125L648.281 45.3825C647.397 45.0575 646.188 44.1215 645.681 43.0555C645.343 44.2385 644.082 45.3175 643.003 45.6945L642.08 44.4855C643.77 43.8745 644.888 42.5095 644.888 40.7545V39.7535H646.461V40.6765C646.461 42.4835 647.787 43.7705 649.152 44.2125ZM653.731 41.3655V40.1175H659.841V41.3655H657.618C657.644 43.1335 658.866 44.4205 660.192 44.8495L659.36 46.0455C658.476 45.7205 657.345 44.7585 656.851 43.6925C656.5 44.8235 655.278 45.9805 654.16 46.3705L653.263 45.1745C654.94 44.5635 656.058 43.1595 656.058 41.4045V41.3655H653.731ZM662.909 47.5925H661.388V43.4975H659.646V42.2755H661.388V39.1945H662.909V47.5925ZM663.156 50.4655H655.161V46.8125H656.695V49.2695H663.156V50.4655ZM675.276 42.7435H673.625V45.0185H672.091V39.1945H673.625V41.4955H675.276V42.7435ZM673.963 50.6865H666.072V47.5795H672.091V46.7735H665.981V45.5775H673.625V48.6845H667.58V49.4645H673.963V50.6865ZM666.462 43.5365C668.165 43.5235 669.79 43.4455 670.986 43.1725C671.051 43.5625 671.116 43.9655 671.194 44.3425C670.102 44.6155 668.23 44.7455 666.085 44.7455H664.954V39.8315H670.115V41.0405H666.462V43.5365ZM689.094 50.7775H687.651V44.9405H686.637V50.2445H685.22V39.4025H686.637V43.7185H687.651V39.1945H689.094V50.7775ZM684.323 40.5595C684.336 43.7835 682.893 46.7085 680.085 48.6585L679.149 47.6315C680.423 46.7735 681.45 45.6945 682.087 44.4335L679.526 44.7715L679.305 43.5105L682.581 43.2115C682.698 42.7435 682.789 42.2755 682.815 41.7815H679.773V40.5595H684.323ZM700.056 46.1235H698.548V39.1945H700.056V46.1235ZM692.23 46.7215H700.069V50.7905H698.548V47.9305H692.23V46.7215ZM697.287 44.2385L697.443 45.3955C696.455 45.6555 694.193 45.8115 692.633 45.8115C692.113 45.8115 691.593 45.8115 691.073 45.7985V42.2105H694.765V41.1445H691.034V39.9355H696.286V43.3415H692.594V44.5895C694.011 44.6675 696.39 44.4985 697.287 44.2385ZM703.686 46.9555C705.064 46.9815 706.858 46.9685 708.171 46.6435L708.34 47.8005C707.144 48.0735 705.142 48.2035 703.296 48.1905L702.191 48.1775V40.1955H707.508V41.4045H703.686V43.3675H707.014V44.5765H703.686V46.9555ZM711.304 50.7775H709.796V44.6285H707.859V43.3285H709.796V39.1945H711.304V50.7775Z" fill="#222222"/>
</svg>
