<svg width="93" height="85" viewBox="0 0 93 85" fill="none" xmlns="http://www.w3.org/2000/svg">
<g clip-path="url(#clip0_153_150)">
<path d="M70.6643 35.4222C58.7152 32.2745 46.4704 39.4132 43.3227 51.3623C40.1749 63.3114 47.3136 75.5563 59.2628 78.704C71.2119 81.8517 83.4567 74.713 86.6044 62.7639C89.7522 50.8148 82.6196 38.5715 70.6643 35.4222ZM62.4557 66.5831C57.1988 65.1983 54.0587 59.8122 55.4435 54.5553C56.8283 49.2984 62.2145 46.1583 67.4714 47.5431C72.7282 48.9279 75.8684 54.3141 74.4836 59.5709C73.0988 64.8278 67.7126 67.9679 62.4557 66.5831Z" fill="#3050D6"/>
<path d="M64.6237 45.0547C65.8365 45.3742 67.1402 44.4166 67.5355 42.9158C67.9309 41.4151 67.2682 39.9395 66.0554 39.62C64.8426 39.3005 63.5389 40.2581 63.1435 41.7589C62.7482 43.2597 63.4109 44.7353 64.6237 45.0547Z" fill="#F9F8F4"/>
<mask id="mask0_153_150" style="mask-type:luminance" maskUnits="userSpaceOnUse" x="63" y="39" width="5" height="7">
<path d="M64.6237 45.0547C65.8365 45.3742 67.1402 44.4166 67.5355 42.9158C67.9309 41.4151 67.2682 39.9395 66.0554 39.62C64.8426 39.3005 63.5389 40.2581 63.1435 41.7589C62.7482 43.2597 63.4109 44.7353 64.6237 45.0547Z" fill="white"/>
</mask>
<g mask="url(#mask0_153_150)">
<path d="M67.8198 41.81C67.7166 42.5504 66.6726 43.2265 65.7771 42.9906C64.8815 42.7547 64.3467 41.8463 64.581 40.9569C64.8154 40.0674 65.7554 39.4623 66.6238 39.7763C67.7066 40.1731 67.9482 40.8993 67.8198 41.81Z" fill="#333132"/>
</g>
<path d="M71.1755 46.7803C72.3883 47.0998 73.6919 46.1422 74.0873 44.6414C74.4826 43.1407 73.8199 41.6651 72.6071 41.3456C71.3943 41.0261 70.0906 41.9837 69.6953 43.4845C69.3 44.9852 69.9626 46.4608 71.1755 46.7803Z" fill="#F9F8F4"/>
<mask id="mask1_153_150" style="mask-type:luminance" maskUnits="userSpaceOnUse" x="69" y="41" width="6" height="6">
<path d="M71.1755 46.7803C72.3883 47.0998 73.6919 46.1422 74.0873 44.6414C74.4826 43.1407 73.8199 41.6651 72.6071 41.3456C71.3943 41.0261 70.0906 41.9837 69.6953 43.4845C69.3 44.9852 69.9626 46.4608 71.1755 46.7803Z" fill="white"/>
</mask>
<g mask="url(#mask1_153_150)">
<path d="M74.3716 43.5356C74.2684 44.2759 73.2244 44.9521 72.3288 44.7162C71.4333 44.4802 70.8985 43.5719 71.1328 42.6825C71.3671 41.793 72.3071 41.1879 73.1756 41.5019C74.2583 41.8987 74.5 42.6249 74.3716 43.5356Z" fill="#333132"/>
</g>
</g>
<g clip-path="url(#clip1_153_150)">
<path d="M28.6708 6.90598L2.4541 14.6755L6.13578 27.0986L32.3525 19.329L28.6708 6.90598Z" fill="#1AA36F"/>
<path d="M27.5 28.2699L19.7305 2.05322L7.30745 5.7349L15.077 31.9516L27.5 28.2699Z" fill="#1AA36F"/>
<path d="M15.1235 17.0014C15.9636 16.7524 16.385 15.6744 16.0647 14.5936C15.7444 13.5128 14.8037 12.8385 13.9636 13.0875C13.1234 13.3365 12.702 14.4145 13.0223 15.4953C13.3426 16.5761 14.2834 17.2504 15.1235 17.0014Z" fill="#F9F8F4"/>
<mask id="mask2_153_150" style="mask-type:luminance" maskUnits="userSpaceOnUse" x="12" y="13" width="5" height="5">
<path d="M15.1235 17.0014C15.9636 16.7524 16.385 15.6744 16.0647 14.5936C15.7444 13.5128 14.8037 12.8385 13.9636 13.0875C13.1234 13.3365 12.702 14.4145 13.0223 15.4953C13.3426 16.5761 14.2834 17.2504 15.1235 17.0014Z" fill="white"/>
</mask>
<g mask="url(#mask2_153_150)">
<path d="M15.8206 13.7997C16.0326 14.2971 15.6603 15.1055 15.0423 15.2887C14.4243 15.4718 13.7674 15.102 13.5784 14.4642C13.3894 13.8264 13.7211 13.0989 14.3567 12.9752C15.1475 12.8227 15.5615 13.187 15.8206 13.7997Z" fill="#333132"/>
</g>
<path d="M19.3188 15.7582C20.1589 15.5093 20.5803 14.4313 20.26 13.3505C19.9397 12.2697 18.999 11.5954 18.1589 11.8443C17.3188 12.0933 16.8974 13.1713 17.2177 14.2521C17.538 15.3329 18.4787 16.0072 19.3188 15.7582Z" fill="#F9F8F4"/>
<mask id="mask3_153_150" style="mask-type:luminance" maskUnits="userSpaceOnUse" x="17" y="11" width="4" height="5">
<path d="M19.3188 15.7582C20.1589 15.5093 20.5803 14.4313 20.26 13.3505C19.9397 12.2697 18.999 11.5954 18.1589 11.8443C17.3188 12.0933 16.8974 13.1713 17.2177 14.2521C17.538 15.3329 18.4787 16.0072 19.3188 15.7582Z" fill="white"/>
</mask>
<g mask="url(#mask3_153_150)">
<path d="M20.0159 12.5565C20.228 13.0539 19.8556 13.8624 19.2376 14.0455C18.6197 14.2286 17.9628 13.8588 17.7737 13.221C17.5847 12.5832 17.9164 11.8558 18.552 11.732C19.3428 11.5795 19.7568 11.9438 20.0159 12.5565Z" fill="#333132"/>
</g>
</g>
<defs>
<clipPath id="clip0_153_150">
<rect width="44.7583" height="44.7583" fill="white" transform="translate(49.0234 29.7214) rotate(14.758)"/>
</clipPath>
<clipPath id="clip1_153_150">
<rect width="27.3437" height="27.3437" fill="white" transform="translate(0.410156 7.77881) rotate(-16.5077)"/>
</clipPath>
</defs>
</svg>
