<svg width="1198" height="815" viewBox="0 0 1198 815" fill="none" xmlns="http://www.w3.org/2000/svg">
<mask id="mask0_174_130" style="mask-type:alpha" maskUnits="userSpaceOnUse" x="0" y="0" width="1198" height="815">
<rect x="0.106445" y="0.675049" width="1197.89" height="814.098" fill="#D9D9D9"/>
</mask>
<g mask="url(#mask0_174_130)">
<path fill-rule="evenodd" clip-rule="evenodd" d="M960.871 299.288C949.273 299.288 939.871 289.886 939.871 278.288V42.9837C939.871 31.3857 930.468 21.9837 918.87 21.9837L598.998 21.9836C587.4 21.9836 577.998 31.3856 577.998 42.9836V278.288C577.998 289.886 568.596 299.288 556.998 299.288H302.715C291.117 299.288 281.715 308.69 281.715 320.288V640.16C281.715 651.758 291.117 661.16 302.715 661.16H556.998C568.596 661.16 577.998 670.562 577.998 682.16V917.465C577.998 929.063 587.4 938.465 598.998 938.465H918.87C930.468 938.465 939.87 929.063 939.87 917.465V682.16C939.87 670.562 949.272 661.16 960.87 661.16H1196.17C1207.77 661.16 1217.17 651.758 1217.17 640.16V320.288C1217.17 308.69 1207.77 299.288 1196.17 299.288H960.871Z" fill="#0F815E"/>
</g>
</svg>
