<svg width="108" height="154" viewBox="0 0 108 154" fill="none" xmlns="http://www.w3.org/2000/svg">
<g clip-path="url(#clip0_153_116)">
<path d="M62.6856 34.6499L56.0884 16.9435L50.4366 26.7327L27.5136 18.1815L32.865 43.6484L6.33308 63.3441L31.704 66.9489L42.4555 89.2984L52.9492 76.4574L63.2503 81.1716L64.7603 72.2473L87.7534 73.6617L71.7081 54.8789L86.8361 28.4328L62.6856 34.6499Z" fill="#E5283F"/>
<path d="M37.9409 58.4118C40.1778 59.7033 43.3182 58.4519 44.9551 55.6167C46.592 52.7815 46.1056 49.4361 43.8687 48.1446C41.6317 46.8531 38.4914 48.1046 36.8545 50.9398C35.2175 53.775 35.704 57.1204 37.9409 58.4118Z" fill="#F9F8F4"/>
<mask id="mask0_153_116" style="mask-type:luminance" maskUnits="userSpaceOnUse" x="35" y="47" width="11" height="12">
<path d="M37.9409 58.4118C40.1778 59.7033 43.3182 58.4519 44.9551 55.6167C46.592 52.7815 46.1056 49.4361 43.8687 48.1446C41.6317 46.8531 38.4914 48.1046 36.8545 50.9398C35.2175 53.775 35.704 57.1204 37.9409 58.4118Z" fill="white"/>
</mask>
<g mask="url(#mask0_153_116)">
<path d="M46.1502 53.5218C45.5284 54.9641 43.0587 55.7829 41.4132 54.8329C39.7678 53.8829 39.2142 51.7481 40.1802 50.075C41.1461 48.4019 43.3617 47.6581 44.9171 48.764C46.8494 50.1428 46.9203 51.7495 46.1502 53.5218Z" fill="#333132"/>
</g>
<path d="M49.1108 64.8608C51.3477 66.1523 54.4881 64.9009 56.125 62.0657C57.7619 59.2304 57.2755 55.8851 55.0386 54.5936C52.8017 53.3021 49.6613 54.5535 48.0244 57.3887C46.3875 60.224 46.8739 63.5693 49.1108 64.8608Z" fill="#F9F8F4"/>
<mask id="mask1_153_116" style="mask-type:luminance" maskUnits="userSpaceOnUse" x="47" y="54" width="11" height="12">
<path d="M49.1108 64.8608C51.3477 66.1523 54.4881 64.9009 56.125 62.0657C57.7619 59.2304 57.2755 55.8851 55.0386 54.5936C52.8017 53.3021 49.6613 54.5535 48.0244 57.3887C46.3875 60.224 46.8739 63.5693 49.1108 64.8608Z" fill="white"/>
</mask>
<g mask="url(#mask1_153_116)">
<path d="M57.3201 59.9708C56.6983 61.4131 54.2286 62.2319 52.5831 61.2819C50.9377 60.3319 50.3841 58.1971 51.3501 56.524C52.316 54.8509 54.5316 54.1071 56.087 55.213C58.0193 56.5918 58.0902 58.1985 57.3201 59.9708Z" fill="#333132"/>
</g>
</g>
<g clip-path="url(#clip1_153_116)">
<path d="M94.7964 134.318L68.0947 128.427L65.3034 141.08L92.005 146.971L94.7964 134.318Z" fill="#1AA36F"/>
<path d="M83.4315 152.446L89.3223 125.744L76.6694 122.953L70.7787 149.654L83.4315 152.446Z" fill="#1AA36F"/>
<path d="M78.0556 136.595C78.9113 136.784 79.8018 136.044 80.0447 134.944C80.2875 133.843 79.7907 132.797 78.9351 132.609C78.0794 132.42 77.1889 133.159 76.946 134.26C76.7032 135.361 77.2 136.406 78.0556 136.595Z" fill="#F9F8F4"/>
<mask id="mask2_153_116" style="mask-type:luminance" maskUnits="userSpaceOnUse" x="76" y="132" width="5" height="5">
<path d="M78.0556 136.595C78.9113 136.784 79.8018 136.044 80.0447 134.944C80.2875 133.843 79.7907 132.797 78.9351 132.609C78.0794 132.42 77.1889 133.159 76.946 134.26C76.7032 135.361 77.2 136.406 78.0556 136.595Z" fill="white"/>
</mask>
<g mask="url(#mask2_153_116)">
<path d="M80.2152 134.131C80.16 134.669 79.4429 135.196 78.8134 135.057C78.184 134.918 77.7882 134.277 77.9315 133.627C78.0748 132.977 78.7172 132.501 79.3333 132.701C80.0991 132.95 80.285 133.469 80.2152 134.131Z" fill="#333132"/>
</g>
<path d="M82.3281 137.538C83.1838 137.726 84.0743 136.987 84.3171 135.886C84.56 134.785 84.0632 133.74 83.2075 133.551C82.3519 133.363 81.4613 134.102 81.2185 135.203C80.9756 136.303 81.4724 137.349 82.3281 137.538Z" fill="#F9F8F4"/>
<mask id="mask3_153_116" style="mask-type:luminance" maskUnits="userSpaceOnUse" x="81" y="133" width="4" height="5">
<path d="M82.3281 137.538C83.1838 137.726 84.0743 136.987 84.3171 135.886C84.56 134.785 84.0632 133.74 83.2075 133.551C82.3519 133.363 81.4613 134.102 81.2185 135.203C80.9756 136.303 81.4724 137.349 82.3281 137.538Z" fill="white"/>
</mask>
<g mask="url(#mask3_153_116)">
<path d="M84.4876 135.073C84.4324 135.611 83.7153 136.139 83.0859 136C82.4565 135.861 82.0607 135.219 82.204 134.57C82.3473 133.92 82.9897 133.444 83.6057 133.643C84.3715 133.893 84.5574 134.412 84.4876 135.073Z" fill="#333132"/>
</g>
</g>
<defs>
<clipPath id="clip0_153_116">
<rect width="79.9093" height="74.9014" fill="white" transform="translate(37.9053 0.182617) rotate(30)"/>
</clipPath>
<clipPath id="clip1_153_116">
<rect width="27.3437" height="27.3437" fill="white" transform="translate(69.6445 121.403) rotate(12.4409)"/>
</clipPath>
</defs>
</svg>
