<svg width="519" height="879" viewBox="0 0 519 879" fill="none" xmlns="http://www.w3.org/2000/svg">
<rect width="460" height="879" rx="47" fill="#ECF0EE"/>
<path d="M80.4443 61.5732C80.2734 60.8359 79.856 60.3208 79.1919 60.0278C78.8208 59.8667 78.4082 59.7861 77.9541 59.7861C77.085 59.7861 76.3696 60.1157 75.8081 60.7749C75.2515 61.4292 74.9731 62.4155 74.9731 63.7339C74.9731 65.062 75.2759 66.002 75.8813 66.5537C76.4868 67.1055 77.1753 67.3813 77.9468 67.3813C78.7036 67.3813 79.3237 67.1641 79.8071 66.7295C80.2905 66.29 80.5884 65.7163 80.7007 65.0083H78.2031V63.2065H82.7002V69H81.2061L80.979 67.6523C80.5444 68.165 80.1538 68.5264 79.8071 68.7363C79.2114 69.1025 78.479 69.2856 77.6099 69.2856C76.1792 69.2856 75.0073 68.79 74.0942 67.7988C73.1421 66.8027 72.666 65.4404 72.666 63.7119C72.666 61.9639 73.147 60.5625 74.1089 59.5078C75.0708 58.4531 76.3428 57.9258 77.9248 57.9258C79.2969 57.9258 80.3979 58.2749 81.228 58.9731C82.063 59.6665 82.5415 60.5332 82.6636 61.5732H80.4443ZM87.8418 62.5254C87.3584 62.5254 86.9824 62.6768 86.7139 62.9795C86.4502 63.2822 86.2842 63.6924 86.2158 64.21H89.4604C89.4263 63.6582 89.2578 63.2407 88.9551 62.9575C88.6572 62.6694 88.2861 62.5254 87.8418 62.5254ZM87.8418 60.8042C88.5059 60.8042 89.104 60.9287 89.6362 61.1777C90.1685 61.4268 90.6079 61.8198 90.9546 62.3569C91.2671 62.8306 91.4697 63.3799 91.5625 64.0049C91.6162 64.3711 91.6382 64.8984 91.6284 65.5869H86.1646C86.1938 66.3877 86.4453 66.9492 86.9189 67.2715C87.207 67.4717 87.5537 67.5718 87.959 67.5718C88.3887 67.5718 88.7378 67.4497 89.0063 67.2056C89.1528 67.0737 89.2822 66.8906 89.3945 66.6562H91.5259C91.4722 67.1299 91.2256 67.6108 90.7861 68.0991C90.1025 68.8755 89.1455 69.2637 87.915 69.2637C86.8994 69.2637 86.0034 68.9365 85.2271 68.2822C84.4507 67.6279 84.0625 66.5635 84.0625 65.0889C84.0625 63.707 84.4116 62.6475 85.1099 61.9102C85.813 61.1729 86.7236 60.8042 87.8418 60.8042ZM97.4658 60.8262C98.291 60.8262 98.9648 61.0435 99.4873 61.478C100.015 61.9077 100.278 62.623 100.278 63.624V69H98.1396V64.144C98.1396 63.7241 98.0835 63.4019 97.9712 63.1772C97.7661 62.7671 97.3755 62.562 96.7993 62.562C96.0913 62.562 95.6055 62.8623 95.3418 63.4629C95.2051 63.7803 95.1367 64.1855 95.1367 64.6787V69H93.0566V61.0312H95.0708V62.1958C95.3394 61.7856 95.5933 61.4902 95.8325 61.3096C96.2622 60.9873 96.8066 60.8262 97.4658 60.8262ZM105.361 62.5254C104.878 62.5254 104.502 62.6768 104.233 62.9795C103.97 63.2822 103.804 63.6924 103.735 64.21H106.98C106.946 63.6582 106.777 63.2407 106.475 62.9575C106.177 62.6694 105.806 62.5254 105.361 62.5254ZM105.361 60.8042C106.025 60.8042 106.624 60.9287 107.156 61.1777C107.688 61.4268 108.127 61.8198 108.474 62.3569C108.787 62.8306 108.989 63.3799 109.082 64.0049C109.136 64.3711 109.158 64.8984 109.148 65.5869H103.684C103.713 66.3877 103.965 66.9492 104.438 67.2715C104.727 67.4717 105.073 67.5718 105.479 67.5718C105.908 67.5718 106.257 67.4497 106.526 67.2056C106.672 67.0737 106.802 66.8906 106.914 66.6562H109.045C108.992 67.1299 108.745 67.6108 108.306 68.0991C107.622 68.8755 106.665 69.2637 105.435 69.2637C104.419 69.2637 103.523 68.9365 102.747 68.2822C101.97 67.6279 101.582 66.5635 101.582 65.0889C101.582 63.707 101.931 62.6475 102.629 61.9102C103.333 61.1729 104.243 60.8042 105.361 60.8042ZM114.897 60.8262C114.937 60.8262 114.968 60.8286 114.993 60.8335C115.022 60.8335 115.083 60.8359 115.176 60.8408V62.9795C115.044 62.9648 114.927 62.9551 114.824 62.9502C114.722 62.9453 114.639 62.9429 114.575 62.9429C113.735 62.9429 113.171 63.2163 112.883 63.7632C112.722 64.0708 112.642 64.5444 112.642 65.1841V69H110.54V61.0166H112.532V62.4082C112.854 61.876 113.135 61.5122 113.374 61.3169C113.765 60.9897 114.272 60.8262 114.897 60.8262ZM120.808 65.1182C120.676 65.2012 120.542 65.2695 120.405 65.3232C120.273 65.3721 120.09 65.4185 119.856 65.4624L119.387 65.5503C118.948 65.6284 118.633 65.7236 118.442 65.8359C118.12 66.0264 117.959 66.3218 117.959 66.7222C117.959 67.0786 118.057 67.3374 118.252 67.4985C118.452 67.6548 118.694 67.7329 118.977 67.7329C119.426 67.7329 119.839 67.6011 120.215 67.3374C120.596 67.0737 120.793 66.5928 120.808 65.8945V65.1182ZM119.541 64.144C119.927 64.0952 120.203 64.0342 120.369 63.9609C120.667 63.834 120.815 63.6362 120.815 63.3677C120.815 63.0405 120.701 62.8159 120.471 62.6938C120.247 62.5669 119.915 62.5034 119.475 62.5034C118.982 62.5034 118.633 62.6255 118.428 62.8696C118.281 63.0503 118.184 63.2944 118.135 63.6021H116.121C116.165 62.9038 116.36 62.3301 116.707 61.8809C117.258 61.1777 118.206 60.8262 119.548 60.8262C120.422 60.8262 121.199 60.9995 121.877 61.3462C122.556 61.6929 122.896 62.3472 122.896 63.3091V66.9712C122.896 67.2251 122.9 67.5327 122.91 67.894C122.925 68.1675 122.966 68.353 123.035 68.4507C123.103 68.5483 123.206 68.6289 123.342 68.6924V69H121.072C121.008 68.8389 120.964 68.6875 120.94 68.5459C120.916 68.4043 120.896 68.2432 120.881 68.0625C120.593 68.375 120.261 68.6411 119.885 68.8608C119.436 69.1196 118.928 69.249 118.362 69.249C117.639 69.249 117.041 69.0439 116.567 68.6338C116.099 68.2188 115.864 67.6328 115.864 66.876C115.864 65.8945 116.243 65.1841 117 64.7446C117.415 64.5054 118.025 64.3345 118.831 64.2319L119.541 64.144ZM126.887 69H124.8V58.2041H126.887V69Z" fill="#3F7665"/>
<path d="M65.9585 136.644H68.0088L71.7349 143.175V136.644H73.5566V146H71.6016L67.7803 139.354V146H65.9585V136.644ZM79.0537 142.636C78.9395 142.708 78.8231 142.767 78.7046 142.813C78.5903 142.856 78.4316 142.896 78.2285 142.934L77.8223 143.01C77.4414 143.078 77.1685 143.16 77.0034 143.258C76.7241 143.423 76.5845 143.679 76.5845 144.026C76.5845 144.335 76.6691 144.559 76.8384 144.699C77.0119 144.834 77.2214 144.902 77.4668 144.902C77.8561 144.902 78.2137 144.788 78.5396 144.559C78.8696 144.331 79.041 143.914 79.0537 143.309V142.636ZM77.9556 141.792C78.2899 141.749 78.529 141.696 78.6729 141.633C78.931 141.523 79.0601 141.351 79.0601 141.119C79.0601 140.835 78.9606 140.64 78.7617 140.535C78.5671 140.425 78.2793 140.37 77.8984 140.37C77.471 140.37 77.1685 140.475 76.9907 140.687C76.8638 140.844 76.7791 141.055 76.7368 141.322H74.9912C75.0293 140.717 75.1986 140.219 75.499 139.83C75.9772 139.221 76.7982 138.916 77.9619 138.916C78.7194 138.916 79.3923 139.066 79.9805 139.367C80.5687 139.667 80.8628 140.234 80.8628 141.068V144.242C80.8628 144.462 80.867 144.728 80.8755 145.042C80.8882 145.278 80.9242 145.439 80.9834 145.524C81.0426 145.609 81.1315 145.678 81.25 145.733V146H79.2822C79.2272 145.86 79.1891 145.729 79.168 145.606C79.1468 145.484 79.1299 145.344 79.1172 145.188C78.8675 145.458 78.5798 145.689 78.2539 145.879C77.8646 146.104 77.4245 146.216 76.9336 146.216C76.3073 146.216 75.7889 146.038 75.3784 145.683C74.9722 145.323 74.769 144.815 74.769 144.159C74.769 143.309 75.097 142.693 75.7529 142.312C76.1126 142.105 76.6416 141.957 77.3398 141.868L77.9556 141.792ZM86.7407 139.081H88.6831L86.1885 146H84.2778L81.7959 139.081H83.8271L85.2681 144.185L86.7407 139.081ZM91.5713 138.256H89.7368V136.586H91.5713V138.256ZM89.7368 139.081H91.5713V146H89.7368V139.081ZM96.3003 144.515C96.7235 144.515 97.0811 144.356 97.373 144.039C97.665 143.717 97.811 143.207 97.811 142.509C97.811 141.853 97.6714 141.354 97.3921 141.011C97.117 140.668 96.7467 140.497 96.2812 140.497C95.6465 140.497 95.2085 140.795 94.9673 141.392C94.8403 141.709 94.7769 142.1 94.7769 142.566C94.7769 142.968 94.8446 143.326 94.98 143.639C95.2254 144.223 95.6655 144.515 96.3003 144.515ZM95.8496 138.916C96.1966 138.916 96.4992 138.969 96.7573 139.075C97.1974 139.257 97.5529 139.591 97.8237 140.078V139.081H99.582V145.645C99.582 146.537 99.4318 147.21 99.1313 147.663C98.6151 148.442 97.6248 148.831 96.1606 148.831C95.2762 148.831 94.5547 148.658 93.9961 148.311C93.4375 147.964 93.1286 147.445 93.0693 146.755H95.0371C95.0879 146.967 95.1704 147.119 95.2847 147.212C95.4793 147.377 95.8073 147.46 96.2686 147.46C96.9202 147.46 97.3561 147.242 97.5762 146.806C97.7201 146.527 97.792 146.057 97.792 145.397V144.953C97.6185 145.249 97.4323 145.471 97.2334 145.619C96.8737 145.894 96.4061 146.032 95.8306 146.032C94.9419 146.032 94.231 145.721 93.6978 145.099C93.1688 144.472 92.9043 143.626 92.9043 142.56C92.9043 141.531 93.1603 140.668 93.6724 139.97C94.1844 139.267 94.9102 138.916 95.8496 138.916ZM105.092 142.636C104.978 142.708 104.861 142.767 104.743 142.813C104.628 142.856 104.47 142.896 104.267 142.934L103.86 143.01C103.479 143.078 103.207 143.16 103.042 143.258C102.762 143.423 102.623 143.679 102.623 144.026C102.623 144.335 102.707 144.559 102.876 144.699C103.05 144.834 103.259 144.902 103.505 144.902C103.894 144.902 104.252 144.788 104.578 144.559C104.908 144.331 105.079 143.914 105.092 143.309V142.636ZM103.994 141.792C104.328 141.749 104.567 141.696 104.711 141.633C104.969 141.523 105.098 141.351 105.098 141.119C105.098 140.835 104.999 140.64 104.8 140.535C104.605 140.425 104.317 140.37 103.937 140.37C103.509 140.37 103.207 140.475 103.029 140.687C102.902 140.844 102.817 141.055 102.775 141.322H101.029C101.067 140.717 101.237 140.219 101.537 139.83C102.015 139.221 102.836 138.916 104 138.916C104.757 138.916 105.43 139.066 106.019 139.367C106.607 139.667 106.901 140.234 106.901 141.068V144.242C106.901 144.462 106.905 144.728 106.914 145.042C106.926 145.278 106.962 145.439 107.021 145.524C107.081 145.609 107.17 145.678 107.288 145.733V146H105.32C105.265 145.86 105.227 145.729 105.206 145.606C105.185 145.484 105.168 145.344 105.155 145.188C104.906 145.458 104.618 145.689 104.292 145.879C103.903 146.104 103.463 146.216 102.972 146.216C102.345 146.216 101.827 146.038 101.417 145.683C101.01 145.323 100.807 144.815 100.807 144.159C100.807 143.309 101.135 142.693 101.791 142.312C102.151 142.105 102.68 141.957 103.378 141.868L103.994 141.792ZM107.802 140.433V139.145H108.767V137.215H110.557V139.145H111.681V140.433H110.557V144.089C110.557 144.373 110.593 144.551 110.665 144.623C110.737 144.69 110.957 144.724 111.325 144.724C111.38 144.724 111.437 144.724 111.497 144.724C111.56 144.72 111.621 144.716 111.681 144.711V146.063L110.824 146.095C109.969 146.125 109.385 145.977 109.072 145.651C108.869 145.444 108.767 145.124 108.767 144.692V140.433H107.802ZM114.702 138.256H112.868V136.586H114.702V138.256ZM112.868 139.081H114.702V146H112.868V139.081ZM119.564 144.724C120.093 144.724 120.5 144.536 120.783 144.159C121.067 143.783 121.208 143.247 121.208 142.553C121.208 141.859 121.067 141.326 120.783 140.954C120.5 140.577 120.093 140.389 119.564 140.389C119.035 140.389 118.627 140.577 118.339 140.954C118.056 141.326 117.914 141.859 117.914 142.553C117.914 143.247 118.056 143.783 118.339 144.159C118.627 144.536 119.035 144.724 119.564 144.724ZM123.106 142.553C123.106 143.569 122.814 144.438 122.23 145.162C121.646 145.882 120.76 146.241 119.571 146.241C118.382 146.241 117.495 145.882 116.911 145.162C116.327 144.438 116.035 143.569 116.035 142.553C116.035 141.555 116.327 140.689 116.911 139.957C117.495 139.225 118.382 138.859 119.571 138.859C120.76 138.859 121.646 139.225 122.23 139.957C122.814 140.689 123.106 141.555 123.106 142.553ZM128.242 138.916C128.957 138.916 129.541 139.104 129.994 139.481C130.451 139.853 130.679 140.473 130.679 141.341V146H128.826V141.792C128.826 141.428 128.777 141.148 128.68 140.954C128.502 140.598 128.163 140.42 127.664 140.42C127.05 140.42 126.629 140.681 126.401 141.201C126.282 141.476 126.223 141.827 126.223 142.255V146H124.42V139.094H126.166V140.103C126.399 139.748 126.619 139.492 126.826 139.335C127.199 139.056 127.67 138.916 128.242 138.916ZM139.712 138.929C140.622 138.929 141.333 139.257 141.845 139.913C142.361 140.569 142.619 141.415 142.619 142.452C142.619 143.527 142.365 144.417 141.857 145.124C141.35 145.831 140.641 146.184 139.731 146.184C139.16 146.184 138.701 146.07 138.354 145.841C138.146 145.706 137.922 145.469 137.681 145.13V146H135.91V136.656H137.712V139.982C137.941 139.661 138.193 139.415 138.468 139.246C138.794 139.035 139.208 138.929 139.712 138.929ZM139.249 144.692C139.714 144.692 140.076 144.504 140.334 144.127C140.592 143.751 140.721 143.256 140.721 142.642C140.721 142.151 140.658 141.745 140.531 141.423C140.29 140.814 139.845 140.509 139.198 140.509C138.542 140.509 138.091 140.808 137.846 141.404C137.719 141.722 137.655 142.132 137.655 142.636C137.655 143.228 137.786 143.719 138.049 144.108C138.311 144.498 138.711 144.692 139.249 144.692ZM147.735 142.636C147.621 142.708 147.505 142.767 147.386 142.813C147.272 142.856 147.113 142.896 146.91 142.934L146.504 143.01C146.123 143.078 145.85 143.16 145.685 143.258C145.406 143.423 145.266 143.679 145.266 144.026C145.266 144.335 145.351 144.559 145.52 144.699C145.694 144.834 145.903 144.902 146.148 144.902C146.538 144.902 146.895 144.788 147.221 144.559C147.551 144.331 147.723 143.914 147.735 143.309V142.636ZM146.637 141.792C146.972 141.749 147.211 141.696 147.354 141.633C147.613 141.523 147.742 141.351 147.742 141.119C147.742 140.835 147.642 140.64 147.443 140.535C147.249 140.425 146.961 140.37 146.58 140.37C146.153 140.37 145.85 140.475 145.672 140.687C145.545 140.844 145.461 141.055 145.418 141.322H143.673C143.711 140.717 143.88 140.219 144.181 139.83C144.659 139.221 145.48 138.916 146.644 138.916C147.401 138.916 148.074 139.066 148.662 139.367C149.25 139.667 149.544 140.234 149.544 141.068V144.242C149.544 144.462 149.549 144.728 149.557 145.042C149.57 145.278 149.606 145.439 149.665 145.524C149.724 145.609 149.813 145.678 149.932 145.733V146H147.964C147.909 145.86 147.871 145.729 147.85 145.606C147.828 145.484 147.812 145.344 147.799 145.188C147.549 145.458 147.261 145.689 146.936 145.879C146.546 146.104 146.106 146.216 145.615 146.216C144.989 146.216 144.471 146.038 144.06 145.683C143.654 145.323 143.451 144.815 143.451 144.159C143.451 143.309 143.779 142.693 144.435 142.312C144.794 142.105 145.323 141.957 146.021 141.868L146.637 141.792ZM154.915 138.916C154.948 138.916 154.976 138.918 154.997 138.922C155.022 138.922 155.075 138.924 155.156 138.929V140.782C155.042 140.77 154.94 140.761 154.851 140.757C154.762 140.753 154.69 140.75 154.635 140.75C153.907 140.75 153.419 140.987 153.169 141.461C153.029 141.728 152.959 142.139 152.959 142.693V146H151.138V139.081H152.864V140.287C153.144 139.826 153.387 139.511 153.594 139.341C153.933 139.058 154.373 138.916 154.915 138.916Z" fill="#84A399"/>
<path d="M72.7886 258.644V260.3H69.9893V268H68.0215V260.3H65.2095V258.644H72.7886ZM75.9307 266.724C76.4596 266.724 76.8659 266.536 77.1494 266.159C77.4329 265.783 77.5747 265.247 77.5747 264.553C77.5747 263.859 77.4329 263.326 77.1494 262.954C76.8659 262.577 76.4596 262.389 75.9307 262.389C75.4017 262.389 74.9933 262.577 74.7056 262.954C74.422 263.326 74.2803 263.859 74.2803 264.553C74.2803 265.247 74.422 265.783 74.7056 266.159C74.9933 266.536 75.4017 266.724 75.9307 266.724ZM79.4727 264.553C79.4727 265.569 79.1807 266.438 78.5967 267.162C78.0127 267.882 77.1261 268.241 75.937 268.241C74.7479 268.241 73.8613 267.882 73.2773 267.162C72.6934 266.438 72.4014 265.569 72.4014 264.553C72.4014 263.555 72.6934 262.689 73.2773 261.957C73.8613 261.225 74.7479 260.859 75.937 260.859C77.1261 260.859 78.0127 261.225 78.5967 261.957C79.1807 262.689 79.4727 263.555 79.4727 264.553ZM85.541 264.541C85.541 264.007 85.4183 263.535 85.1729 263.125C84.9316 262.715 84.5381 262.509 83.9922 262.509C83.3363 262.509 82.8856 262.82 82.6401 263.442C82.5132 263.772 82.4497 264.191 82.4497 264.699C82.4497 265.503 82.6634 266.068 83.0908 266.394C83.3447 266.584 83.6452 266.68 83.9922 266.68C84.4958 266.68 84.8787 266.485 85.1411 266.096C85.4077 265.706 85.541 265.188 85.541 264.541ZM84.5127 260.929C85.321 260.929 86.0044 261.227 86.563 261.824C87.1258 262.42 87.4072 263.296 87.4072 264.452C87.4072 265.67 87.1322 266.599 86.582 267.238C86.0361 267.877 85.3315 268.197 84.4683 268.197C83.9181 268.197 83.4611 268.059 83.0972 267.784C82.8983 267.632 82.7036 267.41 82.5132 267.118V270.723H80.7231V261.081H82.4561V262.103C82.6507 261.803 82.8581 261.566 83.0781 261.392C83.4801 261.083 83.9583 260.929 84.5127 260.929ZM96.1543 264.636C96.04 264.708 95.9237 264.767 95.8052 264.813C95.6909 264.856 95.5322 264.896 95.3291 264.934L94.9229 265.01C94.542 265.078 94.269 265.16 94.104 265.258C93.8247 265.423 93.6851 265.679 93.6851 266.026C93.6851 266.335 93.7697 266.559 93.939 266.699C94.1125 266.834 94.3219 266.902 94.5674 266.902C94.9567 266.902 95.3143 266.788 95.6401 266.559C95.9702 266.331 96.1416 265.914 96.1543 265.309V264.636ZM95.0562 263.792C95.3905 263.749 95.6296 263.696 95.7734 263.633C96.0316 263.523 96.1606 263.351 96.1606 263.119C96.1606 262.835 96.0612 262.64 95.8623 262.535C95.6676 262.425 95.3799 262.37 94.999 262.37C94.5716 262.37 94.269 262.475 94.0913 262.687C93.9644 262.844 93.8797 263.055 93.8374 263.322H92.0918C92.1299 262.717 92.2992 262.219 92.5996 261.83C93.0778 261.221 93.8988 260.916 95.0625 260.916C95.82 260.916 96.4928 261.066 97.0811 261.367C97.6693 261.667 97.9634 262.234 97.9634 263.068V266.242C97.9634 266.462 97.9676 266.728 97.9761 267.042C97.9888 267.278 98.0247 267.439 98.084 267.524C98.1432 267.609 98.2321 267.678 98.3506 267.733V268H96.3828C96.3278 267.86 96.2897 267.729 96.2686 267.606C96.2474 267.484 96.2305 267.344 96.2178 267.188C95.9681 267.458 95.6803 267.689 95.3545 267.879C94.9652 268.104 94.5251 268.216 94.0342 268.216C93.4079 268.216 92.8895 268.038 92.479 267.683C92.0728 267.323 91.8696 266.815 91.8696 266.159C91.8696 265.309 92.1976 264.693 92.8535 264.312C93.2132 264.105 93.7422 263.957 94.4404 263.868L95.0562 263.792ZM103.314 260.929C104.224 260.929 104.935 261.257 105.447 261.913C105.964 262.569 106.222 263.415 106.222 264.452C106.222 265.527 105.968 266.417 105.46 267.124C104.952 267.831 104.243 268.184 103.333 268.184C102.762 268.184 102.303 268.07 101.956 267.841C101.749 267.706 101.524 267.469 101.283 267.13V268H99.5122V258.656H101.315V261.982C101.543 261.661 101.795 261.415 102.07 261.246C102.396 261.035 102.811 260.929 103.314 260.929ZM102.851 266.692C103.317 266.692 103.678 266.504 103.937 266.127C104.195 265.751 104.324 265.256 104.324 264.642C104.324 264.151 104.26 263.745 104.133 263.423C103.892 262.814 103.448 262.509 102.8 262.509C102.144 262.509 101.694 262.808 101.448 263.404C101.321 263.722 101.258 264.132 101.258 264.636C101.258 265.228 101.389 265.719 101.651 266.108C101.914 266.498 102.314 266.692 102.851 266.692ZM111.262 260.929C112.172 260.929 112.882 261.257 113.395 261.913C113.911 262.569 114.169 263.415 114.169 264.452C114.169 265.527 113.915 266.417 113.407 267.124C112.899 267.831 112.191 268.184 111.281 268.184C110.709 268.184 110.25 268.07 109.903 267.841C109.696 267.706 109.472 267.469 109.23 267.13V268H107.459V258.656H109.262V261.982C109.491 261.661 109.743 261.415 110.018 261.246C110.343 261.035 110.758 260.929 111.262 260.929ZM110.798 266.692C111.264 266.692 111.626 266.504 111.884 266.127C112.142 265.751 112.271 265.256 112.271 264.642C112.271 264.151 112.208 263.745 112.081 263.423C111.839 262.814 111.395 262.509 110.748 262.509C110.092 262.509 109.641 262.808 109.396 263.404C109.269 263.722 109.205 264.132 109.205 264.636C109.205 265.228 109.336 265.719 109.599 266.108C109.861 266.498 110.261 266.692 110.798 266.692ZM122.827 260.929C123.737 260.929 124.448 261.257 124.96 261.913C125.476 262.569 125.734 263.415 125.734 264.452C125.734 265.527 125.48 266.417 124.973 267.124C124.465 267.831 123.756 268.184 122.846 268.184C122.275 268.184 121.816 268.07 121.469 267.841C121.261 267.706 121.037 267.469 120.796 267.13V268H119.025V258.656H120.828V261.982C121.056 261.661 121.308 261.415 121.583 261.246C121.909 261.035 122.324 260.929 122.827 260.929ZM122.364 266.692C122.829 266.692 123.191 266.504 123.449 266.127C123.707 265.751 123.836 265.256 123.836 264.642C123.836 264.151 123.773 263.745 123.646 263.423C123.405 262.814 122.96 262.509 122.313 262.509C121.657 262.509 121.206 262.808 120.961 263.404C120.834 263.722 120.771 264.132 120.771 264.636C120.771 265.228 120.902 265.719 121.164 266.108C121.426 266.498 121.826 266.692 122.364 266.692ZM130.851 264.636C130.736 264.708 130.62 264.767 130.501 264.813C130.387 264.856 130.229 264.896 130.025 264.934L129.619 265.01C129.238 265.078 128.965 265.16 128.8 265.258C128.521 265.423 128.381 265.679 128.381 266.026C128.381 266.335 128.466 266.559 128.635 266.699C128.809 266.834 129.018 266.902 129.264 266.902C129.653 266.902 130.011 266.788 130.336 266.559C130.667 266.331 130.838 265.914 130.851 265.309V264.636ZM129.752 263.792C130.087 263.749 130.326 263.696 130.47 263.633C130.728 263.523 130.857 263.351 130.857 263.119C130.857 262.835 130.757 262.64 130.559 262.535C130.364 262.425 130.076 262.37 129.695 262.37C129.268 262.37 128.965 262.475 128.788 262.687C128.661 262.844 128.576 263.055 128.534 263.322H126.788C126.826 262.717 126.995 262.219 127.296 261.83C127.774 261.221 128.595 260.916 129.759 260.916C130.516 260.916 131.189 261.066 131.777 261.367C132.366 261.667 132.66 262.234 132.66 263.068V266.242C132.66 266.462 132.664 266.728 132.672 267.042C132.685 267.278 132.721 267.439 132.78 267.524C132.84 267.609 132.928 267.678 133.047 267.733V268H131.079C131.024 267.86 130.986 267.729 130.965 267.606C130.944 267.484 130.927 267.344 130.914 267.188C130.664 267.458 130.377 267.689 130.051 267.879C129.661 268.104 129.221 268.216 128.73 268.216C128.104 268.216 127.586 268.038 127.175 267.683C126.769 267.323 126.566 266.815 126.566 266.159C126.566 265.309 126.894 264.693 127.55 264.312C127.91 264.105 128.438 263.957 129.137 263.868L129.752 263.792ZM138.03 260.916C138.064 260.916 138.091 260.918 138.112 260.922C138.138 260.922 138.191 260.924 138.271 260.929V262.782C138.157 262.77 138.055 262.761 137.966 262.757C137.877 262.753 137.806 262.75 137.75 262.75C137.023 262.75 136.534 262.987 136.284 263.461C136.145 263.728 136.075 264.139 136.075 264.693V268H134.253V261.081H135.979V262.287C136.259 261.826 136.502 261.511 136.709 261.341C137.048 261.058 137.488 260.916 138.03 260.916Z" fill="#84A399"/>
<path d="M72.1919 475.644H75.0039V485H73.1821V478.671C73.1821 478.489 73.1842 478.236 73.1885 477.91C73.1927 477.58 73.1948 477.326 73.1948 477.148L71.4238 485H69.5259L67.7676 477.148C67.7676 477.326 67.7697 477.58 67.7739 477.91C67.7782 478.236 67.7803 478.489 67.7803 478.671V485H65.9585V475.644H68.8022L70.5034 483L72.1919 475.644ZM80.4883 481.636C80.374 481.708 80.2576 481.767 80.1392 481.813C80.0249 481.856 79.8662 481.896 79.6631 481.934L79.2568 482.01C78.876 482.078 78.603 482.16 78.438 482.258C78.1587 482.423 78.019 482.679 78.019 483.026C78.019 483.335 78.1037 483.559 78.2729 483.699C78.4465 483.834 78.6559 483.902 78.9014 483.902C79.2907 483.902 79.6483 483.788 79.9741 483.559C80.3042 483.331 80.4756 482.914 80.4883 482.309V481.636ZM79.3901 480.792C79.7244 480.749 79.9635 480.696 80.1074 480.633C80.3656 480.523 80.4946 480.351 80.4946 480.119C80.4946 479.835 80.3952 479.64 80.1963 479.535C80.0016 479.425 79.7139 479.37 79.333 479.37C78.9056 479.37 78.603 479.475 78.4253 479.687C78.2983 479.844 78.2137 480.055 78.1714 480.322H76.4258C76.4639 479.717 76.6331 479.219 76.9336 478.83C77.4118 478.221 78.2327 477.916 79.3965 477.916C80.154 477.916 80.8268 478.066 81.415 478.367C82.0033 478.667 82.2974 479.234 82.2974 480.068V483.242C82.2974 483.462 82.3016 483.728 82.3101 484.042C82.3228 484.278 82.3587 484.439 82.418 484.524C82.4772 484.609 82.5661 484.678 82.6846 484.733V485H80.7168C80.6618 484.86 80.6237 484.729 80.6025 484.606C80.5814 484.484 80.5645 484.344 80.5518 484.188C80.3021 484.458 80.0143 484.689 79.6885 484.879C79.2992 485.104 78.859 485.216 78.3682 485.216C77.7419 485.216 77.2235 485.038 76.813 484.683C76.4067 484.323 76.2036 483.815 76.2036 483.159C76.2036 482.309 76.5316 481.693 77.1875 481.312C77.5472 481.105 78.0762 480.957 78.7744 480.868L79.3901 480.792ZM85.7695 477.256H83.9351V475.586H85.7695V477.256ZM83.9351 478.081H85.7695V485H83.9351V478.081ZM91.3618 477.916C92.077 477.916 92.661 478.104 93.1138 478.481C93.5708 478.853 93.7993 479.473 93.7993 480.341V485H91.9458V480.792C91.9458 480.428 91.8971 480.148 91.7998 479.954C91.6221 479.598 91.2835 479.42 90.7842 479.42C90.1706 479.42 89.7495 479.681 89.521 480.201C89.4025 480.476 89.3433 480.827 89.3433 481.255V485H87.5405V478.094H89.2861V479.103C89.5189 478.748 89.7389 478.492 89.9463 478.335C90.3187 478.056 90.7905 477.916 91.3618 477.916ZM106.825 477.929C107.129 477.929 107.43 477.988 107.726 478.106C108.022 478.225 108.291 478.432 108.532 478.729C108.727 478.97 108.858 479.266 108.926 479.617C108.968 479.85 108.989 480.191 108.989 480.639L108.977 485H107.123V480.595C107.123 480.332 107.081 480.117 106.996 479.947C106.835 479.626 106.539 479.465 106.107 479.465C105.608 479.465 105.263 479.672 105.073 480.087C104.975 480.307 104.927 480.571 104.927 480.88V485H103.105V480.88C103.105 480.47 103.063 480.172 102.978 479.985C102.826 479.651 102.527 479.484 102.083 479.484C101.567 479.484 101.22 479.651 101.042 479.985C100.945 480.176 100.896 480.459 100.896 480.836V485H99.0615V478.094H100.82V479.103C101.044 478.743 101.256 478.487 101.455 478.335C101.806 478.064 102.261 477.929 102.819 477.929C103.348 477.929 103.776 478.045 104.102 478.278C104.364 478.494 104.563 478.771 104.698 479.109C104.935 478.703 105.229 478.405 105.581 478.214C105.953 478.024 106.368 477.929 106.825 477.929ZM113.388 479.389C112.969 479.389 112.643 479.52 112.411 479.782C112.182 480.045 112.038 480.4 111.979 480.849H114.791C114.761 480.37 114.615 480.009 114.353 479.763C114.095 479.514 113.773 479.389 113.388 479.389ZM113.388 477.897C113.964 477.897 114.482 478.005 114.943 478.221C115.405 478.437 115.785 478.777 116.086 479.243C116.357 479.653 116.532 480.129 116.613 480.671C116.659 480.988 116.678 481.445 116.67 482.042H111.935C111.96 482.736 112.178 483.223 112.588 483.502C112.838 483.675 113.139 483.762 113.49 483.762C113.862 483.762 114.165 483.656 114.397 483.445C114.524 483.331 114.637 483.172 114.734 482.969H116.581C116.535 483.379 116.321 483.796 115.94 484.219C115.347 484.892 114.518 485.229 113.452 485.229C112.571 485.229 111.795 484.945 111.122 484.378C110.449 483.811 110.113 482.888 110.113 481.61C110.113 480.413 110.415 479.494 111.021 478.855C111.63 478.216 112.419 477.897 113.388 477.897ZM121.729 477.916C122.444 477.916 123.028 478.104 123.481 478.481C123.938 478.853 124.167 479.473 124.167 480.341V485H122.313V480.792C122.313 480.428 122.264 480.148 122.167 479.954C121.989 479.598 121.651 479.42 121.151 479.42C120.538 479.42 120.117 479.681 119.888 480.201C119.77 480.476 119.71 480.827 119.71 481.255V485H117.908V478.094H119.653V479.103C119.886 478.748 120.106 478.492 120.313 478.335C120.686 478.056 121.158 477.916 121.729 477.916ZM127.645 478.081V482.251C127.645 482.645 127.692 482.941 127.785 483.14C127.95 483.491 128.273 483.667 128.756 483.667C129.374 483.667 129.797 483.417 130.025 482.918C130.144 482.647 130.203 482.29 130.203 481.845V478.081H132.038V485H130.279V484.022C130.262 484.044 130.22 484.107 130.152 484.213C130.085 484.319 130.004 484.412 129.911 484.492C129.628 484.746 129.353 484.92 129.086 485.013C128.824 485.106 128.515 485.152 128.159 485.152C127.135 485.152 126.445 484.784 126.09 484.048C125.891 483.642 125.792 483.043 125.792 482.251V478.081H127.645Z" fill="#84A399"/>
<path d="M67.4058 712.112C67.465 712.539 67.5814 712.859 67.7549 713.07C68.0723 713.455 68.616 713.648 69.3862 713.648C69.8475 713.648 70.222 713.597 70.5098 713.496C71.0557 713.301 71.3286 712.939 71.3286 712.41C71.3286 712.101 71.1932 711.862 70.9224 711.693C70.6515 711.528 70.2262 711.382 69.6465 711.255L68.6562 711.033C67.6829 710.813 67.0101 710.574 66.6377 710.315C66.0072 709.884 65.6919 709.209 65.6919 708.291C65.6919 707.453 65.9966 706.757 66.606 706.202C67.2153 705.648 68.1104 705.371 69.291 705.371C70.277 705.371 71.117 705.633 71.811 706.158C72.5093 706.678 72.8753 707.436 72.9092 708.43H71.0303C70.9964 707.867 70.751 707.467 70.2939 707.23C69.9893 707.074 69.6105 706.996 69.1577 706.996C68.6541 706.996 68.2521 707.097 67.9517 707.3C67.6512 707.503 67.501 707.787 67.501 708.151C67.501 708.485 67.6491 708.735 67.9453 708.9C68.1357 709.01 68.542 709.139 69.1641 709.287L70.7764 709.674C71.4831 709.844 72.0163 710.07 72.376 710.354C72.9346 710.794 73.2139 711.431 73.2139 712.264C73.2139 713.119 72.8859 713.83 72.23 714.397C71.5783 714.96 70.6558 715.241 69.4624 715.241C68.2437 715.241 67.2852 714.964 66.5869 714.41C65.8887 713.851 65.5396 713.085 65.5396 712.112H67.4058ZM76.3179 708.081V712.251C76.3179 712.645 76.3644 712.941 76.4575 713.14C76.6226 713.491 76.9463 713.667 77.4287 713.667C78.0465 713.667 78.4697 713.417 78.6982 712.918C78.8167 712.647 78.876 712.29 78.876 711.845V708.081H80.7104V715H78.9521V714.022C78.9352 714.044 78.8929 714.107 78.8252 714.213C78.7575 714.319 78.6771 714.412 78.584 714.492C78.3005 714.746 78.0254 714.92 77.7588 715.013C77.4964 715.106 77.1875 715.152 76.832 715.152C75.8079 715.152 75.1182 714.784 74.7627 714.048C74.5638 713.642 74.4644 713.043 74.4644 712.251V708.081H76.3179ZM86.2012 707.929C87.111 707.929 87.8219 708.257 88.334 708.913C88.8503 709.569 89.1084 710.415 89.1084 711.452C89.1084 712.527 88.8545 713.417 88.3467 714.124C87.8389 714.831 87.13 715.184 86.2202 715.184C85.6489 715.184 85.1898 715.07 84.8428 714.841C84.6354 714.706 84.4111 714.469 84.1699 714.13V715H82.3989V705.656H84.2017V708.982C84.4302 708.661 84.682 708.415 84.957 708.246C85.2829 708.035 85.6976 707.929 86.2012 707.929ZM85.7378 713.692C86.2033 713.692 86.5651 713.504 86.8232 713.127C87.0814 712.751 87.2104 712.256 87.2104 711.642C87.2104 711.151 87.147 710.745 87.02 710.423C86.7788 709.814 86.3345 709.509 85.687 709.509C85.0311 709.509 84.5804 709.808 84.335 710.404C84.208 710.722 84.1445 711.132 84.1445 711.636C84.1445 712.228 84.2757 712.719 84.5381 713.108C84.8005 713.498 85.2004 713.692 85.7378 713.692ZM101.759 707.929C102.064 707.929 102.364 707.988 102.661 708.106C102.957 708.225 103.226 708.432 103.467 708.729C103.661 708.97 103.793 709.266 103.86 709.617C103.903 709.85 103.924 710.191 103.924 710.639L103.911 715H102.058V710.595C102.058 710.332 102.015 710.117 101.931 709.947C101.77 709.626 101.474 709.465 101.042 709.465C100.543 709.465 100.198 709.672 100.007 710.087C99.91 710.307 99.8613 710.571 99.8613 710.88V715H98.0396V710.88C98.0396 710.47 97.9972 710.172 97.9126 709.985C97.7603 709.651 97.4619 709.484 97.0176 709.484C96.5013 709.484 96.1543 709.651 95.9766 709.985C95.8792 710.176 95.8306 710.459 95.8306 710.836V715H93.9961V708.094H95.7544V709.103C95.9787 708.743 96.1903 708.487 96.3892 708.335C96.7404 708.064 97.1953 707.929 97.7539 707.929C98.2829 707.929 98.7103 708.045 99.0361 708.278C99.2985 708.494 99.4974 708.771 99.6328 709.109C99.8698 708.703 100.164 708.405 100.515 708.214C100.888 708.024 101.302 707.929 101.759 707.929ZM108.323 709.389C107.904 709.389 107.578 709.52 107.345 709.782C107.117 710.045 106.973 710.4 106.914 710.849H109.726C109.696 710.37 109.55 710.009 109.288 709.763C109.029 709.514 108.708 709.389 108.323 709.389ZM108.323 707.897C108.898 707.897 109.417 708.005 109.878 708.221C110.339 708.437 110.72 708.777 111.021 709.243C111.291 709.653 111.467 710.129 111.547 710.671C111.594 710.988 111.613 711.445 111.604 712.042H106.869C106.895 712.736 107.112 713.223 107.523 713.502C107.773 713.675 108.073 713.762 108.424 713.762C108.797 713.762 109.099 713.656 109.332 713.445C109.459 713.331 109.571 713.172 109.668 712.969H111.516C111.469 713.379 111.255 713.796 110.875 714.219C110.282 714.892 109.453 715.229 108.386 715.229C107.506 715.229 106.729 714.945 106.057 714.378C105.384 713.811 105.047 712.888 105.047 711.61C105.047 710.413 105.35 709.494 105.955 708.855C106.564 708.216 107.354 707.897 108.323 707.897ZM116.664 707.916C117.379 707.916 117.963 708.104 118.416 708.481C118.873 708.853 119.101 709.473 119.101 710.341V715H117.248V710.792C117.248 710.428 117.199 710.148 117.102 709.954C116.924 709.598 116.585 709.42 116.086 709.42C115.472 709.42 115.051 709.681 114.823 710.201C114.704 710.476 114.645 710.827 114.645 711.255V715H112.842V708.094H114.588V709.103C114.821 708.748 115.041 708.492 115.248 708.335C115.62 708.056 116.092 707.916 116.664 707.916ZM122.58 708.081V712.251C122.58 712.645 122.626 712.941 122.719 713.14C122.884 713.491 123.208 713.667 123.69 713.667C124.308 713.667 124.731 713.417 124.96 712.918C125.078 712.647 125.138 712.29 125.138 711.845V708.081H126.972V715H125.214V714.022C125.197 714.044 125.155 714.107 125.087 714.213C125.019 714.319 124.939 714.412 124.846 714.492C124.562 714.746 124.287 714.92 124.021 715.013C123.758 715.106 123.449 715.152 123.094 715.152C122.07 715.152 121.38 714.784 121.024 714.048C120.826 713.642 120.726 713.043 120.726 712.251V708.081H122.58Z" fill="#84A399"/>
<rect x="64.5732" y="162.215" width="332.006" height="52.9925" fill="white"/>
<path d="M230.449 202.326C230.449 202.586 230.165 202.774 229.553 202.814V202.934H230.937V203.302H227.717V202.934H229.085V202.81C228.485 202.77 228.205 202.582 228.205 202.326C228.205 202.026 228.561 201.826 229.329 201.826C230.097 201.826 230.449 202.026 230.449 202.326ZM230.525 204.418H228.129V203.45H230.525V204.418ZM230.737 201.742H227.917V201.39H230.737V201.742ZM228.701 201.258V200.91H229.953V201.258H228.701ZM230.057 204.086V203.794H228.597V204.086H230.057ZM229.973 202.326C229.973 202.218 229.777 202.15 229.329 202.15C228.881 202.15 228.685 202.218 228.685 202.326C228.685 202.43 228.881 202.498 229.329 202.498C229.777 202.498 229.973 202.43 229.973 202.326Z" fill="#BDBDBD"/>
<path fill-rule="evenodd" clip-rule="evenodd" d="M221.895 180.836C221.074 181.593 220.607 182.659 220.607 183.776V191.308C220.607 193.517 222.398 195.308 224.607 195.308H226.334V195.32H232.22V195.308H234.047C236.256 195.308 238.047 193.517 238.047 191.308V183.776C238.047 182.659 237.58 181.593 236.76 180.836L232.039 176.481C230.507 175.068 228.147 175.068 226.615 176.481L221.895 180.836ZM232.22 195.308V187.051H226.334V195.308H232.22Z" fill="#BDBDBD"/>
<mask id="mask0_185_38" style="mask-type:alpha" maskUnits="userSpaceOnUse" x="134" y="174" width="21" height="22">
<ellipse cx="144.671" cy="184.731" rx="10.1214" ry="10.4573" fill="#F7F7F7"/>
</mask>
<g mask="url(#mask0_185_38)">
<ellipse cx="144.671" cy="181.091" rx="3.52395" ry="3.64087" fill="#BDBDBD"/>
<ellipse cx="144.671" cy="195.166" rx="10.7367" ry="8.8711" fill="#BDBDBD"/>
</g>
<rect x="302.378" y="178.256" width="14.2289" height="14.8005" rx="2.5" fill="white" stroke="#F5F5F5" stroke-width="3"/>
<path d="M299.25 175.915L305.041 180.913L304.55 189.416L298.986 184.741L299.25 175.915Z" fill="white"/>
<path d="M305.264 181.319C305.212 181.131 305.705 180.614 306.154 180.601L302.601 177.895L301.923 178.909C303.058 179.791 305.316 181.508 305.264 181.319Z" fill="white"/>
<path d="M320.166 174.513L320.618 182.473L314.144 189.419L313.692 181.459L320.166 174.513Z" fill="white"/>
<path d="M313.806 180.91C313.415 180.373 312.262 180.549 311.958 180.577L316.567 176.789L318.416 180.026L313.786 182.418C313.916 182.071 314.084 181.292 313.806 180.91Z" fill="white"/>
<path d="M301.265 181.704L308.836 188.111L320.752 177.542" stroke="#BDBDBD" stroke-width="2" stroke-linecap="round" stroke-linejoin="round"/>
<path d="M138.927 200.874V202.242H139.411V202.63H138.927V204.438H138.451V200.874H138.927ZM137.451 203.146V201.578H136.691V203.146H137.451ZM137.919 201.202V203.518H136.227V201.202H137.919ZM142.544 204.438H142.08V200.874H142.544V204.438ZM139.7 202.394C139.7 201.642 140.04 201.118 140.62 201.118C141.204 201.118 141.544 201.642 141.544 202.394C141.544 203.138 141.204 203.662 140.62 203.662C140.04 203.662 139.7 203.142 139.7 202.394ZM141.096 202.394C141.096 201.83 140.896 201.494 140.62 201.494C140.352 201.494 140.156 201.83 140.156 202.394C140.156 202.954 140.352 203.286 140.62 203.286C140.896 203.286 141.096 202.954 141.096 202.394ZM144.749 203.518C144.209 203.606 143.697 203.634 143.061 203.634C143.037 203.506 143.025 203.354 143.001 203.226H143.345C143.317 202.786 143.285 202.358 143.261 201.918C143.413 201.902 143.561 201.882 143.713 201.862C143.725 202.318 143.745 202.766 143.761 203.218L144.013 203.21C144.033 202.766 144.049 202.322 144.073 201.87L144.509 201.918C144.477 202.346 144.445 202.766 144.409 203.186C144.525 203.178 144.625 203.166 144.717 203.15L144.749 203.518ZM145.437 204.274H144.993V202.634H144.613V202.254H144.993V200.942H145.437V204.274ZM146.093 204.438H145.649V200.874H146.093V204.438ZM144.721 201.67H143.077V201.302H144.721V201.67ZM149.466 204.438H149.002V200.874H149.466V204.438ZM146.622 202.394C146.622 201.642 146.962 201.118 147.542 201.118C148.126 201.118 148.466 201.642 148.466 202.394C148.466 203.138 148.126 203.662 147.542 203.662C146.962 203.662 146.622 203.142 146.622 202.394ZM148.018 202.394C148.018 201.83 147.818 201.494 147.542 201.494C147.274 201.494 147.078 201.83 147.078 202.394C147.078 202.954 147.274 203.286 147.542 203.286C147.818 203.286 148.018 202.954 148.018 202.394ZM152.211 203.226L151.951 203.59C151.635 203.43 151.199 202.978 151.091 202.634C151.007 202.994 150.647 203.47 150.231 203.674L149.951 203.326C150.551 203.006 150.843 202.454 150.843 201.706V201.61H150.131V201.238H152.023V201.61H151.335V201.702C151.335 202.454 151.675 202.95 152.211 203.226ZM152.931 204.438H152.463V200.874H152.931V204.438Z" fill="#BDBDBD"/>
<path d="M305.464 204.482L305.204 204.822C304.876 204.658 304.452 204.198 304.348 203.854C304.26 204.218 303.9 204.694 303.484 204.898L303.196 204.55C303.788 204.226 304.1 203.678 304.1 202.93V202.834H303.38V202.45H305.28V202.834H304.584V202.926C304.584 203.678 304.928 204.186 305.464 204.482ZM306.1 202.086V203.458H306.608V203.846H306.1V205.65H305.632V202.086H306.1ZM310.073 203.842H309.557V205.65H309.093V202.086H309.557V203.454H310.073V203.842ZM308.621 202.45C308.589 203.526 308.117 204.414 307.025 205.006L306.741 204.654C307.517 204.298 308.049 203.55 308.113 202.838H306.957V202.45H308.621ZM310.394 202.742V202.374H312.274V202.742H311.59C311.598 203.286 311.97 203.682 312.378 203.81L312.122 204.178C311.854 204.078 311.514 203.79 311.354 203.45C311.246 203.806 310.878 204.166 310.534 204.286L310.254 203.914C310.77 203.726 311.11 203.29 311.11 202.742H310.394ZM313.258 205.554H310.802V204.426H311.27V205.186H313.258V205.554ZM313.178 204.67H312.714V202.086H313.178V204.67ZM316.987 203.442H316.479V204.658H316.007V202.086H316.479V203.058H316.987V203.442ZM316.563 205.546H314.195V204.41H314.663V205.17H316.563V205.546ZM314.275 203.686C314.795 203.686 315.303 203.658 315.671 203.582C315.687 203.702 315.711 203.822 315.735 203.938C315.399 204.018 314.815 204.062 314.159 204.062H313.811V202.378H315.399V202.746H314.275V203.686Z" fill="#BDBDBD"/>
<path d="M63.9741 287.692H396.027V431.791H63.9741V287.692Z" fill="#F5F7F9"/>
<path d="M302.664 352.517H285.135V350.536H289.534V346.486H292.082V350.536H295.653V346.486H298.2V350.536H302.664V352.517ZM300.596 345.223H287.291V336.992H289.817V343.219H300.596V345.223Z" fill="black"/>
<path d="M269.452 343.829C272.283 343.829 275.136 343.677 277.117 343.241L277.4 345.201C275.571 345.615 272.392 345.876 268.821 345.876H266.926V337.014H275.571V339.039H269.452V343.829ZM284.194 342.349H281.45V346.9H278.881V335.555H281.45V340.28H284.194V342.349ZM281.69 351.037C281.69 353.389 279.251 354.913 275.027 354.913C270.846 354.913 268.407 353.389 268.407 351.037C268.407 348.62 270.846 347.117 275.027 347.117C279.251 347.117 281.69 348.62 281.69 351.037ZM279.055 351.037C279.055 349.883 277.596 349.164 275.027 349.164C272.501 349.164 271.02 349.883 271.02 351.037C271.02 352.191 272.501 352.888 275.027 352.888C277.596 352.888 279.055 352.191 279.055 351.037Z" fill="black"/>
<g filter="url(#filter0_d_185_38)">
<path d="M87.7817 380.01C87.7817 376.082 91.0655 372.898 95.1163 372.898H121.797C125.848 372.898 129.132 376.082 129.132 380.01V405.883C129.132 409.811 125.848 412.995 121.797 412.995H95.1163C91.0655 412.995 87.7817 409.811 87.7817 405.883V380.01Z" fill="#3050D6"/>
</g>
<g filter="url(#filter1_d_185_38)">
<path d="M136.65 380.01C136.65 376.082 139.934 372.898 143.984 372.898H170.665C174.716 372.898 178 376.082 178 380.01V405.883C178 409.811 174.716 412.995 170.665 412.995H143.984C139.934 412.995 136.65 409.811 136.65 405.883V380.01Z" fill="#ACBBF8"/>
</g>
<g filter="url(#filter2_d_185_38)">
<path d="M185.518 380.01C185.518 376.082 188.802 372.898 192.853 372.898H219.533C223.584 372.898 226.868 376.082 226.868 380.01V405.883C226.868 409.811 223.584 412.995 219.533 412.995H192.853C188.802 412.995 185.518 409.811 185.518 405.883V380.01Z" fill="#ACBBF8"/>
</g>
<g filter="url(#filter3_d_185_38)">
<path d="M235.639 380.01C235.639 376.082 238.923 372.898 242.974 372.898H269.655C273.705 372.898 276.989 376.082 276.989 380.01V405.883C276.989 409.811 273.705 412.995 269.655 412.995H242.974C238.923 412.995 235.639 409.811 235.639 405.883V380.01Z" fill="#ACBBF8"/>
</g>
<g filter="url(#filter4_d_185_38)">
<path d="M284.507 380.01C284.507 376.082 287.791 372.898 291.842 372.898H318.523C322.573 372.898 325.857 376.082 325.857 380.01V405.883C325.857 409.811 322.573 412.995 318.523 412.995H291.842C287.791 412.995 284.507 409.811 284.507 405.883V380.01Z" fill="#ACBBF8"/>
</g>
<g filter="url(#filter5_d_185_38)">
<path d="M334.628 380.01C334.628 376.082 337.912 372.898 341.963 372.898H368.644C372.695 372.898 375.978 376.082 375.978 380.01V405.883C375.978 409.811 372.695 412.995 368.644 412.995H341.963C337.912 412.995 334.628 409.811 334.628 405.883V380.01Z" fill="#ACBBF8"/>
</g>
<path d="M109.997 391.585C109.997 392.303 110.519 392.859 111.39 392.859C112.272 392.859 112.795 392.303 112.795 391.585C112.795 390.899 112.272 390.343 111.39 390.343C110.519 390.343 109.997 390.899 109.997 391.585ZM116.496 388.645V398.346H115.233V388.645H116.496ZM108.69 391.596C108.69 390.235 109.757 389.266 111.39 389.266C113.034 389.266 114.079 390.235 114.079 391.596C114.079 392.946 113.034 393.926 111.39 393.926C109.757 393.926 108.69 392.946 108.69 391.596ZM114.831 395.864C113.905 395.983 112.588 396.092 111.553 396.147C110.476 396.19 109.321 396.234 108.505 396.223L108.32 395.134C109.441 395.134 110.378 395.123 111.477 395.08C112.686 395.036 113.862 394.949 114.722 394.84L114.831 395.864Z" fill="white"/>
<path d="M106.978 396.408C106.978 397.584 105.726 398.324 103.581 398.324C101.436 398.324 100.184 397.584 100.184 396.408C100.184 395.199 101.436 394.459 103.581 394.459C105.726 394.459 106.978 395.199 106.978 396.408ZM99.2261 390.376V389.331H104.332V390.376H102.492C102.59 391.726 103.57 392.63 104.626 392.978C104.409 393.316 104.169 393.642 103.94 393.98C103.2 393.697 102.253 392.967 101.839 392.086C101.545 393.022 100.522 393.936 99.5854 394.263C99.3241 393.926 99.0845 393.599 98.8232 393.272C100.184 392.782 101.077 391.759 101.153 390.376H99.2261ZM104.18 391.988V390.964H105.639V388.645H106.913V394.415H105.639V391.988H104.18ZM103.581 395.482C102.264 395.482 101.491 395.82 101.491 396.408C101.491 396.974 102.264 397.312 103.581 397.312C104.92 397.312 105.682 396.974 105.682 396.408C105.682 395.82 104.92 395.482 103.581 395.482Z" fill="white"/>
<path d="M169.567 397.15H168.645V398.696H167.789V394.914H168.645V396.453H169.567V397.15ZM167.389 397.738L166.903 398.398C166.402 398.209 165.735 397.687 165.451 397.092C165.256 397.752 164.559 398.355 163.956 398.565L163.441 397.89C164.385 397.556 165.009 396.787 165.009 395.814V395.204H165.88V395.763C165.88 396.765 166.627 397.491 167.389 397.738ZM168.718 400.075C168.718 400.866 167.905 401.381 166.497 401.381C165.103 401.381 164.29 400.866 164.29 400.075C164.29 399.262 165.103 398.761 166.497 398.761C167.905 398.761 168.718 399.262 168.718 400.075ZM166.497 399.436C165.655 399.436 165.161 399.683 165.161 400.075C165.161 400.459 165.655 400.699 166.497 400.699C167.353 400.699 167.854 400.459 167.854 400.075C167.854 399.683 167.353 399.436 166.497 399.436Z" fill="#515151"/>
<path d="M162.489 400.176C162.489 400.924 161.661 401.381 160.231 401.381C158.794 401.381 157.967 400.924 157.967 400.176C157.967 399.443 158.794 398.986 160.224 398.986C161.661 398.986 162.489 399.443 162.489 400.176ZM162.852 396.975L162.489 397.643C161.545 397.563 160.601 397.062 160.231 396.438C159.905 397.084 158.99 397.556 157.967 397.643L157.618 396.99C158.62 396.939 159.505 396.532 159.73 395.872H157.909V395.197H162.568V395.872H160.754C161.008 396.532 161.988 396.932 162.852 396.975ZM163.149 398.006V398.674H157.306V398.006H163.149ZM161.618 400.183C161.618 399.857 161.073 399.653 160.224 399.653C159.389 399.653 158.845 399.857 158.845 400.183C158.845 400.51 159.389 400.713 160.224 400.713C161.073 400.713 161.618 400.51 161.618 400.183Z" fill="#515151"/>
<path d="M156.31 397.011C156.31 397.998 155.374 398.71 153.951 398.71C152.536 398.71 151.599 397.998 151.599 397.011C151.599 396.017 152.536 395.291 153.951 395.291C155.374 395.291 156.31 396.017 156.31 397.011ZM156.869 400.575H151.026V399.893H152.332V398.819L153.182 398.855V399.893H154.699V398.855L155.548 398.819V399.893H156.869V400.575ZM155.439 397.011C155.439 396.423 154.851 396.002 153.951 396.002C153.051 396.002 152.47 396.423 152.47 397.011C152.47 397.592 153.051 398.013 153.951 398.013C154.844 398.013 155.439 397.592 155.439 397.011Z" fill="#515151"/>
<path d="M145.377 397.977L145.007 397.317C145.98 397.215 147.054 396.634 147.199 395.865H145.268V395.19H150.059V395.865H148.128C148.28 396.634 149.362 397.186 150.327 397.288C150.211 397.513 150.088 397.73 149.972 397.948C149.13 397.854 148.019 397.266 147.663 396.649C147.322 397.309 146.263 397.861 145.377 397.977ZM148.077 401.374H147.221V399.124H144.746V398.449H150.589V399.124H148.077V401.374Z" fill="#515151"/>
<path d="M166.42 389.55H165.564V392.671H164.722V386.204H165.564V388.853H166.42V389.55ZM164.409 391.154C163.807 391.234 162.856 391.307 162.101 391.35C161.434 391.379 160.904 391.394 160.403 391.394L160.294 390.704C160.758 390.704 161.187 390.704 161.622 390.697V388.875H162.435V390.661C163.226 390.617 163.829 390.574 164.344 390.508L164.409 391.154ZM164.112 386.908C164.112 388.164 164.047 389.049 163.894 389.732L163.081 389.645C163.205 389.071 163.248 388.258 163.248 387.59H160.7V386.908H164.112Z" fill="#515151"/>
<path d="M159.508 390.893H158.666V386.204H159.508V390.893ZM159.653 392.497H155.168V390.428H156.024V391.829H159.653V392.497ZM154.369 388.28C154.369 387.365 155.059 386.683 156.118 386.683C157.185 386.683 157.868 387.365 157.868 388.28C157.868 389.209 157.185 389.87 156.118 389.87C155.059 389.87 154.369 389.209 154.369 388.28ZM155.24 388.28C155.24 388.795 155.574 389.173 156.118 389.173C156.677 389.173 157.004 388.795 157.004 388.28C157.004 387.786 156.677 387.409 156.118 387.409C155.574 387.409 155.24 387.786 155.24 388.28Z" fill="#515151"/>
<path d="M151.565 387.612C151.565 388.309 150.89 388.803 149.947 388.803C149.003 388.803 148.306 388.309 148.306 387.598C148.306 386.915 149.003 386.407 149.947 386.407C150.89 386.407 151.565 386.915 151.565 387.612ZM151.261 390.552V389.942H152.495V386.204H153.344V391.205H152.495V390.552H151.261ZM153.445 392.497H148.698V390.588H149.548V391.822H153.445V392.497ZM150.607 390.893H149.765V389.739C149.09 389.761 148.459 389.768 147.973 389.768C147.936 389.55 147.9 389.318 147.856 389.1C149.446 389.1 151.072 389.02 151.979 388.904L152.03 389.528C151.587 389.601 151.108 389.645 150.607 389.681V390.893ZM150.724 387.612C150.724 387.329 150.426 387.039 149.947 387.039C149.453 387.039 149.163 387.329 149.163 387.612C149.163 387.895 149.453 388.164 149.947 388.164C150.426 388.164 150.724 387.895 150.724 387.612Z" fill="#515151"/>
<path d="M218.39 396.873H217.569V399.036H216.727V394.231H217.569V396.169H218.39V396.873ZM217.736 400.524H213.316V398.622H214.172V399.849H217.736V400.524ZM216.43 397.984C215.965 398.034 215.102 398.121 214.419 398.143C213.672 398.172 212.837 398.209 212.409 398.209L212.3 397.519C212.685 397.519 213.12 397.512 213.541 397.504V396.205H214.383V397.483C214.964 397.468 215.936 397.403 216.365 397.338L216.43 397.984ZM216.002 394.688C216.002 395.755 215.958 396.481 215.82 396.989L215.014 396.873C215.102 396.546 215.145 395.973 215.145 395.363H212.699V394.688H216.002Z" fill="#515151"/>
<path d="M211.515 400.698H210.665V394.231H211.515V400.698ZM209.526 394.906C209.475 396.858 208.611 398.455 206.637 399.53L206.114 398.891C207.53 398.245 208.495 396.895 208.611 395.61H206.506V394.906H209.526Z" fill="#515151"/>
<path d="M203.064 398.746L202.585 399.348C202.164 399.101 201.627 398.492 201.46 397.918C201.307 398.521 200.77 399.188 200.24 399.493L199.725 398.92C200.567 398.383 200.995 397.686 201.046 396.525H199.986V395.85H202.897V396.525H201.881C201.932 397.664 202.36 398.339 203.064 398.746ZM204.138 400.401H203.34V397.613H202.541V396.931H203.34V394.354H204.138V400.401ZM205.387 400.698H204.581V394.231H205.387V400.698ZM202.316 395.421H200.625V394.754H202.316V395.421Z" fill="#515151"/>
<path d="M198.954 398.92H198.105V394.231H198.954V398.92ZM199.092 400.524H194.599V398.499H195.455V399.856H199.092V400.524ZM197.538 397.287L197.059 397.962C196.566 397.773 195.891 397.171 195.608 396.575C195.412 397.236 194.708 397.904 194.113 398.114L193.597 397.439C194.541 397.098 195.158 396.256 195.158 395.283V394.601H196.043V395.24C196.043 396.234 196.791 397.04 197.538 397.287Z" fill="#515151"/>
<path d="M209.569 389.339C209.01 389.462 208.11 389.513 207.253 389.513H206.397V387.401H208.393V386.711H206.397V386.036H209.25V388.04H207.253V388.838H207.5C208.226 388.838 209.025 388.809 209.46 388.686C209.504 388.903 209.533 389.121 209.569 389.339ZM211.507 390.297H210.658V388.686H209.714V388.011H210.658V387.285H209.707V386.595H210.658V385.521H211.507V390.297ZM211.652 391.843H207.21V389.92H208.052V391.175H211.652V391.843Z" fill="#515151"/>
<path d="M205.829 388.163H205.009V390.326H204.167V385.521H205.009V387.459H205.829V388.163ZM205.176 391.814H200.755V389.912H201.612V391.139H205.176V391.814ZM203.869 389.274C203.405 389.324 202.541 389.411 201.859 389.433C201.111 389.462 200.276 389.499 199.848 389.499L199.739 388.809C200.124 388.809 200.559 388.802 200.98 388.795V387.495H201.822V388.773C202.403 388.758 203.376 388.693 203.804 388.628L203.869 389.274ZM203.441 385.978C203.441 387.045 203.397 387.771 203.26 388.279L202.454 388.163C202.541 387.836 202.585 387.263 202.585 386.653H200.138V385.978H203.441Z" fill="#515151"/>
<path d="M268.459 400.883H264.199V398.328H265.062V398.952H267.61V398.321H268.459V400.883ZM267.61 400.208V399.613H265.062V400.208H267.61ZM268.452 397.987H267.61V396.608H266.688V395.889H267.61V394.496H268.452V397.987ZM266.362 397.704H263.32V394.793H264.17V395.635H265.52V394.779H266.362V397.704ZM265.52 397.022V396.288H264.17V397.022H265.52Z" fill="#515151"/>
<path d="M262.803 396.731H261.889V398.277H261.025V394.496H261.889V396.034H262.803V396.731ZM260.052 397.834H256.989V394.859H257.831V395.737H259.196V394.844H260.052V397.834ZM259.196 397.159V396.397H257.831V397.159H259.196ZM261.961 399.656C261.961 400.447 261.148 400.963 259.74 400.963C258.347 400.963 257.526 400.447 257.526 399.656C257.526 398.843 258.347 398.343 259.74 398.343C261.148 398.343 261.961 398.843 261.961 399.656ZM259.74 399.018C258.891 399.018 258.405 399.264 258.405 399.656C258.405 400.041 258.891 400.281 259.74 400.281C260.597 400.281 261.09 400.041 261.09 399.656C261.09 399.264 260.597 399.018 259.74 399.018Z" fill="#515151"/>
<path d="M255.841 398.474H254.905V399.483H256.393V400.158H250.55V399.483H252.023V398.474H251.297V396.333H254.81V395.585H251.261V394.91H255.652V397.008H252.139V397.792H255.841V398.474ZM252.851 398.474V399.483H254.085V398.474H252.851Z" fill="#515151"/>
<path d="M248.341 399.097L247.899 399.758C247.282 399.46 246.527 398.727 246.331 398.103C246.171 398.756 245.511 399.526 244.756 399.896L244.248 399.272C245.286 398.778 245.823 397.943 245.873 396.702H244.581V396.034H248.029V396.702H246.759C246.824 397.951 247.492 398.727 248.341 399.097ZM249.619 400.963H248.77V394.496H249.619V400.963ZM245.329 395.563V394.888H247.274V395.563H245.329Z" fill="#515151"/>
<path d="M265.943 389.132H265.087V392.253H264.245V385.786H265.087V388.435H265.943V389.132ZM263.933 390.736C263.33 390.816 262.38 390.888 261.625 390.932C260.957 390.961 260.427 390.975 259.926 390.975L259.817 390.286C260.282 390.286 260.71 390.286 261.146 390.279V388.457H261.959V390.242C262.75 390.199 263.352 390.155 263.868 390.09L263.933 390.736ZM263.635 386.49C263.635 387.745 263.57 388.631 263.418 389.313L262.605 389.226C262.728 388.653 262.772 387.84 262.772 387.172H260.224V386.49H263.635Z" fill="#515151"/>
<path d="M259.663 388.021H258.749V389.567H257.885V385.786H258.749V387.324H259.663V388.021ZM256.912 389.125H253.849V386.149H254.691V387.027H256.056V386.134H256.912V389.125ZM256.056 388.449V387.687H254.691V388.449H256.056ZM258.821 390.946C258.821 391.738 258.008 392.253 256.6 392.253C255.206 392.253 254.386 391.738 254.386 390.946C254.386 390.133 255.206 389.633 256.6 389.633C258.008 389.633 258.821 390.133 258.821 390.946ZM256.6 390.308C255.751 390.308 255.265 390.554 255.265 390.946C255.265 391.331 255.751 391.571 256.6 391.571C257.457 391.571 257.95 391.331 257.95 390.946C257.95 390.554 257.457 390.308 256.6 390.308Z" fill="#515151"/>
<path d="M250.828 389.923H250.066C249.855 390.504 249.471 390.91 248.868 390.91C247.867 390.91 247.475 389.771 247.475 388.58C247.475 387.404 247.867 386.272 248.868 386.272C249.456 386.272 249.841 386.664 250.051 387.216H250.828V385.909H251.619V391.955H250.828V389.923ZM252.911 392.253H252.105V385.786H252.911V392.253ZM249.485 388.587C249.485 387.724 249.311 387.012 248.875 387.012C248.454 387.012 248.273 387.724 248.273 388.587C248.273 389.451 248.454 390.155 248.875 390.155C249.311 390.155 249.485 389.451 249.485 388.587ZM250.276 388.587C250.276 388.812 250.262 389.03 250.226 389.241H250.828V387.898H250.226C250.262 388.123 250.276 388.355 250.276 388.587Z" fill="#515151"/>
<path d="M315.371 391.95C315.371 392.646 314.696 393.14 313.753 393.14C312.809 393.14 312.112 392.646 312.112 391.935C312.112 391.253 312.809 390.745 313.753 390.745C314.696 390.745 315.371 391.253 315.371 391.95ZM315.066 394.889V394.28H316.3V390.542H317.149V395.543H316.3V394.889H315.066ZM317.251 396.835H312.504V394.926H313.353V396.16H317.251V396.835ZM314.413 395.23H313.571V394.076C312.896 394.098 312.265 394.105 311.778 394.105C311.742 393.888 311.706 393.655 311.662 393.438C313.252 393.438 314.878 393.358 315.785 393.242L315.836 393.866C315.393 393.938 314.914 393.982 314.413 394.018V395.23ZM314.529 391.95C314.529 391.667 314.232 391.376 313.753 391.376C313.259 391.376 312.969 391.667 312.969 391.95C312.969 392.233 313.259 392.501 313.753 392.501C314.232 392.501 314.529 392.233 314.529 391.95Z" fill="#515151"/>
<path d="M310.753 390.542V394.316H309.911V393.438H308.989V392.777H309.911V392.08H308.989V391.42H309.911V390.542H310.753ZM308.663 393.953H305.622V390.912H306.471V391.819H307.821V390.897H308.663V393.953ZM307.821 393.285V392.479H306.471V393.285H307.821ZM310.804 395.702C310.804 396.486 309.991 397.001 308.576 397.001C307.182 397.001 306.376 396.486 306.376 395.702C306.376 394.897 307.182 394.388 308.576 394.388C309.991 394.388 310.804 394.897 310.804 395.702ZM308.576 395.071C307.741 395.071 307.24 395.31 307.24 395.702C307.24 396.087 307.741 396.319 308.576 396.319C309.447 396.319 309.926 396.087 309.926 395.702C309.926 395.31 309.447 395.071 308.576 395.071Z" fill="#515151"/>
<path d="M299.349 392.516V391.848H302.753V392.516H301.483C301.548 393.394 302.208 393.873 302.912 394.076C302.767 394.294 302.629 394.512 302.491 394.737C301.983 394.57 301.323 394.084 301.054 393.532C300.829 394.113 300.176 394.708 299.537 394.904L299.073 394.251C299.944 393.96 300.553 393.38 300.597 392.516H299.349ZM304.48 390.542V395.238H303.631V393.445H302.658V392.763H303.631V390.542H304.48ZM304.618 396.835H300.154V394.889H301.011V396.16H304.618V396.835ZM300.103 391.485V390.817H301.983V391.485H300.103Z" fill="#515151"/>
<path d="M298.127 392.327H296.284C296.531 392.944 297.431 393.314 298.403 393.408L298.033 394.091C297.242 394.025 296.182 393.539 295.776 392.907C295.42 393.553 294.397 394.018 293.497 394.105L293.134 393.423C294.121 393.307 295.035 392.951 295.282 392.327H293.417V391.652H298.127V392.327ZM296.182 397.001H295.333V395.07H292.851V394.395H298.694V395.07H296.182V397.001ZM294.716 391.289V390.614H296.821V391.289H294.716Z" fill="#515151"/>
<path d="M367.698 393.002H366.776V395.209H365.92V390.542H366.776V392.305H367.698V393.002ZM366.929 396.82H362.632V394.759H363.481V396.138H366.929V396.82ZM362.777 393.445C363.721 393.445 364.642 393.394 365.31 393.256C365.339 393.474 365.383 393.692 365.426 393.902C364.817 394.047 363.757 394.127 362.567 394.127H361.935V391.071H364.817V391.739H362.777V393.445Z" fill="#515151"/>
<path d="M355.735 391.732V391.064H359.146V391.732H357.905C357.919 392.719 358.594 393.438 359.335 393.67L358.87 394.338C358.384 394.156 357.767 393.634 357.477 393.017C357.281 393.663 356.613 394.316 355.989 394.534L355.48 393.859C356.417 393.517 357.034 392.726 357.034 391.732H355.735ZM360.932 396.835H356.475V394.788H357.324V396.167H360.932V396.835ZM360.786 395.23H359.944V390.542H360.786V395.23Z" fill="#515151"/>
<path d="M355.152 393.728H354.216V397.009H353.374V390.542H354.216V393.024H355.152V393.728ZM352.517 391.202C352.459 393.155 351.603 394.766 349.621 395.84L349.106 395.201C350.514 394.555 351.479 393.198 351.596 391.906H349.498V391.202H352.517Z" fill="#515151"/>
<path d="M346.789 394.889L346.317 395.506C345.722 395.209 344.952 394.374 344.764 393.75C344.604 394.41 343.951 395.274 343.196 395.644L342.673 395.013C343.748 394.425 344.314 393.43 344.314 392.073V391.899H343.007V391.202H346.455V391.899H345.192V392.066C345.192 393.43 345.816 394.352 346.789 394.889ZM347.943 390.542V393.031H348.865V393.735H347.943V397.009H347.094V390.542H347.943Z" fill="#515151"/>
<path d="M116.601 343.452C116.601 351.411 110.15 357.862 102.192 357.862C94.2332 357.862 87.7817 351.411 87.7817 343.452C87.7817 335.494 94.2332 329.042 102.192 329.042C110.15 329.042 116.601 335.494 116.601 343.452Z" fill="#F1F2F4"/>
<path fill-rule="evenodd" clip-rule="evenodd" d="M102.192 357.133C109.747 357.133 115.873 351.008 115.873 343.452C115.873 335.896 109.747 329.771 102.192 329.771C94.6357 329.771 88.5105 335.896 88.5105 343.452C88.5105 351.008 94.6357 357.133 102.192 357.133ZM102.192 357.862C110.15 357.862 116.601 351.411 116.601 343.452C116.601 335.494 110.15 329.042 102.192 329.042C94.2332 329.042 87.7817 335.494 87.7817 343.452C87.7817 351.411 94.2332 357.862 102.192 357.862Z" fill="black"/>
<path fill-rule="evenodd" clip-rule="evenodd" d="M102.003 350.073L102.249 350.344L102.763 349.825L102.517 349.554L97.8786 344.453H107.474L107.83 344.453V343.704H107.474H97.8791L102.517 338.603L102.763 338.332L102.249 337.813L102.003 338.084L96.8938 343.704H96.6897L96.6897 343.928L96.5527 344.079L96.6897 344.229L96.6897 344.453H96.8934L102.003 350.073Z" fill="#061422"/>
<g clip-path="url(#clip0_185_38)">
<path d="M318.339 335.929C313.496 335.929 309.568 339.857 309.568 344.7C309.568 349.543 313.496 353.472 318.339 353.472C323.182 353.472 327.11 349.543 327.11 344.7C327.11 339.857 323.185 335.929 318.339 335.929ZM318.339 348.559C316.208 348.559 314.481 346.831 314.481 344.7C314.481 342.57 316.208 340.842 318.339 340.842C320.47 340.842 322.198 342.57 322.198 344.7C322.198 346.831 320.47 348.559 318.339 348.559Z" fill="#3050D6"/>
<path d="M317.012 340.183C317.503 340.183 317.902 339.69 317.902 339.082C317.902 338.474 317.503 337.98 317.012 337.98C316.52 337.98 316.122 338.474 316.122 339.082C316.122 339.69 316.52 340.183 317.012 340.183Z" fill="#F9F8F4"/>
<mask id="mask1_185_38" style="mask-type:luminance" maskUnits="userSpaceOnUse" x="316" y="337" width="2" height="4">
<path d="M317.012 340.183C317.503 340.183 317.902 339.69 317.902 339.082C317.902 338.474 317.503 337.98 317.012 337.98C316.52 337.98 316.122 338.474 316.122 339.082C316.122 339.69 316.52 340.183 317.012 340.183Z" fill="white"/>
</mask>
<g mask="url(#mask1_185_38)">
<path d="M317.899 338.635C317.934 338.925 317.606 339.286 317.243 339.286C316.88 339.286 316.586 338.995 316.586 338.635C316.586 338.274 316.882 337.951 317.243 337.983C317.693 338.025 317.857 338.277 317.899 338.635Z" fill="#333132"/>
</g>
<path d="M319.667 340.183C320.158 340.183 320.557 339.69 320.557 339.082C320.557 338.474 320.158 337.98 319.667 337.98C319.175 337.98 318.777 338.474 318.777 339.082C318.777 339.69 319.175 340.183 319.667 340.183Z" fill="#F9F8F4"/>
<mask id="mask2_185_38" style="mask-type:luminance" maskUnits="userSpaceOnUse" x="318" y="337" width="3" height="4">
<path d="M319.667 340.183C320.158 340.183 320.557 339.69 320.557 339.082C320.557 338.474 320.158 337.98 319.667 337.98C319.175 337.98 318.777 338.474 318.777 339.082C318.777 339.69 319.175 340.183 319.667 340.183Z" fill="white"/>
</mask>
<g mask="url(#mask2_185_38)">
<path d="M320.554 338.635C320.589 338.925 320.261 339.286 319.898 339.286C319.535 339.286 319.242 338.995 319.242 338.635C319.242 338.274 319.538 337.951 319.898 337.983C320.348 338.025 320.512 338.277 320.554 338.635Z" fill="#333132"/>
</g>
</g>
<g filter="url(#filter6_d_185_38)">
<rect x="65" y="734" width="70" height="71" rx="10" fill="#3050D6"/>
</g>
<g filter="url(#filter7_d_185_38)">
<rect x="149" y="734" width="70" height="71" rx="10" fill="#ACBBF8"/>
</g>
<path d="M87.7741 772.385V763.55H84.8191V762.095H92.5441V763.55H89.6191V772.385H87.7741ZM97.3934 772.52C94.8284 772.52 93.5684 771.065 93.5684 768.62V768.41C93.5684 765.815 95.1434 764.54 97.1084 764.54C99.3884 764.54 100.378 765.815 100.378 768.275V768.995H95.3384C95.4434 770.6 96.2684 771.17 97.7384 771.17C98.7284 771.17 99.4484 770.945 100.123 770.6V771.8C99.5984 772.145 98.6984 772.52 97.3934 772.52ZM97.0784 765.815C96.2834 765.815 95.4584 766.235 95.3384 767.81H98.6234C98.6234 766.355 98.0834 765.815 97.0784 765.815ZM101.032 772.385L103.552 768.425L101.167 764.66H103.162L104.797 767.33L106.282 764.66H108.067L105.787 768.41L108.277 772.385H106.252L104.557 769.58L102.832 772.385H101.032ZM112.244 772.475C110.909 772.475 110.054 771.935 110.054 770.48V766.01H108.974V764.66H110.054V762.845H111.749V764.66H113.594V766.01H111.749V770.24C111.749 770.885 111.989 771.125 112.799 771.125C113.099 771.125 113.414 771.08 113.684 771.005V772.16C113.384 772.31 112.964 772.475 112.244 772.475Z" fill="white"/>
<path d="M94.4482 824.55C91.6732 824.55 89.8282 822.81 89.8282 819.405V819.075C89.8282 815.76 91.7332 813.93 94.5382 813.93C97.2832 813.93 99.1582 815.64 99.1582 819.075V819.405C99.1582 822.735 97.2382 824.55 94.4482 824.55ZM94.5082 823.125C96.3082 823.125 97.1932 821.7 97.1932 819.6V819.09C97.1932 816.78 96.4432 815.385 94.4482 815.37C92.6632 815.37 91.7932 816.78 91.7932 818.865V819.39C91.7932 821.715 92.5432 823.125 94.5082 823.125ZM100.866 824.385V816.66H102.531V817.35H102.591C103.251 816.87 104.196 816.525 105.126 816.525C106.611 816.525 107.376 817.125 107.376 818.655V824.385H105.636V819.06C105.636 818.28 105.381 817.965 104.331 817.965C103.731 817.965 103.056 818.16 102.591 818.385V824.385H100.866Z" fill="white"/>
<path d="M176.299 772.59V766.7H174.329V765.73H179.479V766.7H177.529V772.59H176.299ZM182.711 772.68C181.001 772.68 180.161 771.71 180.161 770.08V769.94C180.161 768.21 181.211 767.36 182.521 767.36C184.041 767.36 184.701 768.21 184.701 769.85V770.33H181.341C181.411 771.4 181.961 771.78 182.941 771.78C183.601 771.78 184.081 771.63 184.531 771.4V772.2C184.181 772.43 183.581 772.68 182.711 772.68ZM182.501 768.21C181.971 768.21 181.421 768.49 181.341 769.54H183.531C183.531 768.57 183.171 768.21 182.501 768.21ZM185.138 772.59L186.818 769.95L185.228 767.44H186.558L187.648 769.22L188.638 767.44H189.828L188.308 769.94L189.968 772.59H188.618L187.488 770.72L186.338 772.59H185.138ZM192.612 772.65C191.722 772.65 191.152 772.29 191.152 771.32V768.34H190.432V767.44H191.152V766.23H192.282V767.44H193.512V768.34H192.282V771.16C192.282 771.59 192.442 771.75 192.982 771.75C193.182 771.75 193.392 771.72 193.572 771.67V772.44C193.372 772.54 193.092 772.65 192.612 772.65Z" fill="#515151"/>
<path d="M180.445 822.7C178.595 822.7 177.365 821.54 177.365 819.27V819.05C177.365 816.84 178.635 815.62 180.505 815.62C182.335 815.62 183.585 816.76 183.585 819.05V819.27C183.585 821.49 182.305 822.7 180.445 822.7ZM180.485 821.75C181.685 821.75 182.275 820.8 182.275 819.4V819.06C182.275 817.52 181.775 816.59 180.445 816.58C179.255 816.58 178.675 817.52 178.675 818.91V819.26C178.675 820.81 179.175 821.75 180.485 821.75ZM185.044 822.59V818.34H184.304V817.44H185.044V816.8C185.044 815.69 185.734 815.2 186.704 815.2C187.164 815.2 187.484 815.28 187.674 815.36V816.13C187.534 816.1 187.314 816.06 187.014 816.06C186.474 816.06 186.174 816.31 186.174 816.92V817.44H187.304V818.34H186.174V822.59H185.044ZM188.569 822.59V818.34H187.829V817.44H188.569V816.8C188.569 815.69 189.259 815.2 190.229 815.2C190.689 815.2 191.009 815.28 191.199 815.36V816.13C191.059 816.1 190.839 816.06 190.539 816.06C189.999 816.06 189.699 816.31 189.699 816.92V817.44H190.829V818.34H189.699V822.59H188.569Z" fill="#515151"/>
<g filter="url(#filter8_d_185_38)">
<path d="M61 519.356C61 510.323 68.3276 503 77.3666 503H379.633C388.672 503 396 510.323 396 519.356V643.644C396 652.677 388.672 660 379.633 660H77.3666C68.3276 660 61 652.677 61 643.644V519.356Z" fill="#BFCBFB"/>
</g>
<path d="M260.375 616.771H258.818V598.873H260.375V616.771ZM255.112 600.777C255.03 606.593 251.467 611.037 246.839 613.228L245.938 611.999C250.464 610.013 253.126 606.122 253.453 602.088H246.593V600.777H255.112Z" fill="#090909"/>
<path d="M244.52 604.156H241.797V608.027H240.24V598.873H241.797V602.846H244.52V604.156ZM242.452 616.627H230.431V612.143H240.24V610.341H230.431V609.05H241.797V613.33H231.988V615.317H242.452V616.627ZM232.909 599.487C235.448 599.487 237.517 601.146 237.517 603.583C237.517 606.04 235.448 607.638 232.909 607.638C230.39 607.638 228.302 606.061 228.302 603.583C228.302 601.167 230.35 599.487 232.909 599.487ZM232.909 600.88C231.189 600.88 229.817 601.965 229.817 603.583C229.817 605.201 231.169 606.245 232.909 606.245C234.773 606.245 236.001 605.201 236.001 603.583C236.001 601.986 234.773 600.88 232.909 600.88Z" fill="#090909"/>
<path d="M226.474 614.497H210.317V613.186H217.587V610.135H212.304V604.545H222.911V601.678H212.283V600.367H224.467V605.835H213.86V608.824H224.979V610.135H219.143V613.186H226.474V614.497Z" fill="#090909"/>
<path d="M209.268 607.31H206.361V616.771H204.804V598.873H206.361V605.979H209.268V607.31ZM201.61 612.327H193.193V600.388H194.75V604.934H200.033V600.388H201.61V612.327ZM200.033 611.016V606.225H194.75V611.016H200.033Z" fill="#090909"/>
<path d="M244.356 590.088H227.872V588.225H232.008V584.416H234.404V588.225H237.762V584.416H240.158V588.225H244.356V590.088ZM242.411 583.228H229.899V575.488H232.274V581.344H242.411V583.228Z" fill="#090909"/>
<path d="M213.123 581.917C215.785 581.917 218.468 581.774 220.331 581.364L220.597 583.207C218.877 583.596 215.887 583.842 212.529 583.842H210.748V575.508H218.877V577.412H213.123V581.917ZM226.986 580.525H224.406V584.805H221.99V574.136H224.406V578.579H226.986V580.525ZM224.631 588.695C224.631 590.907 222.338 592.34 218.365 592.34C214.434 592.34 212.14 590.907 212.14 588.695C212.14 586.422 214.434 585.009 218.365 585.009C222.338 585.009 224.631 586.422 224.631 588.695ZM222.154 588.695C222.154 587.61 220.782 586.934 218.365 586.934C215.99 586.934 214.597 587.61 214.597 588.695C214.597 589.781 215.99 590.436 218.365 590.436C220.782 590.436 222.154 589.781 222.154 588.695Z" fill="#090909"/>
<defs>
<filter id="filter0_d_185_38" x="85.7817" y="370.898" width="51.3501" height="50.0972" filterUnits="userSpaceOnUse" color-interpolation-filters="sRGB">
<feFlood flood-opacity="0" result="BackgroundImageFix"/>
<feColorMatrix in="SourceAlpha" type="matrix" values="0 0 0 0 0 0 0 0 0 0 0 0 0 0 0 0 0 0 127 0" result="hardAlpha"/>
<feOffset dx="3" dy="3"/>
<feGaussianBlur stdDeviation="2.5"/>
<feComposite in2="hardAlpha" operator="out"/>
<feColorMatrix type="matrix" values="0 0 0 0 0 0 0 0 0 0 0 0 0 0 0 0 0 0 0.05 0"/>
<feBlend mode="normal" in2="BackgroundImageFix" result="effect1_dropShadow_185_38"/>
<feBlend mode="normal" in="SourceGraphic" in2="effect1_dropShadow_185_38" result="shape"/>
</filter>
<filter id="filter1_d_185_38" x="134.65" y="370.898" width="51.3501" height="50.0972" filterUnits="userSpaceOnUse" color-interpolation-filters="sRGB">
<feFlood flood-opacity="0" result="BackgroundImageFix"/>
<feColorMatrix in="SourceAlpha" type="matrix" values="0 0 0 0 0 0 0 0 0 0 0 0 0 0 0 0 0 0 127 0" result="hardAlpha"/>
<feOffset dx="3" dy="3"/>
<feGaussianBlur stdDeviation="2.5"/>
<feComposite in2="hardAlpha" operator="out"/>
<feColorMatrix type="matrix" values="0 0 0 0 0 0 0 0 0 0 0 0 0 0 0 0 0 0 0.05 0"/>
<feBlend mode="normal" in2="BackgroundImageFix" result="effect1_dropShadow_185_38"/>
<feBlend mode="normal" in="SourceGraphic" in2="effect1_dropShadow_185_38" result="shape"/>
</filter>
<filter id="filter2_d_185_38" x="183.518" y="370.898" width="51.3501" height="50.0972" filterUnits="userSpaceOnUse" color-interpolation-filters="sRGB">
<feFlood flood-opacity="0" result="BackgroundImageFix"/>
<feColorMatrix in="SourceAlpha" type="matrix" values="0 0 0 0 0 0 0 0 0 0 0 0 0 0 0 0 0 0 127 0" result="hardAlpha"/>
<feOffset dx="3" dy="3"/>
<feGaussianBlur stdDeviation="2.5"/>
<feComposite in2="hardAlpha" operator="out"/>
<feColorMatrix type="matrix" values="0 0 0 0 0 0 0 0 0 0 0 0 0 0 0 0 0 0 0.05 0"/>
<feBlend mode="normal" in2="BackgroundImageFix" result="effect1_dropShadow_185_38"/>
<feBlend mode="normal" in="SourceGraphic" in2="effect1_dropShadow_185_38" result="shape"/>
</filter>
<filter id="filter3_d_185_38" x="233.639" y="370.898" width="51.3501" height="50.0972" filterUnits="userSpaceOnUse" color-interpolation-filters="sRGB">
<feFlood flood-opacity="0" result="BackgroundImageFix"/>
<feColorMatrix in="SourceAlpha" type="matrix" values="0 0 0 0 0 0 0 0 0 0 0 0 0 0 0 0 0 0 127 0" result="hardAlpha"/>
<feOffset dx="3" dy="3"/>
<feGaussianBlur stdDeviation="2.5"/>
<feComposite in2="hardAlpha" operator="out"/>
<feColorMatrix type="matrix" values="0 0 0 0 0 0 0 0 0 0 0 0 0 0 0 0 0 0 0.05 0"/>
<feBlend mode="normal" in2="BackgroundImageFix" result="effect1_dropShadow_185_38"/>
<feBlend mode="normal" in="SourceGraphic" in2="effect1_dropShadow_185_38" result="shape"/>
</filter>
<filter id="filter4_d_185_38" x="282.507" y="370.898" width="51.3501" height="50.0972" filterUnits="userSpaceOnUse" color-interpolation-filters="sRGB">
<feFlood flood-opacity="0" result="BackgroundImageFix"/>
<feColorMatrix in="SourceAlpha" type="matrix" values="0 0 0 0 0 0 0 0 0 0 0 0 0 0 0 0 0 0 127 0" result="hardAlpha"/>
<feOffset dx="3" dy="3"/>
<feGaussianBlur stdDeviation="2.5"/>
<feComposite in2="hardAlpha" operator="out"/>
<feColorMatrix type="matrix" values="0 0 0 0 0 0 0 0 0 0 0 0 0 0 0 0 0 0 0.05 0"/>
<feBlend mode="normal" in2="BackgroundImageFix" result="effect1_dropShadow_185_38"/>
<feBlend mode="normal" in="SourceGraphic" in2="effect1_dropShadow_185_38" result="shape"/>
</filter>
<filter id="filter5_d_185_38" x="332.628" y="370.898" width="51.3501" height="50.0972" filterUnits="userSpaceOnUse" color-interpolation-filters="sRGB">
<feFlood flood-opacity="0" result="BackgroundImageFix"/>
<feColorMatrix in="SourceAlpha" type="matrix" values="0 0 0 0 0 0 0 0 0 0 0 0 0 0 0 0 0 0 127 0" result="hardAlpha"/>
<feOffset dx="3" dy="3"/>
<feGaussianBlur stdDeviation="2.5"/>
<feComposite in2="hardAlpha" operator="out"/>
<feColorMatrix type="matrix" values="0 0 0 0 0 0 0 0 0 0 0 0 0 0 0 0 0 0 0.05 0"/>
<feBlend mode="normal" in2="BackgroundImageFix" result="effect1_dropShadow_185_38"/>
<feBlend mode="normal" in="SourceGraphic" in2="effect1_dropShadow_185_38" result="shape"/>
</filter>
<filter id="filter6_d_185_38" x="63" y="732" width="80" height="81" filterUnits="userSpaceOnUse" color-interpolation-filters="sRGB">
<feFlood flood-opacity="0" result="BackgroundImageFix"/>
<feColorMatrix in="SourceAlpha" type="matrix" values="0 0 0 0 0 0 0 0 0 0 0 0 0 0 0 0 0 0 127 0" result="hardAlpha"/>
<feOffset dx="3" dy="3"/>
<feGaussianBlur stdDeviation="2.5"/>
<feComposite in2="hardAlpha" operator="out"/>
<feColorMatrix type="matrix" values="0 0 0 0 0 0 0 0 0 0 0 0 0 0 0 0 0 0 0.05 0"/>
<feBlend mode="normal" in2="BackgroundImageFix" result="effect1_dropShadow_185_38"/>
<feBlend mode="normal" in="SourceGraphic" in2="effect1_dropShadow_185_38" result="shape"/>
</filter>
<filter id="filter7_d_185_38" x="147" y="732" width="80" height="81" filterUnits="userSpaceOnUse" color-interpolation-filters="sRGB">
<feFlood flood-opacity="0" result="BackgroundImageFix"/>
<feColorMatrix in="SourceAlpha" type="matrix" values="0 0 0 0 0 0 0 0 0 0 0 0 0 0 0 0 0 0 127 0" result="hardAlpha"/>
<feOffset dx="3" dy="3"/>
<feGaussianBlur stdDeviation="2.5"/>
<feComposite in2="hardAlpha" operator="out"/>
<feColorMatrix type="matrix" values="0 0 0 0 0 0 0 0 0 0 0 0 0 0 0 0 0 0 0.05 0"/>
<feBlend mode="normal" in2="BackgroundImageFix" result="effect1_dropShadow_185_38"/>
<feBlend mode="normal" in="SourceGraphic" in2="effect1_dropShadow_185_38" result="shape"/>
</filter>
<filter id="filter8_d_185_38" x="59" y="501" width="345" height="167" filterUnits="userSpaceOnUse" color-interpolation-filters="sRGB">
<feFlood flood-opacity="0" result="BackgroundImageFix"/>
<feColorMatrix in="SourceAlpha" type="matrix" values="0 0 0 0 0 0 0 0 0 0 0 0 0 0 0 0 0 0 127 0" result="hardAlpha"/>
<feOffset dx="3" dy="3"/>
<feGaussianBlur stdDeviation="2.5"/>
<feComposite in2="hardAlpha" operator="out"/>
<feColorMatrix type="matrix" values="0 0 0 0 0 0 0 0 0 0 0 0 0 0 0 0 0 0 0.05 0"/>
<feBlend mode="normal" in2="BackgroundImageFix" result="effect1_dropShadow_185_38"/>
<feBlend mode="normal" in="SourceGraphic" in2="effect1_dropShadow_185_38" result="shape"/>
</filter>
<clipPath id="clip0_185_38">
<rect width="17.5424" height="17.5424" fill="white" transform="translate(309.568 335.929)"/>
</clipPath>
</defs>
</svg>
