<svg width="460" height="473" viewBox="0 0 460 473" fill="none" xmlns="http://www.w3.org/2000/svg">
<rect width="460" height="473" rx="47" fill="#ECF0EE"/>
<path d="M61.208 69H58.9668V58.2041H61.208V69ZM67.5728 60.8262C68.3979 60.8262 69.0718 61.0435 69.5942 61.478C70.1216 61.9077 70.3853 62.623 70.3853 63.624V69H68.2466V64.144C68.2466 63.7241 68.1904 63.4019 68.0781 63.1772C67.873 62.7671 67.4824 62.562 66.9062 62.562C66.1982 62.562 65.7124 62.8623 65.4487 63.4629C65.312 63.7803 65.2437 64.1855 65.2437 64.6787V69H63.1636V61.0312H65.1777V62.1958C65.4463 61.7856 65.7002 61.4902 65.9395 61.3096C66.3691 60.9873 66.9136 60.8262 67.5728 60.8262ZM77.8193 65.0083C77.8193 64.3931 77.6777 63.8486 77.3945 63.375C77.1162 62.9014 76.6621 62.6646 76.0322 62.6646C75.2754 62.6646 74.7554 63.0234 74.4722 63.7412C74.3257 64.1221 74.2524 64.6055 74.2524 65.1914C74.2524 66.1191 74.499 66.771 74.9922 67.147C75.2852 67.3667 75.6318 67.4766 76.0322 67.4766C76.6133 67.4766 77.0552 67.252 77.3579 66.8027C77.6655 66.3535 77.8193 65.7554 77.8193 65.0083ZM76.6328 60.8408C77.5654 60.8408 78.354 61.1851 78.9985 61.8735C79.6479 62.562 79.9727 63.5728 79.9727 64.9058C79.9727 66.312 79.6553 67.3838 79.0205 68.1211C78.3906 68.8584 77.5776 69.2271 76.5815 69.2271C75.9468 69.2271 75.4194 69.0684 74.9995 68.751C74.77 68.5752 74.5454 68.3188 74.3257 67.9819V72.1421H72.2603V61.0166H74.2598V62.1958C74.4844 61.8491 74.7236 61.5757 74.9775 61.3755C75.4414 61.019 75.9932 60.8408 76.6328 60.8408ZM83.5688 61.0166V65.8286C83.5688 66.2827 83.6226 66.6245 83.73 66.854C83.9204 67.2593 84.2939 67.4619 84.8506 67.4619C85.5635 67.4619 86.0518 67.1738 86.3154 66.5977C86.4521 66.2852 86.5205 65.8726 86.5205 65.3599V61.0166H88.6372V69H86.6084V67.8721C86.5889 67.8965 86.54 67.9697 86.4619 68.0918C86.3838 68.2139 86.291 68.3213 86.1836 68.4141C85.8564 68.707 85.5391 68.9072 85.2314 69.0146C84.9287 69.1221 84.5723 69.1758 84.1621 69.1758C82.9805 69.1758 82.1846 68.751 81.7744 67.9014C81.5449 67.4326 81.4302 66.7417 81.4302 65.8286V61.0166H83.5688ZM89.8384 62.5767V61.0898H90.9517V58.8633H93.0171V61.0898H94.3135V62.5767H93.0171V66.7954C93.0171 67.1226 93.0586 67.3276 93.1416 67.4106C93.2246 67.4888 93.4785 67.5278 93.9033 67.5278C93.9668 67.5278 94.0327 67.5278 94.1011 67.5278C94.1743 67.5229 94.2451 67.5181 94.3135 67.5132V69.0732L93.3247 69.1099C92.3384 69.144 91.6646 68.9731 91.3032 68.5972C91.0688 68.3579 90.9517 67.9893 90.9517 67.4912V62.5767H89.8384Z" fill="#3F7665"/>
<path d="M58.9585 136.644H61.0088L64.7349 143.175V136.644H66.5566V146H64.6016L60.7803 139.354V146H58.9585V136.644ZM71.3428 144.724C71.8717 144.724 72.278 144.536 72.5615 144.159C72.8451 143.783 72.9868 143.247 72.9868 142.553C72.9868 141.859 72.8451 141.326 72.5615 140.954C72.278 140.577 71.8717 140.389 71.3428 140.389C70.8138 140.389 70.4054 140.577 70.1177 140.954C69.8341 141.326 69.6924 141.859 69.6924 142.553C69.6924 143.247 69.8341 143.783 70.1177 144.159C70.4054 144.536 70.8138 144.724 71.3428 144.724ZM74.8848 142.553C74.8848 143.569 74.5928 144.438 74.0088 145.162C73.4248 145.882 72.5382 146.241 71.3491 146.241C70.16 146.241 69.2734 145.882 68.6895 145.162C68.1055 144.438 67.8135 143.569 67.8135 142.553C67.8135 141.555 68.1055 140.689 68.6895 139.957C69.2734 139.225 70.16 138.859 71.3491 138.859C72.5382 138.859 73.4248 139.225 74.0088 139.957C74.5928 140.689 74.8848 141.555 74.8848 142.553ZM79.9438 138.916C79.9777 138.916 80.0052 138.918 80.0264 138.922C80.0518 138.922 80.1047 138.924 80.1851 138.929V140.782C80.0708 140.77 79.9692 140.761 79.8804 140.757C79.7915 140.753 79.7196 140.75 79.6646 140.75C78.9367 140.75 78.4479 140.987 78.1982 141.461C78.0586 141.728 77.9888 142.139 77.9888 142.693V146H76.167V139.081H77.8936V140.287C78.1729 139.826 78.4162 139.511 78.6235 139.341C78.9621 139.058 79.4022 138.916 79.9438 138.916ZM88.9829 138.929C89.2876 138.929 89.5881 138.988 89.8843 139.106C90.1805 139.225 90.4492 139.432 90.6904 139.729C90.8851 139.97 91.0163 140.266 91.084 140.617C91.1263 140.85 91.1475 141.191 91.1475 141.639L91.1348 146H89.2812V141.595C89.2812 141.332 89.2389 141.117 89.1543 140.947C88.9935 140.626 88.6973 140.465 88.2656 140.465C87.7663 140.465 87.4214 140.672 87.231 141.087C87.1336 141.307 87.085 141.571 87.085 141.88V146H85.2632V141.88C85.2632 141.47 85.2209 141.172 85.1362 140.985C84.9839 140.651 84.6855 140.484 84.2412 140.484C83.7249 140.484 83.3779 140.651 83.2002 140.985C83.1029 141.176 83.0542 141.459 83.0542 141.836V146H81.2197V139.094H82.978V140.103C83.2023 139.743 83.4139 139.487 83.6128 139.335C83.964 139.064 84.4189 138.929 84.9775 138.929C85.5065 138.929 85.9339 139.045 86.2598 139.278C86.5221 139.494 86.721 139.771 86.8564 140.109C87.0934 139.703 87.3875 139.405 87.7388 139.214C88.1112 139.024 88.5259 138.929 88.9829 138.929ZM96.6318 142.636C96.5176 142.708 96.4012 142.767 96.2827 142.813C96.1685 142.856 96.0098 142.896 95.8066 142.934L95.4004 143.01C95.0195 143.078 94.7466 143.16 94.5815 143.258C94.3022 143.423 94.1626 143.679 94.1626 144.026C94.1626 144.335 94.2472 144.559 94.4165 144.699C94.59 144.834 94.7995 144.902 95.0449 144.902C95.4342 144.902 95.7918 144.788 96.1177 144.559C96.4478 144.331 96.6191 143.914 96.6318 143.309V142.636ZM95.5337 141.792C95.868 141.749 96.1071 141.696 96.251 141.633C96.5091 141.523 96.6382 141.351 96.6382 141.119C96.6382 140.835 96.5387 140.64 96.3398 140.535C96.1452 140.425 95.8574 140.37 95.4766 140.37C95.0492 140.37 94.7466 140.475 94.5688 140.687C94.4419 140.844 94.3573 141.055 94.3149 141.322H92.5693C92.6074 140.717 92.7767 140.219 93.0771 139.83C93.5553 139.221 94.3763 138.916 95.54 138.916C96.2975 138.916 96.9704 139.066 97.5586 139.367C98.1468 139.667 98.4409 140.234 98.4409 141.068V144.242C98.4409 144.462 98.4451 144.728 98.4536 145.042C98.4663 145.278 98.5023 145.439 98.5615 145.524C98.6208 145.609 98.7096 145.678 98.8281 145.733V146H96.8604C96.8053 145.86 96.7673 145.729 96.7461 145.606C96.7249 145.484 96.708 145.344 96.6953 145.188C96.4456 145.458 96.1579 145.689 95.832 145.879C95.4427 146.104 95.0026 146.216 94.5117 146.216C93.8854 146.216 93.367 146.038 92.9565 145.683C92.5503 145.323 92.3472 144.815 92.3472 144.159C92.3472 143.309 92.6751 142.693 93.3311 142.312C93.6908 142.105 94.2197 141.957 94.918 141.868L95.5337 141.792ZM101.9 146H100.091V136.644H101.9V146Z" fill="#84A399"/>
<path d="M58.9902 249.656H65.6235V251.3H60.9326V253.452H65.0396V255.077H60.9326V259H58.9902V249.656ZM69.8955 257.724C70.4245 257.724 70.8307 257.536 71.1143 257.159C71.3978 256.783 71.5396 256.247 71.5396 255.553C71.5396 254.859 71.3978 254.326 71.1143 253.954C70.8307 253.577 70.4245 253.389 69.8955 253.389C69.3665 253.389 68.9582 253.577 68.6704 253.954C68.3869 254.326 68.2451 254.859 68.2451 255.553C68.2451 256.247 68.3869 256.783 68.6704 257.159C68.9582 257.536 69.3665 257.724 69.8955 257.724ZM73.4375 255.553C73.4375 256.569 73.1455 257.438 72.5615 258.162C71.9775 258.882 71.091 259.241 69.9019 259.241C68.7127 259.241 67.8262 258.882 67.2422 258.162C66.6582 257.438 66.3662 256.569 66.3662 255.553C66.3662 254.555 66.6582 253.689 67.2422 252.957C67.8262 252.225 68.7127 251.859 69.9019 251.859C71.091 251.859 71.9775 252.225 72.5615 252.957C73.1455 253.689 73.4375 254.555 73.4375 255.553ZM78.8711 254.563C78.8372 254.305 78.7505 254.072 78.6108 253.865C78.4077 253.585 78.0924 253.446 77.665 253.446C77.0557 253.446 76.6388 253.748 76.4146 254.354C76.2961 254.675 76.2368 255.103 76.2368 255.636C76.2368 256.144 76.2961 256.552 76.4146 256.861C76.6304 257.436 77.0366 257.724 77.6333 257.724C78.0565 257.724 78.3569 257.61 78.5347 257.381C78.7124 257.153 78.8203 256.857 78.8584 256.493H80.7056C80.6632 257.043 80.4644 257.563 80.1089 258.054C79.5418 258.846 78.7018 259.241 77.5889 259.241C76.4759 259.241 75.6571 258.911 75.1323 258.251C74.6076 257.591 74.3452 256.734 74.3452 255.68C74.3452 254.491 74.6351 253.566 75.2148 252.906C75.7946 252.246 76.5944 251.916 77.6143 251.916C78.4818 251.916 79.1906 252.111 79.7407 252.5C80.2951 252.889 80.623 253.577 80.7246 254.563H78.8711ZM83.7778 252.081V256.251C83.7778 256.645 83.8244 256.941 83.9175 257.14C84.0825 257.491 84.4062 257.667 84.8887 257.667C85.5065 257.667 85.9297 257.417 86.1582 256.918C86.2767 256.647 86.3359 256.29 86.3359 255.845V252.081H88.1704V259H86.4121V258.022C86.3952 258.044 86.3529 258.107 86.2852 258.213C86.2174 258.319 86.137 258.412 86.0439 258.492C85.7604 258.746 85.4854 258.92 85.2188 259.013C84.9564 259.106 84.6475 259.152 84.292 259.152C83.2679 259.152 82.5781 258.784 82.2227 258.048C82.0238 257.642 81.9243 257.043 81.9243 256.251V252.081H83.7778ZM91.3315 256.791C91.3696 257.113 91.4521 257.341 91.5791 257.477C91.8034 257.718 92.2181 257.838 92.8232 257.838C93.1787 257.838 93.4601 257.785 93.6675 257.68C93.8791 257.574 93.9849 257.415 93.9849 257.204C93.9849 257 93.9002 256.846 93.731 256.74C93.5617 256.634 92.9333 256.452 91.8457 256.194C91.0628 256 90.5106 255.756 90.189 255.464C89.8674 255.177 89.7065 254.762 89.7065 254.22C89.7065 253.581 89.9562 253.033 90.4556 252.576C90.9591 252.115 91.6659 251.884 92.5757 251.884C93.439 251.884 94.1414 252.058 94.6831 252.405C95.229 252.748 95.5422 253.342 95.6226 254.188H93.8135C93.7881 253.956 93.7225 253.772 93.6167 253.636C93.4178 253.391 93.0793 253.268 92.6011 253.268C92.2075 253.268 91.9261 253.329 91.7568 253.452C91.5918 253.575 91.5093 253.719 91.5093 253.884C91.5093 254.091 91.5981 254.241 91.7759 254.334C91.9536 254.432 92.582 254.599 93.6611 254.836C94.3805 255.005 94.9201 255.261 95.2798 255.604C95.6353 255.951 95.813 256.385 95.813 256.905C95.813 257.591 95.557 258.152 95.0449 258.587C94.5371 259.019 93.75 259.235 92.6836 259.235C91.596 259.235 90.792 259.006 90.2715 258.549C89.7552 258.088 89.4971 257.502 89.4971 256.791H91.3315Z" fill="#84A399"/>
<path d="M60.8882 362.269V368.375H62.6909C63.6134 368.375 64.2567 367.92 64.6206 367.01C64.8195 366.511 64.9189 365.916 64.9189 365.227C64.9189 364.274 64.7687 363.544 64.4683 363.037C64.172 362.525 63.5796 362.269 62.6909 362.269H60.8882ZM63.021 360.644C63.6007 360.652 64.0832 360.72 64.4683 360.847C65.1242 361.062 65.6553 361.458 66.0615 362.034C66.3874 362.499 66.6095 363.003 66.728 363.544C66.8465 364.086 66.9058 364.602 66.9058 365.093C66.9058 366.337 66.6561 367.391 66.1567 368.254C65.4797 369.418 64.4344 370 63.021 370H58.9902V360.644H63.021ZM70.0986 362.256H68.2642V360.586H70.0986V362.256ZM68.2642 363.081H70.0986V370H68.2642V363.081ZM73.2661 367.791C73.3042 368.113 73.3867 368.341 73.5137 368.477C73.738 368.718 74.1527 368.838 74.7578 368.838C75.1133 368.838 75.3947 368.785 75.6021 368.68C75.8136 368.574 75.9194 368.415 75.9194 368.204C75.9194 368 75.8348 367.846 75.6655 367.74C75.4963 367.634 74.8678 367.452 73.7803 367.194C72.9974 367 72.4451 366.756 72.1235 366.464C71.8019 366.177 71.6411 365.762 71.6411 365.22C71.6411 364.581 71.8908 364.033 72.3901 363.576C72.8937 363.115 73.6004 362.884 74.5103 362.884C75.3735 362.884 76.076 363.058 76.6177 363.405C77.1636 363.748 77.4767 364.342 77.5571 365.188H75.748C75.7227 364.956 75.6571 364.772 75.5513 364.636C75.3524 364.391 75.0138 364.268 74.5356 364.268C74.1421 364.268 73.8607 364.329 73.6914 364.452C73.5264 364.575 73.4438 364.719 73.4438 364.884C73.4438 365.091 73.5327 365.241 73.7104 365.334C73.8882 365.432 74.5166 365.599 75.5957 365.836C76.3151 366.005 76.8547 366.261 77.2144 366.604C77.5698 366.951 77.7476 367.385 77.7476 367.905C77.7476 368.591 77.4915 369.152 76.9795 369.587C76.4717 370.019 75.6846 370.235 74.6182 370.235C73.5306 370.235 72.7266 370.006 72.2061 369.549C71.6898 369.088 71.4316 368.502 71.4316 367.791H73.2661ZM82.9082 366.636C82.7939 366.708 82.6776 366.767 82.5591 366.813C82.4448 366.856 82.2861 366.896 82.083 366.934L81.6768 367.01C81.2959 367.078 81.0229 367.16 80.8579 367.258C80.5786 367.423 80.439 367.679 80.439 368.026C80.439 368.335 80.5236 368.559 80.6929 368.699C80.8664 368.834 81.0758 368.902 81.3213 368.902C81.7106 368.902 82.0682 368.788 82.394 368.559C82.7241 368.331 82.8955 367.914 82.9082 367.309V366.636ZM81.8101 365.792C82.1444 365.749 82.3835 365.696 82.5273 365.633C82.7855 365.523 82.9146 365.351 82.9146 365.119C82.9146 364.835 82.8151 364.64 82.6162 364.535C82.4215 364.425 82.1338 364.37 81.7529 364.37C81.3255 364.37 81.0229 364.475 80.8452 364.687C80.7183 364.844 80.6336 365.055 80.5913 365.322H78.8457C78.8838 364.717 79.0531 364.219 79.3535 363.83C79.8317 363.221 80.6527 362.916 81.8164 362.916C82.5739 362.916 83.2467 363.066 83.835 363.367C84.4232 363.667 84.7173 364.234 84.7173 365.068V368.242C84.7173 368.462 84.7215 368.728 84.73 369.042C84.7427 369.278 84.7786 369.439 84.8379 369.524C84.8971 369.609 84.986 369.678 85.1045 369.733V370H83.1367C83.0817 369.86 83.0436 369.729 83.0225 369.606C83.0013 369.484 82.9844 369.344 82.9717 369.188C82.722 369.458 82.4342 369.689 82.1084 369.879C81.7191 370.104 81.279 370.216 80.7881 370.216C80.1618 370.216 79.6434 370.038 79.2329 369.683C78.8267 369.323 78.6235 368.815 78.6235 368.159C78.6235 367.309 78.9515 366.693 79.6074 366.312C79.9671 366.105 80.4961 365.957 81.1943 365.868L81.8101 365.792ZM90.0684 362.929C90.9782 362.929 91.6891 363.257 92.2012 363.913C92.7174 364.569 92.9756 365.415 92.9756 366.452C92.9756 367.527 92.7217 368.417 92.2139 369.124C91.7061 369.831 90.9972 370.184 90.0874 370.184C89.5161 370.184 89.057 370.07 88.71 369.841C88.5026 369.706 88.2783 369.469 88.0371 369.13V370H86.2661V360.656H88.0688V363.982C88.2974 363.661 88.5492 363.415 88.8242 363.246C89.1501 363.035 89.5648 362.929 90.0684 362.929ZM89.605 368.692C90.0705 368.692 90.4323 368.504 90.6904 368.127C90.9486 367.751 91.0776 367.256 91.0776 366.642C91.0776 366.151 91.0142 365.745 90.8872 365.423C90.646 364.814 90.2017 364.509 89.5542 364.509C88.8983 364.509 88.4476 364.808 88.2021 365.404C88.0752 365.722 88.0117 366.132 88.0117 366.636C88.0117 367.228 88.1429 367.719 88.4053 368.108C88.6676 368.498 89.0675 368.692 89.605 368.692ZM96.124 370H94.3149V360.644H96.124V370ZM100.625 364.389C100.206 364.389 99.8797 364.52 99.647 364.782C99.4185 365.045 99.2746 365.4 99.2153 365.849H102.027C101.998 365.37 101.852 365.009 101.589 364.763C101.331 364.514 101.01 364.389 100.625 364.389ZM100.625 362.897C101.2 362.897 101.718 363.005 102.18 363.221C102.641 363.437 103.022 363.777 103.322 364.243C103.593 364.653 103.769 365.129 103.849 365.671C103.896 365.988 103.915 366.445 103.906 367.042H99.1709C99.1963 367.736 99.4142 368.223 99.8247 368.502C100.074 368.675 100.375 368.762 100.726 368.762C101.098 368.762 101.401 368.656 101.634 368.445C101.761 368.331 101.873 368.172 101.97 367.969H103.817C103.771 368.379 103.557 368.796 103.176 369.219C102.584 369.892 101.754 370.229 100.688 370.229C99.8078 370.229 99.0312 369.945 98.3584 369.378C97.6855 368.811 97.3491 367.888 97.3491 366.61C97.3491 365.413 97.6517 364.494 98.2568 363.855C98.8662 363.216 99.6554 362.897 100.625 362.897Z" fill="#84A399"/>
<rect x="58" y="162" width="332" height="42" rx="10" fill="#F5F6FE"/>
<rect x="58" y="275" width="332" height="41" rx="10" fill="#ACBBF8"/>
<rect x="58" y="385" width="332" height="42" rx="10" fill="#BDBDBD"/>
<path d="M74.912 185.467V177.81H72.351V176.549H79.046V177.81H76.511V185.467H74.912ZM83.2488 185.584C81.0258 185.584 79.9338 184.323 79.9338 182.204V182.022C79.9338 179.773 81.2988 178.668 83.0018 178.668C84.9778 178.668 85.8358 179.773 85.8358 181.905V182.529H81.4678C81.5588 183.92 82.2738 184.414 83.5478 184.414C84.4058 184.414 85.0298 184.219 85.6148 183.92V184.96C85.1598 185.259 84.3798 185.584 83.2488 185.584ZM82.9758 179.773C82.2868 179.773 81.5718 180.137 81.4678 181.502H84.3148C84.3148 180.241 83.8468 179.773 82.9758 179.773ZM86.4026 185.467L88.5866 182.035L86.5196 178.772H88.2486L89.6656 181.086L90.9526 178.772H92.4996L90.5236 182.022L92.6816 185.467H90.9266L89.4576 183.036L87.9626 185.467H86.4026ZM96.1193 185.545C94.9623 185.545 94.2213 185.077 94.2213 183.816V179.942H93.2853V178.772H94.2213V177.199H95.6903V178.772H97.2893V179.942H95.6903V183.608C95.6903 184.167 95.8983 184.375 96.6003 184.375C96.8603 184.375 97.1333 184.336 97.3673 184.271V185.272C97.1073 185.402 96.7433 185.545 96.1193 185.545Z" fill="#242424"/>
<path d="M74.912 298.467V290.81H72.351V289.549H79.046V290.81H76.511V298.467H74.912ZM83.2488 298.584C81.0258 298.584 79.9338 297.323 79.9338 295.204V295.022C79.9338 292.773 81.2988 291.668 83.0018 291.668C84.9778 291.668 85.8358 292.773 85.8358 294.905V295.529H81.4678C81.5588 296.92 82.2738 297.414 83.5478 297.414C84.4058 297.414 85.0298 297.219 85.6148 296.92V297.96C85.1598 298.259 84.3798 298.584 83.2488 298.584ZM82.9758 292.773C82.2868 292.773 81.5718 293.137 81.4678 294.502H84.3148C84.3148 293.241 83.8468 292.773 82.9758 292.773ZM86.4026 298.467L88.5866 295.035L86.5196 291.772H88.2486L89.6656 294.086L90.9526 291.772H92.4996L90.5236 295.022L92.6816 298.467H90.9266L89.4576 296.036L87.9626 298.467H86.4026ZM96.1193 298.545C94.9623 298.545 94.2213 298.077 94.2213 296.816V292.942H93.2853V291.772H94.2213V290.199H95.6903V291.772H97.2893V292.942H95.6903V296.608C95.6903 297.167 95.8983 297.375 96.6003 297.375C96.8603 297.375 97.1333 297.336 97.3673 297.271V298.272C97.1073 298.402 96.7433 298.545 96.1193 298.545Z" fill="white"/>
<path d="M74.912 408.467V400.81H72.351V399.549H79.046V400.81H76.511V408.467H74.912ZM83.2488 408.584C81.0258 408.584 79.9338 407.323 79.9338 405.204V405.022C79.9338 402.773 81.2988 401.668 83.0018 401.668C84.9778 401.668 85.8358 402.773 85.8358 404.905V405.529H81.4678C81.5588 406.92 82.2738 407.414 83.5478 407.414C84.4058 407.414 85.0298 407.219 85.6148 406.92V407.96C85.1598 408.259 84.3798 408.584 83.2488 408.584ZM82.9758 402.773C82.2868 402.773 81.5718 403.137 81.4678 404.502H84.3148C84.3148 403.241 83.8468 402.773 82.9758 402.773ZM86.4026 408.467L88.5866 405.035L86.5196 401.772H88.2486L89.6656 404.086L90.9526 401.772H92.4996L90.5236 405.022L92.6816 408.467H90.9266L89.4576 406.036L87.9626 408.467H86.4026ZM96.1193 408.545C94.9623 408.545 94.2213 408.077 94.2213 406.816V402.942H93.2853V401.772H94.2213V400.199H95.6903V401.772H97.2893V402.942H95.6903V406.608C95.6903 407.167 95.8983 407.375 96.6003 407.375C96.8603 407.375 97.1333 407.336 97.3673 407.271V408.272C97.1073 408.402 96.7433 408.545 96.1193 408.545Z" fill="#DADADA"/>
</svg>
