<svg width="460" height="348" viewBox="0 0 460 348" fill="none" xmlns="http://www.w3.org/2000/svg">
<rect width="199.237" height="348" rx="47" fill="#ECF0EE"/>
<rect x="260.763" width="199.237" height="348" rx="47" fill="#ECF0EE"/>
<path d="M365.123 265.303L365.489 265.669C365.88 266.06 366.513 266.06 366.903 265.669L368.054 264.519" stroke="#3F9A63" stroke-linecap="round"/>
<path d="M61.3325 60.0791V62.4595H63.9839C64.4575 62.4595 64.8408 62.3716 65.1338 62.1958C65.4316 62.0151 65.5806 61.6978 65.5806 61.2437C65.5806 60.7407 65.3853 60.4087 64.9946 60.2476C64.6577 60.1353 64.228 60.0791 63.7056 60.0791H61.3325ZM61.3325 64.2466V67.125H63.9839C64.4575 67.125 64.8262 67.0615 65.0898 66.9346C65.5684 66.7002 65.8076 66.251 65.8076 65.5869C65.8076 65.0254 65.5757 64.6396 65.1118 64.4297C64.853 64.3125 64.4893 64.2515 64.0205 64.2466H61.3325ZM64.4233 58.2041C65.7466 58.2236 66.6841 58.6069 67.2358 59.354C67.5679 59.813 67.7339 60.3623 67.7339 61.002C67.7339 61.6611 67.5679 62.1909 67.2358 62.5913C67.0503 62.8159 66.7769 63.021 66.4155 63.2065C66.9673 63.4067 67.3823 63.7241 67.6606 64.1587C67.9438 64.5933 68.0854 65.1206 68.0854 65.7407C68.0854 66.3804 67.9243 66.9541 67.6021 67.4619C67.397 67.7988 67.1406 68.082 66.833 68.3115C66.4863 68.5752 66.0762 68.7559 65.6025 68.8535C65.1338 68.9512 64.6235 69 64.0718 69H59.1792V58.2041H64.4233ZM71.894 61.0166V65.8286C71.894 66.2827 71.9478 66.6245 72.0552 66.854C72.2456 67.2593 72.6191 67.4619 73.1758 67.4619C73.8887 67.4619 74.377 67.1738 74.6406 66.5977C74.7773 66.2852 74.8457 65.8726 74.8457 65.3599V61.0166H76.9624V69H74.9336V67.8721C74.9141 67.8965 74.8652 67.9697 74.7871 68.0918C74.709 68.2139 74.6162 68.3213 74.5088 68.4141C74.1816 68.707 73.8643 68.9072 73.5566 69.0146C73.2539 69.1221 72.8975 69.1758 72.4873 69.1758C71.3057 69.1758 70.5098 68.751 70.0996 67.9014C69.8701 67.4326 69.7554 66.7417 69.7554 65.8286V61.0166H71.894ZM78.1636 62.5767V61.0898H79.2769V58.8633H81.3423V61.0898H82.6387V62.5767H81.3423V66.7954C81.3423 67.1226 81.3838 67.3276 81.4668 67.4106C81.5498 67.4888 81.8037 67.5278 82.2285 67.5278C82.292 67.5278 82.3579 67.5278 82.4263 67.5278C82.4995 67.5229 82.5703 67.5181 82.6387 67.5132V69.0732L81.6499 69.1099C80.6636 69.144 79.9897 68.9731 79.6284 68.5972C79.394 68.3579 79.2769 67.9893 79.2769 67.4912V62.5767H78.1636ZM83.1587 62.5767V61.0898H84.272V58.8633H86.3374V61.0898H87.6338V62.5767H86.3374V66.7954C86.3374 67.1226 86.3789 67.3276 86.4619 67.4106C86.5449 67.4888 86.7988 67.5278 87.2236 67.5278C87.2871 67.5278 87.353 67.5278 87.4214 67.5278C87.4946 67.5229 87.5654 67.5181 87.6338 67.5132V69.0732L86.645 69.1099C85.6587 69.144 84.9849 68.9731 84.6235 68.5972C84.3892 68.3579 84.272 67.9893 84.272 67.4912V62.5767H83.1587ZM92.5557 67.5278C93.166 67.5278 93.6348 67.3105 93.9619 66.876C94.2891 66.4414 94.4526 65.8237 94.4526 65.0229C94.4526 64.2222 94.2891 63.6069 93.9619 63.1772C93.6348 62.7427 93.166 62.5254 92.5557 62.5254C91.9453 62.5254 91.4741 62.7427 91.1421 63.1772C90.8149 63.6069 90.6514 64.2222 90.6514 65.0229C90.6514 65.8237 90.8149 66.4414 91.1421 66.876C91.4741 67.3105 91.9453 67.5278 92.5557 67.5278ZM96.6426 65.0229C96.6426 66.1948 96.3057 67.1982 95.6318 68.0332C94.958 68.8633 93.9351 69.2783 92.563 69.2783C91.1909 69.2783 90.168 68.8633 89.4941 68.0332C88.8203 67.1982 88.4834 66.1948 88.4834 65.0229C88.4834 63.8706 88.8203 62.8721 89.4941 62.0273C90.168 61.1826 91.1909 60.7603 92.563 60.7603C93.9351 60.7603 94.958 61.1826 95.6318 62.0273C96.3057 62.8721 96.6426 63.8706 96.6426 65.0229ZM102.568 60.8262C103.393 60.8262 104.067 61.0435 104.589 61.478C105.117 61.9077 105.38 62.623 105.38 63.624V69H103.242V64.144C103.242 63.7241 103.186 63.4019 103.073 63.1772C102.868 62.7671 102.478 62.562 101.901 62.562C101.193 62.562 100.708 62.8623 100.444 63.4629C100.307 63.7803 100.239 64.1855 100.239 64.6787V69H98.1587V61.0312H100.173V62.1958C100.441 61.7856 100.695 61.4902 100.935 61.3096C101.364 60.9873 101.909 60.8262 102.568 60.8262Z" fill="#3F7665"/>
<path d="M319.437 63.6899C319.437 61.8052 319.942 60.3525 320.953 59.332C321.832 58.4434 322.95 57.999 324.307 57.999C326.124 57.999 327.452 58.5947 328.292 59.7861C328.755 60.4551 329.004 61.1265 329.039 61.8003H326.783C326.636 61.2827 326.448 60.8921 326.219 60.6284C325.809 60.1597 325.201 59.9253 324.395 59.9253C323.575 59.9253 322.928 60.2573 322.454 60.9214C321.98 61.5806 321.744 62.5156 321.744 63.7266C321.744 64.9375 321.993 65.8457 322.491 66.4512C322.994 67.0518 323.631 67.3521 324.402 67.3521C325.193 67.3521 325.796 67.0933 326.211 66.5757C326.441 66.2974 326.631 65.8799 326.783 65.3232H329.017C328.821 66.5 328.321 67.457 327.515 68.1943C326.714 68.9316 325.687 69.3003 324.432 69.3003C322.879 69.3003 321.658 68.8022 320.77 67.8062C319.881 66.8052 319.437 65.4331 319.437 63.6899ZM334.158 67.5278C334.769 67.5278 335.237 67.3105 335.564 66.876C335.892 66.4414 336.055 65.8237 336.055 65.0229C336.055 64.2222 335.892 63.6069 335.564 63.1772C335.237 62.7427 334.769 62.5254 334.158 62.5254C333.548 62.5254 333.077 62.7427 332.745 63.1772C332.417 63.6069 332.254 64.2222 332.254 65.0229C332.254 65.8237 332.417 66.4414 332.745 66.876C333.077 67.3105 333.548 67.5278 334.158 67.5278ZM338.245 65.0229C338.245 66.1948 337.908 67.1982 337.234 68.0332C336.561 68.8633 335.538 69.2783 334.166 69.2783C332.793 69.2783 331.771 68.8633 331.097 68.0332C330.423 67.1982 330.086 66.1948 330.086 65.0229C330.086 63.8706 330.423 62.8721 331.097 62.0273C331.771 61.1826 332.793 60.7603 334.166 60.7603C335.538 60.7603 336.561 61.1826 337.234 62.0273C337.908 62.8721 338.245 63.8706 338.245 65.0229ZM348.667 60.8408C349.019 60.8408 349.366 60.9092 349.708 61.0459C350.049 61.1826 350.359 61.4219 350.638 61.7637C350.862 62.042 351.014 62.3838 351.092 62.7891C351.141 63.0576 351.165 63.4507 351.165 63.9683L351.15 69H349.012V63.917C349.012 63.6143 348.963 63.3652 348.865 63.1699C348.68 62.7988 348.338 62.6133 347.84 62.6133C347.264 62.6133 346.866 62.8525 346.646 63.3311C346.534 63.585 346.478 63.8901 346.478 64.2466V69H344.375V64.2466C344.375 63.7729 344.327 63.4287 344.229 63.2139C344.053 62.8281 343.709 62.6353 343.196 62.6353C342.601 62.6353 342.2 62.8281 341.995 63.2139C341.883 63.4336 341.827 63.7607 341.827 64.1953V69H339.71V61.0312H341.739V62.1958C341.998 61.7808 342.242 61.4854 342.471 61.3096C342.876 60.9971 343.401 60.8408 344.046 60.8408C344.656 60.8408 345.149 60.9751 345.525 61.2437C345.828 61.4927 346.058 61.8125 346.214 62.2031C346.487 61.7344 346.827 61.3901 347.232 61.1704C347.662 60.9507 348.14 60.8408 348.667 60.8408ZM358.592 65.0083C358.592 64.3931 358.45 63.8486 358.167 63.375C357.889 62.9014 357.435 62.6646 356.805 62.6646C356.048 62.6646 355.528 63.0234 355.245 63.7412C355.098 64.1221 355.025 64.6055 355.025 65.1914C355.025 66.1191 355.271 66.771 355.765 67.147C356.058 67.3667 356.404 67.4766 356.805 67.4766C357.386 67.4766 357.828 67.252 358.13 66.8027C358.438 66.3535 358.592 65.7554 358.592 65.0083ZM357.405 60.8408C358.338 60.8408 359.126 61.1851 359.771 61.8735C360.42 62.562 360.745 63.5728 360.745 64.9058C360.745 66.312 360.428 67.3838 359.793 68.1211C359.163 68.8584 358.35 69.2271 357.354 69.2271C356.719 69.2271 356.192 69.0684 355.772 68.751C355.542 68.5752 355.318 68.3188 355.098 67.9819V72.1421H353.033V61.0166H355.032V62.1958C355.257 61.8491 355.496 61.5757 355.75 61.3755C356.214 61.019 356.766 60.8408 357.405 60.8408ZM365.843 67.5278C366.453 67.5278 366.922 67.3105 367.249 66.876C367.576 66.4414 367.74 65.8237 367.74 65.0229C367.74 64.2222 367.576 63.6069 367.249 63.1772C366.922 62.7427 366.453 62.5254 365.843 62.5254C365.232 62.5254 364.761 62.7427 364.429 63.1772C364.102 63.6069 363.938 64.2222 363.938 65.0229C363.938 65.8237 364.102 66.4414 364.429 66.876C364.761 67.3105 365.232 67.5278 365.843 67.5278ZM369.93 65.0229C369.93 66.1948 369.593 67.1982 368.919 68.0332C368.245 68.8633 367.222 69.2783 365.85 69.2783C364.478 69.2783 363.455 68.8633 362.781 68.0332C362.107 67.1982 361.771 66.1948 361.771 65.0229C361.771 63.8706 362.107 62.8721 362.781 62.0273C363.455 61.1826 364.478 60.7603 365.85 60.7603C367.222 60.7603 368.245 61.1826 368.919 62.0273C369.593 62.8721 369.93 63.8706 369.93 65.0229ZM375.855 60.8262C376.68 60.8262 377.354 61.0435 377.876 61.478C378.404 61.9077 378.667 62.623 378.667 63.624V69H376.529V64.144C376.529 63.7241 376.473 63.4019 376.36 63.1772C376.155 62.7671 375.765 62.562 375.188 62.562C374.48 62.562 373.995 62.8623 373.731 63.4629C373.594 63.7803 373.526 64.1855 373.526 64.6787V69H371.446V61.0312H373.46V62.1958C373.729 61.7856 373.982 61.4902 374.222 61.3096C374.651 60.9873 375.196 60.8262 375.855 60.8262ZM383.75 62.5254C383.267 62.5254 382.891 62.6768 382.623 62.9795C382.359 63.2822 382.193 63.6924 382.125 64.21H385.369C385.335 63.6582 385.167 63.2407 384.864 62.9575C384.566 62.6694 384.195 62.5254 383.75 62.5254ZM383.75 60.8042C384.415 60.8042 385.013 60.9287 385.545 61.1777C386.077 61.4268 386.517 61.8198 386.863 62.3569C387.176 62.8306 387.378 63.3799 387.471 64.0049C387.525 64.3711 387.547 64.8984 387.537 65.5869H382.073C382.103 66.3877 382.354 66.9492 382.828 67.2715C383.116 67.4717 383.462 67.5718 383.868 67.5718C384.297 67.5718 384.646 67.4497 384.915 67.2056C385.062 67.0737 385.191 66.8906 385.303 66.6562H387.435C387.381 67.1299 387.134 67.6108 386.695 68.0991C386.011 68.8755 385.054 69.2637 383.824 69.2637C382.808 69.2637 381.912 68.9365 381.136 68.2822C380.359 67.6279 379.971 66.5635 379.971 65.0889C379.971 63.707 380.32 62.6475 381.019 61.9102C381.722 61.1729 382.632 60.8042 383.75 60.8042ZM393.375 60.8262C394.2 60.8262 394.874 61.0435 395.396 61.478C395.923 61.9077 396.187 62.623 396.187 63.624V69H394.048V64.144C394.048 63.7241 393.992 63.4019 393.88 63.1772C393.675 62.7671 393.284 62.562 392.708 62.562C392 62.562 391.514 62.8623 391.25 63.4629C391.114 63.7803 391.045 64.1855 391.045 64.6787V69H388.965V61.0312H390.979V62.1958C391.248 61.7856 391.502 61.4902 391.741 61.3096C392.171 60.9873 392.715 60.8262 393.375 60.8262ZM397.3 62.5767V61.0898H398.414V58.8633H400.479V61.0898H401.775V62.5767H400.479V66.7954C400.479 67.1226 400.521 67.3276 400.604 67.4106C400.687 67.4888 400.94 67.5278 401.365 67.5278C401.429 67.5278 401.495 67.5278 401.563 67.5278C401.636 67.5229 401.707 67.5181 401.775 67.5132V69.0732L400.787 69.1099C399.8 69.144 399.126 68.9731 398.765 68.5972C398.531 68.3579 398.414 67.9893 398.414 67.4912V62.5767H397.3Z" fill="#3F7665"/>
<path d="M58.9585 129.644H61.0088L64.7349 136.175V129.644H66.5566V139H64.6016L60.7803 132.354V139H58.9585V129.644ZM71.3428 137.724C71.8717 137.724 72.278 137.536 72.5615 137.159C72.8451 136.783 72.9868 136.247 72.9868 135.553C72.9868 134.859 72.8451 134.326 72.5615 133.954C72.278 133.577 71.8717 133.389 71.3428 133.389C70.8138 133.389 70.4054 133.577 70.1177 133.954C69.8341 134.326 69.6924 134.859 69.6924 135.553C69.6924 136.247 69.8341 136.783 70.1177 137.159C70.4054 137.536 70.8138 137.724 71.3428 137.724ZM74.8848 135.553C74.8848 136.569 74.5928 137.438 74.0088 138.162C73.4248 138.882 72.5382 139.241 71.3491 139.241C70.16 139.241 69.2734 138.882 68.6895 138.162C68.1055 137.438 67.8135 136.569 67.8135 135.553C67.8135 134.555 68.1055 133.689 68.6895 132.957C69.2734 132.225 70.16 131.859 71.3491 131.859C72.5382 131.859 73.4248 132.225 74.0088 132.957C74.5928 133.689 74.8848 134.555 74.8848 135.553ZM79.9438 131.916C79.9777 131.916 80.0052 131.918 80.0264 131.922C80.0518 131.922 80.1047 131.924 80.1851 131.929V133.782C80.0708 133.77 79.9692 133.761 79.8804 133.757C79.7915 133.753 79.7196 133.75 79.6646 133.75C78.9367 133.75 78.4479 133.987 78.1982 134.461C78.0586 134.728 77.9888 135.139 77.9888 135.693V139H76.167V132.081H77.8936V133.287C78.1729 132.826 78.4162 132.511 78.6235 132.341C78.9621 132.058 79.4022 131.916 79.9438 131.916ZM88.9829 131.929C89.2876 131.929 89.5881 131.988 89.8843 132.106C90.1805 132.225 90.4492 132.432 90.6904 132.729C90.8851 132.97 91.0163 133.266 91.084 133.617C91.1263 133.85 91.1475 134.191 91.1475 134.639L91.1348 139H89.2812V134.595C89.2812 134.332 89.2389 134.117 89.1543 133.947C88.9935 133.626 88.6973 133.465 88.2656 133.465C87.7663 133.465 87.4214 133.672 87.231 134.087C87.1336 134.307 87.085 134.571 87.085 134.88V139H85.2632V134.88C85.2632 134.47 85.2209 134.172 85.1362 133.985C84.9839 133.651 84.6855 133.484 84.2412 133.484C83.7249 133.484 83.3779 133.651 83.2002 133.985C83.1029 134.176 83.0542 134.459 83.0542 134.836V139H81.2197V132.094H82.978V133.103C83.2023 132.743 83.4139 132.487 83.6128 132.335C83.964 132.064 84.4189 131.929 84.9775 131.929C85.5065 131.929 85.9339 132.045 86.2598 132.278C86.5221 132.494 86.721 132.771 86.8564 133.109C87.0934 132.703 87.3875 132.405 87.7388 132.214C88.1112 132.024 88.5259 131.929 88.9829 131.929ZM96.6318 135.636C96.5176 135.708 96.4012 135.767 96.2827 135.813C96.1685 135.856 96.0098 135.896 95.8066 135.934L95.4004 136.01C95.0195 136.078 94.7466 136.16 94.5815 136.258C94.3022 136.423 94.1626 136.679 94.1626 137.026C94.1626 137.335 94.2472 137.559 94.4165 137.699C94.59 137.834 94.7995 137.902 95.0449 137.902C95.4342 137.902 95.7918 137.788 96.1177 137.559C96.4478 137.331 96.6191 136.914 96.6318 136.309V135.636ZM95.5337 134.792C95.868 134.749 96.1071 134.696 96.251 134.633C96.5091 134.523 96.6382 134.351 96.6382 134.119C96.6382 133.835 96.5387 133.64 96.3398 133.535C96.1452 133.425 95.8574 133.37 95.4766 133.37C95.0492 133.37 94.7466 133.475 94.5688 133.687C94.4419 133.844 94.3573 134.055 94.3149 134.322H92.5693C92.6074 133.717 92.7767 133.219 93.0771 132.83C93.5553 132.221 94.3763 131.916 95.54 131.916C96.2975 131.916 96.9704 132.066 97.5586 132.367C98.1468 132.667 98.4409 133.234 98.4409 134.068V137.242C98.4409 137.462 98.4451 137.728 98.4536 138.042C98.4663 138.278 98.5023 138.439 98.5615 138.524C98.6208 138.609 98.7096 138.678 98.8281 138.733V139H96.8604C96.8053 138.86 96.7673 138.729 96.7461 138.606C96.7249 138.484 96.708 138.344 96.6953 138.188C96.4456 138.458 96.1579 138.689 95.832 138.879C95.4427 139.104 95.0026 139.216 94.5117 139.216C93.8854 139.216 93.367 139.038 92.9565 138.683C92.5503 138.323 92.3472 137.815 92.3472 137.159C92.3472 136.309 92.6751 135.693 93.3311 135.312C93.6908 135.105 94.2197 134.957 94.918 134.868L95.5337 134.792ZM101.9 139H100.091V129.644H101.9V139Z" fill="#84A399"/>
<path d="M326.551 129.644V131.3H323.752V139H321.784V131.3H318.972V129.644H326.551ZM330.404 135.636C330.29 135.708 330.174 135.767 330.055 135.813C329.941 135.856 329.782 135.896 329.579 135.934L329.173 136.01C328.792 136.078 328.519 136.16 328.354 136.258C328.075 136.423 327.935 136.679 327.935 137.026C327.935 137.335 328.02 137.559 328.189 137.699C328.362 137.834 328.572 137.902 328.817 137.902C329.207 137.902 329.564 137.788 329.89 137.559C330.22 137.331 330.392 136.914 330.404 136.309V135.636ZM329.306 134.792C329.64 134.749 329.88 134.696 330.023 134.633C330.282 134.523 330.411 134.351 330.411 134.119C330.411 133.835 330.311 133.64 330.112 133.535C329.918 133.425 329.63 133.37 329.249 133.37C328.822 133.37 328.519 133.475 328.341 133.687C328.214 133.844 328.13 134.055 328.087 134.322H326.342C326.38 133.717 326.549 133.219 326.85 132.83C327.328 132.221 328.149 131.916 329.312 131.916C330.07 131.916 330.743 132.066 331.331 132.367C331.919 132.667 332.213 133.234 332.213 134.068V137.242C332.213 137.462 332.218 137.728 332.226 138.042C332.239 138.278 332.275 138.439 332.334 138.524C332.393 138.609 332.482 138.678 332.601 138.733V139H330.633C330.578 138.86 330.54 138.729 330.519 138.606C330.497 138.484 330.48 138.344 330.468 138.188C330.218 138.458 329.93 138.689 329.604 138.879C329.215 139.104 328.775 139.216 328.284 139.216C327.658 139.216 327.139 139.038 326.729 138.683C326.323 138.323 326.12 137.815 326.12 137.159C326.12 136.309 326.448 135.693 327.104 135.312C327.463 135.105 327.992 134.957 328.69 134.868L329.306 134.792ZM336.796 137.515C337.22 137.515 337.577 137.356 337.869 137.039C338.161 136.717 338.307 136.207 338.307 135.509C338.307 134.853 338.167 134.354 337.888 134.011C337.613 133.668 337.243 133.497 336.777 133.497C336.143 133.497 335.705 133.795 335.463 134.392C335.336 134.709 335.273 135.1 335.273 135.566C335.273 135.968 335.341 136.326 335.476 136.639C335.722 137.223 336.162 137.515 336.796 137.515ZM336.346 131.916C336.693 131.916 336.995 131.969 337.253 132.075C337.694 132.257 338.049 132.591 338.32 133.078V132.081H340.078V138.645C340.078 139.537 339.928 140.21 339.627 140.663C339.111 141.442 338.121 141.831 336.657 141.831C335.772 141.831 335.051 141.658 334.492 141.311C333.934 140.964 333.625 140.445 333.565 139.755H335.533C335.584 139.967 335.667 140.119 335.781 140.212C335.975 140.377 336.303 140.46 336.765 140.46C337.416 140.46 337.852 140.242 338.072 139.806C338.216 139.527 338.288 139.057 338.288 138.397V137.953C338.115 138.249 337.928 138.471 337.729 138.619C337.37 138.894 336.902 139.032 336.327 139.032C335.438 139.032 334.727 138.721 334.194 138.099C333.665 137.472 333.4 136.626 333.4 135.56C333.4 134.531 333.656 133.668 334.168 132.97C334.681 132.267 335.406 131.916 336.346 131.916Z" fill="#84A399"/>
<path d="M319.347 243.398C319.347 241.764 319.785 240.506 320.661 239.621C321.422 238.851 322.391 238.466 323.568 238.466C325.142 238.466 326.293 238.982 327.021 240.015C327.423 240.594 327.639 241.176 327.668 241.76H325.713C325.586 241.312 325.424 240.973 325.225 240.745C324.869 240.338 324.342 240.135 323.644 240.135C322.933 240.135 322.372 240.423 321.962 240.999C321.551 241.57 321.346 242.38 321.346 243.43C321.346 244.479 321.562 245.266 321.994 245.791C322.43 246.312 322.982 246.572 323.65 246.572C324.336 246.572 324.859 246.347 325.218 245.899C325.417 245.658 325.582 245.296 325.713 244.813H327.649C327.48 245.833 327.046 246.663 326.348 247.302C325.654 247.941 324.763 248.26 323.676 248.26C322.33 248.26 321.272 247.829 320.502 246.965C319.732 246.098 319.347 244.909 319.347 243.398ZM332.816 240.903C333.244 240.903 333.631 240.977 333.978 241.125C334.329 241.274 334.617 241.5 334.841 241.805C335.032 242.063 335.148 242.329 335.19 242.604C335.233 242.875 335.254 243.32 335.254 243.938V248H333.407V243.792C333.407 243.419 333.343 243.119 333.216 242.89C333.051 242.569 332.738 242.408 332.277 242.408C331.799 242.408 331.435 242.569 331.185 242.89C330.94 243.208 330.817 243.662 330.817 244.255V248H329.014V238.675H330.817V241.982C331.079 241.58 331.382 241.301 331.725 241.145C332.072 240.984 332.436 240.903 332.816 240.903ZM339.678 242.389C339.259 242.389 338.933 242.52 338.701 242.782C338.472 243.045 338.328 243.4 338.269 243.849H341.081C341.051 243.37 340.905 243.009 340.643 242.763C340.385 242.514 340.063 242.389 339.678 242.389ZM339.678 240.897C340.254 240.897 340.772 241.005 341.233 241.221C341.695 241.437 342.076 241.777 342.376 242.243C342.647 242.653 342.822 243.129 342.903 243.671C342.949 243.988 342.968 244.445 342.96 245.042H338.225C338.25 245.736 338.468 246.223 338.878 246.502C339.128 246.675 339.429 246.762 339.78 246.762C340.152 246.762 340.455 246.656 340.688 246.445C340.814 246.331 340.927 246.172 341.024 245.969H342.871C342.825 246.379 342.611 246.796 342.23 247.219C341.638 247.892 340.808 248.229 339.742 248.229C338.861 248.229 338.085 247.945 337.412 247.378C336.739 246.811 336.403 245.888 336.403 244.61C336.403 243.413 336.705 242.494 337.311 241.855C337.92 241.216 338.709 240.897 339.678 240.897ZM348.317 243.563C348.284 243.305 348.197 243.072 348.057 242.865C347.854 242.585 347.539 242.446 347.111 242.446C346.502 242.446 346.085 242.748 345.861 243.354C345.742 243.675 345.683 244.103 345.683 244.636C345.683 245.144 345.742 245.552 345.861 245.861C346.077 246.436 346.483 246.724 347.08 246.724C347.503 246.724 347.803 246.61 347.981 246.381C348.159 246.153 348.267 245.857 348.305 245.493H350.152C350.11 246.043 349.911 246.563 349.555 247.054C348.988 247.846 348.148 248.241 347.035 248.241C345.922 248.241 345.103 247.911 344.579 247.251C344.054 246.591 343.792 245.734 343.792 244.68C343.792 243.491 344.081 242.566 344.661 241.906C345.241 241.246 346.041 240.916 347.061 240.916C347.928 240.916 348.637 241.111 349.187 241.5C349.741 241.889 350.069 242.577 350.171 243.563H348.317ZM351.402 238.675H353.18V243.715L355.433 241.113H357.674L355.255 243.76L357.769 248H355.585L353.929 245.042L353.18 245.823V248H351.402V238.675Z" fill="#84A399"/>
<path d="M58.9902 238.656H65.6235V240.3H60.9326V242.452H65.0396V244.077H60.9326V248H58.9902V238.656ZM69.8955 246.724C70.4245 246.724 70.8307 246.536 71.1143 246.159C71.3978 245.783 71.5396 245.247 71.5396 244.553C71.5396 243.859 71.3978 243.326 71.1143 242.954C70.8307 242.577 70.4245 242.389 69.8955 242.389C69.3665 242.389 68.9582 242.577 68.6704 242.954C68.3869 243.326 68.2451 243.859 68.2451 244.553C68.2451 245.247 68.3869 245.783 68.6704 246.159C68.9582 246.536 69.3665 246.724 69.8955 246.724ZM73.4375 244.553C73.4375 245.569 73.1455 246.438 72.5615 247.162C71.9775 247.882 71.091 248.241 69.9019 248.241C68.7127 248.241 67.8262 247.882 67.2422 247.162C66.6582 246.438 66.3662 245.569 66.3662 244.553C66.3662 243.555 66.6582 242.689 67.2422 241.957C67.8262 241.225 68.7127 240.859 69.9019 240.859C71.091 240.859 71.9775 241.225 72.5615 241.957C73.1455 242.689 73.4375 243.555 73.4375 244.553ZM78.8711 243.563C78.8372 243.305 78.7505 243.072 78.6108 242.865C78.4077 242.585 78.0924 242.446 77.665 242.446C77.0557 242.446 76.6388 242.748 76.4146 243.354C76.2961 243.675 76.2368 244.103 76.2368 244.636C76.2368 245.144 76.2961 245.552 76.4146 245.861C76.6304 246.436 77.0366 246.724 77.6333 246.724C78.0565 246.724 78.3569 246.61 78.5347 246.381C78.7124 246.153 78.8203 245.857 78.8584 245.493H80.7056C80.6632 246.043 80.4644 246.563 80.1089 247.054C79.5418 247.846 78.7018 248.241 77.5889 248.241C76.4759 248.241 75.6571 247.911 75.1323 247.251C74.6076 246.591 74.3452 245.734 74.3452 244.68C74.3452 243.491 74.6351 242.566 75.2148 241.906C75.7946 241.246 76.5944 240.916 77.6143 240.916C78.4818 240.916 79.1906 241.111 79.7407 241.5C80.2951 241.889 80.623 242.577 80.7246 243.563H78.8711ZM83.7778 241.081V245.251C83.7778 245.645 83.8244 245.941 83.9175 246.14C84.0825 246.491 84.4062 246.667 84.8887 246.667C85.5065 246.667 85.9297 246.417 86.1582 245.918C86.2767 245.647 86.3359 245.29 86.3359 244.845V241.081H88.1704V248H86.4121V247.022C86.3952 247.044 86.3529 247.107 86.2852 247.213C86.2174 247.319 86.137 247.412 86.0439 247.492C85.7604 247.746 85.4854 247.92 85.2188 248.013C84.9564 248.106 84.6475 248.152 84.292 248.152C83.2679 248.152 82.5781 247.784 82.2227 247.048C82.0238 246.642 81.9243 246.043 81.9243 245.251V241.081H83.7778ZM91.3315 245.791C91.3696 246.113 91.4521 246.341 91.5791 246.477C91.8034 246.718 92.2181 246.838 92.8232 246.838C93.1787 246.838 93.4601 246.785 93.6675 246.68C93.8791 246.574 93.9849 246.415 93.9849 246.204C93.9849 246 93.9002 245.846 93.731 245.74C93.5617 245.634 92.9333 245.452 91.8457 245.194C91.0628 245 90.5106 244.756 90.189 244.464C89.8674 244.177 89.7065 243.762 89.7065 243.22C89.7065 242.581 89.9562 242.033 90.4556 241.576C90.9591 241.115 91.6659 240.884 92.5757 240.884C93.439 240.884 94.1414 241.058 94.6831 241.405C95.229 241.748 95.5422 242.342 95.6226 243.188H93.8135C93.7881 242.956 93.7225 242.772 93.6167 242.636C93.4178 242.391 93.0793 242.268 92.6011 242.268C92.2075 242.268 91.9261 242.329 91.7568 242.452C91.5918 242.575 91.5093 242.719 91.5093 242.884C91.5093 243.091 91.5981 243.241 91.7759 243.334C91.9536 243.432 92.582 243.599 93.6611 243.836C94.3805 244.005 94.9201 244.261 95.2798 244.604C95.6353 244.951 95.813 245.385 95.813 245.905C95.813 246.591 95.557 247.152 95.0449 247.587C94.5371 248.019 93.75 248.235 92.6836 248.235C91.596 248.235 90.792 248.006 90.2715 247.549C89.7552 247.088 89.4971 246.502 89.4971 245.791H91.3315Z" fill="#84A399"/>
<g filter="url(#filter0_d_185_40)">
<rect x="50.1309" y="153.495" width="90.9752" height="40.5051" rx="20.2526" fill="#3050D6"/>
</g>
<g filter="url(#filter1_d_185_40)">
<rect x="50.1309" y="260.689" width="90.9752" height="40.5051" rx="20.2526" fill="#ACBBF8"/>
</g>
<path d="M83.4407 179.007H75.4717V175.887H81.5687V175.081H75.4067V173.872H83.0767V176.992H77.0057V177.785H83.4407V179.007ZM83.0767 173.3H81.5687V172.312H79.3977V171.168H81.5687V170.193H79.6057V169.049H81.5687V167.502H83.0767V173.3ZM79.4627 167.996C79.4627 168.784 79.311 169.508 79.0077 170.167C78.713 170.825 78.3143 171.38 77.8117 171.831C77.309 172.273 76.7587 172.641 76.1607 172.936C75.5627 173.23 74.9257 173.447 74.2497 173.586L73.5087 172.351C74.5747 172.203 75.502 171.852 76.2907 171.298C77.0793 170.743 77.5733 170.063 77.7727 169.257H74.0677V167.996H79.4627ZM95.4557 173.495H93.9217V179.085H92.4137V167.502H93.9217V172.247H95.4557V173.495ZM91.8547 176.368C90.8494 176.498 89.4714 176.615 87.7207 176.719C86.5247 176.771 85.5107 176.797 84.6787 176.797L84.4837 175.562C85.5497 175.562 86.3427 175.557 86.8627 175.549V172.286H88.3187V175.484C89.8094 175.406 90.949 175.315 91.7377 175.211L91.8547 176.368ZM91.3217 168.763C91.3217 170.973 91.1917 172.658 90.9317 173.82L89.4757 173.664C89.675 172.736 89.7747 171.51 89.7747 169.985H85.2117V168.763H91.3217ZM106.47 177.642H96.0047V176.433H100.451V174.184H97.2657V168.295H98.7737V170.089H103.701V168.269H105.222V174.184H101.972V176.433H106.47V177.642ZM103.701 172.975V171.259H98.7737V172.975H103.701ZM116.834 179.085H115.313V167.502H116.834V179.085ZM113.272 168.711C113.176 172.403 111.452 175.163 108.098 176.992L107.162 175.848C108.41 175.276 109.441 174.448 110.256 173.365C111.07 172.273 111.53 171.142 111.634 169.972H107.864V168.711H113.272Z" fill="white"/>
<path d="M83.4407 286.201H75.4717V283.081H81.5687V282.275H75.4067V281.066H83.0767V284.186H77.0057V284.979H83.4407V286.201ZM83.0767 280.494H81.5687V279.506H79.3977V278.362H81.5687V277.387H79.6057V276.243H81.5687V274.696H83.0767V280.494ZM79.4627 275.19C79.4627 275.979 79.311 276.702 79.0077 277.361C78.713 278.02 78.3143 278.574 77.8117 279.025C77.309 279.467 76.7587 279.835 76.1607 280.13C75.5627 280.425 74.9257 280.641 74.2497 280.78L73.5087 279.545C74.5747 279.398 75.502 279.047 76.2907 278.492C77.0793 277.937 77.5733 277.257 77.7727 276.451H74.0677V275.19H79.4627ZM95.4557 280.689H93.9217V286.279H92.4137V274.696H93.9217V279.441H95.4557V280.689ZM91.8547 283.562C90.8494 283.692 89.4714 283.809 87.7207 283.913C86.5247 283.965 85.5107 283.991 84.6787 283.991L84.4837 282.756C85.5497 282.756 86.3427 282.752 86.8627 282.743V279.48H88.3187V282.678C89.8094 282.6 90.949 282.509 91.7377 282.405L91.8547 283.562ZM91.3217 275.957C91.3217 278.167 91.1917 279.853 90.9317 281.014L89.4757 280.858C89.675 279.931 89.7747 278.704 89.7747 277.179H85.2117V275.957H91.3217ZM106.47 284.836H96.0047V283.627H100.451V281.378H97.2657V275.489H98.7737V277.283H103.701V275.463H105.222V281.378H101.972V283.627H106.47V284.836ZM103.701 280.169V278.453H98.7737V280.169H103.701ZM116.834 286.279H115.313V274.696H116.834V286.279ZM113.272 275.905C113.176 279.597 111.452 282.357 108.098 284.186L107.162 283.042C108.41 282.47 109.441 281.642 110.256 280.559C111.07 279.467 111.53 278.336 111.634 277.166H107.864V275.905H113.272Z" fill="white"/>
<rect x="320.263" y="260.752" width="9" height="9" rx="3.5" stroke="#DDF6E7" stroke-width="3"/>
<rect x="361.881" y="260.752" width="9" height="9" rx="3.5" stroke="#DDF6E7" stroke-width="3"/>
<circle cx="322.451" cy="155.807" r="2.31158" fill="#1AA36F"/>
<defs>
<filter id="filter0_d_185_40" x="43.1309" y="146.495" width="110.975" height="60.5049" filterUnits="userSpaceOnUse" color-interpolation-filters="sRGB">
<feFlood flood-opacity="0" result="BackgroundImageFix"/>
<feColorMatrix in="SourceAlpha" type="matrix" values="0 0 0 0 0 0 0 0 0 0 0 0 0 0 0 0 0 0 127 0" result="hardAlpha"/>
<feOffset dx="3" dy="3"/>
<feGaussianBlur stdDeviation="5"/>
<feComposite in2="hardAlpha" operator="out"/>
<feColorMatrix type="matrix" values="0 0 0 0 0 0 0 0 0 0 0 0 0 0 0 0 0 0 0.03 0"/>
<feBlend mode="normal" in2="BackgroundImageFix" result="effect1_dropShadow_185_40"/>
<feBlend mode="normal" in="SourceGraphic" in2="effect1_dropShadow_185_40" result="shape"/>
</filter>
<filter id="filter1_d_185_40" x="43.1309" y="253.689" width="110.975" height="60.5049" filterUnits="userSpaceOnUse" color-interpolation-filters="sRGB">
<feFlood flood-opacity="0" result="BackgroundImageFix"/>
<feColorMatrix in="SourceAlpha" type="matrix" values="0 0 0 0 0 0 0 0 0 0 0 0 0 0 0 0 0 0 127 0" result="hardAlpha"/>
<feOffset dx="3" dy="3"/>
<feGaussianBlur stdDeviation="5"/>
<feComposite in2="hardAlpha" operator="out"/>
<feColorMatrix type="matrix" values="0 0 0 0 0 0 0 0 0 0 0 0 0 0 0 0 0 0 0.03 0"/>
<feBlend mode="normal" in2="BackgroundImageFix" result="effect1_dropShadow_185_40"/>
<feBlend mode="normal" in="SourceGraphic" in2="effect1_dropShadow_185_40" result="shape"/>
</filter>
</defs>
</svg>
