<svg width="1138" height="518" viewBox="0 0 1138 518" fill="none" xmlns="http://www.w3.org/2000/svg">
<g filter="url(#filter0_d_159_887)">
<rect x="20.3979" y="20.5151" width="1077.2" height="457.189" rx="57" fill="white"/>
</g>
<path d="M525.587 76.8838V78.7954H522.357V87.6797H520.086V78.7954H516.842V76.8838H525.587ZM525.953 89.2104L526.217 89.2251C526.422 89.2349 526.617 89.2275 526.803 89.2031C526.988 89.1787 527.145 89.1226 527.271 89.0347C527.394 88.9517 527.506 88.7783 527.608 88.5146C527.716 88.251 527.76 88.0898 527.74 88.0312L524.811 79.6963H527.132L528.875 85.585L530.523 79.6963H532.743L530.003 87.5479C529.476 89.0615 529.059 89.999 528.751 90.3604C528.443 90.7266 527.828 90.9097 526.905 90.9097C526.72 90.9097 526.571 90.9072 526.458 90.9023C526.346 90.9023 526.178 90.895 525.953 90.8804V89.2104ZM539.481 83.688C539.481 83.0728 539.339 82.5283 539.056 82.0547C538.778 81.5811 538.324 81.3442 537.694 81.3442C536.937 81.3442 536.417 81.7031 536.134 82.4209C535.987 82.8018 535.914 83.2852 535.914 83.8711C535.914 84.7988 536.161 85.4507 536.654 85.8267C536.947 86.0464 537.293 86.1562 537.694 86.1562C538.275 86.1562 538.717 85.9316 539.02 85.4824C539.327 85.0332 539.481 84.4351 539.481 83.688ZM538.294 79.5205C539.227 79.5205 540.016 79.8647 540.66 80.5532C541.31 81.2417 541.634 82.2524 541.634 83.5854C541.634 84.9917 541.317 86.0635 540.682 86.8008C540.052 87.5381 539.239 87.9067 538.243 87.9067C537.608 87.9067 537.081 87.748 536.661 87.4307C536.432 87.2549 536.207 86.9985 535.987 86.6616V90.8218H533.922V79.6963H535.921V80.8755C536.146 80.5288 536.385 80.2554 536.639 80.0552C537.103 79.6987 537.655 79.5205 538.294 79.5205ZM546.732 86.2075C547.342 86.2075 547.811 85.9902 548.138 85.5557C548.465 85.1211 548.629 84.5034 548.629 83.7026C548.629 82.9019 548.465 82.2866 548.138 81.8569C547.811 81.4224 547.342 81.2051 546.732 81.2051C546.122 81.2051 545.65 81.4224 545.318 81.8569C544.991 82.2866 544.828 82.9019 544.828 83.7026C544.828 84.5034 544.991 85.1211 545.318 85.5557C545.65 85.9902 546.122 86.2075 546.732 86.2075ZM550.819 83.7026C550.819 84.8745 550.482 85.8779 549.808 86.7129C549.134 87.543 548.111 87.958 546.739 87.958C545.367 87.958 544.344 87.543 543.67 86.7129C542.997 85.8779 542.66 84.8745 542.66 83.7026C542.66 82.5503 542.997 81.5518 543.67 80.707C544.344 79.8623 545.367 79.4399 546.739 79.4399C548.111 79.4399 549.134 79.8623 549.808 80.707C550.482 81.5518 550.819 82.5503 550.819 83.7026ZM555.748 85.9658C556.236 85.9658 556.649 85.7827 556.986 85.4165C557.323 85.0454 557.491 84.457 557.491 83.6514C557.491 82.8945 557.33 82.3184 557.008 81.9229C556.69 81.5273 556.263 81.3296 555.726 81.3296C554.994 81.3296 554.488 81.6738 554.21 82.3623C554.063 82.7285 553.99 83.1802 553.99 83.7173C553.99 84.1812 554.068 84.5938 554.225 84.9551C554.508 85.6289 555.016 85.9658 555.748 85.9658ZM555.228 79.5059C555.628 79.5059 555.978 79.5669 556.275 79.689C556.783 79.8989 557.193 80.2847 557.506 80.8462V79.6963H559.535V87.2695C559.535 88.2998 559.361 89.0762 559.015 89.5986C558.419 90.4971 557.276 90.9463 555.587 90.9463C554.566 90.9463 553.734 90.7461 553.089 90.3457C552.445 89.9453 552.088 89.3472 552.02 88.5513H554.291C554.349 88.7954 554.444 88.9712 554.576 89.0786C554.801 89.269 555.179 89.3643 555.711 89.3643C556.463 89.3643 556.966 89.1128 557.22 88.6099C557.386 88.2876 557.469 87.7456 557.469 86.9839V86.4712C557.269 86.813 557.054 87.0693 556.825 87.2402C556.41 87.5576 555.87 87.7163 555.206 87.7163C554.181 87.7163 553.36 87.3574 552.745 86.6396C552.135 85.917 551.83 84.9404 551.83 83.71C551.83 82.5234 552.125 81.5273 552.716 80.7217C553.307 79.9111 554.144 79.5059 555.228 79.5059ZM565.826 79.5059C565.865 79.5059 565.897 79.5083 565.921 79.5132C565.951 79.5132 566.012 79.5156 566.104 79.5205V81.6592C565.973 81.6445 565.855 81.6348 565.753 81.6299C565.65 81.625 565.567 81.6226 565.504 81.6226C564.664 81.6226 564.1 81.896 563.812 82.4429C563.651 82.7505 563.57 83.2241 563.57 83.8638V87.6797H561.468V79.6963H563.46V81.0879C563.783 80.5557 564.063 80.1919 564.303 79.9966C564.693 79.6694 565.201 79.5059 565.826 79.5059ZM571.737 83.7979C571.605 83.8809 571.471 83.9492 571.334 84.0029C571.202 84.0518 571.019 84.0981 570.785 84.1421L570.316 84.23C569.876 84.3081 569.562 84.4033 569.371 84.5156C569.049 84.7061 568.888 85.0015 568.888 85.4019C568.888 85.7583 568.985 86.0171 569.181 86.1782C569.381 86.3345 569.623 86.4126 569.906 86.4126C570.355 86.4126 570.768 86.2808 571.144 86.0171C571.524 85.7534 571.722 85.2725 571.737 84.5742V83.7979ZM570.47 82.8237C570.855 82.7749 571.131 82.7139 571.297 82.6406C571.595 82.5137 571.744 82.3159 571.744 82.0474C571.744 81.7202 571.629 81.4956 571.4 81.3735C571.175 81.2466 570.843 81.1831 570.404 81.1831C569.911 81.1831 569.562 81.3052 569.356 81.5493C569.21 81.73 569.112 81.9741 569.063 82.2817H567.049C567.093 81.5835 567.289 81.0098 567.635 80.5605C568.187 79.8574 569.134 79.5059 570.477 79.5059C571.351 79.5059 572.127 79.6792 572.806 80.0259C573.485 80.3726 573.824 81.0269 573.824 81.9888V85.6509C573.824 85.9048 573.829 86.2124 573.839 86.5737C573.854 86.8472 573.895 87.0327 573.963 87.1304C574.032 87.228 574.134 87.3086 574.271 87.3721V87.6797H572C571.937 87.5186 571.893 87.3672 571.869 87.2256C571.844 87.084 571.825 86.9229 571.81 86.7422C571.522 87.0547 571.19 87.3208 570.814 87.5405C570.365 87.7993 569.857 87.9287 569.291 87.9287C568.568 87.9287 567.97 87.7236 567.496 87.3135C567.027 86.8984 566.793 86.3125 566.793 85.5557C566.793 84.5742 567.171 83.8638 567.928 83.4243C568.343 83.1851 568.954 83.0142 569.759 82.9116L570.47 82.8237ZM581.185 83.688C581.185 83.0728 581.043 82.5283 580.76 82.0547C580.482 81.5811 580.028 81.3442 579.398 81.3442C578.641 81.3442 578.121 81.7031 577.838 82.4209C577.691 82.8018 577.618 83.2852 577.618 83.8711C577.618 84.7988 577.865 85.4507 578.358 85.8267C578.651 86.0464 578.998 86.1562 579.398 86.1562C579.979 86.1562 580.421 85.9316 580.724 85.4824C581.031 85.0332 581.185 84.4351 581.185 83.688ZM579.999 79.5205C580.931 79.5205 581.72 79.8647 582.364 80.5532C583.014 81.2417 583.338 82.2524 583.338 83.5854C583.338 84.9917 583.021 86.0635 582.386 86.8008C581.756 87.5381 580.943 87.9067 579.947 87.9067C579.312 87.9067 578.785 87.748 578.365 87.4307C578.136 87.2549 577.911 86.9985 577.691 86.6616V90.8218H575.626V79.6963H577.625V80.8755C577.85 80.5288 578.089 80.2554 578.343 80.0552C578.807 79.6987 579.359 79.5205 579.999 79.5205ZM589.256 79.4912C589.75 79.4912 590.196 79.5767 590.597 79.7476C591.002 79.9185 591.334 80.1797 591.593 80.5312C591.812 80.8291 591.947 81.1367 591.996 81.4541C592.044 81.7666 592.069 82.2793 592.069 82.9922V87.6797H589.938V82.8237C589.938 82.394 589.864 82.0474 589.718 81.7837C589.527 81.4126 589.166 81.2271 588.634 81.2271C588.082 81.2271 587.662 81.4126 587.374 81.7837C587.091 82.1499 586.949 82.6748 586.949 83.3584V87.6797H584.869V76.9204H586.949V80.7363C587.252 80.2725 587.601 79.9502 587.997 79.7695C588.397 79.584 588.817 79.4912 589.256 79.4912ZM594.347 89.2104L594.61 89.2251C594.815 89.2349 595.011 89.2275 595.196 89.2031C595.382 89.1787 595.538 89.1226 595.665 89.0347C595.787 88.9517 595.899 88.7783 596.002 88.5146C596.109 88.251 596.153 88.0898 596.134 88.0312L593.204 79.6963H595.526L597.269 85.585L598.917 79.6963H601.136L598.397 87.5479C597.87 89.0615 597.452 89.999 597.145 90.3604C596.837 90.7266 596.222 90.9097 595.299 90.9097C595.113 90.9097 594.964 90.9072 594.852 90.9023C594.74 90.9023 594.571 90.895 594.347 90.8804V89.2104Z" fill="#3F7665"/>
<path d="M673.552 199.345H671.872V192.64H670.687V198.73H669.037V186.22H670.687V191.245H671.872V185.98H673.552V199.345ZM664.327 194.74C665.692 194.785 667.297 194.665 668.197 194.44L668.362 195.82C667.357 196.09 665.392 196.18 663.847 196.18H662.572V187.57H667.627V188.965C666.532 188.965 665.437 188.95 664.327 188.95V194.74ZM682.811 189.745H675.056V188.38H682.811V189.745ZM682.166 192.58C682.166 194.005 680.816 195.01 679.016 195.01C677.186 195.01 675.836 194.005 675.836 192.58C675.836 191.17 677.171 190.12 679.016 190.12C680.816 190.12 682.166 191.17 682.166 192.58ZM677.036 187.75V186.415H681.011V187.75H677.036ZM685.616 185.98V190.3H687.476V191.755H685.616V195.91H683.861V185.98H685.616ZM685.931 199.03H676.796V195.505H678.566V197.635H685.931V199.03ZM677.576 192.58C677.576 193.18 678.236 193.6 679.016 193.6C679.781 193.6 680.456 193.18 680.456 192.58C680.456 191.95 679.781 191.515 679.016 191.515C678.236 191.515 677.576 191.95 677.576 192.58ZM699.179 195.67H697.439V185.98H699.179V195.67ZM699.464 198.985H690.239V194.71H692.009V197.605H699.464V198.985ZM695.159 193.3H688.814V186.985H695.159V193.3ZM693.434 191.92V188.35H690.554V191.92H693.434ZM702.573 194.65H706.278V192.37H701.118V190.975H709.578C709.758 190.12 709.908 188.68 709.893 187.855H702.663V186.445H711.648C711.648 188.155 711.498 189.745 711.243 190.975H713.193V192.37H708.033V194.65H711.648V199.36H709.908V196.045H702.573V194.65ZM721.127 197.695C719.897 197.695 718.697 197.35 718.112 196.975L718.412 195.64C718.937 195.97 720.047 196.225 720.812 196.225C722.192 196.225 723.002 195.655 723.002 194.5C723.002 193.405 722.177 192.955 720.872 192.94L719.807 192.91V191.575L720.752 191.56C721.937 191.53 722.732 190.99 722.732 190.03C722.732 188.995 722.027 188.62 720.902 188.62C720.137 188.62 719.327 188.875 718.712 189.16L718.502 187.795C719.132 187.435 720.377 187.15 721.382 187.15C723.287 187.15 724.577 188.05 724.577 189.7C724.577 190.93 723.857 191.71 722.732 192.1C724.022 192.355 724.922 193.09 724.922 194.62C724.922 196.51 723.467 197.695 721.127 197.695ZM737.449 199.345H735.769V192.64H734.584V198.73H732.934V186.22H734.584V191.245H735.769V185.98H737.449V199.345ZM728.224 194.74C729.589 194.785 731.194 194.665 732.094 194.44L732.259 195.82C731.254 196.09 729.289 196.18 727.744 196.18H726.469V187.57H731.524V188.965C730.429 188.965 729.334 188.95 728.224 188.95V194.74ZM750.517 199.24H741.322V195.67H748.357V194.815H741.232V193.42H750.097V196.96H743.092V197.83H750.517V199.24ZM739.657 188.095V186.7H746.707V188.095H744.187C744.427 189.79 745.717 190.795 747.097 191.23L746.137 192.595C745.132 192.235 743.857 191.185 743.257 190.03C742.852 191.35 741.472 192.52 740.182 192.97L739.132 191.635C740.872 190.99 742.102 189.835 742.312 188.095H739.657ZM750.097 192.745H748.357V185.98H750.097V192.745ZM760.121 193.795L760.226 195.085C757.871 195.415 753.896 195.565 752.036 195.565C751.961 195.085 751.886 194.635 751.796 194.155C752.891 194.155 754.046 194.155 755.171 194.125V193.42C753.821 193.21 752.906 192.535 752.906 191.635C752.906 190.48 754.226 189.685 756.071 189.685C757.916 189.685 759.236 190.48 759.236 191.635C759.236 192.55 758.306 193.225 756.926 193.42V194.065C758.051 194.02 759.146 193.93 760.121 193.795ZM762.626 185.98V190.495H764.276V191.95H762.626V196.36H760.871V185.98H762.626ZM762.911 199.15H753.686V196.075H755.441V197.785H762.911V199.15ZM759.836 189.445H752.321V188.155H759.836V189.445ZM754.226 187.66V186.355H758.006V187.66H754.226ZM757.511 191.635C757.511 191.23 757.016 190.915 756.071 190.915C755.141 190.915 754.631 191.23 754.631 191.635C754.631 191.98 755.141 192.325 756.071 192.325C757.016 192.325 757.511 191.98 757.511 191.635ZM779.41 185.98V191.02H781.315V192.475H779.41V199.345H777.64V185.98H779.41ZM775.765 196.045H769.435V187.06H771.175V190.27H774.01V187.03H775.765V196.045ZM774.01 194.665V191.65H771.175V194.665H774.01ZM792.868 194.2H788.818V196.285H794.008V197.68H781.933V196.285H787.063V194.2H783.478V189.775H790.738V188.23H783.403V186.835H792.478V191.17H785.218V192.79H792.868V194.2ZM805.742 199.195H796.652V195.685H803.582V194.86H796.562V193.465H805.367V196.96H798.392V197.785H805.742V199.195ZM807.272 190.165H805.367V192.67H803.582V185.98H805.367V188.725H807.272V190.165ZM794.987 189.55C794.987 187.75 796.457 186.445 798.452 186.445C800.447 186.445 801.902 187.72 801.902 189.55C801.902 191.32 800.447 192.52 798.452 192.52C796.547 192.52 794.987 191.365 794.987 189.55ZM796.712 189.535C796.712 190.42 797.432 191.08 798.452 191.08C799.502 191.08 800.207 190.345 800.207 189.535C800.207 188.605 799.517 187.885 798.452 187.885C797.507 187.885 796.712 188.62 796.712 189.535ZM818.945 199.345H817.19V185.98H818.945V199.345ZM814.835 187.375C814.73 191.41 812.945 194.71 808.865 196.93L807.785 195.61C810.71 194.275 812.705 191.485 812.945 188.83H808.595V187.375H814.835ZM820.854 199.57L821.454 196.54H823.344L822.264 199.57H820.854ZM840.649 197.47H828.574V196.075H832.909V191.575H834.664V196.075H840.649V197.47ZM839.269 187.15C839.329 190.51 839.164 192.955 838.699 194.725L837.019 194.515C837.439 192.97 837.544 190.405 837.499 188.56H829.864V187.15H839.269ZM853.628 197.47H841.553V196.075H845.888V191.575H847.643V196.075H853.628V197.47ZM852.248 187.15C852.308 190.51 852.143 192.955 851.678 194.725L849.998 194.515C850.418 192.97 850.523 190.405 850.478 188.56H842.843V187.15H852.248ZM856.706 191.68C858.656 191.68 860.621 191.575 861.986 191.275L862.181 192.625C860.921 192.91 858.731 193.09 856.271 193.09H854.966V186.985H860.921V188.38H856.706V191.68ZM866.861 190.66H864.971V193.795H863.201V185.98H864.971V189.235H866.861V190.66ZM865.136 196.645C865.136 198.265 863.456 199.315 860.546 199.315C857.666 199.315 855.986 198.265 855.986 196.645C855.986 194.98 857.666 193.945 860.546 193.945C863.456 193.945 865.136 194.98 865.136 196.645ZM863.321 196.645C863.321 195.85 862.316 195.355 860.546 195.355C858.806 195.355 857.786 195.85 857.786 196.645C857.786 197.44 858.806 197.92 860.546 197.92C862.316 197.92 863.321 197.44 863.321 196.645ZM868.41 194.56L868.17 186.865H870.12L869.91 194.56H868.41ZM868.26 197.755V196H870.06V197.755H868.26Z" fill="black"/>
<path d="M673.552 225.014H671.872V218.309H670.687V224.399H669.037V211.889H670.687V216.914H671.872V211.649H673.552V225.014ZM664.327 220.409C665.692 220.454 667.297 220.334 668.197 220.109L668.362 221.489C667.357 221.759 665.392 221.849 663.847 221.849H662.572V213.239H667.627V214.634C666.532 214.634 665.437 214.619 664.327 214.619V220.409ZM682.811 215.414H675.056V214.049H682.811V215.414ZM682.166 218.249C682.166 219.674 680.816 220.679 679.016 220.679C677.186 220.679 675.836 219.674 675.836 218.249C675.836 216.839 677.171 215.789 679.016 215.789C680.816 215.789 682.166 216.839 682.166 218.249ZM677.036 213.419V212.084H681.011V213.419H677.036ZM685.616 211.649V215.969H687.476V217.424H685.616V221.579H683.861V211.649H685.616ZM685.931 224.699H676.796V221.174H678.566V223.304H685.931V224.699ZM677.576 218.249C677.576 218.849 678.236 219.269 679.016 219.269C679.781 219.269 680.456 218.849 680.456 218.249C680.456 217.619 679.781 217.184 679.016 217.184C678.236 217.184 677.576 217.619 677.576 218.249ZM699.179 221.339H697.439V211.649H699.179V221.339ZM699.464 224.654H690.239V220.379H692.009V223.274H699.464V224.654ZM695.159 218.969H688.814V212.654H695.159V218.969ZM693.434 217.589V214.019H690.554V217.589H693.434ZM702.573 220.319H706.278V218.039H701.118V216.644H709.578C709.758 215.789 709.908 214.349 709.893 213.524H702.663V212.114H711.648C711.648 213.824 711.498 215.414 711.243 216.644H713.193V218.039H708.033V220.319H711.648V225.029H709.908V221.714H702.573V220.319ZM721.127 223.364C719.897 223.364 718.697 223.019 718.112 222.644L718.412 221.309C718.937 221.639 720.047 221.894 720.812 221.894C722.192 221.894 723.002 221.324 723.002 220.169C723.002 219.074 722.177 218.624 720.872 218.609L719.807 218.579V217.244L720.752 217.229C721.937 217.199 722.732 216.659 722.732 215.699C722.732 214.664 722.027 214.289 720.902 214.289C720.137 214.289 719.327 214.544 718.712 214.829L718.502 213.464C719.132 213.104 720.377 212.819 721.382 212.819C723.287 212.819 724.577 213.719 724.577 215.369C724.577 216.599 723.857 217.379 722.732 217.769C724.022 218.024 724.922 218.759 724.922 220.289C724.922 222.179 723.467 223.364 721.127 223.364ZM737.449 225.014H735.769V218.309H734.584V224.399H732.934V211.889H734.584V216.914H735.769V211.649H737.449V225.014ZM728.224 220.409C729.589 220.454 731.194 220.334 732.094 220.109L732.259 221.489C731.254 221.759 729.289 221.849 727.744 221.849H726.469V213.239H731.524V214.634C730.429 214.634 729.334 214.619 728.224 214.619V220.409ZM750.517 224.909H741.322V221.339H748.357V220.484H741.232V219.089H750.097V222.629H743.092V223.499H750.517V224.909ZM739.657 213.764V212.369H746.707V213.764H744.187C744.427 215.459 745.717 216.464 747.097 216.899L746.137 218.264C745.132 217.904 743.857 216.854 743.257 215.699C742.852 217.019 741.472 218.189 740.182 218.639L739.132 217.304C740.872 216.659 742.102 215.504 742.312 213.764H739.657ZM750.097 218.414H748.357V211.649H750.097V218.414ZM760.121 219.464L760.226 220.754C757.871 221.084 753.896 221.234 752.036 221.234C751.961 220.754 751.886 220.304 751.796 219.824C752.891 219.824 754.046 219.824 755.171 219.794V219.089C753.821 218.879 752.906 218.204 752.906 217.304C752.906 216.149 754.226 215.354 756.071 215.354C757.916 215.354 759.236 216.149 759.236 217.304C759.236 218.219 758.306 218.894 756.926 219.089V219.734C758.051 219.689 759.146 219.599 760.121 219.464ZM762.626 211.649V216.164H764.276V217.619H762.626V222.029H760.871V211.649H762.626ZM762.911 224.819H753.686V221.744H755.441V223.454H762.911V224.819ZM759.836 215.114H752.321V213.824H759.836V215.114ZM754.226 213.329V212.024H758.006V213.329H754.226ZM757.511 217.304C757.511 216.899 757.016 216.584 756.071 216.584C755.141 216.584 754.631 216.899 754.631 217.304C754.631 217.649 755.141 217.994 756.071 217.994C757.016 217.994 757.511 217.649 757.511 217.304ZM779.41 211.649V216.689H781.315V218.144H779.41V225.014H777.64V211.649H779.41ZM775.765 221.714H769.435V212.729H771.175V215.939H774.01V212.699H775.765V221.714ZM774.01 220.334V217.319H771.175V220.334H774.01ZM792.868 219.869H788.818V221.954H794.008V223.349H781.933V221.954H787.063V219.869H783.478V215.444H790.738V213.899H783.403V212.504H792.478V216.839H785.218V218.459H792.868V219.869ZM805.742 224.864H796.652V221.354H803.582V220.529H796.562V219.134H805.367V222.629H798.392V223.454H805.742V224.864ZM807.272 215.834H805.367V218.339H803.582V211.649H805.367V214.394H807.272V215.834ZM794.987 215.219C794.987 213.419 796.457 212.114 798.452 212.114C800.447 212.114 801.902 213.389 801.902 215.219C801.902 216.989 800.447 218.189 798.452 218.189C796.547 218.189 794.987 217.034 794.987 215.219ZM796.712 215.204C796.712 216.089 797.432 216.749 798.452 216.749C799.502 216.749 800.207 216.014 800.207 215.204C800.207 214.274 799.517 213.554 798.452 213.554C797.507 213.554 796.712 214.289 796.712 215.204ZM818.945 225.014H817.19V211.649H818.945V225.014ZM814.835 213.044C814.73 217.079 812.945 220.379 808.865 222.599L807.785 221.279C810.71 219.944 812.705 217.154 812.945 214.499H808.595V213.044H814.835ZM820.854 225.239L821.454 222.209H823.344L822.264 225.239H820.854ZM840.649 223.139H828.574V221.744H832.909V217.244H834.664V221.744H840.649V223.139ZM839.269 212.819C839.329 216.179 839.164 218.624 838.699 220.394L837.019 220.184C837.439 218.639 837.544 216.074 837.499 214.229H829.864V212.819H839.269ZM853.628 223.139H841.553V221.744H845.888V217.244H847.643V221.744H853.628V223.139ZM852.248 212.819C852.308 216.179 852.143 218.624 851.678 220.394L849.998 220.184C850.418 218.639 850.523 216.074 850.478 214.229H842.843V212.819H852.248ZM856.706 217.349C858.656 217.349 860.621 217.244 861.986 216.944L862.181 218.294C860.921 218.579 858.731 218.759 856.271 218.759H854.966V212.654H860.921V214.049H856.706V217.349ZM866.861 216.329H864.971V219.464H863.201V211.649H864.971V214.904H866.861V216.329ZM865.136 222.314C865.136 223.934 863.456 224.984 860.546 224.984C857.666 224.984 855.986 223.934 855.986 222.314C855.986 220.649 857.666 219.614 860.546 219.614C863.456 219.614 865.136 220.649 865.136 222.314ZM863.321 222.314C863.321 221.519 862.316 221.024 860.546 221.024C858.806 221.024 857.786 221.519 857.786 222.314C857.786 223.109 858.806 223.589 860.546 223.589C862.316 223.589 863.321 223.109 863.321 222.314ZM868.41 220.229L868.17 212.534H870.12L869.91 220.229H868.41ZM868.26 223.424V221.669H870.06V223.424H868.26Z" fill="black"/>
<path d="M673.552 250.683H671.872V243.978H670.687V250.068H669.037V237.558H670.687V242.583H671.872V237.318H673.552V250.683ZM664.327 246.078C665.692 246.123 667.297 246.003 668.197 245.778L668.362 247.158C667.357 247.428 665.392 247.518 663.847 247.518H662.572V238.908H667.627V240.303C666.532 240.303 665.437 240.288 664.327 240.288V246.078ZM682.811 241.083H675.056V239.718H682.811V241.083ZM682.166 243.918C682.166 245.343 680.816 246.348 679.016 246.348C677.186 246.348 675.836 245.343 675.836 243.918C675.836 242.508 677.171 241.458 679.016 241.458C680.816 241.458 682.166 242.508 682.166 243.918ZM677.036 239.088V237.753H681.011V239.088H677.036ZM685.616 237.318V241.638H687.476V243.093H685.616V247.248H683.861V237.318H685.616ZM685.931 250.368H676.796V246.843H678.566V248.973H685.931V250.368ZM677.576 243.918C677.576 244.518 678.236 244.938 679.016 244.938C679.781 244.938 680.456 244.518 680.456 243.918C680.456 243.288 679.781 242.853 679.016 242.853C678.236 242.853 677.576 243.288 677.576 243.918ZM699.179 247.008H697.439V237.318H699.179V247.008ZM699.464 250.323H690.239V246.048H692.009V248.943H699.464V250.323ZM695.159 244.638H688.814V238.323H695.159V244.638ZM693.434 243.258V239.688H690.554V243.258H693.434ZM702.573 245.988H706.278V243.708H701.118V242.313H709.578C709.758 241.458 709.908 240.018 709.893 239.193H702.663V237.783H711.648C711.648 239.493 711.498 241.083 711.243 242.313H713.193V243.708H708.033V245.988H711.648V250.698H709.908V247.383H702.573V245.988ZM721.127 249.033C719.897 249.033 718.697 248.688 718.112 248.313L718.412 246.978C718.937 247.308 720.047 247.563 720.812 247.563C722.192 247.563 723.002 246.993 723.002 245.838C723.002 244.743 722.177 244.293 720.872 244.278L719.807 244.248V242.913L720.752 242.898C721.937 242.868 722.732 242.328 722.732 241.368C722.732 240.333 722.027 239.958 720.902 239.958C720.137 239.958 719.327 240.213 718.712 240.498L718.502 239.133C719.132 238.773 720.377 238.488 721.382 238.488C723.287 238.488 724.577 239.388 724.577 241.038C724.577 242.268 723.857 243.048 722.732 243.438C724.022 243.693 724.922 244.428 724.922 245.958C724.922 247.848 723.467 249.033 721.127 249.033ZM737.449 250.683H735.769V243.978H734.584V250.068H732.934V237.558H734.584V242.583H735.769V237.318H737.449V250.683ZM728.224 246.078C729.589 246.123 731.194 246.003 732.094 245.778L732.259 247.158C731.254 247.428 729.289 247.518 727.744 247.518H726.469V238.908H731.524V240.303C730.429 240.303 729.334 240.288 728.224 240.288V246.078ZM750.517 250.578H741.322V247.008H748.357V246.153H741.232V244.758H750.097V248.298H743.092V249.168H750.517V250.578ZM739.657 239.433V238.038H746.707V239.433H744.187C744.427 241.128 745.717 242.133 747.097 242.568L746.137 243.933C745.132 243.573 743.857 242.523 743.257 241.368C742.852 242.688 741.472 243.858 740.182 244.308L739.132 242.973C740.872 242.328 742.102 241.173 742.312 239.433H739.657ZM750.097 244.083H748.357V237.318H750.097V244.083ZM760.121 245.133L760.226 246.423C757.871 246.753 753.896 246.903 752.036 246.903C751.961 246.423 751.886 245.973 751.796 245.493C752.891 245.493 754.046 245.493 755.171 245.463V244.758C753.821 244.548 752.906 243.873 752.906 242.973C752.906 241.818 754.226 241.023 756.071 241.023C757.916 241.023 759.236 241.818 759.236 242.973C759.236 243.888 758.306 244.563 756.926 244.758V245.403C758.051 245.358 759.146 245.268 760.121 245.133ZM762.626 237.318V241.833H764.276V243.288H762.626V247.698H760.871V237.318H762.626ZM762.911 250.488H753.686V247.413H755.441V249.123H762.911V250.488ZM759.836 240.783H752.321V239.493H759.836V240.783ZM754.226 238.998V237.693H758.006V238.998H754.226ZM757.511 242.973C757.511 242.568 757.016 242.253 756.071 242.253C755.141 242.253 754.631 242.568 754.631 242.973C754.631 243.318 755.141 243.663 756.071 243.663C757.016 243.663 757.511 243.318 757.511 242.973ZM779.41 237.318V242.358H781.315V243.813H779.41V250.683H777.64V237.318H779.41ZM775.765 247.383H769.435V238.398H771.175V241.608H774.01V238.368H775.765V247.383ZM774.01 246.003V242.988H771.175V246.003H774.01ZM792.868 245.538H788.818V247.623H794.008V249.018H781.933V247.623H787.063V245.538H783.478V241.113H790.738V239.568H783.403V238.173H792.478V242.508H785.218V244.128H792.868V245.538ZM805.742 250.533H796.652V247.023H803.582V246.198H796.562V244.803H805.367V248.298H798.392V249.123H805.742V250.533ZM807.272 241.503H805.367V244.008H803.582V237.318H805.367V240.063H807.272V241.503ZM794.987 240.888C794.987 239.088 796.457 237.783 798.452 237.783C800.447 237.783 801.902 239.058 801.902 240.888C801.902 242.658 800.447 243.858 798.452 243.858C796.547 243.858 794.987 242.703 794.987 240.888ZM796.712 240.873C796.712 241.758 797.432 242.418 798.452 242.418C799.502 242.418 800.207 241.683 800.207 240.873C800.207 239.943 799.517 239.223 798.452 239.223C797.507 239.223 796.712 239.958 796.712 240.873ZM818.945 250.683H817.19V237.318H818.945V250.683ZM814.835 238.713C814.73 242.748 812.945 246.048 808.865 248.268L807.785 246.948C810.71 245.613 812.705 242.823 812.945 240.168H808.595V238.713H814.835ZM820.854 250.908L821.454 247.878H823.344L822.264 250.908H820.854ZM840.649 248.808H828.574V247.413H832.909V242.913H834.664V247.413H840.649V248.808ZM839.269 238.488C839.329 241.848 839.164 244.293 838.699 246.063L837.019 245.853C837.439 244.308 837.544 241.743 837.499 239.898H829.864V238.488H839.269ZM853.628 248.808H841.553V247.413H845.888V242.913H847.643V247.413H853.628V248.808ZM852.248 238.488C852.308 241.848 852.143 244.293 851.678 246.063L849.998 245.853C850.418 244.308 850.523 241.743 850.478 239.898H842.843V238.488H852.248ZM856.706 243.018C858.656 243.018 860.621 242.913 861.986 242.613L862.181 243.963C860.921 244.248 858.731 244.428 856.271 244.428H854.966V238.323H860.921V239.718H856.706V243.018ZM866.861 241.998H864.971V245.133H863.201V237.318H864.971V240.573H866.861V241.998ZM865.136 247.983C865.136 249.603 863.456 250.653 860.546 250.653C857.666 250.653 855.986 249.603 855.986 247.983C855.986 246.318 857.666 245.283 860.546 245.283C863.456 245.283 865.136 246.318 865.136 247.983ZM863.321 247.983C863.321 247.188 862.316 246.693 860.546 246.693C858.806 246.693 857.786 247.188 857.786 247.983C857.786 248.778 858.806 249.258 860.546 249.258C862.316 249.258 863.321 248.778 863.321 247.983ZM868.41 245.898L868.17 238.203H870.12L869.91 245.898H868.41ZM868.26 249.093V247.338H870.06V249.093H868.26Z" fill="black"/>
<path d="M673.552 276.352H671.872V269.647H670.687V275.737H669.037V263.227H670.687V268.252H671.872V262.987H673.552V276.352ZM664.327 271.747C665.692 271.792 667.297 271.672 668.197 271.447L668.362 272.827C667.357 273.097 665.392 273.187 663.847 273.187H662.572V264.577H667.627V265.972C666.532 265.972 665.437 265.957 664.327 265.957V271.747ZM682.811 266.752H675.056V265.387H682.811V266.752ZM682.166 269.587C682.166 271.012 680.816 272.017 679.016 272.017C677.186 272.017 675.836 271.012 675.836 269.587C675.836 268.177 677.171 267.127 679.016 267.127C680.816 267.127 682.166 268.177 682.166 269.587ZM677.036 264.757V263.422H681.011V264.757H677.036ZM685.616 262.987V267.307H687.476V268.762H685.616V272.917H683.861V262.987H685.616ZM685.931 276.037H676.796V272.512H678.566V274.642H685.931V276.037ZM677.576 269.587C677.576 270.187 678.236 270.607 679.016 270.607C679.781 270.607 680.456 270.187 680.456 269.587C680.456 268.957 679.781 268.522 679.016 268.522C678.236 268.522 677.576 268.957 677.576 269.587ZM699.179 272.677H697.439V262.987H699.179V272.677ZM699.464 275.992H690.239V271.717H692.009V274.612H699.464V275.992ZM695.159 270.307H688.814V263.992H695.159V270.307ZM693.434 268.927V265.357H690.554V268.927H693.434ZM702.573 271.657H706.278V269.377H701.118V267.982H709.578C709.758 267.127 709.908 265.687 709.893 264.862H702.663V263.452H711.648C711.648 265.162 711.498 266.752 711.243 267.982H713.193V269.377H708.033V271.657H711.648V276.367H709.908V273.052H702.573V271.657ZM721.127 274.702C719.897 274.702 718.697 274.357 718.112 273.982L718.412 272.647C718.937 272.977 720.047 273.232 720.812 273.232C722.192 273.232 723.002 272.662 723.002 271.507C723.002 270.412 722.177 269.962 720.872 269.947L719.807 269.917V268.582L720.752 268.567C721.937 268.537 722.732 267.997 722.732 267.037C722.732 266.002 722.027 265.627 720.902 265.627C720.137 265.627 719.327 265.882 718.712 266.167L718.502 264.802C719.132 264.442 720.377 264.157 721.382 264.157C723.287 264.157 724.577 265.057 724.577 266.707C724.577 267.937 723.857 268.717 722.732 269.107C724.022 269.362 724.922 270.097 724.922 271.627C724.922 273.517 723.467 274.702 721.127 274.702ZM737.449 276.352H735.769V269.647H734.584V275.737H732.934V263.227H734.584V268.252H735.769V262.987H737.449V276.352ZM728.224 271.747C729.589 271.792 731.194 271.672 732.094 271.447L732.259 272.827C731.254 273.097 729.289 273.187 727.744 273.187H726.469V264.577H731.524V265.972C730.429 265.972 729.334 265.957 728.224 265.957V271.747ZM750.517 276.247H741.322V272.677H748.357V271.822H741.232V270.427H750.097V273.967H743.092V274.837H750.517V276.247ZM739.657 265.102V263.707H746.707V265.102H744.187C744.427 266.797 745.717 267.802 747.097 268.237L746.137 269.602C745.132 269.242 743.857 268.192 743.257 267.037C742.852 268.357 741.472 269.527 740.182 269.977L739.132 268.642C740.872 267.997 742.102 266.842 742.312 265.102H739.657ZM750.097 269.752H748.357V262.987H750.097V269.752ZM760.121 270.802L760.226 272.092C757.871 272.422 753.896 272.572 752.036 272.572C751.961 272.092 751.886 271.642 751.796 271.162C752.891 271.162 754.046 271.162 755.171 271.132V270.427C753.821 270.217 752.906 269.542 752.906 268.642C752.906 267.487 754.226 266.692 756.071 266.692C757.916 266.692 759.236 267.487 759.236 268.642C759.236 269.557 758.306 270.232 756.926 270.427V271.072C758.051 271.027 759.146 270.937 760.121 270.802ZM762.626 262.987V267.502H764.276V268.957H762.626V273.367H760.871V262.987H762.626ZM762.911 276.157H753.686V273.082H755.441V274.792H762.911V276.157ZM759.836 266.452H752.321V265.162H759.836V266.452ZM754.226 264.667V263.362H758.006V264.667H754.226ZM757.511 268.642C757.511 268.237 757.016 267.922 756.071 267.922C755.141 267.922 754.631 268.237 754.631 268.642C754.631 268.987 755.141 269.332 756.071 269.332C757.016 269.332 757.511 268.987 757.511 268.642ZM779.41 262.987V268.027H781.315V269.482H779.41V276.352H777.64V262.987H779.41ZM775.765 273.052H769.435V264.067H771.175V267.277H774.01V264.037H775.765V273.052ZM774.01 271.672V268.657H771.175V271.672H774.01ZM792.868 271.207H788.818V273.292H794.008V274.687H781.933V273.292H787.063V271.207H783.478V266.782H790.738V265.237H783.403V263.842H792.478V268.177H785.218V269.797H792.868V271.207ZM805.742 276.202H796.652V272.692H803.582V271.867H796.562V270.472H805.367V273.967H798.392V274.792H805.742V276.202ZM807.272 267.172H805.367V269.677H803.582V262.987H805.367V265.732H807.272V267.172ZM794.987 266.557C794.987 264.757 796.457 263.452 798.452 263.452C800.447 263.452 801.902 264.727 801.902 266.557C801.902 268.327 800.447 269.527 798.452 269.527C796.547 269.527 794.987 268.372 794.987 266.557ZM796.712 266.542C796.712 267.427 797.432 268.087 798.452 268.087C799.502 268.087 800.207 267.352 800.207 266.542C800.207 265.612 799.517 264.892 798.452 264.892C797.507 264.892 796.712 265.627 796.712 266.542ZM818.945 276.352H817.19V262.987H818.945V276.352ZM814.835 264.382C814.73 268.417 812.945 271.717 808.865 273.937L807.785 272.617C810.71 271.282 812.705 268.492 812.945 265.837H808.595V264.382H814.835ZM820.854 276.577L821.454 273.547H823.344L822.264 276.577H820.854ZM840.649 274.477H828.574V273.082H832.909V268.582H834.664V273.082H840.649V274.477ZM839.269 264.157C839.329 267.517 839.164 269.962 838.699 271.732L837.019 271.522C837.439 269.977 837.544 267.412 837.499 265.567H829.864V264.157H839.269ZM853.628 274.477H841.553V273.082H845.888V268.582H847.643V273.082H853.628V274.477ZM852.248 264.157C852.308 267.517 852.143 269.962 851.678 271.732L849.998 271.522C850.418 269.977 850.523 267.412 850.478 265.567H842.843V264.157H852.248ZM856.706 268.687C858.656 268.687 860.621 268.582 861.986 268.282L862.181 269.632C860.921 269.917 858.731 270.097 856.271 270.097H854.966V263.992H860.921V265.387H856.706V268.687ZM866.861 267.667H864.971V270.802H863.201V262.987H864.971V266.242H866.861V267.667ZM865.136 273.652C865.136 275.272 863.456 276.322 860.546 276.322C857.666 276.322 855.986 275.272 855.986 273.652C855.986 271.987 857.666 270.952 860.546 270.952C863.456 270.952 865.136 271.987 865.136 273.652ZM863.321 273.652C863.321 272.857 862.316 272.362 860.546 272.362C858.806 272.362 857.786 272.857 857.786 273.652C857.786 274.447 858.806 274.927 860.546 274.927C862.316 274.927 863.321 274.447 863.321 273.652ZM868.41 271.567L868.17 263.872H870.12L869.91 271.567H868.41ZM868.26 274.762V273.007H870.06V274.762H868.26Z" fill="black"/>
<path d="M673.552 302.021H671.872V295.316H670.687V301.406H669.037V288.896H670.687V293.921H671.872V288.656H673.552V302.021ZM664.327 297.416C665.692 297.461 667.297 297.341 668.197 297.116L668.362 298.496C667.357 298.766 665.392 298.856 663.847 298.856H662.572V290.246H667.627V291.641C666.532 291.641 665.437 291.626 664.327 291.626V297.416ZM682.811 292.421H675.056V291.056H682.811V292.421ZM682.166 295.256C682.166 296.681 680.816 297.686 679.016 297.686C677.186 297.686 675.836 296.681 675.836 295.256C675.836 293.846 677.171 292.796 679.016 292.796C680.816 292.796 682.166 293.846 682.166 295.256ZM677.036 290.426V289.091H681.011V290.426H677.036ZM685.616 288.656V292.976H687.476V294.431H685.616V298.586H683.861V288.656H685.616ZM685.931 301.706H676.796V298.181H678.566V300.311H685.931V301.706ZM677.576 295.256C677.576 295.856 678.236 296.276 679.016 296.276C679.781 296.276 680.456 295.856 680.456 295.256C680.456 294.626 679.781 294.191 679.016 294.191C678.236 294.191 677.576 294.626 677.576 295.256ZM699.179 298.346H697.439V288.656H699.179V298.346ZM699.464 301.661H690.239V297.386H692.009V300.281H699.464V301.661ZM695.159 295.976H688.814V289.661H695.159V295.976ZM693.434 294.596V291.026H690.554V294.596H693.434ZM702.573 297.326H706.278V295.046H701.118V293.651H709.578C709.758 292.796 709.908 291.356 709.893 290.531H702.663V289.121H711.648C711.648 290.831 711.498 292.421 711.243 293.651H713.193V295.046H708.033V297.326H711.648V302.036H709.908V298.721H702.573V297.326ZM721.127 300.371C719.897 300.371 718.697 300.026 718.112 299.651L718.412 298.316C718.937 298.646 720.047 298.901 720.812 298.901C722.192 298.901 723.002 298.331 723.002 297.176C723.002 296.081 722.177 295.631 720.872 295.616L719.807 295.586V294.251L720.752 294.236C721.937 294.206 722.732 293.666 722.732 292.706C722.732 291.671 722.027 291.296 720.902 291.296C720.137 291.296 719.327 291.551 718.712 291.836L718.502 290.471C719.132 290.111 720.377 289.826 721.382 289.826C723.287 289.826 724.577 290.726 724.577 292.376C724.577 293.606 723.857 294.386 722.732 294.776C724.022 295.031 724.922 295.766 724.922 297.296C724.922 299.186 723.467 300.371 721.127 300.371ZM737.449 302.021H735.769V295.316H734.584V301.406H732.934V288.896H734.584V293.921H735.769V288.656H737.449V302.021ZM728.224 297.416C729.589 297.461 731.194 297.341 732.094 297.116L732.259 298.496C731.254 298.766 729.289 298.856 727.744 298.856H726.469V290.246H731.524V291.641C730.429 291.641 729.334 291.626 728.224 291.626V297.416ZM750.517 301.916H741.322V298.346H748.357V297.491H741.232V296.096H750.097V299.636H743.092V300.506H750.517V301.916ZM739.657 290.771V289.376H746.707V290.771H744.187C744.427 292.466 745.717 293.471 747.097 293.906L746.137 295.271C745.132 294.911 743.857 293.861 743.257 292.706C742.852 294.026 741.472 295.196 740.182 295.646L739.132 294.311C740.872 293.666 742.102 292.511 742.312 290.771H739.657ZM750.097 295.421H748.357V288.656H750.097V295.421ZM760.121 296.471L760.226 297.761C757.871 298.091 753.896 298.241 752.036 298.241C751.961 297.761 751.886 297.311 751.796 296.831C752.891 296.831 754.046 296.831 755.171 296.801V296.096C753.821 295.886 752.906 295.211 752.906 294.311C752.906 293.156 754.226 292.361 756.071 292.361C757.916 292.361 759.236 293.156 759.236 294.311C759.236 295.226 758.306 295.901 756.926 296.096V296.741C758.051 296.696 759.146 296.606 760.121 296.471ZM762.626 288.656V293.171H764.276V294.626H762.626V299.036H760.871V288.656H762.626ZM762.911 301.826H753.686V298.751H755.441V300.461H762.911V301.826ZM759.836 292.121H752.321V290.831H759.836V292.121ZM754.226 290.336V289.031H758.006V290.336H754.226ZM757.511 294.311C757.511 293.906 757.016 293.591 756.071 293.591C755.141 293.591 754.631 293.906 754.631 294.311C754.631 294.656 755.141 295.001 756.071 295.001C757.016 295.001 757.511 294.656 757.511 294.311ZM779.41 288.656V293.696H781.315V295.151H779.41V302.021H777.64V288.656H779.41ZM775.765 298.721H769.435V289.736H771.175V292.946H774.01V289.706H775.765V298.721ZM774.01 297.341V294.326H771.175V297.341H774.01ZM792.868 296.876H788.818V298.961H794.008V300.356H781.933V298.961H787.063V296.876H783.478V292.451H790.738V290.906H783.403V289.511H792.478V293.846H785.218V295.466H792.868V296.876ZM805.742 301.871H796.652V298.361H803.582V297.536H796.562V296.141H805.367V299.636H798.392V300.461H805.742V301.871ZM807.272 292.841H805.367V295.346H803.582V288.656H805.367V291.401H807.272V292.841ZM794.987 292.226C794.987 290.426 796.457 289.121 798.452 289.121C800.447 289.121 801.902 290.396 801.902 292.226C801.902 293.996 800.447 295.196 798.452 295.196C796.547 295.196 794.987 294.041 794.987 292.226ZM796.712 292.211C796.712 293.096 797.432 293.756 798.452 293.756C799.502 293.756 800.207 293.021 800.207 292.211C800.207 291.281 799.517 290.561 798.452 290.561C797.507 290.561 796.712 291.296 796.712 292.211ZM818.945 302.021H817.19V288.656H818.945V302.021ZM814.835 290.051C814.73 294.086 812.945 297.386 808.865 299.606L807.785 298.286C810.71 296.951 812.705 294.161 812.945 291.506H808.595V290.051H814.835ZM820.854 302.246L821.454 299.216H823.344L822.264 302.246H820.854ZM840.649 300.146H828.574V298.751H832.909V294.251H834.664V298.751H840.649V300.146ZM839.269 289.826C839.329 293.186 839.164 295.631 838.699 297.401L837.019 297.191C837.439 295.646 837.544 293.081 837.499 291.236H829.864V289.826H839.269ZM853.628 300.146H841.553V298.751H845.888V294.251H847.643V298.751H853.628V300.146ZM852.248 289.826C852.308 293.186 852.143 295.631 851.678 297.401L849.998 297.191C850.418 295.646 850.523 293.081 850.478 291.236H842.843V289.826H852.248ZM856.706 294.356C858.656 294.356 860.621 294.251 861.986 293.951L862.181 295.301C860.921 295.586 858.731 295.766 856.271 295.766H854.966V289.661H860.921V291.056H856.706V294.356ZM866.861 293.336H864.971V296.471H863.201V288.656H864.971V291.911H866.861V293.336ZM865.136 299.321C865.136 300.941 863.456 301.991 860.546 301.991C857.666 301.991 855.986 300.941 855.986 299.321C855.986 297.656 857.666 296.621 860.546 296.621C863.456 296.621 865.136 297.656 865.136 299.321ZM863.321 299.321C863.321 298.526 862.316 298.031 860.546 298.031C858.806 298.031 857.786 298.526 857.786 299.321C857.786 300.116 858.806 300.596 860.546 300.596C862.316 300.596 863.321 300.116 863.321 299.321ZM868.41 297.236L868.17 289.541H870.12L869.91 297.236H868.41ZM868.26 300.431V298.676H870.06V300.431H868.26Z" fill="black"/>
<path d="M673.552 327.69H671.872V320.985H670.687V327.075H669.037V314.565H670.687V319.59H671.872V314.325H673.552V327.69ZM664.327 323.085C665.692 323.13 667.297 323.01 668.197 322.785L668.362 324.165C667.357 324.435 665.392 324.525 663.847 324.525H662.572V315.915H667.627V317.31C666.532 317.31 665.437 317.295 664.327 317.295V323.085ZM682.811 318.09H675.056V316.725H682.811V318.09ZM682.166 320.925C682.166 322.35 680.816 323.355 679.016 323.355C677.186 323.355 675.836 322.35 675.836 320.925C675.836 319.515 677.171 318.465 679.016 318.465C680.816 318.465 682.166 319.515 682.166 320.925ZM677.036 316.095V314.76H681.011V316.095H677.036ZM685.616 314.325V318.645H687.476V320.1H685.616V324.255H683.861V314.325H685.616ZM685.931 327.375H676.796V323.85H678.566V325.98H685.931V327.375ZM677.576 320.925C677.576 321.525 678.236 321.945 679.016 321.945C679.781 321.945 680.456 321.525 680.456 320.925C680.456 320.295 679.781 319.86 679.016 319.86C678.236 319.86 677.576 320.295 677.576 320.925ZM699.179 324.015H697.439V314.325H699.179V324.015ZM699.464 327.33H690.239V323.055H692.009V325.95H699.464V327.33ZM695.159 321.645H688.814V315.33H695.159V321.645ZM693.434 320.265V316.695H690.554V320.265H693.434ZM702.573 322.995H706.278V320.715H701.118V319.32H709.578C709.758 318.465 709.908 317.025 709.893 316.2H702.663V314.79H711.648C711.648 316.5 711.498 318.09 711.243 319.32H713.193V320.715H708.033V322.995H711.648V327.705H709.908V324.39H702.573V322.995ZM721.127 326.04C719.897 326.04 718.697 325.695 718.112 325.32L718.412 323.985C718.937 324.315 720.047 324.57 720.812 324.57C722.192 324.57 723.002 324 723.002 322.845C723.002 321.75 722.177 321.3 720.872 321.285L719.807 321.255V319.92L720.752 319.905C721.937 319.875 722.732 319.335 722.732 318.375C722.732 317.34 722.027 316.965 720.902 316.965C720.137 316.965 719.327 317.22 718.712 317.505L718.502 316.14C719.132 315.78 720.377 315.495 721.382 315.495C723.287 315.495 724.577 316.395 724.577 318.045C724.577 319.275 723.857 320.055 722.732 320.445C724.022 320.7 724.922 321.435 724.922 322.965C724.922 324.855 723.467 326.04 721.127 326.04ZM737.449 327.69H735.769V320.985H734.584V327.075H732.934V314.565H734.584V319.59H735.769V314.325H737.449V327.69ZM728.224 323.085C729.589 323.13 731.194 323.01 732.094 322.785L732.259 324.165C731.254 324.435 729.289 324.525 727.744 324.525H726.469V315.915H731.524V317.31C730.429 317.31 729.334 317.295 728.224 317.295V323.085ZM750.517 327.585H741.322V324.015H748.357V323.16H741.232V321.765H750.097V325.305H743.092V326.175H750.517V327.585ZM739.657 316.44V315.045H746.707V316.44H744.187C744.427 318.135 745.717 319.14 747.097 319.575L746.137 320.94C745.132 320.58 743.857 319.53 743.257 318.375C742.852 319.695 741.472 320.865 740.182 321.315L739.132 319.98C740.872 319.335 742.102 318.18 742.312 316.44H739.657ZM750.097 321.09H748.357V314.325H750.097V321.09ZM760.121 322.14L760.226 323.43C757.871 323.76 753.896 323.91 752.036 323.91C751.961 323.43 751.886 322.98 751.796 322.5C752.891 322.5 754.046 322.5 755.171 322.47V321.765C753.821 321.555 752.906 320.88 752.906 319.98C752.906 318.825 754.226 318.03 756.071 318.03C757.916 318.03 759.236 318.825 759.236 319.98C759.236 320.895 758.306 321.57 756.926 321.765V322.41C758.051 322.365 759.146 322.275 760.121 322.14ZM762.626 314.325V318.84H764.276V320.295H762.626V324.705H760.871V314.325H762.626ZM762.911 327.495H753.686V324.42H755.441V326.13H762.911V327.495ZM759.836 317.79H752.321V316.5H759.836V317.79ZM754.226 316.005V314.7H758.006V316.005H754.226ZM757.511 319.98C757.511 319.575 757.016 319.26 756.071 319.26C755.141 319.26 754.631 319.575 754.631 319.98C754.631 320.325 755.141 320.67 756.071 320.67C757.016 320.67 757.511 320.325 757.511 319.98ZM779.41 314.325V319.365H781.315V320.82H779.41V327.69H777.64V314.325H779.41ZM775.765 324.39H769.435V315.405H771.175V318.615H774.01V315.375H775.765V324.39ZM774.01 323.01V319.995H771.175V323.01H774.01ZM792.868 322.545H788.818V324.63H794.008V326.025H781.933V324.63H787.063V322.545H783.478V318.12H790.738V316.575H783.403V315.18H792.478V319.515H785.218V321.135H792.868V322.545ZM805.742 327.54H796.652V324.03H803.582V323.205H796.562V321.81H805.367V325.305H798.392V326.13H805.742V327.54ZM807.272 318.51H805.367V321.015H803.582V314.325H805.367V317.07H807.272V318.51ZM794.987 317.895C794.987 316.095 796.457 314.79 798.452 314.79C800.447 314.79 801.902 316.065 801.902 317.895C801.902 319.665 800.447 320.865 798.452 320.865C796.547 320.865 794.987 319.71 794.987 317.895ZM796.712 317.88C796.712 318.765 797.432 319.425 798.452 319.425C799.502 319.425 800.207 318.69 800.207 317.88C800.207 316.95 799.517 316.23 798.452 316.23C797.507 316.23 796.712 316.965 796.712 317.88ZM818.945 327.69H817.19V314.325H818.945V327.69ZM814.835 315.72C814.73 319.755 812.945 323.055 808.865 325.275L807.785 323.955C810.71 322.62 812.705 319.83 812.945 317.175H808.595V315.72H814.835ZM820.854 327.915L821.454 324.885H823.344L822.264 327.915H820.854ZM840.649 325.815H828.574V324.42H832.909V319.92H834.664V324.42H840.649V325.815ZM839.269 315.495C839.329 318.855 839.164 321.3 838.699 323.07L837.019 322.86C837.439 321.315 837.544 318.75 837.499 316.905H829.864V315.495H839.269ZM853.628 325.815H841.553V324.42H845.888V319.92H847.643V324.42H853.628V325.815ZM852.248 315.495C852.308 318.855 852.143 321.3 851.678 323.07L849.998 322.86C850.418 321.315 850.523 318.75 850.478 316.905H842.843V315.495H852.248ZM856.706 320.025C858.656 320.025 860.621 319.92 861.986 319.62L862.181 320.97C860.921 321.255 858.731 321.435 856.271 321.435H854.966V315.33H860.921V316.725H856.706V320.025ZM866.861 319.005H864.971V322.14H863.201V314.325H864.971V317.58H866.861V319.005ZM865.136 324.99C865.136 326.61 863.456 327.66 860.546 327.66C857.666 327.66 855.986 326.61 855.986 324.99C855.986 323.325 857.666 322.29 860.546 322.29C863.456 322.29 865.136 323.325 865.136 324.99ZM863.321 324.99C863.321 324.195 862.316 323.7 860.546 323.7C858.806 323.7 857.786 324.195 857.786 324.99C857.786 325.785 858.806 326.265 860.546 326.265C862.316 326.265 863.321 325.785 863.321 324.99ZM868.41 322.905L868.17 315.21H870.12L869.91 322.905H868.41ZM868.26 326.1V324.345H870.06V326.1H868.26Z" fill="black"/>
<path d="M673.552 353.359H671.872V346.654H670.687V352.744H669.037V340.234H670.687V345.259H671.872V339.994H673.552V353.359ZM664.327 348.754C665.692 348.799 667.297 348.679 668.197 348.454L668.362 349.834C667.357 350.104 665.392 350.194 663.847 350.194H662.572V341.584H667.627V342.979C666.532 342.979 665.437 342.964 664.327 342.964V348.754ZM682.811 343.759H675.056V342.394H682.811V343.759ZM682.166 346.594C682.166 348.019 680.816 349.024 679.016 349.024C677.186 349.024 675.836 348.019 675.836 346.594C675.836 345.184 677.171 344.134 679.016 344.134C680.816 344.134 682.166 345.184 682.166 346.594ZM677.036 341.764V340.429H681.011V341.764H677.036ZM685.616 339.994V344.314H687.476V345.769H685.616V349.924H683.861V339.994H685.616ZM685.931 353.044H676.796V349.519H678.566V351.649H685.931V353.044ZM677.576 346.594C677.576 347.194 678.236 347.614 679.016 347.614C679.781 347.614 680.456 347.194 680.456 346.594C680.456 345.964 679.781 345.529 679.016 345.529C678.236 345.529 677.576 345.964 677.576 346.594ZM699.179 349.684H697.439V339.994H699.179V349.684ZM699.464 352.999H690.239V348.724H692.009V351.619H699.464V352.999ZM695.159 347.314H688.814V340.999H695.159V347.314ZM693.434 345.934V342.364H690.554V345.934H693.434ZM702.573 348.664H706.278V346.384H701.118V344.989H709.578C709.758 344.134 709.908 342.694 709.893 341.869H702.663V340.459H711.648C711.648 342.169 711.498 343.759 711.243 344.989H713.193V346.384H708.033V348.664H711.648V353.374H709.908V350.059H702.573V348.664ZM721.127 351.709C719.897 351.709 718.697 351.364 718.112 350.989L718.412 349.654C718.937 349.984 720.047 350.239 720.812 350.239C722.192 350.239 723.002 349.669 723.002 348.514C723.002 347.419 722.177 346.969 720.872 346.954L719.807 346.924V345.589L720.752 345.574C721.937 345.544 722.732 345.004 722.732 344.044C722.732 343.009 722.027 342.634 720.902 342.634C720.137 342.634 719.327 342.889 718.712 343.174L718.502 341.809C719.132 341.449 720.377 341.164 721.382 341.164C723.287 341.164 724.577 342.064 724.577 343.714C724.577 344.944 723.857 345.724 722.732 346.114C724.022 346.369 724.922 347.104 724.922 348.634C724.922 350.524 723.467 351.709 721.127 351.709ZM737.449 353.359H735.769V346.654H734.584V352.744H732.934V340.234H734.584V345.259H735.769V339.994H737.449V353.359ZM728.224 348.754C729.589 348.799 731.194 348.679 732.094 348.454L732.259 349.834C731.254 350.104 729.289 350.194 727.744 350.194H726.469V341.584H731.524V342.979C730.429 342.979 729.334 342.964 728.224 342.964V348.754ZM750.517 353.254H741.322V349.684H748.357V348.829H741.232V347.434H750.097V350.974H743.092V351.844H750.517V353.254ZM739.657 342.109V340.714H746.707V342.109H744.187C744.427 343.804 745.717 344.809 747.097 345.244L746.137 346.609C745.132 346.249 743.857 345.199 743.257 344.044C742.852 345.364 741.472 346.534 740.182 346.984L739.132 345.649C740.872 345.004 742.102 343.849 742.312 342.109H739.657ZM750.097 346.759H748.357V339.994H750.097V346.759ZM760.121 347.809L760.226 349.099C757.871 349.429 753.896 349.579 752.036 349.579C751.961 349.099 751.886 348.649 751.796 348.169C752.891 348.169 754.046 348.169 755.171 348.139V347.434C753.821 347.224 752.906 346.549 752.906 345.649C752.906 344.494 754.226 343.699 756.071 343.699C757.916 343.699 759.236 344.494 759.236 345.649C759.236 346.564 758.306 347.239 756.926 347.434V348.079C758.051 348.034 759.146 347.944 760.121 347.809ZM762.626 339.994V344.509H764.276V345.964H762.626V350.374H760.871V339.994H762.626ZM762.911 353.164H753.686V350.089H755.441V351.799H762.911V353.164ZM759.836 343.459H752.321V342.169H759.836V343.459ZM754.226 341.674V340.369H758.006V341.674H754.226ZM757.511 345.649C757.511 345.244 757.016 344.929 756.071 344.929C755.141 344.929 754.631 345.244 754.631 345.649C754.631 345.994 755.141 346.339 756.071 346.339C757.016 346.339 757.511 345.994 757.511 345.649ZM779.41 339.994V345.034H781.315V346.489H779.41V353.359H777.64V339.994H779.41ZM775.765 350.059H769.435V341.074H771.175V344.284H774.01V341.044H775.765V350.059ZM774.01 348.679V345.664H771.175V348.679H774.01ZM792.868 348.214H788.818V350.299H794.008V351.694H781.933V350.299H787.063V348.214H783.478V343.789H790.738V342.244H783.403V340.849H792.478V345.184H785.218V346.804H792.868V348.214ZM805.742 353.209H796.652V349.699H803.582V348.874H796.562V347.479H805.367V350.974H798.392V351.799H805.742V353.209ZM807.272 344.179H805.367V346.684H803.582V339.994H805.367V342.739H807.272V344.179ZM794.987 343.564C794.987 341.764 796.457 340.459 798.452 340.459C800.447 340.459 801.902 341.734 801.902 343.564C801.902 345.334 800.447 346.534 798.452 346.534C796.547 346.534 794.987 345.379 794.987 343.564ZM796.712 343.549C796.712 344.434 797.432 345.094 798.452 345.094C799.502 345.094 800.207 344.359 800.207 343.549C800.207 342.619 799.517 341.899 798.452 341.899C797.507 341.899 796.712 342.634 796.712 343.549ZM818.945 353.359H817.19V339.994H818.945V353.359ZM814.835 341.389C814.73 345.424 812.945 348.724 808.865 350.944L807.785 349.624C810.71 348.289 812.705 345.499 812.945 342.844H808.595V341.389H814.835ZM820.854 353.584L821.454 350.554H823.344L822.264 353.584H820.854ZM840.649 351.484H828.574V350.089H832.909V345.589H834.664V350.089H840.649V351.484ZM839.269 341.164C839.329 344.524 839.164 346.969 838.699 348.739L837.019 348.529C837.439 346.984 837.544 344.419 837.499 342.574H829.864V341.164H839.269ZM853.628 351.484H841.553V350.089H845.888V345.589H847.643V350.089H853.628V351.484ZM852.248 341.164C852.308 344.524 852.143 346.969 851.678 348.739L849.998 348.529C850.418 346.984 850.523 344.419 850.478 342.574H842.843V341.164H852.248ZM856.706 345.694C858.656 345.694 860.621 345.589 861.986 345.289L862.181 346.639C860.921 346.924 858.731 347.104 856.271 347.104H854.966V340.999H860.921V342.394H856.706V345.694ZM866.861 344.674H864.971V347.809H863.201V339.994H864.971V343.249H866.861V344.674ZM865.136 350.659C865.136 352.279 863.456 353.329 860.546 353.329C857.666 353.329 855.986 352.279 855.986 350.659C855.986 348.994 857.666 347.959 860.546 347.959C863.456 347.959 865.136 348.994 865.136 350.659ZM863.321 350.659C863.321 349.864 862.316 349.369 860.546 349.369C858.806 349.369 857.786 349.864 857.786 350.659C857.786 351.454 858.806 351.934 860.546 351.934C862.316 351.934 863.321 351.454 863.321 350.659ZM868.41 348.574L868.17 340.879H870.12L869.91 348.574H868.41ZM868.26 351.769V350.014H870.06V351.769H868.26Z" fill="black"/>
<path d="M673.552 379.028H671.872V372.323H670.687V378.413H669.037V365.903H670.687V370.928H671.872V365.663H673.552V379.028ZM664.327 374.423C665.692 374.468 667.297 374.348 668.197 374.123L668.362 375.503C667.357 375.773 665.392 375.863 663.847 375.863H662.572V367.253H667.627V368.648C666.532 368.648 665.437 368.633 664.327 368.633V374.423ZM682.811 369.428H675.056V368.063H682.811V369.428ZM682.166 372.263C682.166 373.688 680.816 374.693 679.016 374.693C677.186 374.693 675.836 373.688 675.836 372.263C675.836 370.853 677.171 369.803 679.016 369.803C680.816 369.803 682.166 370.853 682.166 372.263ZM677.036 367.433V366.098H681.011V367.433H677.036ZM685.616 365.663V369.983H687.476V371.438H685.616V375.593H683.861V365.663H685.616ZM685.931 378.713H676.796V375.188H678.566V377.318H685.931V378.713ZM677.576 372.263C677.576 372.863 678.236 373.283 679.016 373.283C679.781 373.283 680.456 372.863 680.456 372.263C680.456 371.633 679.781 371.198 679.016 371.198C678.236 371.198 677.576 371.633 677.576 372.263ZM699.179 375.353H697.439V365.663H699.179V375.353ZM699.464 378.668H690.239V374.393H692.009V377.288H699.464V378.668ZM695.159 372.983H688.814V366.668H695.159V372.983ZM693.434 371.603V368.033H690.554V371.603H693.434ZM702.573 374.333H706.278V372.053H701.118V370.658H709.578C709.758 369.803 709.908 368.363 709.893 367.538H702.663V366.128H711.648C711.648 367.838 711.498 369.428 711.243 370.658H713.193V372.053H708.033V374.333H711.648V379.043H709.908V375.728H702.573V374.333ZM721.127 377.378C719.897 377.378 718.697 377.033 718.112 376.658L718.412 375.323C718.937 375.653 720.047 375.908 720.812 375.908C722.192 375.908 723.002 375.338 723.002 374.183C723.002 373.088 722.177 372.638 720.872 372.623L719.807 372.593V371.258L720.752 371.243C721.937 371.213 722.732 370.673 722.732 369.713C722.732 368.678 722.027 368.303 720.902 368.303C720.137 368.303 719.327 368.558 718.712 368.843L718.502 367.478C719.132 367.118 720.377 366.833 721.382 366.833C723.287 366.833 724.577 367.733 724.577 369.383C724.577 370.613 723.857 371.393 722.732 371.783C724.022 372.038 724.922 372.773 724.922 374.303C724.922 376.193 723.467 377.378 721.127 377.378ZM737.449 379.028H735.769V372.323H734.584V378.413H732.934V365.903H734.584V370.928H735.769V365.663H737.449V379.028ZM728.224 374.423C729.589 374.468 731.194 374.348 732.094 374.123L732.259 375.503C731.254 375.773 729.289 375.863 727.744 375.863H726.469V367.253H731.524V368.648C730.429 368.648 729.334 368.633 728.224 368.633V374.423ZM750.517 378.923H741.322V375.353H748.357V374.498H741.232V373.103H750.097V376.643H743.092V377.513H750.517V378.923ZM739.657 367.778V366.383H746.707V367.778H744.187C744.427 369.473 745.717 370.478 747.097 370.913L746.137 372.278C745.132 371.918 743.857 370.868 743.257 369.713C742.852 371.033 741.472 372.203 740.182 372.653L739.132 371.318C740.872 370.673 742.102 369.518 742.312 367.778H739.657ZM750.097 372.428H748.357V365.663H750.097V372.428ZM760.121 373.478L760.226 374.768C757.871 375.098 753.896 375.248 752.036 375.248C751.961 374.768 751.886 374.318 751.796 373.838C752.891 373.838 754.046 373.838 755.171 373.808V373.103C753.821 372.893 752.906 372.218 752.906 371.318C752.906 370.163 754.226 369.368 756.071 369.368C757.916 369.368 759.236 370.163 759.236 371.318C759.236 372.233 758.306 372.908 756.926 373.103V373.748C758.051 373.703 759.146 373.613 760.121 373.478ZM762.626 365.663V370.178H764.276V371.633H762.626V376.043H760.871V365.663H762.626ZM762.911 378.833H753.686V375.758H755.441V377.468H762.911V378.833ZM759.836 369.128H752.321V367.838H759.836V369.128ZM754.226 367.343V366.038H758.006V367.343H754.226ZM757.511 371.318C757.511 370.913 757.016 370.598 756.071 370.598C755.141 370.598 754.631 370.913 754.631 371.318C754.631 371.663 755.141 372.008 756.071 372.008C757.016 372.008 757.511 371.663 757.511 371.318ZM779.41 365.663V370.703H781.315V372.158H779.41V379.028H777.64V365.663H779.41ZM775.765 375.728H769.435V366.743H771.175V369.953H774.01V366.713H775.765V375.728ZM774.01 374.348V371.333H771.175V374.348H774.01ZM792.868 373.883H788.818V375.968H794.008V377.363H781.933V375.968H787.063V373.883H783.478V369.458H790.738V367.913H783.403V366.518H792.478V370.853H785.218V372.473H792.868V373.883ZM805.742 378.878H796.652V375.368H803.582V374.543H796.562V373.148H805.367V376.643H798.392V377.468H805.742V378.878ZM807.272 369.848H805.367V372.353H803.582V365.663H805.367V368.408H807.272V369.848ZM794.987 369.233C794.987 367.433 796.457 366.128 798.452 366.128C800.447 366.128 801.902 367.403 801.902 369.233C801.902 371.003 800.447 372.203 798.452 372.203C796.547 372.203 794.987 371.048 794.987 369.233ZM796.712 369.218C796.712 370.103 797.432 370.763 798.452 370.763C799.502 370.763 800.207 370.028 800.207 369.218C800.207 368.288 799.517 367.568 798.452 367.568C797.507 367.568 796.712 368.303 796.712 369.218ZM818.945 379.028H817.19V365.663H818.945V379.028ZM814.835 367.058C814.73 371.093 812.945 374.393 808.865 376.613L807.785 375.293C810.71 373.958 812.705 371.168 812.945 368.513H808.595V367.058H814.835ZM820.854 379.253L821.454 376.223H823.344L822.264 379.253H820.854ZM840.649 377.153H828.574V375.758H832.909V371.258H834.664V375.758H840.649V377.153ZM839.269 366.833C839.329 370.193 839.164 372.638 838.699 374.408L837.019 374.198C837.439 372.653 837.544 370.088 837.499 368.243H829.864V366.833H839.269ZM853.628 377.153H841.553V375.758H845.888V371.258H847.643V375.758H853.628V377.153ZM852.248 366.833C852.308 370.193 852.143 372.638 851.678 374.408L849.998 374.198C850.418 372.653 850.523 370.088 850.478 368.243H842.843V366.833H852.248ZM856.706 371.363C858.656 371.363 860.621 371.258 861.986 370.958L862.181 372.308C860.921 372.593 858.731 372.773 856.271 372.773H854.966V366.668H860.921V368.063H856.706V371.363ZM866.861 370.343H864.971V373.478H863.201V365.663H864.971V368.918H866.861V370.343ZM865.136 376.328C865.136 377.948 863.456 378.998 860.546 378.998C857.666 378.998 855.986 377.948 855.986 376.328C855.986 374.663 857.666 373.628 860.546 373.628C863.456 373.628 865.136 374.663 865.136 376.328ZM863.321 376.328C863.321 375.533 862.316 375.038 860.546 375.038C858.806 375.038 857.786 375.533 857.786 376.328C857.786 377.123 858.806 377.603 860.546 377.603C862.316 377.603 863.321 377.123 863.321 376.328ZM868.41 374.243L868.17 366.548H870.12L869.91 374.243H868.41ZM868.26 377.438V375.683H870.06V377.438H868.26Z" fill="black"/>
<path d="M673.552 404.697H671.872V397.992H670.687V404.082H669.037V391.572H670.687V396.597H671.872V391.332H673.552V404.697ZM664.327 400.092C665.692 400.137 667.297 400.017 668.197 399.792L668.362 401.172C667.357 401.442 665.392 401.532 663.847 401.532H662.572V392.922H667.627V394.317C666.532 394.317 665.437 394.302 664.327 394.302V400.092ZM682.811 395.097H675.056V393.732H682.811V395.097ZM682.166 397.932C682.166 399.357 680.816 400.362 679.016 400.362C677.186 400.362 675.836 399.357 675.836 397.932C675.836 396.522 677.171 395.472 679.016 395.472C680.816 395.472 682.166 396.522 682.166 397.932ZM677.036 393.102V391.767H681.011V393.102H677.036ZM685.616 391.332V395.652H687.476V397.107H685.616V401.262H683.861V391.332H685.616ZM685.931 404.382H676.796V400.857H678.566V402.987H685.931V404.382ZM677.576 397.932C677.576 398.532 678.236 398.952 679.016 398.952C679.781 398.952 680.456 398.532 680.456 397.932C680.456 397.302 679.781 396.867 679.016 396.867C678.236 396.867 677.576 397.302 677.576 397.932ZM699.179 401.022H697.439V391.332H699.179V401.022ZM699.464 404.337H690.239V400.062H692.009V402.957H699.464V404.337ZM695.159 398.652H688.814V392.337H695.159V398.652ZM693.434 397.272V393.702H690.554V397.272H693.434ZM702.573 400.002H706.278V397.722H701.118V396.327H709.578C709.758 395.472 709.908 394.032 709.893 393.207H702.663V391.797H711.648C711.648 393.507 711.498 395.097 711.243 396.327H713.193V397.722H708.033V400.002H711.648V404.712H709.908V401.397H702.573V400.002ZM721.127 403.047C719.897 403.047 718.697 402.702 718.112 402.327L718.412 400.992C718.937 401.322 720.047 401.577 720.812 401.577C722.192 401.577 723.002 401.007 723.002 399.852C723.002 398.757 722.177 398.307 720.872 398.292L719.807 398.262V396.927L720.752 396.912C721.937 396.882 722.732 396.342 722.732 395.382C722.732 394.347 722.027 393.972 720.902 393.972C720.137 393.972 719.327 394.227 718.712 394.512L718.502 393.147C719.132 392.787 720.377 392.502 721.382 392.502C723.287 392.502 724.577 393.402 724.577 395.052C724.577 396.282 723.857 397.062 722.732 397.452C724.022 397.707 724.922 398.442 724.922 399.972C724.922 401.862 723.467 403.047 721.127 403.047ZM737.449 404.697H735.769V397.992H734.584V404.082H732.934V391.572H734.584V396.597H735.769V391.332H737.449V404.697ZM728.224 400.092C729.589 400.137 731.194 400.017 732.094 399.792L732.259 401.172C731.254 401.442 729.289 401.532 727.744 401.532H726.469V392.922H731.524V394.317C730.429 394.317 729.334 394.302 728.224 394.302V400.092ZM750.517 404.592H741.322V401.022H748.357V400.167H741.232V398.772H750.097V402.312H743.092V403.182H750.517V404.592ZM739.657 393.447V392.052H746.707V393.447H744.187C744.427 395.142 745.717 396.147 747.097 396.582L746.137 397.947C745.132 397.587 743.857 396.537 743.257 395.382C742.852 396.702 741.472 397.872 740.182 398.322L739.132 396.987C740.872 396.342 742.102 395.187 742.312 393.447H739.657ZM750.097 398.097H748.357V391.332H750.097V398.097ZM760.121 399.147L760.226 400.437C757.871 400.767 753.896 400.917 752.036 400.917C751.961 400.437 751.886 399.987 751.796 399.507C752.891 399.507 754.046 399.507 755.171 399.477V398.772C753.821 398.562 752.906 397.887 752.906 396.987C752.906 395.832 754.226 395.037 756.071 395.037C757.916 395.037 759.236 395.832 759.236 396.987C759.236 397.902 758.306 398.577 756.926 398.772V399.417C758.051 399.372 759.146 399.282 760.121 399.147ZM762.626 391.332V395.847H764.276V397.302H762.626V401.712H760.871V391.332H762.626ZM762.911 404.502H753.686V401.427H755.441V403.137H762.911V404.502ZM759.836 394.797H752.321V393.507H759.836V394.797ZM754.226 393.012V391.707H758.006V393.012H754.226ZM757.511 396.987C757.511 396.582 757.016 396.267 756.071 396.267C755.141 396.267 754.631 396.582 754.631 396.987C754.631 397.332 755.141 397.677 756.071 397.677C757.016 397.677 757.511 397.332 757.511 396.987ZM779.41 391.332V396.372H781.315V397.827H779.41V404.697H777.64V391.332H779.41ZM775.765 401.397H769.435V392.412H771.175V395.622H774.01V392.382H775.765V401.397ZM774.01 400.017V397.002H771.175V400.017H774.01ZM792.868 399.552H788.818V401.637H794.008V403.032H781.933V401.637H787.063V399.552H783.478V395.127H790.738V393.582H783.403V392.187H792.478V396.522H785.218V398.142H792.868V399.552ZM805.742 404.547H796.652V401.037H803.582V400.212H796.562V398.817H805.367V402.312H798.392V403.137H805.742V404.547ZM807.272 395.517H805.367V398.022H803.582V391.332H805.367V394.077H807.272V395.517ZM794.987 394.902C794.987 393.102 796.457 391.797 798.452 391.797C800.447 391.797 801.902 393.072 801.902 394.902C801.902 396.672 800.447 397.872 798.452 397.872C796.547 397.872 794.987 396.717 794.987 394.902ZM796.712 394.887C796.712 395.772 797.432 396.432 798.452 396.432C799.502 396.432 800.207 395.697 800.207 394.887C800.207 393.957 799.517 393.237 798.452 393.237C797.507 393.237 796.712 393.972 796.712 394.887ZM818.945 404.697H817.19V391.332H818.945V404.697ZM814.835 392.727C814.73 396.762 812.945 400.062 808.865 402.282L807.785 400.962C810.71 399.627 812.705 396.837 812.945 394.182H808.595V392.727H814.835ZM820.854 404.922L821.454 401.892H823.344L822.264 404.922H820.854ZM840.649 402.822H828.574V401.427H832.909V396.927H834.664V401.427H840.649V402.822ZM839.269 392.502C839.329 395.862 839.164 398.307 838.699 400.077L837.019 399.867C837.439 398.322 837.544 395.757 837.499 393.912H829.864V392.502H839.269ZM853.628 402.822H841.553V401.427H845.888V396.927H847.643V401.427H853.628V402.822ZM852.248 392.502C852.308 395.862 852.143 398.307 851.678 400.077L849.998 399.867C850.418 398.322 850.523 395.757 850.478 393.912H842.843V392.502H852.248ZM856.706 397.032C858.656 397.032 860.621 396.927 861.986 396.627L862.181 397.977C860.921 398.262 858.731 398.442 856.271 398.442H854.966V392.337H860.921V393.732H856.706V397.032ZM866.861 396.012H864.971V399.147H863.201V391.332H864.971V394.587H866.861V396.012ZM865.136 401.997C865.136 403.617 863.456 404.667 860.546 404.667C857.666 404.667 855.986 403.617 855.986 401.997C855.986 400.332 857.666 399.297 860.546 399.297C863.456 399.297 865.136 400.332 865.136 401.997ZM863.321 401.997C863.321 401.202 862.316 400.707 860.546 400.707C858.806 400.707 857.786 401.202 857.786 401.997C857.786 402.792 858.806 403.272 860.546 403.272C862.316 403.272 863.321 402.792 863.321 401.997ZM868.41 399.912L868.17 392.217H870.12L869.91 399.912H868.41ZM868.26 403.107V401.352H870.06V403.107H868.26Z" fill="black"/>
<path d="M625.452 197.425V187.915H622.002V187.555H629.292V187.915H625.827V197.425H625.452ZM630.998 197.41V186.91H631.373V190.975H631.388C632.273 190.435 633.278 190.165 634.178 190.165C635.498 190.165 636.248 190.69 636.248 192.025V197.41H635.873V192.1C635.873 190.915 635.303 190.495 634.043 190.495C633.173 190.495 632.243 190.765 631.373 191.305V197.41H630.998ZM638.585 197.425V190.285H638.96V197.425H638.585ZM638.57 188.635V188.08H638.96V188.635H638.57ZM641.325 197.455V190.3H641.685V191.005H641.715C642.6 190.465 643.605 190.195 644.505 190.195C645.825 190.195 646.575 190.72 646.575 192.07V197.455H646.2V192.13C646.2 190.945 645.63 190.525 644.37 190.525C643.5 190.525 642.57 190.795 641.7 191.35V197.455H641.325Z" fill="black"/>
<path d="M625.152 223.199V213.824H621.882V213.134H629.247V213.824H625.977V223.199H625.152ZM630.717 223.199V212.459H631.512V216.494H631.572C632.322 215.999 633.282 215.699 634.212 215.699C635.622 215.699 636.357 216.269 636.357 217.679V223.199H635.577V217.829C635.577 216.794 635.127 216.389 633.912 216.389C633.102 216.389 632.247 216.659 631.512 217.064V223.199H630.717ZM638.51 223.199V215.834H639.305V223.199H638.51ZM638.495 214.259V213.344H639.32V214.259H638.495ZM641.483 223.199V215.834H642.248V216.509H642.293C643.073 215.999 644.048 215.699 644.978 215.699C646.388 215.699 647.123 216.254 647.123 217.664V223.199H646.343V217.829C646.343 216.794 645.893 216.389 644.678 216.389C643.868 216.389 643.013 216.644 642.278 217.064V223.199H641.483Z" fill="black"/>
<path d="M625.092 248.868V239.628H621.912V238.803H629.247V239.628H626.067V248.868H625.092ZM630.761 248.868V238.128H631.706V242.118H631.766C632.486 241.638 633.446 241.353 634.376 241.353C635.786 241.353 636.506 241.923 636.506 243.333V248.868H635.561V243.528C635.561 242.538 635.171 242.148 633.971 242.148C633.206 242.148 632.366 242.418 631.706 242.778V248.868H630.761ZM638.687 248.868V241.473H639.632V248.868H638.687ZM638.672 239.928V238.893H639.647V239.928H638.672ZM641.85 248.868V241.473H642.75V242.133H642.81C643.545 241.653 644.535 241.338 645.465 241.338C646.875 241.338 647.595 241.908 647.595 243.318V248.868H646.65V243.528C646.65 242.538 646.26 242.148 645.06 242.148C644.295 242.148 643.455 242.403 642.795 242.778V248.868H641.85Z" fill="black"/>
<path d="M624.987 274.537V265.477H621.912V264.472H629.232V265.477H626.157V274.537H624.987ZM630.746 274.537V263.797H631.886V267.742H631.961C632.606 267.277 633.551 266.962 634.466 266.962C635.921 266.962 636.626 267.562 636.626 269.002V274.537H635.486V269.227C635.486 268.327 635.171 267.952 633.986 267.952C633.281 267.952 632.501 268.207 631.886 268.507V274.537H630.746ZM638.833 274.537V267.112H639.973V274.537H638.833ZM638.818 265.612V264.412H639.988V265.612H638.818ZM642.187 274.537V267.097H643.282V267.742H643.342C644.032 267.292 644.992 266.962 645.907 266.962C647.362 266.962 648.067 267.547 648.067 268.987V274.537H646.927V269.227C646.927 268.327 646.612 267.952 645.427 267.952C644.722 267.952 643.942 268.207 643.327 268.492V274.537H642.187Z" fill="black"/>
<path d="M624.837 300.206V291.266H621.852V290.126H629.127V291.266H626.142V300.206H624.837ZM630.51 300.206V289.466H631.785V293.366H631.86C632.46 292.946 633.39 292.601 634.305 292.601C635.775 292.601 636.465 293.216 636.465 294.656V300.206H635.205V294.926C635.205 294.071 634.92 293.711 633.75 293.711C633.09 293.711 632.325 293.951 631.785 294.206V300.206H630.51ZM638.494 300.206V292.751H639.784V300.206H638.494ZM638.494 291.281V289.946H639.799V291.281H638.494ZM641.863 300.206V292.751H643.078V293.396H643.153C643.783 292.946 644.743 292.601 645.658 292.601C647.128 292.601 647.818 293.216 647.818 294.656V300.206H646.558V294.926C646.558 294.071 646.273 293.711 645.103 293.711C644.443 293.711 643.678 293.951 643.138 294.206V300.206H641.863Z" fill="black"/>
<path d="M624.852 325.875V316.89H621.837V315.6H629.382V316.89H626.397V325.875H624.852ZM630.715 325.875V314.925H632.185V318.855H632.26C632.89 318.42 633.835 318.075 634.765 318.075C636.25 318.075 636.97 318.69 636.97 320.175V325.875H635.485V320.52C635.485 319.68 635.245 319.335 634.09 319.335C633.445 319.335 632.71 319.56 632.185 319.815V325.875H630.715ZM638.948 325.875V318.225H640.418V325.875H638.948ZM638.933 316.8V315.36H640.433V316.8H638.933ZM642.463 325.875V318.225H643.888V318.885H643.948C644.593 318.435 645.583 318.075 646.513 318.075C647.998 318.075 648.718 318.69 648.718 320.175V325.875H647.233V320.52C647.233 319.68 646.993 319.335 645.838 319.335C645.193 319.335 644.458 319.56 643.933 319.815V325.875H642.463Z" fill="black"/>
<path d="M624.852 351.559V342.724H621.897V341.269H629.622V342.724H626.697V351.559H624.852ZM631.082 351.559V340.594H632.807V344.494H632.882C633.512 344.029 634.412 343.699 635.342 343.699C636.827 343.699 637.592 344.299 637.592 345.829V351.559H635.852V346.234C635.852 345.454 635.597 345.139 634.547 345.139C633.947 345.139 633.272 345.334 632.807 345.559V351.559H631.082ZM639.622 351.559V343.834H641.362V351.559H639.622ZM639.622 342.559V340.984H641.377V342.559H639.622ZM643.445 351.559V343.834H645.11V344.524H645.17C645.83 344.044 646.775 343.699 647.705 343.699C649.19 343.699 649.955 344.299 649.955 345.829V351.559H648.215V346.234C648.215 345.454 647.96 345.139 646.91 345.139C646.31 345.139 645.635 345.334 645.17 345.559V351.559H643.445Z" fill="black"/>
<path d="M624.672 377.228V368.543H621.807V366.938H629.682V368.543H626.787V377.228H624.672ZM630.873 377.228V366.263H632.838V370.103H632.928C633.528 369.638 634.413 369.308 635.373 369.308C636.858 369.308 637.638 369.923 637.638 371.468V377.228H635.658V371.933C635.658 371.198 635.388 370.898 634.428 370.898C633.888 370.898 633.273 371.108 632.838 371.288V377.228H630.873ZM639.37 377.228V369.458H641.35V377.228H639.37ZM639.355 368.288V366.608H641.365V368.288H639.355ZM643.119 377.228V369.458H645.009V370.148H645.084C645.744 369.653 646.659 369.308 647.619 369.308C649.104 369.308 649.884 369.923 649.884 371.468V377.228H647.904V371.933C647.904 371.198 647.634 370.898 646.674 370.898C646.134 370.898 645.519 371.108 645.084 371.288V377.228H643.119Z" fill="black"/>
<path d="M624.522 402.882V394.827H621.867V392.802H629.997V394.827H627.357V402.882H624.522ZM631.164 402.867V392.142H633.729V395.757H633.789C634.389 395.277 635.184 395.007 636.159 395.007C637.599 395.007 638.439 395.592 638.439 397.122V402.867H635.889V397.827C635.889 397.197 635.619 396.987 634.914 396.987C634.509 396.987 634.029 397.122 633.729 397.242V402.867H631.164ZM640.013 394.272V392.322H642.608V394.272H640.013ZM640.028 402.882V395.142H642.593V402.882H640.028ZM644.231 402.867V395.142H646.691V395.817H646.766C647.441 395.292 648.251 395.007 649.226 395.007C650.666 395.007 651.506 395.592 651.506 397.122V402.867H648.956V397.827C648.956 397.197 648.686 396.987 647.981 396.987C647.576 396.987 647.096 397.122 646.796 397.242V402.867H644.231Z" fill="black"/>
<path d="M371.947 359.228L375.697 348.938H377.587L381.247 359.228H379.342L378.412 356.618H374.587L373.657 359.228H371.947ZM376.462 351.128L375.022 355.238H377.947L376.507 351.128H376.462ZM382.528 361.463V351.503H384.193V352.163H384.253C384.718 351.698 385.513 351.368 386.488 351.368C388.093 351.368 389.548 352.298 389.548 355.133V355.328C389.548 358.223 388.153 359.363 386.053 359.363C385.198 359.363 384.628 359.138 384.253 358.928V361.463H382.528ZM385.813 358.058C387.043 358.058 387.748 357.428 387.748 355.553V355.238C387.748 353.333 387.088 352.778 385.873 352.778C385.138 352.778 384.553 353.018 384.253 353.228V357.608C384.553 357.848 385.138 358.058 385.813 358.058ZM391.185 361.463V351.503H392.85V352.163H392.91C393.375 351.698 394.17 351.368 395.145 351.368C396.75 351.368 398.205 352.298 398.205 355.133V355.328C398.205 358.223 396.81 359.363 394.71 359.363C393.855 359.363 393.285 359.138 392.91 358.928V361.463H391.185ZM394.47 358.058C395.7 358.058 396.405 357.428 396.405 355.553V355.238C396.405 353.333 395.745 352.778 394.53 352.778C393.795 352.778 393.21 353.018 392.91 353.228V357.608C393.21 357.848 393.795 358.058 394.47 358.058ZM399.872 359.228V348.263H401.612V359.228H399.872ZM407.085 359.363C404.52 359.363 403.26 357.908 403.26 355.463V355.253C403.26 352.658 404.835 351.383 406.8 351.383C409.08 351.383 410.07 352.658 410.07 355.118V355.838H405.03C405.135 357.443 405.96 358.013 407.43 358.013C408.42 358.013 409.14 357.788 409.815 357.443V358.643C409.29 358.988 408.39 359.363 407.085 359.363ZM406.77 352.658C405.975 352.658 405.15 353.078 405.03 354.653H408.315C408.315 353.198 407.775 352.658 406.77 352.658ZM425.489 347.663V351.488H427.394V352.943H425.489V357.353H423.734V347.663H425.489ZM425.819 360.683H416.984V356.348H418.739V359.303H425.819V360.683ZM422.819 353.978L421.814 355.343C420.809 354.953 419.399 353.738 418.829 352.508C418.424 353.858 417.029 355.238 415.769 355.718L414.719 354.338C416.654 353.633 417.914 351.848 417.914 349.823V348.413H419.714V349.733C419.714 351.803 421.259 353.468 422.819 353.978ZM438.663 352.148H434.898V353.153H440.088V354.548H428.013V353.153H433.143V352.148H429.618V347.948H438.558V349.358H431.373V350.753H438.663V352.148ZM438.963 360.893H429.528V357.458H436.743V356.678H429.542V355.283H438.483V358.703H431.268V359.468H438.963V360.893ZM457.006 359.153H444.931V357.758H449.266V353.258H451.021V357.758H457.006V359.153ZM455.626 348.833C455.686 352.193 455.521 354.638 455.056 356.408L453.376 356.198C453.796 354.653 453.901 352.088 453.856 350.243H446.221V348.833H455.626ZM468.95 355.448H467.195V347.678H468.95V355.448ZM459.92 356.108H468.95V361.043H467.195V357.488H459.92V356.108ZM460.4 353.438C462.275 353.498 464.675 353.333 466.025 353.033L466.235 354.398C464.87 354.713 462.335 354.848 459.935 354.848H458.645V348.683H464.975V350.078H460.4V353.438ZM475.594 359.228V348.938H477.664L481.939 356.198H481.984V348.938H483.619V359.228H481.789L477.274 351.473H477.229V359.228H475.594ZM486.038 359.228V348.938H492.458V350.393H487.883V353.213H491.438V354.653H487.883V357.773H492.548V359.228H486.038ZM498.747 359.393C495.972 359.393 494.127 357.653 494.127 354.248V353.918C494.127 350.603 496.032 348.773 498.837 348.773C501.582 348.773 503.457 350.483 503.457 353.918V354.248C503.457 357.578 501.537 359.393 498.747 359.393ZM498.807 357.968C500.607 357.968 501.492 356.543 501.492 354.443V353.933C501.492 351.623 500.742 350.228 498.747 350.213C496.962 350.213 496.092 351.623 496.092 353.708V354.233C496.092 356.558 496.842 357.968 498.807 357.968Z" fill="black"/>
<path d="M480.187 278.543H467.287V323.743H455.687V234.643H467.287V268.843H480.187V278.543ZM443.887 243.743C443.087 270.643 431.287 292.843 403.987 307.643L396.887 298.843C416.287 289.943 429.587 271.243 431.187 253.443H402.287V243.743H443.887Z" fill="black"/>
<defs>
<filter id="filter0_d_159_887" x="0.397949" y="0.515137" width="1137.2" height="517.189" filterUnits="userSpaceOnUse" color-interpolation-filters="sRGB">
<feFlood flood-opacity="0" result="BackgroundImageFix"/>
<feColorMatrix in="SourceAlpha" type="matrix" values="0 0 0 0 0 0 0 0 0 0 0 0 0 0 0 0 0 0 127 0" result="hardAlpha"/>
<feOffset dx="10" dy="10"/>
<feGaussianBlur stdDeviation="15"/>
<feComposite in2="hardAlpha" operator="out"/>
<feColorMatrix type="matrix" values="0 0 0 0 0.0588235 0 0 0 0 0.505882 0 0 0 0 0.368627 0 0 0 0.1 0"/>
<feBlend mode="normal" in2="BackgroundImageFix" result="effect1_dropShadow_159_887"/>
<feBlend mode="normal" in="SourceGraphic" in2="effect1_dropShadow_159_887" result="shape"/>
</filter>
</defs>
</svg>
