<svg width="388" height="117" viewBox="0 0 388 117" fill="none" xmlns="http://www.w3.org/2000/svg">
<rect width="382.918" height="115.985" rx="34" transform="matrix(-1 0 0 1 383.571 0.122559)" fill="#31B48C"/>
<path d="M387.902 116.108C382.065 112.463 383.555 83.4951 383.555 83.4951L367.693 104.721C367.693 104.721 373.446 116.108 387.902 116.108Z" fill="#31B48C"/>
<path d="M48.6973 51.5802V56.5152H42.1873V51.5802H48.6973ZM47.8423 61.0902V59.7702H50.6023V50.9352H52.3423V64.3002H50.6023V61.0902H47.8423ZM46.2073 63.9102H44.4523V59.1702C43.2073 59.2152 42.0223 59.2152 41.0473 59.2152L40.8073 57.8052C44.1673 57.8052 47.7523 57.6552 49.6573 57.4302L49.7923 58.7652C48.7423 58.9152 47.4973 59.0052 46.2073 59.0802V63.9102ZM46.9123 55.1352V52.9752H43.9423V55.1352H46.9123ZM66.4158 57.5202H64.4808V64.3002H62.7408V50.9352H64.4808V56.0652H66.4158V57.5202ZM60.9708 52.3002C60.8508 56.3352 59.0808 59.6652 54.9858 61.8852L53.9208 60.5652C56.8308 59.2302 58.8258 56.4252 59.0658 53.7552H54.7308V52.3002H60.9708ZM78.4448 51.5802V55.8102H72.2048V51.5802H78.4448ZM78.1898 59.8452V58.6452H80.4998V50.9352H82.2398V61.2552H80.4998V59.8452H78.1898ZM82.4648 63.9402H72.6698V60.1152H74.4248V62.5602H82.4648V63.9402ZM76.4348 60.2802H74.6498V58.2552C73.2398 58.3152 72.0398 58.3302 71.0048 58.3302L70.7648 56.9202C72.2798 56.9202 73.7348 56.9052 75.2198 56.8452C77.1248 56.7402 78.3698 56.6652 79.5698 56.5152L79.7648 57.8352C78.8498 57.9852 77.6348 58.0752 76.4348 58.1502V60.2802ZM76.7048 54.4452V52.9302H73.9148V54.4452H76.7048ZM92.2933 59.7552L91.3183 61.1202C90.1333 60.5202 88.4983 58.8252 88.0933 57.5352C87.7783 58.8852 86.4283 60.6702 84.8683 61.4352L83.8183 60.1302C86.0683 58.9302 87.1633 56.8602 87.1633 54.0552V53.6952H84.4933V52.3002H91.5883V53.6952H89.0083V54.0402C89.0083 56.8602 90.2833 58.7202 92.2933 59.7552ZM94.9933 64.3002H93.2383V50.9352H94.9933V64.3002ZM97.4418 62.7402V60.9852H99.2718V62.7402H97.4418ZM101.206 62.7402V60.9852H103.036V62.7402H101.206ZM120.732 55.1052H118.842V57.5802H117.057V50.9352H118.842V53.6652H120.732V55.1052ZM119.217 64.1952H110.067V60.6102H117.057V59.6802H110.007V58.2852H118.842V61.8702H111.807V62.7852H119.217V64.1952ZM115.032 57.2202H108.777V51.6102H115.032V57.2202ZM113.292 55.8552V52.9602H110.517V55.8552H113.292ZM132.405 64.3002H130.665V50.9352H132.405V64.3002ZM121.74 56.6352C121.74 53.8152 123.015 51.8502 125.19 51.8502C127.38 51.8502 128.655 53.8152 128.655 56.6352C128.655 59.4252 127.38 61.3902 125.19 61.3902C123.015 61.3902 121.74 59.4402 121.74 56.6352ZM126.975 56.6352C126.975 54.5202 126.225 53.2602 125.19 53.2602C124.185 53.2602 123.45 54.5202 123.45 56.6352C123.45 58.7352 124.185 59.9802 125.19 59.9802C126.225 59.9802 126.975 58.7352 126.975 56.6352ZM147.554 55.1202V50.9352H149.294V64.3002H147.554V56.5902H143.954V55.1202H147.554ZM145.979 60.6702C144.344 61.1052 141.689 61.2552 140.099 61.2552H138.884V52.2702H140.624V59.7702C142.484 59.7702 144.329 59.6352 145.769 59.2752L145.979 60.6702ZM161.808 51.4602V56.8602H152.808V51.4602H161.808ZM158.148 64.3152H156.393V59.8752H151.263V58.4802H163.338V59.8752H158.148V64.3152ZM160.068 55.4652V52.8552H154.562V55.4652H160.068ZM168.271 56.6352C168.271 53.8152 169.546 51.8502 171.721 51.8502C173.701 51.8502 174.916 53.4552 175.126 55.8402H177.481V50.9352H179.236V64.3002H177.481V57.3252H175.141C174.946 59.7402 173.716 61.3902 171.721 61.3902C169.546 61.3902 168.271 59.4402 168.271 56.6352ZM173.491 56.6352C173.491 54.5202 172.756 53.2602 171.721 53.2602C170.716 53.2602 169.981 54.5202 169.981 56.6352C169.981 58.7352 170.716 59.9802 171.721 59.9802C172.756 59.9802 173.491 58.7352 173.491 56.6352ZM192.2 64.1352H183.41V58.9452H185.165V60.1752H190.46V58.9152H192.2V64.1352ZM188.18 57.7152C187.04 58.0002 185.21 58.0602 183.425 58.0602C182.84 58.0602 182.24 58.0452 181.64 58.0452V53.9952H185.765V52.8852H181.64V51.5052H187.52V55.3002H183.41V56.6802C185.045 56.6802 186.935 56.6802 187.955 56.3952C188.045 56.8452 188.12 57.2802 188.18 57.7152ZM192.2 58.2852H190.46V56.6352H188.465V55.2102H190.46V54.0102H188.465V52.5552H190.46V50.9352H192.2V58.2852ZM190.46 62.7402V61.5552H185.165V62.7402H190.46ZM206.213 62.4252H194.138V61.0302H198.473V56.5302H200.228V61.0302H206.213V62.4252ZM204.833 52.1052C204.893 55.4652 204.728 57.9102 204.263 59.6802L202.583 59.4702C203.003 57.9252 203.108 55.3602 203.063 53.5152H195.428V52.1052H204.833ZM223.402 55.2252H221.512V57.4452H219.727V50.9352H221.512V53.7852H223.402V55.2252ZM217.702 57.4002H211.447V51.8502H217.702V57.4002ZM215.962 56.0352V53.2002H213.187V56.0352H215.962ZM216.412 63.5052C215.407 63.7602 213.727 63.9702 212.152 63.9702V58.9152H213.832V62.5602C214.582 62.5302 215.572 62.3802 216.247 62.2152L216.412 63.5052ZM220.852 59.1552H217.747V57.9702H220.852V59.1552ZM222.652 60.8052H216.007V59.5902H222.652V60.8052ZM221.722 62.7552C221.722 63.8802 220.597 64.4652 219.262 64.4652C217.927 64.4652 216.817 63.8802 216.817 62.7552C216.817 61.6452 217.927 61.0602 219.262 61.0602C220.597 61.0602 221.722 61.6452 221.722 62.7552ZM220.162 62.7552C220.162 62.3802 219.742 62.2152 219.262 62.2152C218.782 62.2152 218.377 62.3802 218.377 62.7552C218.377 63.1452 218.782 63.2952 219.262 63.2952C219.742 63.2952 220.162 63.1452 220.162 62.7552ZM234.491 50.9352V56.0652H236.471V57.5202H234.491V64.3002H232.706V50.9352H234.491ZM224.141 56.6352C224.141 53.8152 225.431 51.8502 227.606 51.8502C229.796 51.8502 231.071 53.8152 231.071 56.6352C231.071 59.4252 229.796 61.3902 227.606 61.3902C225.431 61.3902 224.141 59.4402 224.141 56.6352ZM229.391 56.6352C229.391 54.5202 228.641 53.2602 227.606 53.2602C226.601 53.2602 225.851 54.5202 225.851 56.6352C225.851 58.7352 226.601 59.9802 227.606 59.9802C228.641 59.9802 229.391 58.7352 229.391 56.6352ZM251.995 64.3002H250.255V50.9352H251.995V64.3002ZM241.33 56.6352C241.33 53.8152 242.605 51.8502 244.78 51.8502C246.97 51.8502 248.245 53.8152 248.245 56.6352C248.245 59.4252 246.97 61.3902 244.78 61.3902C242.605 61.3902 241.33 59.4402 241.33 56.6352ZM246.565 56.6352C246.565 54.5202 245.815 53.2602 244.78 53.2602C243.775 53.2602 243.04 54.5202 243.04 56.6352C243.04 58.7352 243.775 59.9802 244.78 59.9802C245.815 59.9802 246.565 58.7352 246.565 56.6352ZM265.303 64.3002H263.638V57.7452H262.528V63.6852H260.893V51.1752H262.528V56.3352H263.638V50.9352H265.303V64.3002ZM260.053 58.7952C260.053 60.4752 258.868 61.5702 257.128 61.5702C255.403 61.5702 254.203 60.3852 254.203 58.7952C254.203 57.1002 255.418 56.0202 257.128 56.0202C258.868 56.0202 260.053 57.1152 260.053 58.7952ZM253.918 55.5252V54.1302H260.293V55.5252H253.918ZM258.478 58.7952C258.478 57.9702 257.908 57.4002 257.128 57.4002C256.363 57.4002 255.793 57.9702 255.793 58.7952C255.793 59.6352 256.363 60.1902 257.128 60.1902C257.908 60.1902 258.478 59.6052 258.478 58.7952ZM255.373 53.3652V51.9702H258.973V53.3652H255.373ZM274.607 55.5102H266.852V54.1152H274.607V55.5102ZM268.727 53.1852V51.8052H272.852V53.1852H268.727ZM277.367 50.9352V56.3502H279.227V57.8052H277.367V64.3002H275.597V50.9352H277.367ZM267.512 58.8552C267.512 57.2202 268.817 55.9752 270.737 55.9752C272.657 55.9752 273.962 57.1752 273.962 58.8552C273.962 60.4902 272.657 61.7352 270.737 61.7352C268.817 61.7352 267.512 60.5502 267.512 58.8552ZM269.222 58.8552C269.222 59.7252 269.852 60.3102 270.737 60.3102C271.712 60.3102 272.252 59.7252 272.252 58.8552C272.252 57.9702 271.607 57.3852 270.737 57.3852C269.867 57.3852 269.222 57.9702 269.222 58.8552ZM290.945 64.3002H289.19V50.9352H290.945V64.3002ZM286.835 52.3302C286.73 56.3652 284.945 59.6652 280.865 61.8852L279.785 60.5652C282.71 59.2302 284.705 56.4402 284.945 53.7852H280.595V52.3302H286.835ZM296.899 56.6352C296.899 53.8152 298.174 51.8502 300.349 51.8502C302.329 51.8502 303.544 53.4552 303.754 55.8402H306.109V50.9352H307.864V64.3002H306.109V57.3252H303.769C303.574 59.7402 302.344 61.3902 300.349 61.3902C298.174 61.3902 296.899 59.4402 296.899 56.6352ZM302.119 56.6352C302.119 54.5202 301.384 53.2602 300.349 53.2602C299.344 53.2602 298.609 54.5202 298.609 56.6352C298.609 58.7352 299.344 59.9802 300.349 59.9802C301.384 59.9802 302.119 58.7352 302.119 56.6352ZM320.828 64.1352H312.038V58.9452H313.793V60.1752H319.088V58.9152H320.828V64.1352ZM316.808 57.7152C315.668 58.0002 313.838 58.0602 312.053 58.0602C311.468 58.0602 310.868 58.0452 310.268 58.0452V53.9952H314.393V52.8852H310.268V51.5052H316.148V55.3002H312.038V56.6802C313.673 56.6802 315.563 56.6802 316.583 56.3952C316.673 56.8452 316.748 57.2802 316.808 57.7152ZM320.828 58.2852H319.088V56.6352H317.093V55.2102H319.088V54.0102H317.093V52.5552H319.088V50.9352H320.828V58.2852ZM319.088 62.7402V61.5552H313.793V62.7402H319.088ZM334.121 64.3002H332.456V50.9352H334.121V64.3002ZM329.726 56.5452H327.086V55.1352H329.726V51.1752H331.376V63.6852H329.726V56.5452ZM328.796 59.2452L329.006 60.6402C328.316 60.8652 326.141 61.0602 324.551 61.0602H323.351V52.1052H325.076V59.6052C326.381 59.6052 327.971 59.4852 328.796 59.2452ZM336.27 62.7402V60.9852H338.1V62.7402H336.27ZM340.035 62.7402V60.9852H341.865V62.7402H340.035Z" fill="white"/>
</svg>
