<svg width="331" height="319" viewBox="0 0 331 319" fill="none" xmlns="http://www.w3.org/2000/svg">
<g filter="url(#filter0_d_141_40)">
<rect x="20.4028" y="20.1304" width="270.097" height="258.875" rx="57" fill="white"/>
</g>
<g clip-path="url(#clip0_141_40)">
<path d="M248.128 125.32H231.708V133.1H248.128V125.32Z" fill="#1AA36F"/>
<path d="M243.809 137.42V121H236.028V137.42H243.809Z" fill="#1AA36F"/>
<path d="M238.606 128.82C239.132 128.82 239.558 128.272 239.558 127.595C239.558 126.918 239.132 126.369 238.606 126.369C238.079 126.369 237.653 126.918 237.653 127.595C237.653 128.272 238.079 128.82 238.606 128.82Z" fill="#F9F8F4"/>
<mask id="mask0_141_40" style="mask-type:luminance" maskUnits="userSpaceOnUse" x="237" y="126" width="3" height="3">
<path d="M238.606 128.82C239.132 128.82 239.558 128.272 239.558 127.595C239.558 126.918 239.132 126.369 238.606 126.369C238.079 126.369 237.653 126.918 237.653 127.595C237.653 128.272 238.079 128.82 238.606 128.82Z" fill="white"/>
</mask>
<g mask="url(#mask0_141_40)">
<path d="M239.553 127.096C239.59 127.419 239.238 127.821 238.851 127.821C238.464 127.821 238.149 127.495 238.149 127.096C238.149 126.697 238.464 126.334 238.851 126.372C239.332 126.419 239.509 126.699 239.553 127.096Z" fill="#333132"/>
</g>
<path d="M241.233 128.82C241.759 128.82 242.186 128.272 242.186 127.595C242.186 126.918 241.759 126.369 241.233 126.369C240.707 126.369 240.28 126.918 240.28 127.595C240.28 128.272 240.707 128.82 241.233 128.82Z" fill="#F9F8F4"/>
<mask id="mask1_141_40" style="mask-type:luminance" maskUnits="userSpaceOnUse" x="240" y="126" width="3" height="3">
<path d="M241.233 128.82C241.759 128.82 242.186 128.272 242.186 127.595C242.186 126.918 241.759 126.369 241.233 126.369C240.707 126.369 240.28 126.918 240.28 127.595C240.28 128.272 240.707 128.82 241.233 128.82Z" fill="white"/>
</mask>
<g mask="url(#mask1_141_40)">
<path d="M242.181 127.096C242.218 127.419 241.866 127.821 241.479 127.821C241.091 127.821 240.776 127.495 240.776 127.096C240.776 126.697 241.091 126.334 241.479 126.372C241.96 126.419 242.136 126.699 242.181 127.096Z" fill="#333132"/>
</g>
</g>
<path d="M130.024 68.0518H132.763L131.416 63.8037L130.024 68.0518ZM130.163 61.3354H132.712L136.535 72.1313H134.089L133.393 69.9121H129.416L128.669 72.1313H126.311L130.163 61.3354ZM143.244 68.1396C143.244 67.5244 143.103 66.98 142.819 66.5063C142.541 66.0327 142.087 65.7959 141.457 65.7959C140.7 65.7959 140.18 66.1548 139.897 66.8726C139.75 67.2534 139.677 67.7368 139.677 68.3228C139.677 69.2505 139.924 69.9023 140.417 70.2783C140.71 70.498 141.057 70.6079 141.457 70.6079C142.038 70.6079 142.48 70.3833 142.783 69.9341C143.09 69.4849 143.244 68.8867 143.244 68.1396ZM142.058 63.9722C142.99 63.9722 143.779 64.3164 144.423 65.0049C145.073 65.6934 145.397 66.7041 145.397 68.0371C145.397 69.4434 145.08 70.5151 144.445 71.2524C143.815 71.9897 143.002 72.3584 142.006 72.3584C141.372 72.3584 140.844 72.1997 140.424 71.8823C140.195 71.7065 139.97 71.4502 139.75 71.1133V75.2734H137.685V64.1479H139.685V65.3271C139.909 64.9805 140.148 64.707 140.402 64.5068C140.866 64.1504 141.418 63.9722 142.058 63.9722ZM152.414 68.1396C152.414 67.5244 152.272 66.98 151.989 66.5063C151.711 66.0327 151.257 65.7959 150.627 65.7959C149.87 65.7959 149.35 66.1548 149.067 66.8726C148.92 67.2534 148.847 67.7368 148.847 68.3228C148.847 69.2505 149.094 69.9023 149.587 70.2783C149.88 70.498 150.227 70.6079 150.627 70.6079C151.208 70.6079 151.65 70.3833 151.953 69.9341C152.26 69.4849 152.414 68.8867 152.414 68.1396ZM151.228 63.9722C152.16 63.9722 152.949 64.3164 153.593 65.0049C154.243 65.6934 154.567 66.7041 154.567 68.0371C154.567 69.4434 154.25 70.5151 153.615 71.2524C152.985 71.9897 152.172 72.3584 151.176 72.3584C150.542 72.3584 150.014 72.1997 149.594 71.8823C149.365 71.7065 149.14 71.4502 148.92 71.1133V75.2734H146.855V64.1479H148.854V65.3271C149.079 64.9805 149.318 64.707 149.572 64.5068C150.036 64.1504 150.588 63.9722 151.228 63.9722ZM158.229 63.1958H156.113V61.2695H158.229V63.1958ZM156.113 64.1479H158.229V72.1313H156.113V64.1479ZM165.026 67.0117C164.987 66.7139 164.887 66.4453 164.726 66.2061C164.492 65.8838 164.128 65.7227 163.635 65.7227C162.932 65.7227 162.451 66.0718 162.192 66.77C162.055 67.1411 161.987 67.6343 161.987 68.2495C161.987 68.8354 162.055 69.3066 162.192 69.6631C162.441 70.3271 162.91 70.6592 163.598 70.6592C164.086 70.6592 164.433 70.5273 164.638 70.2637C164.843 70 164.968 69.6582 165.012 69.2383H167.143C167.094 69.873 166.865 70.4736 166.455 71.04C165.8 71.9531 164.831 72.4097 163.547 72.4097C162.263 72.4097 161.318 72.0288 160.712 71.2671C160.107 70.5054 159.804 69.5166 159.804 68.3008C159.804 66.9287 160.139 65.8618 160.808 65.1001C161.477 64.3384 162.399 63.9575 163.576 63.9575C164.577 63.9575 165.395 64.1821 166.03 64.6313C166.669 65.0806 167.048 65.874 167.165 67.0117H165.026ZM172.189 70.6592C172.8 70.6592 173.269 70.4419 173.596 70.0073C173.923 69.5728 174.086 68.9551 174.086 68.1543C174.086 67.3535 173.923 66.7383 173.596 66.3086C173.269 65.874 172.8 65.6567 172.189 65.6567C171.579 65.6567 171.108 65.874 170.776 66.3086C170.449 66.7383 170.285 67.3535 170.285 68.1543C170.285 68.9551 170.449 69.5728 170.776 70.0073C171.108 70.4419 171.579 70.6592 172.189 70.6592ZM176.276 68.1543C176.276 69.3262 175.939 70.3296 175.266 71.1646C174.592 71.9946 173.569 72.4097 172.197 72.4097C170.825 72.4097 169.802 71.9946 169.128 71.1646C168.454 70.3296 168.117 69.3262 168.117 68.1543C168.117 67.002 168.454 66.0034 169.128 65.1587C169.802 64.314 170.825 63.8916 172.197 63.8916C173.569 63.8916 174.592 64.314 175.266 65.1587C175.939 66.0034 176.276 67.002 176.276 68.1543ZM182.202 63.9575C183.027 63.9575 183.701 64.1748 184.223 64.6094C184.75 65.0391 185.014 65.7544 185.014 66.7554V72.1313H182.875V67.2754C182.875 66.8555 182.819 66.5332 182.707 66.3086C182.502 65.8984 182.111 65.6934 181.535 65.6934C180.827 65.6934 180.341 65.9937 180.078 66.5942C179.941 66.9116 179.873 67.3169 179.873 67.8101V72.1313H177.792V64.1626H179.807V65.3271C180.075 64.917 180.329 64.6216 180.568 64.4409C180.998 64.1187 181.542 63.9575 182.202 63.9575Z" fill="#3F7665"/>
<path d="M118.391 141.04V177.82H97.5105V155.56H67.5105V141.04H118.391ZM173.586 141.04V177.82H152.706V155.56H122.706V141.04H173.586ZM177.901 170.08V141.04H228.781V158.26H195.961V160.42H228.781V177.64H185.461C180.661 177.64 177.901 174.88 177.901 170.08Z" fill="url(#paint0_linear_141_40)"/>
<defs>
<filter id="filter0_d_141_40" x="0.402832" y="0.130371" width="330.097" height="318.875" filterUnits="userSpaceOnUse" color-interpolation-filters="sRGB">
<feFlood flood-opacity="0" result="BackgroundImageFix"/>
<feColorMatrix in="SourceAlpha" type="matrix" values="0 0 0 0 0 0 0 0 0 0 0 0 0 0 0 0 0 0 127 0" result="hardAlpha"/>
<feOffset dx="10" dy="10"/>
<feGaussianBlur stdDeviation="15"/>
<feComposite in2="hardAlpha" operator="out"/>
<feColorMatrix type="matrix" values="0 0 0 0 0.0588235 0 0 0 0 0.505882 0 0 0 0 0.368627 0 0 0 0.1 0"/>
<feBlend mode="normal" in2="BackgroundImageFix" result="effect1_dropShadow_141_40"/>
<feBlend mode="normal" in="SourceGraphic" in2="effect1_dropShadow_141_40" result="shape"/>
</filter>
<linearGradient id="paint0_linear_141_40" x1="69.2307" y1="135.472" x2="243.57" y2="159.303" gradientUnits="userSpaceOnUse">
<stop stop-color="#0199B6"/>
<stop offset="0.416667" stop-color="#0C3AF1"/>
<stop offset="1" stop-color="#6015C0"/>
</linearGradient>
<clipPath id="clip0_141_40">
<rect width="16.42" height="16.42" fill="white" transform="translate(231.708 121)"/>
</clipPath>
</defs>
</svg>
