<svg width="15" height="15" viewBox="0 0 15 15" fill="none" xmlns="http://www.w3.org/2000/svg">
<path fill-rule="evenodd" clip-rule="evenodd" d="M7.42043 14.3018C10.9941 14.3018 13.8911 11.4047 13.8911 7.83107C13.8911 4.25739 10.9941 1.36035 7.42043 1.36035C3.84675 1.36035 0.949707 4.25739 0.949707 7.83107C0.949707 11.4047 3.84675 14.3018 7.42043 14.3018ZM7.42043 14.8018C11.2702 14.8018 14.3911 11.6809 14.3911 7.83107C14.3911 3.98125 11.2702 0.860352 7.42043 0.860352C3.5706 0.860352 0.449707 3.98125 0.449707 7.83107C0.449707 11.6809 3.5706 14.8018 7.42043 14.8018ZM6.91184 11.9324V11.1123H7.91184V11.9324H6.91184ZM5.87182 6.01297C5.85772 5.75231 5.92708 5.34891 6.16901 5.02384C6.39199 4.72424 6.80082 4.43652 7.59108 4.43652C8.03976 4.43652 8.32423 4.55356 8.50899 4.69789C8.69684 4.84463 8.8231 5.05218 8.89637 5.3001C8.97043 5.55069 8.98495 5.82684 8.95792 6.07471C8.92975 6.33304 8.86271 6.50778 8.82032 6.57363C8.60321 6.91096 8.31994 7.11529 7.98739 7.35518L7.98732 7.35523C7.92403 7.40089 7.85895 7.44784 7.7922 7.49723C7.40242 7.78569 6.92043 8.19323 6.92043 8.94769V8.95233V8.95695V8.96155V8.96614V8.97072V8.97529V8.97984V8.98438V8.9889V8.99341V8.99791V9.0024V9.00687V9.01132V9.01577V9.0202V9.02462V9.02902V9.03341V9.03779V9.04215V9.0465V9.05084V9.05516V9.05947V9.06377V9.06805V9.07232V9.07658V9.08082V9.08505V9.08927V9.09347V9.09767V9.10184V9.10601V9.11016V9.1143V9.11842V9.12254V9.12663V9.13072V9.13479V9.13885V9.1429V9.14693V9.15096V9.15496V9.15896V9.16294V9.16691V9.17087V9.17481V9.17874V9.18266V9.18656V9.19045V9.19433V9.1982V9.20205V9.20589V9.20972V9.21353V9.21733V9.22112V9.2249V9.22866V9.23241V9.23615V9.23987V9.24359V9.24729V9.25097V9.25465V9.25831V9.26196V9.2656V9.26922V9.27283V9.27643V9.28002V9.28359V9.28715V9.2907V9.29424V9.29776V9.30127V9.30477V9.30825V9.31173V9.31519V9.31864V9.32207V9.3255V9.32891V9.33231V9.3357V9.33907V9.34243V9.34578V9.34912V9.35245V9.35576V9.35906V9.36235V9.36563V9.36889V9.37214V9.37538V9.37861V9.38183V9.38503V9.38822V9.3914V9.39457V9.39772V9.40086V9.40399V9.40711V9.41022V9.41331V9.4164V9.41947V9.42252V9.42557V9.42861V9.43163V9.43464V9.43764V9.44062V9.4436V9.44656V9.44951V9.45245V9.45538V9.45829V9.4612V9.46409V9.46697V9.46984V9.47269V9.47554V9.47837V9.48119V9.484V9.4868V9.48959V9.49236V9.49512V9.49788V9.50061V9.50334V9.50606V9.50876V9.51146V9.51414V9.51681V9.51947V9.52211V9.52475V9.52737V9.52998V9.53259V9.53517V9.53775V9.54032V9.54287V9.54542V9.54795V9.55047V9.55298V9.55548V9.55796V9.56044V9.5629V9.56536V9.5678V9.57023V9.57265V9.57505V9.57745V9.57984V9.58221V9.58457V9.58692V9.58926V9.59159V9.59391V9.59622V9.59851V9.6008V9.60307V9.60533V9.60759V9.60983V9.61205V9.61427V9.61648V9.61868V9.62086V9.62304V9.6252V9.62735V9.62949V9.63162V9.63374V9.63585V9.63795V9.64004V9.64211V9.64418V9.64623V9.64828V9.65031V9.65233V9.65434V9.65634V9.65833V9.66031V9.66228V9.66424V9.66618V9.66812V9.67004V9.67196V9.67386V9.67575V9.67764V9.67951V9.68137V9.68322V9.68506V9.68689V9.68871V9.69052V9.69232V9.69411V9.69588V9.69765V9.69941V9.70115V9.70289V9.70461V9.70633V9.70803V9.70972V9.71141V9.71308V9.71474V9.7164V9.71804V9.71967V9.72129V9.7229V9.7245V9.72609V9.72767V9.72924V9.7308V9.73235V9.73389V9.73542V9.73694V9.73845V9.73995V9.74144V9.74292V9.74438V9.74584V9.74729V9.74873V9.75016V9.75158V9.75299V9.75438V9.75577V9.75715V9.75852V9.75988V9.76122V9.76256V9.76389V9.76521V9.76652V9.76782V9.76911V9.77039V9.77165V9.77291V9.77416V9.7754V9.77663V9.77785V9.77907V9.78027V9.78146V9.78264V9.78381V9.78497V9.78613V9.78727V9.7884V9.78952V9.79064V9.79174V9.79284V9.79392V9.795V9.79606V9.79712V9.79817V9.7992V9.80023V9.80125V9.80226V9.80326V9.80425V9.80523V9.8062V9.80716V9.80811V9.80906V9.80999V9.81091V9.81183V9.81273V9.81363V9.81452V9.81539V9.81626V9.81712V9.81797V9.81881V9.81964V9.82047V9.82128V9.82208V9.82288V9.82366V9.82444V9.8252V9.82596V9.82671V9.82745V9.82818V9.8289V9.82962V9.83032V9.83101V9.8317V9.83238V9.83304V9.83324V9.8337V9.83384V9.83435V9.83444V9.83499V9.83503V9.83561V9.83562V9.83618V9.83625V9.83674V9.83686V9.8373V9.83747V9.83786V9.83806V9.8384V9.83865V9.83894V9.83923V9.83947V9.8398V9.84V9.84036V9.84051V9.84091V9.84102V9.84145V9.84153V9.84199V9.84202V9.84251V9.84299V9.84303V9.84347V9.84354V9.84394V9.84404V9.8444V9.84453V9.84485V9.84501V9.8453V9.84548V9.84574V9.84595V9.84617V9.8464V9.84659V9.84685V9.84701V9.84729V9.84742V9.84772V9.84782V9.84814V9.84822V9.84855V9.84861V9.84895V9.84899V9.84935V9.84937V9.84974V9.85009V9.85011V9.85044V9.85048V9.85079V9.85084V9.85113V9.8512V9.85146V9.85154V9.85178V9.85188V9.85209V9.8522V9.8524V9.85252V9.8527V9.85283V9.85299V9.85314V9.85328V9.85343V9.85356V9.85371V9.85383V9.85399V9.85409V9.85426V9.85435V9.85452V9.8546V9.85477V9.85484V9.85501V9.85507V9.85525V9.8553V9.85547V9.85551V9.85569V9.85573V9.8559V9.85593V9.8561V9.85612V9.8563V9.85631V9.85648V9.85649V9.85666V9.85683V9.85699V9.85714V9.85728V9.85729V9.85741V9.85742V9.85754V9.85755V9.85765V9.85767V9.85777V9.85778V9.85787V9.85788V9.85796V9.85798V9.85805V9.85807V9.85813V9.85814V9.8582V9.85822V9.85827V9.85828V9.85832V9.85833V9.85837V9.85838V9.85841V9.85842V9.85844V9.85845V9.85847V9.8585H7.92043V9.85849V9.85847V9.85845V9.85844V9.85842V9.85841V9.85838V9.85837V9.85833V9.85832V9.85828V9.85827V9.85822V9.8582V9.85814V9.85813V9.85807V9.85805V9.85798V9.85796V9.85788V9.85787V9.85778V9.85777V9.85767V9.85765V9.85755V9.85754V9.85742V9.85741V9.85729V9.85728V9.85713V9.85699V9.85683V9.85666V9.85649V9.85648V9.85631V9.8563V9.85612V9.8561V9.85593V9.8559V9.85573V9.85569V9.85551V9.85547V9.8553V9.85525V9.85507V9.85501V9.85484V9.85477V9.8546V9.85452V9.85435V9.85426V9.85409V9.85399V9.85383V9.85371V9.85356V9.85343V9.85328V9.85314V9.85299V9.85283V9.8527V9.85252V9.8524V9.8522V9.85209V9.85188V9.85178V9.85154V9.85146V9.8512V9.85113V9.85084V9.85079V9.85048V9.85044V9.85011V9.85009V9.84973V9.84937V9.84935V9.84899V9.84895V9.84861V9.84855V9.84822V9.84814V9.84782V9.84772V9.84742V9.84729V9.84701V9.84685V9.84659V9.8464V9.84617V9.84595V9.84574V9.84548V9.8453V9.84501V9.84485V9.84453V9.8444V9.84404V9.84394V9.84354V9.84347V9.84303V9.84299V9.84251V9.84202V9.84199V9.84153V9.84145V9.84102V9.84091V9.84051V9.84036V9.84V9.8398V9.83947V9.83923V9.83894V9.83865V9.8384V9.83806V9.83786V9.83747V9.8373V9.83686V9.83674V9.83625V9.83618V9.83562V9.83561V9.83503V9.83499V9.83444V9.83435V9.83384V9.8337V9.83324V9.83304V9.83238V9.8317V9.83101V9.83032V9.82962V9.8289V9.82818V9.82745V9.82671V9.82596V9.8252V9.82444V9.82366V9.82288V9.82208V9.82128V9.82047V9.81964V9.81881V9.81797V9.81712V9.81626V9.81539V9.81452V9.81363V9.81273V9.81183V9.81091V9.80999V9.80906V9.80811V9.80716V9.8062V9.80523V9.80425V9.80326V9.80226V9.80125V9.80023V9.7992V9.79817V9.79712V9.79606V9.795V9.79392V9.79284V9.79174V9.79064V9.78952V9.7884V9.78727V9.78613V9.78497V9.78381V9.78264V9.78146V9.78027V9.77907V9.77785V9.77663V9.7754V9.77416V9.77291V9.77165V9.77039V9.76911V9.76782V9.76652V9.76521V9.76389V9.76256V9.76122V9.75988V9.75852V9.75715V9.75577V9.75438V9.75299V9.75158V9.75016V9.74873V9.74729V9.74584V9.74438V9.74292V9.74144V9.73995V9.73845V9.73694V9.73542V9.73389V9.73235V9.7308V9.72924V9.72767V9.72609V9.7245V9.7229V9.72129V9.71967V9.71804V9.7164V9.71474V9.71308V9.71141V9.70972V9.70803V9.70633V9.70461V9.70289V9.70115V9.69941V9.69765V9.69588V9.69411V9.69232V9.69052V9.68871V9.68689V9.68506V9.68322V9.68137V9.67951V9.67764V9.67575V9.67386V9.67196V9.67004V9.66812V9.66618V9.66424V9.66228V9.66031V9.65833V9.65634V9.65434V9.65233V9.65031V9.64828V9.64623V9.64418V9.64211V9.64004V9.63795V9.63585V9.63374V9.63162V9.62949V9.62735V9.6252V9.62304V9.62086V9.61868V9.61648V9.61427V9.61205V9.60983V9.60759V9.60533V9.60307V9.6008V9.59851V9.59622V9.59391V9.59159V9.58926V9.58692V9.58457V9.58221V9.57984V9.57745V9.57505V9.57265V9.57023V9.5678V9.56536V9.5629V9.56044V9.55796V9.55548V9.55298V9.55047V9.54795V9.54542V9.54287V9.54032V9.53775V9.53517V9.53259V9.52998V9.52737V9.52475V9.52211V9.51947V9.51681V9.51414V9.51146V9.50876V9.50606V9.50334V9.50061V9.49788V9.49512V9.49236V9.48959V9.4868V9.484V9.48119V9.47837V9.47554V9.47269V9.46984V9.46697V9.46409V9.4612V9.45829V9.45538V9.45245V9.44951V9.44656V9.4436V9.44062V9.43764V9.43464V9.43163V9.42861V9.42557V9.42252V9.41947V9.4164V9.41331V9.41022V9.40711V9.40399V9.40086V9.39772V9.39457V9.3914V9.38822V9.38503V9.38183V9.37861V9.37538V9.37214V9.36889V9.36563V9.36235V9.35906V9.35576V9.35245V9.34912V9.34578V9.34243V9.33907V9.3357V9.33231V9.32891V9.3255V9.32207V9.31864V9.31519V9.31173V9.30825V9.30477V9.30127V9.29776V9.29424V9.2907V9.28715V9.28359V9.28002V9.27643V9.27283V9.26922V9.2656V9.26196V9.25831V9.25465V9.25097V9.24729V9.24359V9.23987V9.23615V9.23241V9.22866V9.2249V9.22112V9.21733V9.21353V9.20972V9.20589V9.20205V9.1982V9.19433V9.19045V9.18656V9.18266V9.17874V9.17481V9.17087V9.16691V9.16294V9.15896V9.15496V9.15096V9.14693V9.1429V9.13885V9.13479V9.13072V9.12663V9.12254V9.11842V9.1143V9.11016V9.10601V9.10184V9.09767V9.09347V9.08927V9.08505V9.08082V9.07658V9.07232V9.06805V9.06377V9.05947V9.05516V9.05084V9.0465V9.04215V9.03779V9.03341V9.02902V9.02462V9.0202V9.01577V9.01132V9.00687V9.0024V8.99791V8.99341V8.9889V8.98438V8.97984V8.97529V8.97072V8.96614V8.96155V8.95695V8.95233V8.94769C7.92043 8.71229 8.02733 8.56728 8.38707 8.30106C8.43466 8.26584 8.48689 8.22861 8.54258 8.18891L8.54259 8.18891C8.87549 7.95161 9.33214 7.6261 9.6612 7.11485C9.81792 6.87137 9.91442 6.52797 9.95203 6.18311C9.99077 5.82778 9.97329 5.41567 9.85536 5.01667C9.73664 4.61499 9.51092 4.21161 9.12458 3.90982C8.73515 3.60561 8.22322 3.43652 7.59108 3.43652C6.5155 3.43652 5.79611 3.84996 5.3668 4.4268C4.95644 4.97817 4.84945 5.62649 4.87328 6.06698L5.87182 6.01297Z" fill="#BF002E"/>
</svg>
