<svg width="126" height="36" viewBox="0 0 126 36" fill="none" xmlns="http://www.w3.org/2000/svg">
<g clip-path="url(#clip0_169_59)">
<path d="M19.875 26.1516L17.6969 13.4675L5.26921 12.8574L7.69547 25.8847L4.89355 25.8257L6.7098 35.3969L35.9455 35.435L34.5773 26.474L19.875 26.1516Z" fill="#0F815E"/>
<path d="M22.1844 24.9625L34.3915 25.2607L30.8831 2.29138L0 0L1.8128 9.57111L19.7616 10.5625L22.1844 24.9625Z" fill="#0F815E"/>
<path d="M52.7811 12.3895L54.4526 25.753L66.6562 26.0546L64.3851 4.77698L33.502 2.4856L34.8357 11.3946L52.7811 12.3895Z" fill="#0F815E"/>
<path d="M52.0781 26.8552L50.5617 15.0725L38.1306 14.4658L39.8951 26.5883L37.0967 26.5259L38.427 35.4384L67.6662 35.4765L66.777 27.1742L52.0781 26.8552Z" fill="#0F815E"/>
<path d="M78.6222 5.83426L66.6426 4.94336L69.4066 24.9002L79.5665 25.1775L78.6222 5.83426Z" fill="#0F815E"/>
<path d="M69.5 25.791L70.2479 33.1054C70.4236 34.8144 71.3886 35.4835 72.9395 35.4835L80.4561 35.4939L79.6427 26.0475L69.5 25.791Z" fill="#0F815E"/>
<path d="M96.7125 22.4388C86.4905 22.0714 82.1239 23.8878 82.5375 28.9559C82.9511 34.024 87.5244 35.9999 97.4776 35.9999C107.431 35.9999 111.787 34.1731 111.649 29.4828C111.511 24.7961 106.931 22.8028 96.709 22.4388H96.7125ZM92.3666 28.3631L92.756 27.3578C95.489 28.6335 99.0457 29.2194 101.937 29.1015L101.985 30.0929C98.9285 30.2143 95.2064 29.7047 92.37 28.3631H92.3666Z" fill="#0F815E"/>
<path d="M110.381 10.6491L110.305 8.18441L100.511 7.45643L100.817 13.7794C97.7258 14.3202 93.9003 14.4172 91.1708 14.2647L91.1019 13.2144C93.6936 13.3669 97.3157 13.3703 99.4111 12.9821L99.1251 7.3559L80.8799 6.00049L81.6346 15.27C81.9552 19.1872 83.668 21.1493 88.6274 21.3365C93.8349 21.534 98.553 21.1978 101.138 20.4456L101.22 22.1199L110.743 22.4735L110.622 18.5078L113.335 18.636L113.138 10.8328L110.384 10.6456L110.381 10.6491Z" fill="#0F815E"/>
<path d="M115.154 26.949L115.299 33.4349C115.334 34.9497 116.243 35.5425 117.794 35.546L125.311 35.5564L125.297 27.209L115.154 26.9524V26.949Z" fill="#0F815E"/>
<path d="M126 9.34915L114.021 8.45825L115.137 26.1584L125.297 26.4357L126 9.34915Z" fill="#0F815E"/>
<g clip-path="url(#clip1_169_59)">
<path d="M20.001 26.1516L17.8229 13.4675L5.39519 12.8574L7.82145 25.8847L5.01953 25.8257L6.83578 35.3969L36.0715 35.435L34.7033 26.474L20.001 26.1516Z" fill="#0F815E"/>
<path d="M22.3104 24.9625L34.5175 25.2607L31.0091 2.29138L0.125977 0L1.93878 9.57111L19.8876 10.5625L22.3104 24.9625Z" fill="#0F815E"/>
<path d="M52.907 12.3895L54.5785 25.753L66.7822 26.0546L64.511 4.77698L33.6279 2.4856L34.9617 11.3946L52.907 12.3895Z" fill="#0F815E"/>
<path d="M52.2041 26.8552L50.6877 15.0725L38.2566 14.4658L40.0211 26.5883L37.2227 26.5259L38.553 35.4384L67.7921 35.4765L66.903 27.1742L52.2041 26.8552Z" fill="#0F815E"/>
<path d="M78.7482 5.83426L66.7686 4.94336L69.5326 24.9002L79.6925 25.1775L78.7482 5.83426Z" fill="#0F815E"/>
<path d="M69.626 25.791L70.3738 33.1054C70.5496 34.8144 71.5146 35.4835 73.0655 35.4835L80.582 35.4939L79.7687 26.0475L69.626 25.791Z" fill="#0F815E"/>
<path d="M96.8385 22.4388C86.6165 22.0714 82.2499 23.8878 82.6635 28.9559C83.077 34.024 87.6504 35.9999 97.6036 35.9999C107.557 35.9999 111.913 34.1731 111.775 29.4828C111.637 24.7961 107.057 22.8028 96.835 22.4388H96.8385ZM92.4926 28.3631L92.882 27.3578C95.615 28.6335 99.1717 29.2194 102.063 29.1015L102.111 30.0929C99.0545 30.2143 95.3324 29.7047 92.496 28.3631H92.4926Z" fill="#0F815E"/>
<path d="M110.507 10.6491L110.431 8.18441L100.637 7.45643L100.943 13.7794C97.8518 14.3202 94.0263 14.4172 91.2968 14.2647L91.2279 13.2144C93.8195 13.3669 97.4417 13.3703 99.5371 12.9821L99.251 7.3559L81.0059 6.00049L81.7606 15.27C82.0811 19.1872 83.794 21.1493 88.7533 21.3365C93.9608 21.534 98.6789 21.1978 101.264 20.4456L101.346 22.1199L110.869 22.4735L110.748 18.5078L113.461 18.636L113.264 10.8328L110.51 10.6456L110.507 10.6491Z" fill="#0F815E"/>
<path d="M115.28 26.949L115.425 33.4349C115.459 34.9497 116.369 35.5425 117.92 35.546L125.437 35.5564L125.423 27.209L115.28 26.9524V26.949Z" fill="#0F815E"/>
<path d="M126.126 9.34915L114.146 8.45825L115.263 26.1584L125.423 26.4357L126.126 9.34915Z" fill="#0F815E"/>
</g>
</g>
<defs>
<clipPath id="clip0_169_59">
<rect width="126" height="36" fill="white"/>
</clipPath>
<clipPath id="clip1_169_59">
<rect width="126" height="36" fill="white" transform="translate(0.125977)"/>
</clipPath>
</defs>
</svg>
