<svg width="306" height="66" viewBox="0 0 306 66" fill="none" xmlns="http://www.w3.org/2000/svg">
<g clip-path="url(#clip0_61_654)">
<path d="M270.209 38.1428C258.571 38.1428 246.939 38.1428 235.301 38.1428C234.68 38.1428 234.368 37.835 234.364 37.2195C234.364 33.9635 234.364 30.7137 234.364 27.4577C234.364 26.834 234.67 26.5201 235.282 26.516C250.599 26.516 265.916 26.516 281.227 26.516C282.279 26.516 283.222 26.2637 283.872 25.3835C284.055 25.1373 284.122 24.7557 284.104 24.4418C284.104 24.3556 283.623 24.2202 283.362 24.2202C271.784 24.2079 260.207 24.2079 248.629 24.2079C244.142 24.2079 239.654 24.2079 235.161 24.2079C234.37 24.2079 234.364 24.2079 234.364 23.3893C234.364 20.7796 234.364 18.1698 234.364 15.5601C234.364 14.9569 234.666 14.6553 235.27 14.6553C251.22 14.6553 267.175 14.6553 283.125 14.643C283.477 14.643 284.11 14.5322 284.134 14.3845C284.243 13.7752 284.195 13.1289 284.146 12.5011C284.14 12.4088 283.842 12.298 283.672 12.261C283.447 12.218 283.21 12.2426 282.979 12.2426C267.26 12.2426 251.536 12.2426 235.818 12.2426C235.623 12.2426 235.434 12.2426 235.24 12.2426C234.449 12.2364 234.37 12.1564 234.364 11.3809C234.364 10.6792 234.364 9.97754 234.364 9.27587C234.364 6.46919 234.364 3.66252 234.364 0.861995C234.364 0.0187606 234.389 -0.00585938 235.197 -0.00585938C258.529 -0.00585938 281.86 -0.00585938 305.185 -0.00585938C305.982 -0.00585938 305.982 -0.00585945 305.982 0.8066C305.982 5.87216 306.024 10.9377 305.957 16.0033C305.939 17.4682 305.586 18.9207 305.404 20.3856C305.246 21.6474 304.857 22.8353 304.273 23.9494C303.932 24.5956 303.47 25.1804 303.087 25.802C302.996 25.9497 302.887 26.1959 302.947 26.3129C303.008 26.436 303.264 26.5099 303.434 26.516C304.127 26.5406 304.82 26.5406 305.513 26.5222C305.86 26.516 305.988 26.6514 305.988 27.0022C305.982 30.5475 305.982 34.0928 305.988 37.6381C305.988 37.9766 305.878 38.1551 305.519 38.1305C305.325 38.1182 305.136 38.1305 304.942 38.1305C293.364 38.1305 281.787 38.1305 270.209 38.1305V38.1428Z" fill="#3C199E"/>
<path d="M114.273 38.1364C102.652 38.1364 91.0386 38.1364 79.4185 38.1364C78.5368 38.1364 78.5368 38.1364 78.5368 37.2378C78.5368 33.9633 78.5368 30.695 78.5368 27.4206C78.5368 26.8174 78.8287 26.5158 79.4125 26.5158C94.6687 26.5158 109.931 26.5097 125.187 26.5343C126.373 26.5343 127.328 26.165 128.118 25.3279C128.3 25.1309 128.392 24.7678 128.367 24.4908C128.361 24.3862 127.93 24.2385 127.686 24.2323C126.726 24.2015 125.759 24.22 124.798 24.22C109.676 24.22 94.5531 24.22 79.4246 24.22C78.8328 24.22 78.5348 23.9266 78.5308 23.3398C78.5308 20.7301 78.5308 18.1204 78.5308 15.5107C78.5308 14.6736 78.5308 14.6736 79.3577 14.6736C95.3071 14.6736 111.263 14.6736 127.212 14.6736C128.067 14.6736 128.495 14.251 128.495 13.4057C128.495 12.2855 128.483 12.2731 127.358 12.2731C111.542 12.2731 95.7206 12.2731 79.905 12.2731C79.6374 12.2731 79.3638 12.2608 79.0963 12.2731C78.7071 12.2855 78.5308 12.107 78.5308 11.713C78.5308 11.1283 78.5308 10.5436 78.5308 9.95887C78.5308 6.96139 78.5308 3.95775 78.5308 0.960269C78.5308 0.336563 78.8368 0.022658 79.4489 0.0185547C97.1739 0.0185547 114.899 0.0185547 132.624 0.0185547C138.133 0.0185547 143.642 0.0185547 149.157 0.0185547C150.033 0.0185547 150.033 0.0185547 150.033 0.929494C150.033 6.59824 150.093 12.267 150.008 17.9357C149.966 20.7486 149.236 23.4137 147.448 25.6849C147.308 25.8634 147.26 26.128 147.175 26.3496C147.406 26.4173 147.631 26.5281 147.868 26.5404C148.366 26.5712 148.871 26.5835 149.37 26.5404C149.923 26.4912 150.045 26.7312 150.045 27.2421C150.026 30.3381 150.033 33.4402 150.033 36.5361C150.033 37.6112 149.495 38.1487 148.421 38.1487C137.032 38.1487 125.649 38.1487 114.26 38.1487L114.273 38.1364Z" fill="#3C199E"/>
<path d="M22.3221 31.1873C21.0087 31.8213 19.8594 32.4368 18.6555 32.9354C17.4758 33.4278 16.2536 33.8278 15.0314 34.2033C13.9856 34.5234 12.9215 34.7819 11.8574 35.0034C10.5987 35.262 9.33393 35.5082 8.06308 35.662C6.38484 35.859 4.69443 35.9636 3.00403 36.0867C2.40813 36.1298 1.80615 36.0683 1.21633 36.1052C0.748125 36.1298 0.583949 35.9267 0.614352 35.4897C0.620433 35.3543 0.614352 35.2189 0.614352 35.0835C0.614352 29.9194 0.614352 24.7615 0.614352 19.5975C0.614352 18.6496 0.650836 18.6804 1.52036 18.4773C4.14718 17.8556 6.16594 16.4092 7.32733 13.8857C8.35495 11.6452 8.65898 9.25095 8.69547 6.81358C8.72587 4.77012 8.71371 2.72051 8.69547 0.677049C8.67723 0.16003 8.8414 0 9.34609 0C17.263 0.01231 25.18 0.00615499 33.0969 0.01231C33.7719 0.01231 33.8387 0.1231 33.8327 0.800149C33.8144 2.67127 33.7414 4.54239 33.8327 6.40735C33.9056 7.85377 34.0759 9.31866 34.3982 10.7282C34.7752 12.3715 35.59 13.8303 36.8851 14.9566C37.0554 15.1044 37.3108 15.1597 37.5236 15.2582C37.5965 15.012 37.7364 14.7658 37.7364 14.5196C37.7546 12.4762 37.7425 10.4266 37.7425 8.3831C37.7425 6.69048 37.7425 4.9917 37.7425 3.29908C37.7425 2.41276 37.8763 2.2835 38.7397 2.28966C40.3754 2.30197 42.0111 2.32043 43.6528 2.32659C44.3095 2.32659 44.9601 2.28966 45.6169 2.27119C46.0182 2.25888 46.2188 2.05577 46.2188 1.64954C46.2188 1.51413 46.2188 1.37872 46.2249 1.24331C46.2371 -0.129255 46.0607 0.01231 47.4775 0.01231C55.4127 0.01231 63.3479 0.01231 71.2891 0.01231C71.881 0.01231 72.1769 0.309801 72.1769 0.904784C72.1769 11.5221 72.1769 22.1395 72.1769 32.7507C72.1769 33.3785 71.8769 33.6924 71.277 33.6924C63.2263 33.6924 55.1756 33.6924 47.1188 33.6924C46.5269 33.6924 46.229 33.3929 46.2249 32.7938C46.2249 28.9777 46.2249 25.1555 46.2249 21.3394C46.2249 21.1239 46.2249 20.9085 46.2067 20.6992C46.1763 20.2992 45.9695 20.1145 45.556 20.1391C44.7473 20.1884 43.9447 20.2253 43.136 20.2438C42.2239 20.2684 42.0901 20.3792 42.0901 21.2901C42.0901 24.8723 42.0901 28.4607 42.0901 32.0429C42.0901 32.9538 42.0901 32.9908 41.2023 32.9477C38.9768 32.843 36.7453 32.7877 34.5319 32.5476C33.0543 32.3876 31.6072 31.9629 30.1539 31.6244C27.217 30.9412 24.4929 29.7163 21.9998 28.0298C20.4736 26.9958 19.0811 25.7648 17.6643 24.583C17.0198 24.0476 16.9529 23.9922 16.2962 24.4846C14.9706 25.4817 14.9159 25.5432 16.205 26.5896C17.9866 28.0298 19.8534 29.3593 21.6836 30.738C21.8356 30.8488 21.9877 30.9596 22.3038 31.1935L22.3221 31.1873Z" fill="#3C199E"/>
<path d="M178.143 31.1564C177.085 31.6981 176.234 32.2151 175.316 32.5905C173.808 33.206 172.282 33.7785 170.731 34.2585C169.545 34.6217 168.311 34.8186 167.095 35.071C166.177 35.2618 165.252 35.4588 164.322 35.5942C163.331 35.7357 162.334 35.8342 161.337 35.9019C159.859 35.9943 158.381 36.0373 156.904 36.1174C156.338 36.1481 156.411 35.7665 156.411 35.4157C156.411 30.4301 156.411 25.4384 156.411 20.4529C156.411 20.022 156.417 19.5973 156.411 19.1665C156.405 18.7664 156.588 18.5879 156.983 18.5141C159.987 17.9663 162.2 16.3906 163.361 13.4485C163.927 12.0144 164.17 10.531 164.377 8.99845C164.748 6.25948 164.565 3.51435 164.632 0.775378C164.65 0.018314 164.644 0.006004 165.429 0.006004C172.963 0.006004 180.497 0.006004 188.03 0.006004C188.377 0.006004 188.724 0.024469 189.07 0.006004C189.557 -0.030926 189.703 0.184499 189.703 0.658433C189.69 2.70189 189.623 4.7515 189.721 6.79496C189.83 9.06615 190.092 11.3373 191.375 13.3008C191.794 13.9409 192.366 14.4764 192.895 15.0365C193.01 15.1596 193.229 15.1842 193.4 15.2519C193.46 15.0796 193.558 14.9072 193.576 14.7287C193.606 14.4395 193.588 14.144 193.588 13.8547C193.588 10.291 193.588 6.72726 193.588 3.15736C193.588 2.36337 193.612 2.33875 194.397 2.33875C196.476 2.33875 198.556 2.33875 200.642 2.33875C200.909 2.33875 201.183 2.32028 201.45 2.30182C201.937 2.26489 202.15 2.01869 202.156 1.50167C202.174 0.018314 202.186 0.018314 203.682 0.018314C211.501 0.018314 219.327 0.018314 227.147 0.018314C227.992 0.018314 228.022 0.042934 228.022 0.904633C228.022 11.5589 228.022 22.2194 228.022 32.8737C228.022 33.643 227.974 33.6984 227.196 33.6984C219.102 33.6984 211.015 33.6984 202.922 33.6984C202.162 33.6984 202.15 33.68 202.15 32.9106C202.15 29.033 202.15 25.1553 202.15 21.2777C202.15 20.1944 202.034 20.1205 200.982 20.219C200.277 20.2867 199.559 20.2436 198.848 20.2621C198.033 20.2806 197.917 20.4037 197.917 21.2223C197.917 24.8845 197.905 28.5467 197.93 32.2089C197.93 32.7875 197.79 33.0152 197.188 32.9722C194.926 32.8244 192.646 32.8367 190.402 32.5413C188.535 32.3013 186.699 31.7596 184.868 31.2734C181.968 30.504 179.335 29.1376 176.915 27.365C175.693 26.4663 174.544 25.4569 173.394 24.4598C172.981 24.1028 172.64 24.0597 172.227 24.4229C171.965 24.6506 171.68 24.8476 171.412 25.0691C171.084 25.3461 170.956 25.6046 171.388 25.9493C172.908 27.1618 174.404 28.4113 175.93 29.6115C176.587 30.1285 177.304 30.5717 178.162 31.1626L178.143 31.1564Z" fill="#3C199E"/>
<path d="M37.1645 35.2315C39.9981 35.2315 42.8316 35.1576 45.6591 35.2561C47.7448 35.33 49.8304 35.607 51.9161 35.8162C53.2903 35.9516 54.6645 36.0932 56.0326 36.284C56.9022 36.4009 57.7656 36.6041 58.629 36.7887C59.3405 36.9426 60.0519 37.1088 60.7512 37.2996C61.7119 37.5581 62.6848 37.7858 63.6151 38.1182C64.6549 38.4875 65.6765 38.9245 66.6798 39.3984C69.2883 40.6417 71.5321 42.3774 72.7725 45.0672C73.7576 47.1968 74.1406 49.468 73.7393 51.8746C73.4475 53.6288 72.9245 55.2475 71.9395 56.7124C70.6017 58.7066 68.8019 60.1654 66.6737 61.181C65.1596 61.9072 63.603 62.5597 62.0281 63.1382C61.0126 63.5137 59.9303 63.7168 58.8662 63.9569C57.3521 64.2954 55.832 64.6278 54.3057 64.8986C53.2477 65.0894 52.1775 65.2248 51.1073 65.3048C48.5413 65.5018 45.9692 65.6679 43.4032 65.8218C41.9074 65.908 40.4055 66.0188 38.9097 65.9942C34.5438 65.9141 30.1779 65.8157 25.8121 65.6372C24.1703 65.5695 22.5346 65.2556 20.8929 65.0524C19.7132 64.9047 18.5275 64.7939 17.3479 64.6093C16.5027 64.4739 15.6635 64.2523 14.8244 64.0615C14.1556 63.9076 13.4806 63.7661 12.8178 63.5814C11.9544 63.3414 11.0788 63.1198 10.2457 62.7874C9.02353 62.295 7.80741 61.7657 6.64601 61.144C4.09216 59.7776 2.02476 57.8819 0.863365 55.1368C-0.0365634 53.0071 -0.182498 50.7298 0.164096 48.4894C0.759995 44.6548 3.0463 41.9958 6.31158 40.1001C8.08103 39.0722 9.96602 38.309 11.9118 37.7489C13.6144 37.2565 15.3656 36.8995 17.1168 36.5856C19.2268 36.204 21.355 35.8901 23.4832 35.6193C24.7966 35.4531 26.1282 35.41 27.4599 35.3669C30.6948 35.2623 33.9236 35.1946 37.1585 35.1084C37.1585 35.1515 37.1585 35.1946 37.1585 35.2315H37.1645ZM31.1812 55.106C31.3819 55.069 31.5035 55.0629 31.6129 55.026C32.6588 54.6628 33.7047 54.2997 34.7445 53.9181C36.1977 53.3887 37.6388 52.8286 39.0921 52.3055C40.5271 51.7884 41.9804 51.3145 43.4215 50.8036C43.8897 50.6374 44.3396 50.4343 44.7896 50.2312C45.0876 50.0958 45.1423 49.9235 44.9599 49.5911C44.3092 48.4093 43.1904 48.0831 42.0108 47.9723C40.4055 47.8246 38.7637 47.9539 37.1828 47.7015C35.4194 47.4184 33.8567 47.8308 32.2757 48.4647C31.5278 48.7663 30.7799 49.0618 30.0077 49.2895C29.1503 49.5419 28.9861 49.8619 29.3023 50.6744C29.6489 51.5484 29.9165 52.4532 30.2387 53.3333C30.4151 53.8196 30.6036 54.3058 30.8286 54.7798C30.8954 54.9275 31.0839 55.0198 31.1812 55.0998V55.106Z" fill="#3C199E"/>
<path d="M193.023 35.2315C195.814 35.2315 198.611 35.1577 201.402 35.2561C203.487 35.33 205.567 35.607 207.647 35.8162C208.923 35.9455 210.206 36.0809 211.477 36.2656C212.517 36.4133 213.545 36.6287 214.578 36.8257C215.351 36.9734 216.123 37.1273 216.883 37.3181C217.753 37.5396 218.628 37.7551 219.461 38.0874C220.744 38.5922 222.021 39.1153 223.237 39.7616C225.384 40.8941 227.22 42.4206 228.394 44.6056C229.111 45.9412 229.598 47.3692 229.604 48.9264C229.604 49.745 229.634 50.5636 229.604 51.3822C229.47 54.5274 228.017 57.0079 225.742 59.0452C224.149 60.4732 222.301 61.4887 220.312 62.2458C219.133 62.6951 217.965 63.1629 216.755 63.5137C215.6 63.8523 214.408 64.0492 213.229 64.3016C212.274 64.5047 211.319 64.7139 210.352 64.8678C209.161 65.0525 207.957 65.231 206.753 65.3294C204.284 65.5264 201.809 65.7357 199.328 65.8218C195.832 65.9449 192.33 66.0127 188.827 66.0003C186.468 65.988 184.102 65.8342 181.743 65.6618C180.095 65.5449 178.46 65.3048 176.818 65.1079C175.638 64.9663 174.459 64.8186 173.285 64.6339C172.495 64.5047 171.716 64.3077 170.932 64.1292C170.318 63.9877 169.698 63.8523 169.096 63.6676C167.673 63.2183 166.256 62.7567 164.851 62.2704C163.21 61.698 161.732 60.8055 160.346 59.7653C158.546 58.4051 157.238 56.6509 156.484 54.5151C156.223 53.7765 156.168 52.9641 156.022 52.1885C155.755 50.7729 155.87 49.3388 156.12 47.9539C156.436 46.212 157.208 44.6179 158.363 43.2453C160.005 41.3004 162.097 40.0263 164.383 39.0107C166.335 38.1428 168.372 37.552 170.427 37.0472C171.911 36.6841 173.437 36.4933 174.951 36.2533C176.356 36.0317 177.767 35.8532 179.171 35.6562C179.323 35.6378 179.475 35.6008 179.627 35.5947C184.084 35.41 188.547 35.2315 193.004 35.0469C193.004 35.1084 193.004 35.1761 193.004 35.2377L193.023 35.2315ZM190.901 47.6892C190.901 47.6523 190.901 47.6154 190.901 47.5784C190.536 47.6031 190.147 47.5477 189.818 47.6585C188.207 48.2001 186.614 48.791 185.021 49.3695C184.492 49.5604 184.34 49.9358 184.528 50.4774C184.984 51.7454 185.434 53.0195 185.866 54.2935C186.115 55.026 186.498 55.2229 187.161 54.9583C188.28 54.5213 189.405 54.1027 190.536 53.6965C191.667 53.2903 192.81 52.921 193.947 52.5209C195.516 51.967 197.078 51.413 198.641 50.8467C199.14 50.6621 199.626 50.4467 200.119 50.2374C200.429 50.102 200.478 49.942 200.295 49.6096C199.681 48.4955 198.617 48.1016 197.516 48.0031C195.321 47.8123 193.114 47.7877 190.907 47.6954L190.901 47.6892Z" fill="#3C199E"/>
<path d="M270.277 40.5921C281.799 40.5921 293.316 40.5921 304.839 40.5921C305.052 40.5921 305.264 40.5982 305.477 40.5921C305.842 40.5798 306.012 40.7583 305.994 41.1276C305.994 41.2445 305.994 41.3615 305.994 41.4784C305.994 49.0367 305.994 56.5951 305.994 64.1534C305.994 64.695 305.735 64.9659 305.216 64.9659C283.794 64.9659 262.372 64.9782 240.95 64.9474C239.339 64.9474 237.733 64.6396 236.383 63.6118C235.319 62.8055 234.699 61.7037 234.571 60.3681C234.468 59.2479 234.389 58.1215 234.389 56.9951C234.371 51.9111 234.383 46.8271 234.383 41.7431C234.383 40.9758 234.772 40.59 235.55 40.5859C247.128 40.5859 258.705 40.5859 270.283 40.5859L270.277 40.5921ZM270.593 56.6074C272.77 56.6074 274.947 56.6074 277.117 56.6074C277.348 56.6074 277.586 56.5951 277.804 56.5397C278.169 56.4474 278.291 56.2073 278.169 55.8319C277.804 54.6932 276.99 53.9854 275.956 53.536C274.059 52.7113 272.143 51.9173 270.234 51.1233C269.833 50.9571 269.407 50.7355 268.988 50.7232C267.236 50.6801 265.485 50.7109 263.734 50.6986C263.223 50.6986 263.01 50.9017 263.016 51.431C263.041 52.7913 263.022 54.1577 263.022 55.5179C263.022 56.5089 263.12 56.6074 264.123 56.6074C266.282 56.6074 268.434 56.6074 270.593 56.6074Z" fill="#3C199E"/>
<path d="M114.315 40.5918C125.911 40.5918 137.513 40.5918 149.109 40.5918C150.045 40.5918 150.045 40.5918 150.045 41.5212C150.045 49.0611 150.045 56.6009 150.045 64.1408C150.045 64.9656 150.045 64.9656 149.218 64.9656C127.833 64.9656 106.447 64.9717 85.0678 64.9471C83.5537 64.9471 82.0275 64.6701 80.7384 63.7838C79.0723 62.639 78.5554 60.9033 78.5554 58.9706C78.5494 53.148 78.5554 47.3192 78.5554 41.4966C78.5554 40.6164 78.5798 40.5918 79.4736 40.5918C91.0875 40.5918 102.708 40.5918 114.322 40.5918H114.315ZM115.234 56.6071C117.429 56.6071 119.618 56.6071 121.813 56.6071C122.044 56.6071 122.275 56.6071 122.5 56.5517C122.865 56.4655 122.986 56.2316 122.865 55.85C122.506 54.6806 121.679 53.9789 120.615 53.5234C119.034 52.8402 117.447 52.1755 115.854 51.5231C115.13 51.2276 114.401 50.7968 113.653 50.7475C111.889 50.6306 110.114 50.7168 108.344 50.7045C107.846 50.7045 107.669 50.9076 107.675 51.4061C107.694 52.7848 107.675 54.1697 107.681 55.5484C107.681 56.5702 107.724 56.6194 108.77 56.6194C110.922 56.6194 113.081 56.6194 115.234 56.6194V56.6071Z" fill="#3C199E"/>
</g>
<defs>
<clipPath id="clip0_61_654">
<rect width="306" height="66" fill="white"/>
</clipPath>
</defs>
</svg>
