<svg width="15" height="15" viewBox="0 0 15 15" fill="none" xmlns="http://www.w3.org/2000/svg">
<path fill-rule="evenodd" clip-rule="evenodd" d="M14.0679 7.83107C14.0679 11.4047 11.1709 14.3018 7.59718 14.3018C4.0235 14.3018 1.12646 11.4047 1.12646 7.83107C1.12646 4.25739 4.0235 1.36035 7.59718 1.36035C11.1709 1.36035 14.0679 4.25739 14.0679 7.83107ZM14.5679 7.83107C14.5679 11.6809 11.447 14.8018 7.59718 14.8018C3.74736 14.8018 0.626465 11.6809 0.626465 7.83107C0.626465 3.98125 3.74736 0.860352 7.59718 0.860352C11.447 0.860352 14.5679 3.98125 14.5679 7.83107ZM7.15059 10.3199L11.4196 6.05082L10.7125 5.34371L6.79706 9.25919L4.72272 7.18458L4.01556 7.89164L6.44347 10.3198L6.79702 10.6734L7.15059 10.3199Z" fill="#000699"/>
</svg>
